<?xml version="1.0" standalone="no"?>
<!DOCTYPE svg PUBLIC "-//W3C//DTD SVG 1.1//EN" "http://www.w3.org/Graphics/SVG/1.1/DTD/svg11.dtd" >
<svg xmlns="http://www.w3.org/2000/svg" xmlns:xlink="http://www.w3.org/1999/xlink" version="1.1">
<metadata>
Created by FontForge 20170731 at Tue Jan 19 18:30:07 2021
 By Aleksey,,,
Copyright (c) CastleType, 2002. All rights reserved.
</metadata>
<defs>
<font id="Shango-Regular" horiz-adv-x="450" >
  <font-face 
    font-family="Shango-Regular"
    font-weight="400"
    font-stretch="normal"
    units-per-em="2048"
    panose-1="2 0 5 3 8 0 0 2 0 4"
    ascent="1692"
    descent="-356"
    x-height="1442"
    cap-height="1442"
    bbox="-1065 -563 4518 1923"
    underline-thickness="40"
    underline-position="-409"
    unicode-range="U+0020-FB04"
  />
<missing-glyph horiz-adv-x="1236" 
d="M123 1239h991v-1239h-991v1239zM1053 61v1117h-869v-1117h869z" />
    <glyph glyph-name="ff" unicode="ff" horiz-adv-x="1658" 
d="M287 174q0 -84 24 -120q23 -34 68 -62l-53 4q-15 1 -51 3q-18 1 -50 1t-50 -1q-30 -2 -50 -3l-53 -4q22 12 38 26q17 14 29 35q14 24 19 49q6 28 6 72v1098q0 68 -13 104q-13 37 -55 66l45 -4q28 -2 43 -3t41 -1q73 0 120 1l141 3q68 1 127 3q38 1 75 1q19 0 31 -15
q14 -17 21 -33q12 -26 15 -40q5 -23 5 -33q-16 22 -27 32q-10 10 -34 17q-23 7 -56 8q-46 2 -96 2h-260v-569h268q51 0 84 9q28 8 53 22q25 16 35 32q-2 -20 -2 -30q-2 -20 -2 -30v-30v-30q0 -11 2 -33q1 -6 2.5 -18t1.5 -17q-11 11 -23 27q-9 12 -26 21q-20 11 -46 15
q-33 5 -81 5h-266v-580zM1116 174q0 -82 25 -120q23 -35 67 -62l-53 4q-20 1 -50 3q-18 1 -50 1t-50 -1q-36 -2 -51 -3l-53 -4q22 12 38 26q19 16 30 35q12 21 18 49t6 72v1098q0 68 -13 104q-14 38 -54 66l45 -4q28 -2 43 -3t41 -1q73 0 120 1l141 3q68 1 127 3q38 1 75 1
q18 0 30 -15q16 -20 22 -33q10 -22 14 -40q5 -23 5 -33q-18 25 -26 32q-10 10 -34 17q-23 7 -56 8q-46 2 -97 2h-260v-569h268q51 0 84 9q30 8 54 22q23 15 34 32q-2 -20 -2 -30q-2 -20 -2 -30v-30v-30q0 -11 2 -33l3 -18t2 -17q-15 15 -24 27t-26 21q-20 11 -46 15
q-33 5 -81 5h-266v-580z" />
    <glyph glyph-name="fi" unicode="fi" horiz-adv-x="1226" 
d="M748 1339q-27 13 -55 24q-22 8 -51 13q-27 5 -64 6q-50 2 -99 2h-192v-573h268q48 0 78 9q27 8 53 22q27 18 41 32q-2 -20 -2 -30v-60v-30q0 -11 2 -33q0 -13 2 -35q-11 11 -23 27q-9 12 -26 21q-20 11 -46 15q-33 5 -81 5h-266v-586q0 -40 2 -78q1 -26 8 -46
q6 -18 16 -28q4 -4 13.5 -12t13.5 -12q-4 0 -16.5 1.5t-20.5 2.5q-17 2 -39 3q-15 1 -45 1q-19 0 -33 -1q-7 -1 -20.5 -2t-20.5 -1q-6 0 -22.5 -1.5t-26.5 -2.5q13 8 24 19q9 9 21 31q11 21 17 49q6 30 6 77v1104q0 25 -2 55q-1 21 -11 40q-8 16 -27 35q-18 18 -46 40
q10 -1 28 -2.5t27 -1.5q23 -2 48 -3q17 -1 44 -1q74 0 122 1q24 1 72.5 1t72.5 1q23 0 66.5 0.5t63.5 1.5q39 1 76 1q22 0 30 -16q6 -13 13 -31l4 -17q3 -15 3 -16v-21zM1157 -10l-45 4q-7 0 -21 1.5t-22 2.5q-30 2 -41 2q-26 0 -40 -1l-42 -3q-7 0 -23 -1.5t-24 -2.5
q17 12 33 35q8 13 23 49q12 30 12 78v1161q0 39 -12 63q-14 27 -23 39q-16 18 -33 25l45 -4q28 -2 43 -3t41 -1t40 1q28 2 40 3q8 1 22 2.5t21 1.5q-18 -8 -31 -25q-12 -15 -21 -39t-9 -63v-1161q0 -48 10 -77q10 -30 22 -50q15 -23 35 -37z" />
    <glyph glyph-name="fl" unicode="fl" horiz-adv-x="1763" 
d="M748 1339q-27 13 -55 24q-22 8 -51 13q-27 5 -64 6q-50 2 -99 2h-192v-573h268q48 0 78 9q27 8 53 22q27 18 41 32q-2 -20 -2 -30v-60v-30q0 -11 2 -33q0 -13 2 -35q-11 11 -23 27q-9 12 -26 21q-20 11 -46 15q-33 5 -81 5h-266v-586q0 -40 2 -78q1 -26 8 -46
q6 -18 16 -28q4 -4 13.5 -12t13.5 -12q-4 0 -16.5 1.5t-20.5 2.5q-17 2 -39 3q-15 1 -45 1q-19 0 -33 -1q-7 -1 -20.5 -2t-20.5 -1q-6 0 -22.5 -1.5t-26.5 -2.5q13 8 24 19q9 9 21 31q11 21 17 49q6 30 6 77v1104q0 25 -2 55q-1 21 -11 40q-8 16 -27 35q-18 18 -46 40
q10 -1 28 -2.5t27 -1.5q23 -2 48 -3q17 -1 44 -1q74 0 122 1q24 1 72.5 1t72.5 1q23 0 66.5 0.5t63.5 1.5q39 1 76 1q22 0 30 -16q6 -13 13 -31l4 -17q3 -15 3 -16v-21zM1702 109q-3 -11 -12 -32q-2 -6 -8 -18l-9 -18q-17 -30 -29 -43q-13 -14 -44 -14q-39 0 -133 2
q-40 1 -146 5q-51 2 -151 6q-75 3 -142 3q-20 0 -36 -1t-46 -3q-9 0 -27 -1.5t-28 -2.5q30 25 33 28q14 14 23 32q11 23 15 42q5 27 5 60v1106q0 51 -13 88q-13 38 -26 57q-17 21 -39 37l49 -4l45 -3q15 -1 41 -1q27 0 44 1q26 1 48 3q8 0 27.5 1.5t30.5 2.5
q-26 -16 -43 -39q-17 -24 -29 -57q-12 -34 -12 -86v-1203q15 -2 43 -4.5t41 -3.5q26 -3 80 -5q29 -1 85 -1q47 0 76 1q58 2 87 5q44 5 84 12q38 7 69 25q16 10 28 22q22 22 29 31z" />
    <glyph glyph-name="f_f_i" unicode="ffi" horiz-adv-x="2109" 
d="M287 174q0 -84 24 -120q23 -34 68 -62l-53 4q-15 1 -51 3q-18 1 -50 1t-50 -1q-30 -2 -50 -3l-53 -4q22 12 38 26q17 14 29 35q14 24 19 49q6 28 6 72v1098q0 68 -13 104q-13 37 -55 66l45 -4q28 -2 43 -3t41 -1q73 0 120 1l141 3q68 1 127 3q38 1 75 1q19 0 31 -15
q14 -17 21 -33q12 -26 15 -40q5 -23 5 -33q-16 22 -27 32q-10 10 -34 17q-23 7 -56 8q-46 2 -96 2h-260v-569h268q51 0 84 9q28 8 53 22q25 16 35 32q-2 -20 -2 -30q-2 -20 -2 -30v-30v-30q0 -11 2 -33q1 -6 2.5 -18t1.5 -17q-11 11 -23 27q-9 12 -26 21q-20 11 -46 15
q-33 5 -81 5h-266v-580zM1116 174q0 -82 25 -120q23 -35 67 -62l-53 4q-20 1 -50 3q-18 1 -50 1t-50 -1q-36 -2 -51 -3l-53 -4q22 12 38 26q19 16 30 35q12 21 18 49t6 72v1098q0 68 -13 104q-14 38 -54 66l45 -4q28 -2 43 -3t41 -1q73 0 120 1l141 3q68 1 127 3q38 1 75 1
q18 0 30 -15q16 -20 22 -33q10 -22 14 -40q5 -23 5 -33q-18 25 -26 32q-10 10 -34 17q-23 7 -56 8q-46 2 -97 2h-260v-569h268q51 0 84 9q30 8 54 22q23 15 34 32q-2 -20 -2 -30q-2 -20 -2 -30v-30v-30q0 -11 2 -33l3 -18t2 -17q-15 15 -24 27t-26 21q-20 11 -46 15
q-33 5 -81 5h-266v-580zM2038 -8l-53 4q-15 1 -51 3q-18 1 -50 1t-50 -1q-30 -2 -50 -3l-53 -4q18 11 37 26q19 16 30 35q14 24 19 49q6 28 6 72v1100q0 75 -17 111q-16 35 -51 57l45 -4q28 -2 43 -3t41 -1t40 1l42 3q7 0 23 1.5t24 2.5q-32 -16 -50 -53q-17 -35 -17 -115
v-1100q0 -84 24 -120q23 -34 68 -62z" />
    <glyph glyph-name="f_f_l" unicode="ffl" horiz-adv-x="2619" 
d="M287 174q0 -84 24 -120q23 -34 68 -62l-53 4q-15 1 -51 3q-18 1 -50 1t-50 -1q-30 -2 -50 -3l-53 -4q22 12 38 26q17 14 29 35q14 24 19 49q6 28 6 72v1098q0 68 -13 104q-13 37 -55 66l45 -4q28 -2 43 -3t41 -1q73 0 120 1l141 3q68 1 127 3q38 1 75 1q19 0 31 -15
q14 -17 21 -33q12 -26 15 -40q5 -23 5 -33q-16 22 -27 32q-10 10 -34 17q-23 7 -56 8q-46 2 -96 2h-260v-569h268q51 0 84 9q28 8 53 22q25 16 35 32q-2 -20 -2 -30q-2 -20 -2 -30v-30v-30q0 -11 2 -33q1 -6 2.5 -18t1.5 -17q-11 11 -23 27q-9 12 -26 21q-20 11 -46 15
q-33 5 -81 5h-266v-580zM1116 174q0 -82 25 -120q23 -35 67 -62l-53 4q-20 1 -50 3q-18 1 -50 1t-50 -1q-36 -2 -51 -3l-53 -4q22 12 38 26q19 16 30 35q12 21 18 49t6 72v1098q0 68 -13 104q-14 38 -54 66l45 -4q28 -2 43 -3t41 -1q73 0 120 1l141 3q68 1 127 3q38 1 75 1
q18 0 30 -15q16 -20 22 -33q10 -22 14 -40q5 -23 5 -33q-18 25 -26 32q-10 10 -34 17q-23 7 -56 8q-46 2 -97 2h-260v-569h268q51 0 84 9q30 8 54 22q23 15 34 32q-2 -20 -2 -30q-2 -20 -2 -30v-30v-30q0 -11 2 -33l3 -18t2 -17q-15 15 -24 27t-26 21q-20 11 -46 15
q-33 5 -81 5h-266v-580zM2558 109q-3 -11 -12 -32q-12 -24 -17 -36q-17 -30 -29 -43q-13 -14 -44 -14q-39 0 -133 2q-40 1 -146 5q-51 2 -151 6q-75 3 -142 3q-21 0 -38 -1q-34 -2 -52 -3q-9 0 -30 -1.5t-33 -2.5q41 28 66 63q26 35 26 99v1106q0 77 -15 119q-15 43 -57 63
q8 -1 24 -2.5t23 -1.5l42 -3q14 -1 40 -1t41 1t43 3q6 0 22.5 1.5t26.5 2.5q-37 -16 -52 -61q-15 -43 -15 -121v-1203q15 -2 43 -4.5t41 -3.5q26 -3 80 -5q29 -1 85 -1q47 0 76 1q58 2 87 5q44 5 84 12q38 7 69 25q19 12 29 22q17 17 28 31z" />
    <glyph glyph-name=".notdef" horiz-adv-x="1236" 
d="M123 1239h991v-1239h-991v1239zM1053 61v1117h-869v-1117h869z" />
    <glyph glyph-name=".null" horiz-adv-x="0" 
 />
    <glyph glyph-name="nonmarkingreturn" horiz-adv-x="682" 
 />
    <glyph glyph-name="space" unicode=" " horiz-adv-x="512" 
 />
    <glyph glyph-name="exclam" unicode="!" horiz-adv-x="530" 
d="M408 1442q-16 -6 -35 -21q-15 -10 -25 -28t-12 -47l-62 -1020h-12l-69 1020q-5 28 -15 48q-10 18 -22 29q-17 14 -33 19q8 -1 24 -2.5t23 -1.5q21 -2 45 -3q16 -1 51 -1q31 0 48 1q23 1 46 3q7 0 23.5 1.5t24.5 2.5zM362 76q0 -41 -28 -68q-27 -26 -68 -26q-42 0 -68 26
q-28 28 -28 68q0 37 28 67q27 29 68 29q39 0 68 -29q28 -28 28 -67z" />
    <glyph glyph-name="quotedbl" unicode="&#x22;" horiz-adv-x="677" 
d="M588 1362v-19q0 -6 -2 -22l-68 -457h-31l-65 457q-1 7 -3 19q-1 6 -1 20q0 52 22 77t64 25q84 0 84 -100zM260 1362q0 -12 -1 -19q-2 -14 -3 -22l-66 -457h-32l-64 457q0 4 -1 10t-2 10q-1 7 -1 21q0 100 84 100q42 0 64 -25t22 -75z" />
    <glyph glyph-name="numbersign" unicode="#" horiz-adv-x="1091" 
d="M457 987h266l68 455h86l-66 -455h219v-108h-235l-45 -314h219v-108h-234l-65 -457h-88l65 457h-270l-68 -457h-88l68 457h-228v108h244l47 314h-229v108h246l69 455h88zM393 565h271l45 314h-269z" />
    <glyph glyph-name="dollar" unicode="$" horiz-adv-x="851" 
d="M791 375q0 -69 -26 -136t-71 -121q-47 -56 -107 -89q-65 -36 -136 -43v-125h-52v123q-73 2 -131 16q-65 16 -112 23l-24 4q-12 2 -15 2q-9 0 -17 -6q-10 10 -14 20q-4 9 -10 47q-5 23 -6 52q-1 11 -2.5 30t-1.5 27l-5 61q6 -28 21 -57q12 -25 32 -52q22 -31 50 -53
q60 -47 115 -60q56 -14 120 -15v675q-38 26 -112 80q-56 41 -100 88q-41 44 -70 103q-27 55 -27 125q0 64 22 130q20 61 61 111q42 51 97 80q59 31 129 37v123h52v-121q64 -1 118 -17q51 -14 119 -42q14 -6 20 -9q5 -3 25 -8q-1 -6 -2.5 -15.5t-1.5 -14.5q-2 -16 -2 -28v-28
q0 -19 -1 -30t-1 -33v-37q-6 17 -14 37q-1 3 -14 34q-7 18 -13 29q-38 60 -102 91q-68 32 -131 38v-604q24 -18 69 -53t52 -41q58 -45 110 -100q47 -50 79 -114q30 -60 30 -134zM399 1423q-52 -5 -93 -25q-40 -20 -70 -56q-31 -38 -46 -77q-16 -42 -16 -89q0 -96 67 -174
q66 -77 158 -146v567zM700 287q0 69 -20 120q-22 55 -55 99q-34 44 -80 84q-50 43 -94 74v-639q45 7 85 26q45 22 80 54q38 35 61 80t23 102z" />
    <glyph glyph-name="percent" unicode="%" horiz-adv-x="1703" 
d="M1628 330q0 -74 -27 -139q-26 -61 -76 -110q-46 -45 -112 -73q-61 -26 -133 -26q-69 0 -129 24q-57 23 -102 68q-43 43 -67 100t-24 123q0 76 26 142q26 65 72 111q48 48 109 71q63 24 138 24q68 0 127 -22q57 -22 103 -64q45 -42 70 -99t25 -130zM504 -55h-86l772 1525
h86zM745 1096q0 -74 -27 -139q-26 -61 -76 -110q-46 -45 -112 -73q-61 -26 -133 -26q-71 0 -130 24q-56 23 -101 68q-43 43 -67 100q-23 55 -23 123q0 79 25 142q25 65 72 111q45 45 110 70q66 25 137 25q68 0 127 -22q57 -22 103 -64q45 -42 70 -99t25 -130zM1493 319
q0 132 -52 208q-53 77 -138 77q-46 0 -84 -22q-41 -23 -67 -63q-28 -43 -44 -95q-16 -54 -16 -119q0 -124 52 -201t138 -77q46 0 84 22q41 23 67 63q28 42 44 93t16 114zM610 1087q0 131 -52 207t-138 76q-46 0 -84 -22q-41 -23 -67 -63q-28 -43 -44 -95q-16 -54 -16 -119
q0 -124 52 -201t138 -77q46 0 84 22q41 23 67 63q28 42 44 94t16 115z" />
    <glyph glyph-name="ampersand" unicode="&#x26;" horiz-adv-x="1728" 
d="M61 334q0 63 22 121q21 55 65 105t113 98q77 54 163 100q-45 38 -100 89q-48 44 -76 87q-30 44 -48 98q-18 52 -18 121q0 66 27 120t73 94q47 41 106 63t130 22q155 0 244 -85q90 -85 90 -222q0 -54 -13 -99q-14 -48 -46 -90q-34 -44 -88 -87q-54 -42 -140 -93l488 -416
q54 81 97 178q39 88 64 171q24 79 36 140q12 60 12 85q0 29 -1 42q-1 16 -10 39q-8 20 -25 43q-20 27 -50 54q41 -5 80 -6q54 -2 81 -2h50q29 0 43 1q7 1 21.5 1.5t21.5 0.5q33 2 51 5q-24 -15 -44 -28q-19 -13 -31 -26q-13 -14 -27 -38q-13 -22 -31 -59q-37 -113 -88 -242
q-35 -87 -94 -210q-54 -112 -107 -187q265 -212 456 -305q188 -91 310 -91q43 0 80 8q-14 -11 -35 -23q-18 -10 -38 -14q-33 -7 -49 -8q-36 -2 -71 -2q-83 0 -172 27q-84 25 -179 74q-88 45 -182 111q-89 63 -184 139q-66 -70 -99 -101q-51 -48 -113 -82q-63 -34 -141 -55
q-76 -20 -183 -20q-100 0 -183 27q-80 26 -139 76q-58 49 -88 113q-31 67 -31 138zM539 47q103 0 225 51q118 50 225 181q-5 4 -17.5 13.5t-18.5 14.5q-8 6 -73 62q-98 84 -150 128q-78 66 -263 226q-119 -72 -197 -155q-77 -81 -77 -187q0 -73 24 -135t70 -106t108 -68
q66 -25 144 -25zM524 1397q-48 0 -87 -22q-36 -20 -64 -56q-26 -33 -40 -79q-14 -45 -14 -91q0 -52 16 -100q15 -45 41 -83q29 -43 62 -73q52 -48 80 -72q111 60 160 136t49 169q0 126 -50 199q-49 72 -153 72z" />
    <glyph glyph-name="quotesingle" unicode="'" horiz-adv-x="348" 
d="M260 1362q0 -12 -1 -19q-2 -14 -3 -22l-66 -457h-32l-66 457q-2 14 -2 19v20q0 102 84 102q42 0 64 -25t22 -75z" />
    <glyph glyph-name="parenleft" unicode="(" horiz-adv-x="507" 
d="M414 -328q-77 105 -144 224q-63 111 -111 245q-47 129 -72 273q-26 147 -26 303t26 303q25 142 72 272q50 137 111 245q67 118 144 224l32 -22q-142 -198 -201 -463t-59 -559q0 -291 59 -556q60 -267 201 -466z" />
    <glyph glyph-name="parenright" unicode=")" horiz-adv-x="507" 
d="M61 -305q143 201 202 466t59 556q0 294 -59 559q-59 263 -202 463l33 22q77 -106 144 -224q61 -108 111 -245q47 -130 72 -272q25 -141 25 -303t-25 -303q-25 -144 -72 -273q-48 -134 -111 -245q-67 -119 -144 -224z" />
    <glyph glyph-name="asterisk" unicode="*" horiz-adv-x="724" 
d="M643 1292q0 -27 -16 -40q-14 -12 -45 -23l-197 -70l215 -82q41 -17 41 -49q0 -24 -15 -38q-14 -13 -36 -13q-28 0 -49 20l-168 144l35 -236q0 -5 1 -6t1 -6q0 -24 -15 -39q-14 -14 -37 -14q-20 0 -34 13q-15 13 -15 34v11q0 5 2 13l39 228l-182 -148q-20 -16 -39 -16
q-21 0 -34 15q-13 14 -13 38q0 27 16 39q18 13 45 23l199 69l-217 82q-41 17 -41 49q0 24 16 39q15 14 39 14t45 -20l170 -143l-37 235v12q0 25 15 38q16 14 35 14q18 0 34 -14q15 -13 15 -33q0 -15 -2 -25l-37 -227l180 147q20 16 39 16q21 0 34 -14t13 -37z" />
    <glyph glyph-name="plus" unicode="+" horiz-adv-x="1013" 
d="M557 762h375v-96h-375v-377h-100v377h-375v96h375v377h100v-377z" />
    <glyph glyph-name="comma" unicode="," horiz-adv-x="440" 
d="M205 193q55 0 84 -41q28 -40 28 -95q0 -33 -9 -70q-9 -36 -35 -78t-70 -81q-45 -40 -117 -78l-8 10q32 30 69 73q24 28 41 57q16 27 20 50q5 27 5 48q0 26 -14 37t-31 22q-11 7 -31 23q-14 11 -14 39q0 36 23 59q25 25 59 25z" />
    <glyph glyph-name="hyphen" unicode="-" horiz-adv-x="649" 
d="M82 678v86h485v-86h-485z" />
    <glyph glyph-name="period" unicode="." horiz-adv-x="436" 
d="M313 84q0 -41 -28 -68q-27 -26 -66 -26q-42 0 -68 26q-28 28 -28 68q0 36 28 66q27 28 68 28q38 0 66 -28t28 -66z" />
    <glyph glyph-name="slash" unicode="/" horiz-adv-x="724" 
d="M94 -102h-69l608 1638h67z" />
    <glyph glyph-name="zero" unicode="0" horiz-adv-x="1189" 
d="M1108 774q0 -190 -48 -342q-48 -151 -122 -257q-73 -105 -160 -161q-85 -55 -162 -55q-112 0 -209 52q-98 53 -170 150q-75 102 -114 233q-41 138 -41 302q0 182 49 325q50 145 126 245q75 99 170 154t179 55q100 0 192 -53t160 -146q70 -96 110 -222t40 -280zM985 684
q0 159 -31 302q-30 136 -82 238q-51 98 -117 154q-67 56 -139 56q-84 0 -160 -41q-74 -40 -130 -123q-56 -82 -87 -204q-32 -123 -32 -284q0 -180 30 -324t84 -246q54 -103 130 -156q77 -54 167 -54q72 0 139 53q65 52 116 147q52 99 81 217q31 129 31 265z" />
    <glyph glyph-name="one" unicode="1" horiz-adv-x="661" 
d="M498 -10l-49 4q-7 0 -23 1.5t-24 2.5q-32 2 -42 2q-25 0 -39 -1l-42 -3q-7 0 -23.5 -1.5t-24.5 -2.5q18 16 33 39q13 23 24 50q11 28 11 73v1112l-174 -195l-21 25l306 362h12v-1304q0 -50 11 -79q13 -35 26 -50q17 -23 39 -35z" />
    <glyph glyph-name="two" unicode="2" horiz-adv-x="937" 
d="M866 199q-10 -22 -18 -47q-3 -10 -19 -43q-9 -18 -18 -41q-26 -46 -28 -48q-13 -19 -35 -40q-52 16 -81 18q-36 2 -65 2h-440q-30 0 -56 -1q-52 -2 -79 -5v12q145 167 259 308q107 133 202 281q87 136 133 256q47 123 47 236q0 65 -15 128t-45 111q-29 46 -78 78
q-46 30 -110 30q-52 0 -97 -20t-78 -53q-36 -36 -59 -78q-24 -43 -39 -93q-1 9 -3.5 29t-4.5 30q-5 24 -6 48q-2 32 -2 38v49q0 9 2 25q22 7 37 16q14 8 47 22q27 11 75 19q56 9 120 9q170 0 276 -100q105 -99 105 -279q0 -101 -48 -220q-47 -117 -129 -242
q-87 -132 -191 -261q-108 -133 -235 -277h377q72 0 129 9q55 9 113 40q22 12 35 28q16 20 22 26z" />
    <glyph glyph-name="three" unicode="3" horiz-adv-x="882" 
d="M801 418q0 -98 -38 -182q-38 -83 -99 -140q-62 -57 -139 -89q-78 -32 -154 -32q-44 0 -98 2q-18 1 -72 8q-31 4 -65 14q-32 9 -75 24q0 1 -0.5 4t-1 8.5t-0.5 10.5t-1.5 20t-2.5 24l-3 48q-1 16 -1 38v43q0 7 2 21q12 -26 37 -79q18 -38 51 -68t83 -48t130 -18
q79 0 137 34q57 34 97 86q38 49 58 112q20 62 20 114q0 75 -34 137q-36 66 -88 112q-52 47 -122 76q-68 28 -135 33v21q56 22 117 60q57 35 105 83q46 46 75 104q28 56 28 127q0 119 -63 191t-158 72q-47 0 -94 -15t-87 -39q-41 -24 -68 -59q-28 -35 -38 -78q-2 22 -2 35v63
v21q0 6 2 20l5 25q62 55 138 76q71 20 152 20q55 0 109 -17q55 -17 106 -56q50 -38 81 -97q32 -61 32 -145q0 -70 -26 -124q-25 -52 -64 -92q-40 -42 -87 -71q-27 -17 -91 -61q64 0 126 -37q64 -38 109 -93q48 -58 77 -123q30 -66 30 -124z" />
    <glyph glyph-name="four" unicode="4" horiz-adv-x="1132" 
d="M1081 541q-1 -12 -8 -31q-6 -20 -11 -32l-15 -36q-16 -28 -40 -43q-22 -14 -63 -14h-86v-223q0 -50 11 -83q13 -40 26 -59q15 -25 39 -47l-49 4q-7 0 -22.5 2t-23.5 3q-32 2 -42 2q-26 0 -40 -1l-42 -3q-7 0 -23 -2l-24 -3q14 17 32 52q13 25 24 58q11 32 11 77v223h-674
v16l787 1086h10v-1045q63 0 98 8t70 33q20 15 34 32q20 25 21 26zM735 1217l-559 -775h559v775z" />
    <glyph glyph-name="five" unicode="5" horiz-adv-x="999" 
d="M918 575q0 -126 -44 -238q-45 -115 -116 -196q-73 -83 -171 -133q-97 -49 -208 -49q-57 0 -99 5q-35 4 -69 11q-24 5 -59 14q-21 6 -70 11q-2 14 -6 25q-5 11 -6 21q-1 4 -2.5 11.5t-1.5 10.5q-4 22 -9 51q-4 28 -6 53q-4 25 -4 59q16 -35 31 -61q15 -24 33 -51
q18 -28 38 -43q52 -43 105 -60q49 -16 121 -16q85 0 161 44q73 43 130 116q55 72 87 164q31 90 31 190q0 71 -22 134q-23 66 -66 115q-45 51 -104 80t-137 29q-84 0 -148 -32q-63 -31 -137 -84l-14 8q16 73 25 147q7 59 20 131l22 136q16 100 17 107q3 23 9.5 75.5t8.5 71.5
h346h129q13 0 31 9q24 12 35 19q20 11 39 29q-2 -8 -5 -17t-6.5 -19t-5.5 -15q-3 -9 -14 -41q-6 -17 -14 -31q-16 -21 -41 -34q-22 -11 -47 -11h-404l-80 -467q18 10 60 32q30 16 58 27q34 14 61 20q29 7 71 7q90 0 171 -27q83 -28 142 -75q62 -50 98 -116t36 -147z" />
    <glyph glyph-name="six" unicode="6" horiz-adv-x="1013" 
d="M932 516q0 -134 -34 -236q-36 -107 -92 -175q-59 -71 -136 -108q-79 -38 -164 -38q-93 0 -172 41q-75 39 -134 115q-57 73 -87 177q-31 107 -31 228q0 233 99 425q98 190 280 331q69 54 144 86q79 34 147 57q93 28 159 43l7 -22q-40 -11 -87 -29q-16 -6 -50.5 -21
t-46.5 -20q-53 -22 -124 -65q-102 -60 -179 -152q-74 -89 -124 -198q-48 -105 -71 -229t-23 -251q0 -91 24 -176q25 -90 64 -153q41 -67 96 -107q56 -41 121 -41q54 0 108 28q51 26 93 85q41 57 66 145q26 90 26 209q0 90 -21 165q-21 74 -62 129q-42 56 -94 85
q-54 30 -118 30q-50 0 -82 -11q-48 -17 -82 -32l-6 15q5 3 15 7.5t17.5 8t13.5 7.5q18 10 46 19q16 5 56 11q27 4 73 4q56 0 122 -29t118 -78q53 -50 89 -122t36 -158z" />
    <glyph glyph-name="seven" unicode="7" horiz-adv-x="1024" 
d="M186 -182h-110l801 1509h-566q-43 0 -91 -2q-33 -1 -62 -11q-25 -8 -48 -28q-24 -21 -49 -51q6 43 8 70q3 39 13 67q11 31 31 50q22 20 61 20h43q41 0 66 -1q13 -1 39 -1.5t40 -0.5q29 -1 87 -1q27 0 101.5 -1.5t119.5 -2.5q105 0 156 1q87 2 161 7l6 -15z" />
    <glyph glyph-name="eight" unicode="8" horiz-adv-x="972" 
d="M891 348q0 -84 -28 -157q-25 -66 -78 -122q-49 -52 -119 -81t-152 -29q-91 0 -172 26q-82 26 -137 74q-57 49 -90 120t-33 163q0 66 29 129q31 66 74 115q48 54 102 98q59 48 108 80q-111 77 -162 172q-51 96 -51 186q0 68 21 131q22 65 61 113q40 48 104 79
q63 30 146 30q64 0 121 -27q56 -27 100 -72q43 -45 69 -105q25 -59 25 -130q0 -105 -74 -183q-75 -80 -192 -153q56 -38 119 -93q55 -48 105 -111q46 -58 75 -122t29 -131zM735 1198q0 42 -16 83q-17 42 -46 76t-72 55q-44 22 -91 22q-62 0 -108 -24q-48 -25 -76 -60
q-32 -40 -46 -80q-16 -46 -16 -82q0 -41 23 -92t58 -96q33 -43 80 -88q42 -41 89 -72q109 84 166 173q55 86 55 185zM766 301q0 64 -32 128q-30 60 -80 118q-46 53 -103 101q-58 49 -102 77q-51 -40 -93 -88q-41 -46 -74 -105q-35 -61 -52 -117q-19 -61 -19 -130
q0 -63 19 -113q20 -51 57 -90q38 -39 91 -60q57 -22 124 -22q49 0 99 22q47 21 85 60q37 39 58 95q22 60 22 124z" />
    <glyph glyph-name="nine" unicode="9" horiz-adv-x="1003" 
d="M922 915q0 -231 -97 -425q-95 -190 -276 -330q-68 -53 -145 -86q-90 -39 -148 -58q-80 -26 -164 -43l-6 23q26 5 86 27q35 14 97 42q55 25 124 66q208 124 300 337q91 210 91 493q0 95 -21 180q-21 84 -62 150t-94 104q-54 39 -118 39q-70 0 -125 -35q-56 -36 -94 -96
t-58 -147q-19 -83 -19 -185q0 -94 22 -167q23 -77 61 -128q40 -53 94 -82q55 -29 119 -29q23 0 49 2q12 1 36 7q12 3 36 13q4 2 19 7.5t24 9.5l9 -10q-55 -33 -101 -45q-45 -12 -108 -12q-70 0 -135 28q-63 27 -118 79q-51 48 -85 122q-33 72 -33 158q0 135 38 240t97 173
q61 70 133 104t148 34q93 0 172 -41q75 -39 134 -115q57 -73 87 -176q31 -105 31 -228z" />
    <glyph glyph-name="colon" unicode=":" horiz-adv-x="436" 
d="M313 717q0 -41 -28 -68q-27 -26 -66 -26q-42 0 -68 26q-28 28 -28 68q0 35 28 65q27 29 68 29q37 0 66 -29q28 -28 28 -65zM313 84q0 -41 -28 -68q-27 -26 -66 -26q-42 0 -68 26q-28 28 -28 68q0 36 28 66q27 28 68 28q38 0 66 -28t28 -66z" />
    <glyph glyph-name="semicolon" unicode=";" horiz-adv-x="440" 
d="M205 193q55 0 84 -41q28 -40 28 -95q0 -33 -9 -70q-9 -36 -35 -78t-70 -81q-45 -40 -117 -78l-8 10q32 30 69 73q24 28 41 57q16 27 20 50q5 27 5 48q0 26 -14 37t-31 22q-11 7 -31 23q-14 11 -14 39q0 36 23 59q25 25 59 25zM313 717q0 -41 -28 -68q-27 -26 -66 -26
q-42 0 -68 26q-28 28 -28 68q0 35 28 65q27 29 68 29q37 0 66 -29q28 -28 28 -65z" />
    <glyph glyph-name="less" unicode="&#x3c;" horiz-adv-x="1013" 
d="M82 666v102l850 348v-108l-733 -291l733 -293v-109z" />
    <glyph glyph-name="equal" unicode="=" horiz-adv-x="1013" 
d="M82 846v96h850v-96h-850zM82 504v96h850v-96h-850z" />
    <glyph glyph-name="greater" unicode="&#x3e;" horiz-adv-x="1013" 
d="M82 315v109l733 293l-733 291v108l850 -348v-102z" />
    <glyph glyph-name="question" unicode="?" horiz-adv-x="933" 
d="M811 1157q0 -67 -15 -117q-14 -48 -44 -85q-27 -34 -69 -62q-43 -29 -89 -51q-39 -18 -98 -45q-50 -23 -84 -43q-38 -22 -69 -62q-30 -39 -30 -84q0 -43 10 -81q9 -35 23 -60q16 -28 32 -46q6 -7 17.5 -19.5t16.5 -18.5q-80 48 -128 119q-46 68 -46 129q0 47 18 84
q16 33 49 68q30 31 72 61q38 27 88 59q31 21 87 55q43 27 84 64q36 33 63 79q26 44 26 101q0 64 -23 108t-60 71q-39 28 -89 40q-55 13 -107 13q-38 0 -92 -9q-44 -7 -83 -26q-37 -18 -63 -45q-27 -28 -34 -64v-2q-1 -3 -1.5 -7t-0.5 -9l-5 -40q-4 -32 -7 -49
q-1 -4 -3.5 -21t-4.5 -25q-6 19 -7 42q-1 18 -5 56q-4 41 -5 52q-2 32 -2 34l-10 96q37 5 57 10q14 3 39 11q46 13 115 26q60 11 117 11q95 0 164 -24t112 -67t64 -101q20 -56 20 -126zM516 76q0 -41 -29 -68q-27 -26 -67 -26q-43 0 -69 26q-27 27 -27 68q0 38 27 67t69 29
q38 0 67 -29t29 -67z" />
    <glyph glyph-name="at" unicode="@" horiz-adv-x="1724" 
d="M1602 909q0 -99 -37 -197q-39 -102 -103 -181q-67 -83 -156 -132q-92 -51 -200 -51q-50 0 -78 21q-30 22 -44 54q-16 36 -20 75q-6 54 -6 84v29l3 30q-81 -127 -176 -208q-92 -79 -177 -79q-40 0 -71 54t-31 129q0 129 38 235q38 105 99 177q64 75 138 111q78 38 157 38
q44 0 81 -9q35 -8 50 -16q23 48 55 90l68 -26q-35 -51 -56 -114q-23 -72 -34 -133q-14 -83 -18 -139q-5 -78 -5 -135q0 -29 5 -71q4 -34 16 -68q11 -32 28 -50q18 -19 46 -19q46 0 104 39q60 41 111 108t87 158q35 88 35 192q0 108 -32 195q-32 88 -100 157q-66 68 -167 107
q-100 39 -235 39q-138 0 -272 -63q-133 -63 -238 -171q-104 -107 -168 -256q-63 -147 -63 -317q0 -136 43 -243q44 -109 117 -182q74 -74 177 -115q101 -40 224 -40q158 0 288 49q129 49 226 125l16 -22q-40 -42 -95 -77q-61 -39 -132 -68q-83 -34 -161 -50
q-87 -18 -183 -18q-128 0 -244 38q-114 37 -202 115t-137 194q-50 120 -50 278q0 171 70 331q70 159 187 278q118 119 273 191q156 72 330 72q154 0 272 -41q117 -40 194 -113q78 -73 115 -171q38 -100 38 -218zM1038 1008q-23 26 -56 32q-37 7 -60 7q-78 0 -133 -50
q-54 -49 -88 -121q-32 -68 -50 -154q-16 -79 -16 -142q0 -19 3 -40q3 -23 9 -40q6 -18 14 -31q7 -12 21 -12q24 0 63 27q36 25 80 69q43 43 80 90q43 55 64 90q10 69 11 75q3 25 13 64q5 20 19 64q14 43 26 72z" />
    <glyph glyph-name="A" unicode="A" horiz-adv-x="1650" 
d="M1630 -8q-11 0 -33 1.5t-34 2.5q-24 1 -64 3q-23 1 -67 1q-32 0 -50 -1q-24 -1 -49 -3l-53 -4q12 8 20 20q12 17 16 24q7 13 7 30q0 29 -4 49q-4 22 -21 61l-94 209h-827l-98 -209q-10 -22 -18 -50q-7 -25 -7 -50q0 -11 8 -27q5 -10 19 -26q12 -17 26 -31q-10 1 -27 2.5
t-24 1.5q-30 2 -46 3t-44 1q-33 0 -50 -1q-26 -1 -48 -3q-8 -1 -24.5 -2.5t-23.5 -1.5q40 24 56 36q29 22 44 38q19 20 37 46q15 22 33 62l631 1311l625 -1311q18 -37 34 -60q17 -24 39 -46q21 -21 48 -39q36 -24 63 -37zM795 1276l-392 -832h775z" />
    <glyph glyph-name="B" unicode="B" horiz-adv-x="1011" 
d="M930 412q0 -132 -46 -214q-47 -84 -111 -130q-66 -47 -136 -65q-68 -17 -123 -17q-104 0 -175 7t-124 7q-35 0 -62 -1q-45 -2 -81 -7q22 12 38 26q16 13 29 36t19 56q6 34 6 83v1046q0 51 -1 71q-2 31 -7 53q-6 24 -21 42q-17 21 -39 37q10 -1 27 -2.5t24 -1.5t22.5 -1
t23.5 -2q15 -1 38 -1q48 0 97 7t135 7q63 0 129 -15q64 -15 118 -53q53 -38 85 -99t32 -159q0 -71 -23 -126q-23 -54 -62 -98t-84 -70q-50 -29 -91 -40q67 -7 135 -35q64 -26 116 -75q51 -48 81 -114q31 -68 31 -152zM707 1124q0 72 -25 128q-23 53 -65 88q-41 35 -92 51
t-107 16q-48 0 -73 -6q-16 -4 -58 -19v-577q17 -5 59 -6q58 -2 92 -2q130 0 199 90q70 91 70 237zM801 389q0 178 -95 276q-94 97 -268 97q-58 0 -79 -1q-36 -2 -72 -7v-705q1 0 20.5 -6.5t30.5 -9.5q27 -7 51 -11q38 -6 60 -6q36 0 96 12q59 12 115 50q57 39 99 112
q42 74 42 199z" />
    <glyph glyph-name="C" unicode="C" horiz-adv-x="1497" 
d="M1395 238l-4 -45q0 -5 -2 -18.5t-3 -20.5q-1 -20 -6 -35q-12 -47 -13 -50q-5 -22 -15 -44q-14 -6 -24 -7q-12 -1 -25 -8q-11 -6 -46 -14q-48 -10 -86 -16q-80 -12 -114 -15q-63 -6 -131 -6q-232 0 -395 64q-162 64 -260 166q-98 103 -144 238q-45 133 -45 275
q0 199 69 346q68 144 177 240q106 93 242 140q135 47 264 47q128 0 241 -24q121 -26 178 -44q21 -6 59 -14q21 -5 27 -9v-36q0 -22 1 -32t1 -28q0 -31 -6 -61q-3 -14 -10 -62q-8 35 -20 66q-11 27 -27 54q-17 27 -41 44q-52 36 -155 70q-107 35 -238 35q-144 0 -260 -46
t-199 -132q-82 -85 -127 -203q-45 -119 -45 -265q0 -149 44 -293q43 -141 133 -252q89 -110 225 -176q139 -67 321 -67q107 0 175 17q76 19 122 44q47 26 81 58q30 28 52 57q1 2 10 17q6 10 10 20q8 14 9 25z" />
    <glyph glyph-name="D" unicode="D" horiz-adv-x="1449" 
d="M1368 702q0 -153 -47 -288q-46 -131 -139 -232q-88 -96 -231 -153q-139 -56 -318 -56q-79 0 -139 4q-20 1 -41.5 3t-45.5 4l-36 3q-57 5 -95 9q-35 4 -53 4q-37 0 -55 -1q-24 -1 -49 -3q-8 -1 -24 -2.5t-23 -1.5q24 16 42 30q16 12 28 35q13 24 17 60q5 42 5 98v1057
q0 66 -10 99q-10 32 -58 71q3 0 15 -1.5l20 -2.5q18 -2 40 -3q16 -1 52 -1q26 0 65 4q17 2 53.5 4.5t44.5 3.5q20 2 59 4.5t56 3.5q53 4 115 4q80 0 167 -15q90 -15 170 -49q84 -35 159 -91q72 -54 132 -142q55 -81 90 -197q34 -112 34 -262zM1245 647q0 176 -47 322
q-46 142 -129 243q-84 102 -193 155q-111 54 -239 54q-151 0 -232 -13q-83 -13 -118 -24v-1335q48 -13 98 -20q69 -11 107 -14q67 -5 126 -5q98 0 211 23q112 23 203 90q94 69 153 192q60 124 60 332z" />
    <glyph glyph-name="E" unicode="E" horiz-adv-x="942" 
d="M891 121q-6 -28 -10 -44q-5 -20 -17 -44q-11 -22 -26 -34q-16 -13 -39 -13q-43 0 -161 2q-63 1 -173 5q-121 4 -151 5q-88 2 -89 2q-21 0 -38 -1q-34 -2 -52 -3q-9 0 -30 -1.5t-33 -2.5q29 18 43 31q18 16 28 37q11 23 16 53q5 33 5 75v1072q0 27 -2 63q-1 26 -9 47
q-7 19 -21 38q-13 17 -36 34l45 -4q28 -2 43 -3t41 -1q5 0 85 2q18 0 61 1.5t67 2.5q25 1 67 2.5t58 1.5l76 2q23 0 38 -12q14 -11 25 -32q12 -22 16 -41q6 -28 7 -40q-17 22 -31 33q-15 12 -37 18q-20 5 -57 7q-23 1 -88 1h-225v-606h305q42 0 68 10q31 12 45 25
q18 16 28 37q-2 -24 -2 -35q-2 -20 -2 -31v-28v-33q0 -11 2 -33q1 -6 2.5 -18t1.5 -17q-11 19 -28 33q-17 13 -44 23q-26 10 -69 10h-307v-668q21 -1 63 -2.5t62 -1.5q70 -2 108 -2h96q25 0 79 2q33 1 77 10q33 7 68 24q30 15 51 42z" />
    <glyph glyph-name="F" unicode="F" horiz-adv-x="841" 
d="M287 174q0 -84 24 -120q23 -34 68 -62l-53 4q-15 1 -51 3q-18 1 -50 1t-50 -1q-30 -2 -50 -3l-53 -4q22 12 38 26q17 14 29 35q14 24 19 49q6 28 6 72v1098q0 68 -13 104q-13 37 -55 66l45 -4q28 -2 43 -3t41 -1q73 0 120 1l141 3q68 1 127 3q38 1 75 1q19 0 31 -15
q14 -17 21 -33q12 -26 15 -40q5 -23 5 -33q-16 22 -27 32q-10 10 -34 17q-23 7 -56 8q-46 2 -96 2h-260v-569h268q51 0 84 9q28 8 53 22q25 16 35 32q-2 -20 -2 -30q-2 -20 -2 -30v-30v-30q0 -11 2 -33q1 -6 2.5 -18t1.5 -17q-11 11 -23 27q-9 12 -26 21q-20 11 -46 15
q-33 5 -81 5h-266v-580z" />
    <glyph glyph-name="G" unicode="G" horiz-adv-x="1525" 
d="M1403 571q-20 -11 -37 -30q-14 -15 -25 -39q-10 -21 -10 -58v-444h-63q-26 0 -56 -6q-45 -9 -75 -14q-66 -11 -106 -15q-60 -6 -146 -6q-167 0 -291 39q-129 40 -214 101q-91 65 -147 143t-91 162q-33 78 -47 162q-13 77 -13 141q0 155 52 295t151 245t237 166
q141 62 316 62q62 0 128 -11q74 -12 117 -24q55 -15 102 -33q49 -19 77 -33q25 -12 51 -18q23 -5 30 -8v-45q0 -11 -2 -41l-4 -45q-4 -24 -6 -52q-16 40 -26 58q-9 17 -31 48q-17 25 -41 42q-56 40 -160 81q-101 40 -244 40q-126 0 -238 -44t-197 -129t-134 -209
q-49 -123 -49 -282q0 -130 40 -265q41 -140 122 -248q84 -113 207 -184q126 -73 294 -73q32 0 82 5q35 3 90 13q32 5 86 21q39 11 76 24v377q0 37 -10 61q-11 27 -22 42q-14 17 -33 28l45 -4q28 -2 43 -3t41 -1t41 1t43 3q7 0 23 1.5t24 2.5z" />
    <glyph glyph-name="H" unicode="H" horiz-adv-x="1437" 
d="M1366 -8l-53 4q-20 1 -50 3q-18 1 -51 1q-26 0 -41 -1t-43 -3q-6 0 -22.5 -1.5t-26.5 -2.5q3 2 14 12t16 15q15 15 23 34q10 23 14 52q5 35 5 83v566h-864v-566q0 -52 3 -83q3 -30 11 -51q7 -17 23 -32q29 -26 34 -30q-4 0 -18.5 1.5t-22.5 2.5q-15 1 -43 3q-16 1 -47 1
t-48 -1q-34 -2 -50 -3l-57 -4q48 28 69 66q23 41 23 137v1048q0 53 -3 85q-3 29 -11 52q-6 17 -21 34q-11 12 -33 28l45 -4q28 -2 43 -3t41 -1q25 0 39 1q21 1 39 3q8 1 22 2.5t21 1.5q-16 -16 -27 -30t-18 -34q-8 -23 -11 -52q-3 -32 -3 -83v-422h864v408q0 40 -2 84
q-1 32 -9 56q-7 22 -20 40q-12 17 -33 33q7 0 21 -1.5t22 -2.5q16 -1 41 -3q15 -1 41 -1q28 0 44 1q24 1 42 3q8 1 22 2.5t21 1.5q-17 -12 -33 -28q-14 -14 -21 -34q-7 -19 -10 -53q-3 -33 -3 -84v-1050q0 -98 25 -139q24 -40 67 -62z" />
    <glyph glyph-name="I" unicode="I" 
d="M379 -8l-53 4q-15 1 -51 3q-18 1 -50 1t-50 -1q-30 -2 -50 -3l-53 -4q22 12 38 26q17 14 29 35q14 24 19 49q6 28 6 72v1100q0 75 -17 111q-17 35 -51 57l45 -4q28 -2 43 -3t41 -1t40 1l42 3q7 0 23 1.5t24 2.5q-32 -16 -50 -53q-17 -35 -17 -115v-1100q0 -84 24 -120
q23 -34 68 -62z" />
    <glyph glyph-name="J" unicode="J" 
d="M373 1442q-23 -15 -39 -27q-15 -11 -27 -31q-10 -18 -15 -47q-5 -32 -5 -77v-1291q0 -65 -12 -108q-12 -45 -44 -78q-30 -33 -88 -65q-55 -31 -137 -46q85 52 122 126q36 72 36 171v1291q0 39 -2 77q-1 27 -11 46q-9 18 -27 30q-22 15 -48 29q10 -1 28 -2.5t27 -1.5
q23 -2 48 -3q17 -1 44 -1q25 0 42 1q34 2 50 3q8 0 27.5 1.5t30.5 2.5z" />
    <glyph glyph-name="K" unicode="K" horiz-adv-x="1402" 
d="M1382 -12h-98q-50 0 -95 8q-36 6 -82 27q-37 16 -80 50q-35 27 -85 79l-623 641l478 464q86 86 86 127q0 9 -2 19q0 1 -1.5 7.5t-2.5 10.5q-6 9 -7 21q5 0 18 -1.5t21 -2.5q22 -2 37 -2h39h45q17 0 45 2q7 0 23 1.5t24 2.5q-57 -22 -98 -53q-39 -29 -80 -70l-489 -483
l682 -701q67 -72 127 -97q64 -27 118 -42v-8zM377 -8l-53 4q-20 1 -50 3q-18 1 -49 1q-32 0 -50 -1q-30 -2 -50 -3l-53 -4q37 18 64 58q28 42 28 104v1087q0 57 -4 86q-4 28 -13 54q-7 21 -20 35q-12 13 -31 26q4 0 18.5 -1.5t22.5 -2.5q18 -2 42 -3q16 -1 46 -1t46 1
q24 1 42 3q8 1 22 2.5t21 1.5q-19 -10 -35 -26q-14 -14 -21 -34q-7 -19 -10 -52q-3 -32 -3 -83v-1091q0 -66 27 -107q26 -39 63 -57z" />
    <glyph glyph-name="L" unicode="L" horiz-adv-x="960" 
d="M899 109q-3 -11 -12 -32q-3 -6 -8.5 -18t-8.5 -18q-17 -30 -29 -43q-13 -14 -44 -14q-38 0 -132 2q-43 1 -147 5q-23 1 -48 2t-55 2t-47 2q-75 3 -143 3q-21 0 -38 -1q-34 -2 -52 -3q-9 0 -30 -1.5t-33 -2.5q40 28 66 63t26 99v1106q0 80 -14 119q-15 42 -58 63
q8 -1 24 -2.5t23 -1.5l42 -3q14 -1 40 -1t41 1t43 3q6 0 22.5 1.5t26.5 2.5q-37 -16 -52 -61q-15 -43 -15 -121v-1203q15 -2 43 -4.5t41 -3.5q26 -3 81 -5q29 -1 85 -1q46 0 75 1q58 2 87 5q43 5 84 12q38 7 69 25q19 12 29 22q17 17 28 31z" />
    <glyph glyph-name="M" unicode="M" horiz-adv-x="1988" 
d="M328 1169q2 12 12 70q8 46 8 64q0 14 -13 33q-12 18 -33 40q-13 14 -41 38q-18 15 -36 28q28 -4 67 -6q50 -2 79 -2q21 0 32 1l33 3l37 4q0 -63 14 -106q15 -46 39 -99l473 -1022l474 975q12 23 32 67q14 33 23 59q10 29 10 48q0 14 -6 29q-4 10 -14 24q-7 11 -19 25
q8 -1 24 -2.5t23 -1.5t20.5 -1t20.5 -2q14 -1 37 -1t40 1q34 2 50 3q8 0 29 1.5t33 2.5q-25 -16 -56 -34q-16 -9 -31 -24q-11 -11 -16 -27q-4 -13 -4 -44v-30q0 -9 2 -23q0 -9 2 -25l123 -995q5 -37 14 -76q6 -26 21 -62q11 -25 31 -54q20 -28 45 -56q-7 0 -21 1.5t-22 2.5
q-16 1 -41 3q-15 1 -43 1q-27 0 -43 -1q-32 -2 -47 -3l-54 -4q13 14 25 35q8 13 17 34q8 19 8 39q0 2 -1 8.5t-2.5 21t-3.5 27.5q-5 40 -15 128q-3 30 -11.5 92.5t-10.5 81.5q-16 128 -24 194q-11 87 -34.5 267t-33.5 256l-575 -1205l-561 1209q-56 -270 -99 -498
q-6 -34 -18 -99.5t-17 -94.5q-7 -38 -18 -102t-14 -79q-17 -92 -23 -147q-8 -67 -8 -92q0 -22 19 -39q13 -12 47 -37q-7 0 -21 1.5t-22 2.5q-12 1 -40 3q-14 1 -40 1q-17 0 -30 -1q-26 -2 -40 -3q-6 0 -22.5 -1.5t-26.5 -2.5q28 21 40 33q15 15 25 36q11 24 20 62
q10 43 21 104z" />
    <glyph glyph-name="N" unicode="N" horiz-adv-x="1507" 
d="M1425 1440q-24 -20 -33 -29q-16 -16 -27 -37q-12 -22 -16 -56q-6 -46 -6 -83v-1290l-1099 1302v-1120q0 -34 9 -58t21 -39q13 -16 26 -25q11 -8 24 -13l-45 4q-16 1 -41 3q-15 1 -39 1q-21 0 -35 -1q-7 -1 -20.5 -2t-20.5 -1q-5 0 -22.5 -1.5t-28.5 -2.5q39 21 65 59
q27 39 27 103v1106q0 44 -6 73q-6 28 -22 47t-39 32q-32 18 -56 30q12 -1 33 -2.5t30 -1.5q27 -2 57 -3q20 -1 56 -1h36q14 0 38 2q15 0 43 2q0 -1 -1.5 -5t-2.5 -6q-4 -11 -4 -28q0 -22 6 -46q6 -25 26 -46l908 -1074v1027q0 48 -4 72q-5 28 -15 46q-12 21 -26 32
q-13 11 -39 28q32 -2 47 -2q28 -2 41 -2h37h34q15 0 39 2z" />
    <glyph glyph-name="O" unicode="O" horiz-adv-x="1630" 
d="M1548 672q0 -162 -65 -291q-67 -133 -167 -224q-103 -94 -226 -146t-244 -52q-164 0 -303 54q-140 54 -242 156q-103 103 -161 244t-58 320q0 169 60 305q60 137 161 235q99 96 231 149t267 53q195 0 336 -72q140 -72 232 -186q91 -113 135 -259t44 -286zM1425 649
q0 161 -49 302q-50 143 -133 250t-197 170t-245 63q-138 0 -249 -53q-109 -52 -185 -143q-77 -92 -117 -216q-41 -126 -41 -270q0 -154 51 -290t140 -239q90 -104 210 -163q122 -60 258 -60q96 0 194 40q99 40 180 120t132 201t51 288z" />
    <glyph glyph-name="P" unicode="P" horiz-adv-x="933" 
d="M872 1092q0 -88 -22 -157q-23 -71 -68 -121q-47 -52 -109 -79q-63 -28 -151 -28q-36 0 -86 8q-45 7 -65 14l2 10q22 -5 41 -6q33 -6 78 -6q47 0 95 12t86 47q37 34 62 99q25 66 25 166q0 74 -23 141q-23 68 -65 113q-44 47 -105 74q-64 28 -139 28q-37 0 -70 -4
q-41 -5 -71 -14v-1239q0 -44 13 -73q14 -30 30 -48q20 -21 45 -37q-10 1 -27 2.5t-24 1.5q-20 1 -50 3q-18 1 -49 1q-21 0 -38 -1q-34 -2 -52 -3q-9 0 -30 -1.5t-33 -2.5q23 12 45 35q15 16 31 50t16 79v1136q0 49 -12 79q-11 28 -29 46q-19 19 -39 25q10 -1 27 -2.5
t24 -1.5q15 -1 47 -3q16 -1 43 -1q21 0 81 5t169 5q82 0 157 -28q73 -27 126 -76q56 -51 84 -112q30 -64 30 -136z" />
    <glyph glyph-name="Q" unicode="Q" horiz-adv-x="1630" 
d="M3176 -350q-175 -73 -332 -108q-154 -34 -307 -34q-142 0 -308 41q-157 39 -339 112q-173 69 -364 165q-173 87 -385 203q-40 -14 -67 -23q-13 -4 -38.5 -12t-35.5 -11q-34 -11 -73 -19q-34 -7 -65 -7q-170 0 -312 54q-141 53 -247 155q-104 100 -163 243
q-58 141 -58 316q0 173 58 310q59 138 158 236q97 96 231 149q133 53 280 53q192 0 333 -72q139 -71 230 -186q90 -114 133 -254q43 -139 43 -283q0 -110 -27 -198q-26 -84 -72 -161q-39 -65 -97 -126q-50 -53 -105 -95q224 -121 371 -198q194 -102 357 -170
q180 -75 343 -119q168 -45 326 -45q121 0 253 21q119 19 279 63zM1425 666q0 169 -55 309q-57 145 -143 244q-87 101 -200 160q-112 59 -224 59q-128 0 -238 -52q-107 -51 -187 -141q-78 -89 -124 -212q-45 -121 -45 -261q0 -172 53 -316q51 -140 145 -244q91 -102 214 -157
q122 -55 262 -55q95 0 190 43q96 43 175 127q78 83 128 208q49 123 49 288z" />
    <glyph glyph-name="R" unicode="R" horiz-adv-x="1325" 
d="M1305 -10q0 -2 -15 -3q-10 -1 -24 -1q-90 0 -186 44q-94 44 -171 126q-50 55 -110 139q-63 89 -123 174q-91 135 -141 211h-248v-526q0 -65 26 -104t58 -58q-39 4 -69 6q-40 2 -77 2q-30 0 -84 -2q-41 -2 -69 -6q40 22 66 60t26 102v1142q0 54 -18 92t-52 54q49 -4 56 -5
q39 -3 75 -3q30 0 108 5t142 5q84 0 157 -29q72 -28 127 -76q56 -48 85 -109q30 -63 30 -130q0 -108 -35 -177q-36 -70 -77 -116q-52 -54 -113 -82q10 -8 43 -60q44 -69 87 -134q50 -76 118 -170q62 -86 135 -170q63 -73 140 -135q68 -55 133 -66zM758 1053q0 74 -23 140
t-64 113q-40 46 -104 74q-61 27 -137 27q-27 0 -60 -5q-12 -2 -83 -18v-663h180q60 0 110 17q52 18 92 58t64 103q25 66 25 154z" />
    <glyph glyph-name="S" unicode="S" horiz-adv-x="851" 
d="M791 375q0 -73 -29 -145q-28 -70 -80 -126q-49 -54 -121 -88q-67 -32 -149 -32q-48 0 -91 7q-54 9 -88 15q-42 8 -71 15q-32 8 -45 8q-9 0 -17 -6q-10 10 -14 21q-4 10 -10 46q-5 23 -6 52q-1 11 -2.5 30t-1.5 27l-5 61q6 -28 21 -57q12 -25 32 -52q22 -31 50 -53
q50 -39 121 -58q65 -17 131 -17q44 0 93 18q51 19 92 52q44 36 71 83q28 49 28 111q0 101 -45 173q-46 73 -112 132q-61 54 -148 110q-77 49 -147 107q-69 57 -113 124q-45 69 -45 161q0 71 24 137t67 115q40 46 108 78q63 30 141 30q75 0 132 -15q54 -14 126 -44
q14 -6 20 -9q5 -3 25 -8q-1 -6 -2.5 -15.5t-1.5 -14.5q-2 -16 -2 -28v-28q0 -19 -1 -30t-1 -33v-37q-6 17 -14 37q-1 3 -14 34q-7 18 -13 29q-40 66 -117 99q-74 32 -147 32q-58 0 -101 -20q-44 -21 -77 -55q-32 -34 -51 -79q-17 -41 -17 -93q0 -79 46 -143q46 -65 114 -123
q67 -58 148 -115q83 -58 149 -120q66 -61 113 -136q47 -74 47 -164z" />
    <glyph glyph-name="T" unicode="T" horiz-adv-x="1310" 
d="M594 1370h-379q-58 0 -99 -14q-46 -16 -75 -64q0 18 3 44q3 25 12 49q8 22 26 40q17 17 43 17q47 0 87 -1q60 -1 135 -3q80 -2 157 -3q55 -1 153 -1q94 0 147 1t153 3q75 2 135 3q40 1 88 1q23 0 42 -16q16 -13 27 -37q12 -25 16 -49q5 -28 5 -46q-43 76 -180 76h-373
v-1196q0 -84 24 -120q23 -34 68 -62l-53 4q-20 1 -50 3q-18 1 -51 1q-32 0 -50 -1q-30 -2 -50 -3l-53 -4q22 12 38 26q17 14 29 35q14 24 19 49q6 28 6 72v1196z" />
    <glyph glyph-name="U" unicode="U" horiz-adv-x="1460" 
d="M1368 1442q-37 -16 -52 -61q-16 -46 -16 -121v-1106q0 -45 14 -76q15 -34 29 -49q18 -20 46 -37q-11 1 -29.5 2.5t-24.5 1.5q-15 1 -47 3q-16 1 -47 1q-21 0 -33 -1q-6 -1 -18.5 -2t-18.5 -1q-8 -1 -22 -2.5t-21 -1.5q14 7 25 31q9 15 17 50q8 34 8 83q-7 -4 -51 -35
q-46 -32 -106 -61q-64 -31 -154 -57q-89 -26 -189 -26q-112 0 -205 37q-95 38 -162 108t-106 175t-39 240v723q0 53 -16 86q-17 36 -37 57q-22 23 -52 39q12 -1 33.5 -2.5t30.5 -1.5l54 -3q18 -1 46 -1q26 0 41 1q25 2 41 3q8 1 22 2.5t21 1.5q-20 -16 -31 -39
q-13 -23 -21 -56q-9 -35 -9 -87v-777q0 -122 47 -208q46 -84 118 -138q72 -53 153 -77q79 -23 155 -23q81 0 148 19q72 20 122 46q48 25 90 55q36 26 56 46v1057q0 76 -14 115t-54 67q18 -5 55 -6q50 -2 76 -2t62 2q25 1 65 6z" />
    <glyph glyph-name="V" unicode="V" horiz-adv-x="1595" 
d="M1595 1442q-30 -4 -63 -27q-30 -19 -62 -54q-34 -37 -63 -97l-651 -1295l-606 1346q-16 36 -44 61q-29 25 -49 39q-29 17 -57 27q9 0 29 -1.5t30 -2.5q20 -1 55 -3q20 -1 54 -1q30 0 46 1q22 1 40 3q8 1 21 2.5t18 1.5q-11 -11 -23 -28q-10 -14 -10 -30q0 -18 7 -38
q8 -23 24 -56l502 -1126l548 1120q20 42 35 75q13 29 13 42q0 9 -5 16l-8 13q-4 4 -10 12q5 0 15 -1.5t16 -2.5q3 0 9 -1t11 -1.5t10 -0.5q11 -1 33 -1q26 0 42 1t44 3q6 0 22.5 1.5t26.5 2.5z" />
    <glyph glyph-name="W" unicode="W" horiz-adv-x="2199" 
d="M2200 1440q-34 -17 -68 -41q-33 -24 -59 -49q-31 -29 -52 -70l-671 -1300l-271 546l-280 -546l-662 1349q-15 27 -37 46t-45 36q-24 15 -55 31q9 0 29 -1.5t30 -2.5q20 -1 55 -3q20 -1 54 -1t49 1q23 1 39 3q8 1 20.5 2.5t16.5 1.5q-11 -16 -17 -32q-8 -22 -8 -44
q0 -36 37 -111l524 -1085l218 424l-342 709q-18 32 -32 51q-29 38 -34 45q-26 28 -39 43l45 -4q21 -2 45 -3q16 -1 51 -1q26 0 40 1q28 2 40 3q8 1 22 2.5t21 1.5q-12 -12 -24 -29q-11 -12 -17 -28q-6 -15 -6 -29q0 -21 39 -105l254 -536l236 459q34 65 57 123q20 50 20 73
q0 10 -5 23q-3 8 -9 22q-6 12 -12 27l37 -4q5 0 16 -1t16 -2q11 -1 31 -1q28 0 44 1t44 3q7 0 23 1.5t24 2.5q-27 -11 -57 -35q-20 -15 -51 -46q-23 -23 -47 -69l-332 -643l235 -477l564 1092q13 25 22 53q8 26 8 45q0 11 -4 24q-1 2 -3.5 12t-4.5 15q-6 15 -12 27
q7 0 21 -1.5t22 -2.5q22 -2 36 -2h29h44q16 0 46 2q7 0 24.5 1.5t27.5 2.5z" />
    <glyph glyph-name="X" unicode="X" horiz-adv-x="1492" 
d="M1462 1442q-46 -30 -98 -80q-51 -50 -129 -141l-412 -492l367 -496q28 -40 43 -59q4 -5 11.5 -15.5t14.5 -19.5t13 -17q21 -27 39 -48q10 -13 28 -29q17 -15 33 -27q14 -12 39 -26l-53 4q-22 2 -48 3q-17 1 -48 1q-27 0 -43 -1q-5 0 -15 -1t-18 -1.5t-15 -0.5t-24 -1.5
t-27 -2.5q8 14 10 16q4 7 9 20q4 11 4 27q0 36 -18 63q-23 34 -40 56l-348 467l-379 -457q-22 -27 -48 -59t-29 -36q-21 -25 -21 -42q0 -9 5 -19q6 -11 11 -18l19 -18l-45 4l-42 3q-14 1 -40 1q-31 0 -48 -1q-26 -1 -48 -3q-10 -1 -27.5 -2.5t-24.5 -1.5q6 4 31.5 17
t35.5 19q24 13 56 37q29 21 62 56q34 35 80 92l407 489l-409 549q-36 47 -62 80q-26 32 -45 50q-22 21 -40 33t-46 28q10 -1 30.5 -2.5t29.5 -1.5q21 -1 53 -3q19 -1 55 -1q32 0 50 1l54 3l62 4q-16 -14 -21 -21q-10 -14 -14 -22q-6 -12 -6 -27q0 -45 33 -90l360 -489
l377 450q7 9 39 49q16 22 27 43q12 23 12 39q0 13 -4 24q-7 19 -8 21q-12 21 -13 23l45 -4q12 -1 40 -3q14 -1 40 -1q32 0 48 1q24 1 42 3q8 1 22.5 2.5t18.5 1.5z" />
    <glyph glyph-name="Y" unicode="Y" horiz-adv-x="1589" 
d="M1589 1442q-33 -15 -65 -41q-29 -23 -61 -61q-31 -37 -60 -95l-658 -1296q-36 -68 -56 -99q-29 -45 -70 -83q-40 -37 -95 -59q-52 -21 -127 -21q61 22 99 45q39 23 72 53q37 33 57 65q27 43 47 82l53 107l-569 1290q-12 26 -38 48q-27 22 -52 36q-30 16 -66 29l70 -4
q32 -2 61 -3q22 -1 57 -1q32 0 49 1q25 1 48 3q7 0 24 1.5t27 2.5q-16 -13 -23 -27q-10 -16 -14 -26q-6 -15 -6 -27q0 -34 29 -98l479 -1084l536 1080q17 39 22 53q9 27 9 49q0 8 -8 24q-6 12 -19 27q-12 15 -26 29q11 -1 30 -2.5t27 -1.5q30 -2 46 -3t36 -1q26 0 42 1t44 3
q6 0 22.5 1.5t26.5 2.5z" />
    <glyph glyph-name="Z" unicode="Z" horiz-adv-x="1386" 
d="M1329 141q-15 -36 -17 -41q-9 -21 -20 -41q-17 -31 -30 -45q-16 -18 -45 -18q-92 0 -130 1t-114 1q-79 0 -122 1t-151 1h-673q44 66 111 152q102 131 183 233q109 137 218 278q41 52 114.5 146t105.5 135q53 68 190 246q78 101 128 172q-52 0 -162 2q-66 1 -149 3
q-53 1 -145 1q-141 0 -205 -1q-104 -2 -166 -7q-33 -4 -54 -12q-18 -6 -36 -19t-27 -26q0 23 4 43q6 22 9 35q4 18 18 30q17 17 31 24t38 7q30 0 165 -5t296 -5h154q48 0 136 2q44 1 136 3q100 2 152 5q-15 -22 -68 -92q-60 -80 -125 -163q-29 -37 -89.5 -115t-73.5 -95
q-12 -15 -78.5 -101t-102.5 -132q-34 -43 -95 -121.5t-86 -110.5q-35 -45 -96.5 -124.5t-64.5 -83.5q-91 -118 -122 -157q-44 -56 -64 -84q120 -2 180 -2q104 -2 167 -2h167q103 0 156 1q58 1 148 5q79 3 118 7q49 4 63 10q87 34 137 102z" />
    <glyph glyph-name="bracketleft" unicode="[" horiz-adv-x="438" 
d="M61 -307v2048h254v-49h-139v-1950h139v-49h-254z" />
    <glyph glyph-name="backslash" unicode="\" horiz-adv-x="733" 
d="M25 1536h75l609 -1638h-78z" />
    <glyph glyph-name="bracketright" unicode="]" horiz-adv-x="438" 
d="M123 -307v49h139v1950h-139v49h254v-2048h-254z" />
    <glyph glyph-name="asciicircum" unicode="^" horiz-adv-x="874" 
d="M813 1059l-68 -68l-309 307l-307 -307l-68 68l375 375z" />
    <glyph glyph-name="underscore" unicode="_" horiz-adv-x="921" 
d="M0 -410v50h922v-50h-922z" />
    <glyph glyph-name="grave" unicode="`" horiz-adv-x="403" 
d="M41 1722q0 25 20 41q22 17 50 17q49 0 96 -47l196 -189l-6 -8l-297 121q-59 28 -59 65z" />
    <glyph glyph-name="a" unicode="a" horiz-adv-x="1650" 
d="M1630 -8q-11 0 -33 1.5t-34 2.5q-24 1 -64 3q-23 1 -67 1q-32 0 -50 -1q-24 -1 -49 -3l-53 -4q12 8 20 20q12 17 16 24q7 13 7 30q0 29 -4 49q-4 22 -21 61l-94 209h-827l-98 -209q-10 -22 -18 -50q-7 -25 -7 -50q0 -11 8 -27q5 -10 19 -26q12 -17 26 -31q-10 1 -27 2.5
t-24 1.5q-30 2 -46 3t-44 1q-33 0 -50 -1q-26 -1 -48 -3q-8 -1 -24.5 -2.5t-23.5 -1.5q40 24 56 36q29 22 44 38q19 20 37 46q15 22 33 62l631 1311l625 -1311q18 -37 34 -60q17 -24 39 -46q21 -21 48 -39q36 -24 63 -37zM795 1276l-392 -832h775z" />
    <glyph glyph-name="b" unicode="b" horiz-adv-x="1011" 
d="M930 412q0 -132 -46 -214q-47 -84 -111 -130q-66 -47 -136 -65q-68 -17 -123 -17q-104 0 -175 7t-124 7q-35 0 -62 -1q-45 -2 -81 -7q22 12 38 26q16 13 29 36t19 56q6 34 6 83v1046q0 51 -1 71q-2 31 -7 53q-6 24 -21 42q-17 21 -39 37q10 -1 27 -2.5t24 -1.5t22.5 -1
t23.5 -2q15 -1 38 -1q48 0 97 7t135 7q63 0 129 -15q64 -15 118 -53q53 -38 85 -99t32 -159q0 -71 -23 -126q-23 -54 -62 -98t-84 -70q-50 -29 -91 -40q67 -7 135 -35q64 -26 116 -75q51 -48 81 -114q31 -68 31 -152zM707 1124q0 72 -25 128q-23 53 -65 88q-41 35 -92 51
t-107 16q-48 0 -73 -6q-16 -4 -58 -19v-577q17 -5 59 -6q58 -2 92 -2q130 0 199 90q70 91 70 237zM801 389q0 178 -95 276q-94 97 -268 97q-58 0 -79 -1q-36 -2 -72 -7v-705q1 0 20.5 -6.5t30.5 -9.5q27 -7 51 -11q38 -6 60 -6q36 0 96 12q59 12 115 50q57 39 99 112
q42 74 42 199z" />
    <glyph glyph-name="c" unicode="c" horiz-adv-x="1497" 
d="M1395 238l-4 -45q0 -5 -2 -18.5t-3 -20.5q-1 -20 -6 -35q-12 -47 -13 -50q-5 -22 -15 -44q-14 -6 -24 -7q-12 -1 -25 -8q-11 -6 -46 -14q-48 -10 -86 -16q-80 -12 -114 -15q-63 -6 -131 -6q-232 0 -395 64q-162 64 -260 166q-98 103 -144 238q-45 133 -45 275
q0 199 69 346q68 144 177 240q106 93 242 140q135 47 264 47q128 0 241 -24q121 -26 178 -44q21 -6 59 -14q21 -5 27 -9v-36q0 -22 1 -32t1 -28q0 -31 -6 -61q-3 -14 -10 -62q-8 35 -20 66q-11 27 -27 54q-17 27 -41 44q-52 36 -155 70q-107 35 -238 35q-144 0 -260 -46
t-199 -132q-82 -85 -127 -203q-45 -119 -45 -265q0 -149 44 -293q43 -141 133 -252q89 -110 225 -176q139 -67 321 -67q107 0 175 17q76 19 122 44q47 26 81 58q30 28 52 57q1 2 10 17q6 10 10 20q8 14 9 25z" />
    <glyph glyph-name="d" unicode="d" horiz-adv-x="1449" 
d="M1368 702q0 -153 -47 -288q-46 -131 -139 -232q-88 -96 -231 -153q-139 -56 -318 -56q-79 0 -139 4q-20 1 -41.5 3t-45.5 4l-36 3q-57 5 -95 9q-35 4 -53 4q-37 0 -55 -1q-24 -1 -49 -3q-8 -1 -24 -2.5t-23 -1.5q24 16 42 30q16 12 28 35q13 24 17 60q5 42 5 98v1057
q0 66 -10 99q-10 32 -58 71q3 0 15 -1.5l20 -2.5q18 -2 40 -3q16 -1 52 -1q26 0 65 4q17 2 53.5 4.5t44.5 3.5q20 2 59 4.5t56 3.5q53 4 115 4q80 0 167 -15q90 -15 170 -49q84 -35 159 -91q72 -54 132 -142q55 -81 90 -197q34 -112 34 -262zM1245 647q0 176 -47 322
q-46 142 -129 243q-84 102 -193 155q-111 54 -239 54q-151 0 -232 -13q-83 -13 -118 -24v-1335q48 -13 98 -20q69 -11 107 -14q67 -5 126 -5q98 0 211 23q112 23 203 90q94 69 153 192q60 124 60 332z" />
    <glyph glyph-name="e" unicode="e" horiz-adv-x="942" 
d="M891 121q-6 -28 -10 -44q-5 -20 -17 -44q-11 -22 -26 -34q-16 -13 -39 -13q-43 0 -161 2q-63 1 -173 5q-121 4 -151 5q-88 2 -89 2q-21 0 -38 -1q-34 -2 -52 -3q-9 0 -30 -1.5t-33 -2.5q29 18 43 31q18 16 28 37q11 23 16 53q5 33 5 75v1072q0 27 -2 63q-1 26 -9 47
q-7 19 -21 38q-13 17 -36 34l45 -4q28 -2 43 -3t41 -1q5 0 85 2q18 0 61 1.5t67 2.5q25 1 67 2.5t58 1.5l76 2q23 0 38 -12q14 -11 25 -32q12 -22 16 -41q6 -28 7 -40q-17 22 -31 33q-15 12 -37 18q-20 5 -57 7q-23 1 -88 1h-225v-606h305q42 0 68 10q31 12 45 25
q18 16 28 37q-2 -24 -2 -35q-2 -20 -2 -31v-28v-33q0 -11 2 -33q1 -6 2.5 -18t1.5 -17q-11 19 -28 33q-17 13 -44 23q-26 10 -69 10h-307v-668q21 -1 63 -2.5t62 -1.5q70 -2 108 -2h96q25 0 79 2q33 1 77 10q33 7 68 24q30 15 51 42z" />
    <glyph glyph-name="f" unicode="f" horiz-adv-x="829" 
d="M287 174q0 -84 24 -120q23 -34 68 -62l-53 4q-15 1 -51 3q-18 1 -50 1t-50 -1q-30 -2 -50 -3l-53 -4q22 12 38 26q17 14 29 35q14 24 19 49q6 28 6 72v1098q0 68 -13 104q-13 37 -55 66l45 -4q28 -2 43 -3t41 -1q73 0 120 1l141 3q68 1 127 3q38 1 75 1q19 0 31 -15
q14 -17 21 -33q12 -26 15 -40q5 -23 5 -33q-16 22 -27 32q-10 10 -34 17q-23 7 -56 8q-46 2 -96 2h-260v-569h268q51 0 84 9q28 8 53 22q25 16 35 32q-2 -20 -2 -30q-2 -20 -2 -30v-30v-30q0 -11 2 -33q1 -6 2.5 -18t1.5 -17q-11 11 -23 27q-9 12 -26 21q-20 11 -46 15
q-33 5 -81 5h-266v-580z" />
    <glyph glyph-name="g" unicode="g" horiz-adv-x="1525" 
d="M1403 571q-20 -11 -37 -30q-14 -15 -25 -39q-10 -21 -10 -58v-444h-63q-26 0 -56 -6q-45 -9 -75 -14q-66 -11 -106 -15q-60 -6 -146 -6q-167 0 -291 39q-129 40 -214 101q-91 65 -147 143t-91 162q-33 78 -47 162q-13 77 -13 141q0 155 52 295t151 245t237 166
q141 62 316 62q62 0 128 -11q74 -12 117 -24q55 -15 102 -33q49 -19 77 -33q25 -12 51 -18q23 -5 30 -8v-45q0 -11 -2 -41l-4 -45q-4 -24 -6 -52q-16 40 -26 58q-9 17 -31 48q-17 25 -41 42q-56 40 -160 81q-101 40 -244 40q-126 0 -238 -44t-197 -129t-134 -209
q-49 -123 -49 -282q0 -130 40 -265q41 -140 122 -248q84 -113 207 -184q126 -73 294 -73q32 0 82 5q35 3 90 13q32 5 86 21q39 11 76 24v377q0 37 -10 61q-11 27 -22 42q-14 17 -33 28l45 -4q28 -2 43 -3t41 -1t41 1t43 3q7 0 23 1.5t24 2.5z" />
    <glyph glyph-name="h" unicode="h" horiz-adv-x="1437" 
d="M1366 -8l-53 4q-20 1 -50 3q-18 1 -51 1q-26 0 -41 -1t-43 -3q-6 0 -22.5 -1.5t-26.5 -2.5q3 2 14 12t16 15q15 15 23 34q10 23 14 52q5 35 5 83v566h-864v-566q0 -52 3 -83q3 -30 11 -51q7 -17 23 -32q29 -26 34 -30q-4 0 -18.5 1.5t-22.5 2.5q-15 1 -43 3q-16 1 -47 1
t-48 -1q-34 -2 -50 -3l-57 -4q48 28 69 66q23 41 23 137v1048q0 53 -3 85q-3 29 -11 52q-6 17 -21 34q-11 12 -33 28l45 -4q28 -2 43 -3t41 -1q25 0 39 1q21 1 39 3q8 1 22 2.5t21 1.5q-16 -16 -27 -30t-18 -34q-8 -23 -11 -52q-3 -32 -3 -83v-422h864v408q0 40 -2 84
q-1 32 -9 56q-7 22 -20 40q-12 17 -33 33q7 0 21 -1.5t22 -2.5q16 -1 41 -3q15 -1 41 -1q28 0 44 1q24 1 42 3q8 1 22 2.5t21 1.5q-17 -12 -33 -28q-14 -14 -21 -34q-7 -19 -10 -53q-3 -33 -3 -84v-1050q0 -98 25 -139q24 -40 67 -62z" />
    <glyph glyph-name="i" unicode="i" 
d="M379 -8l-53 4q-15 1 -51 3q-18 1 -50 1t-50 -1q-30 -2 -50 -3l-53 -4q22 12 38 26q17 14 29 35q14 24 19 49q6 28 6 72v1100q0 75 -17 111q-17 35 -51 57l45 -4q28 -2 43 -3t41 -1t40 1l42 3q7 0 23 1.5t24 2.5q-32 -16 -50 -53q-17 -35 -17 -115v-1100q0 -84 24 -120
q23 -34 68 -62z" />
    <glyph glyph-name="j" unicode="j" horiz-adv-x="468" 
d="M305 51q0 -66 -20 -120q-20 -53 -59 -99q-38 -44 -94 -69t-126 -25q48 27 88 74q36 42 61 97q27 59 27 142v1209q0 39 -2 77q-1 27 -11 46q-9 18 -27 30q-22 15 -48 29q10 -1 28.5 -2.5t27.5 -1.5q22 -2 48 -3q17 -1 44 -1q25 0 42 1q34 2 50 3q8 0 27 1.5t30 2.5
q-23 -15 -39 -27q-14 -10 -26 -31q-12 -20 -16 -47q-5 -32 -5 -77v-1209z" />
    <glyph glyph-name="k" unicode="k" horiz-adv-x="1402" 
d="M1382 -12h-98q-50 0 -95 8q-36 6 -82 27q-37 16 -80 50q-35 27 -85 79l-623 641l478 464q86 86 86 127q0 9 -2 19q0 1 -1.5 7.5t-2.5 10.5q-6 9 -7 21q5 0 18 -1.5t21 -2.5q22 -2 37 -2h39h45q17 0 45 2q7 0 23 1.5t24 2.5q-57 -22 -98 -53q-39 -29 -80 -70l-489 -483
l682 -701q67 -72 127 -97q64 -27 118 -42v-8zM377 -8l-53 4q-20 1 -50 3q-18 1 -49 1q-32 0 -50 -1q-30 -2 -50 -3l-53 -4q37 18 64 58q28 42 28 104v1087q0 57 -4 86q-4 28 -13 54q-7 21 -20 35q-12 13 -31 26q4 0 18.5 -1.5t22.5 -2.5q18 -2 42 -3q16 -1 46 -1t46 1
q24 1 42 3q8 1 22 2.5t21 1.5q-19 -10 -35 -26q-14 -14 -21 -34q-7 -19 -10 -52q-3 -32 -3 -83v-1091q0 -66 27 -107q26 -39 63 -57z" />
    <glyph glyph-name="l" unicode="l" horiz-adv-x="960" 
d="M899 109q-3 -11 -12 -32q-3 -6 -8.5 -18t-8.5 -18q-17 -30 -29 -43q-13 -14 -44 -14q-38 0 -132 2q-43 1 -147 5q-23 1 -48 2t-55 2t-47 2q-75 3 -143 3q-21 0 -38 -1q-34 -2 -52 -3q-9 0 -30 -1.5t-33 -2.5q40 28 66 63t26 99v1106q0 80 -14 119q-15 42 -58 63
q8 -1 24 -2.5t23 -1.5l42 -3q14 -1 40 -1t41 1t43 3q6 0 22.5 1.5t26.5 2.5q-37 -16 -52 -61q-15 -43 -15 -121v-1203q15 -2 43 -4.5t41 -3.5q26 -3 81 -5q29 -1 85 -1q46 0 75 1q58 2 87 5q43 5 84 12q38 7 69 25q19 12 29 22q17 17 28 31z" />
    <glyph glyph-name="m" unicode="m" horiz-adv-x="1988" 
d="M328 1169l5 31q4 24 7 35l8 41v27q0 14 -13 33q-12 18 -33 40q-13 14 -41 38q-18 15 -36 28q28 -4 67 -6q50 -2 79 -2q21 0 32 1l33 3l37 4q0 -63 14 -106q15 -46 39 -99l473 -1022l474 975q12 23 32 67q14 33 23 59q10 29 10 48q0 14 -6 29q-4 10 -14 24q-7 11 -19 25
q8 -1 24 -2.5t23 -1.5t20.5 -1t20.5 -2q14 -1 37 -1t40 1q34 2 50 3q8 0 29 1.5t33 2.5q-25 -16 -56 -34q-16 -9 -31 -24q-11 -11 -16 -27q-4 -13 -4 -44v-30q0 -9 2 -23q0 -9 2 -25l123 -995q5 -37 14 -76q6 -26 21 -62q11 -25 31 -54q20 -28 45 -56q-7 0 -21 1.5t-22 2.5
q-16 1 -41 3q-15 1 -43 1q-26 0 -42 -1t-44 -3l-49 -4q10 11 24 35q11 17 18 34t7 39q0 8 -6 57q-3 27 -17 127q-3 20 -10.5 78.5t-12.5 94.5q-18 128 -28 194q-34 239 -72 520l-573 -1200l-561 1209q-56 -270 -99 -498q-6 -34 -18 -99.5t-17 -94.5q-7 -38 -18 -102t-14 -79
q-17 -92 -23 -147q-8 -67 -8 -92q0 -22 19 -39q13 -12 47 -37q-7 0 -21 1.5t-22 2.5q-12 1 -40 3q-14 1 -40 1q-17 0 -30 -1q-26 -2 -40 -3q-6 0 -22.5 -1.5t-26.5 -2.5q28 21 40 33q15 15 25 36q11 24 20 62q10 43 21 104z" />
    <glyph glyph-name="n" unicode="n" horiz-adv-x="1507" 
d="M1425 1440q-24 -20 -33 -29q-16 -16 -27 -37q-12 -22 -16 -56q-6 -46 -6 -83v-1290l-1099 1302v-1120q0 -34 9 -58t21 -39q13 -16 26 -25q11 -8 24 -13l-45 4q-16 1 -41 3q-15 1 -39 1q-21 0 -35 -1q-7 -1 -20.5 -2t-20.5 -1q-5 0 -22.5 -1.5t-28.5 -2.5q39 21 65 59
q27 39 27 103v1106q0 44 -6 73q-6 28 -22 47t-39 32q-32 18 -56 30q12 -1 33 -2.5t30 -1.5q27 -2 57 -3q20 -1 56 -1h36q14 0 38 2q15 0 43 2q0 -1 -1.5 -5t-2.5 -6q-4 -11 -4 -28q0 -22 6 -46q6 -25 26 -46l908 -1074v1027q0 48 -4 72q-5 28 -15 46q-12 21 -26 32
q-13 11 -39 28q32 -2 47 -2q28 -2 41 -2h37h34q15 0 39 2z" />
    <glyph glyph-name="o" unicode="o" horiz-adv-x="1630" 
d="M1548 672q0 -162 -65 -291q-67 -133 -167 -224q-103 -94 -226 -146t-244 -52q-164 0 -303 54q-140 54 -242 156q-103 103 -161 244t-58 320q0 169 60 305q60 137 161 235q99 96 231 149t267 53q195 0 336 -72q140 -72 232 -186q91 -113 135 -259t44 -286zM1425 649
q0 161 -49 302q-50 143 -133 250t-197 170t-245 63q-138 0 -249 -53q-109 -52 -185 -143q-77 -92 -117 -216q-41 -126 -41 -270q0 -154 51 -290t140 -239q90 -104 210 -163q122 -60 258 -60q96 0 194 40q99 40 180 120t132 201t51 288z" />
    <glyph glyph-name="p" unicode="p" horiz-adv-x="933" 
d="M872 1092q0 -88 -22 -157q-23 -71 -68 -121q-47 -52 -109 -79q-63 -28 -151 -28q-36 0 -86 8q-45 7 -65 14l2 10q22 -5 41 -6q33 -6 78 -6q47 0 95 12t86 47q37 34 62 99q25 66 25 166q0 74 -23 141q-23 68 -65 113q-44 47 -105 74q-64 28 -139 28q-37 0 -70 -4
q-41 -5 -71 -14v-1239q0 -44 13 -73q14 -30 30 -48q20 -21 45 -37q-10 1 -27 2.5t-24 1.5q-20 1 -50 3q-18 1 -49 1q-21 0 -38 -1q-34 -2 -52 -3q-9 0 -30 -1.5t-33 -2.5q23 12 45 35q15 16 31 50t16 79v1136q0 49 -12 79q-11 28 -29 46q-19 19 -39 25q10 -1 27 -2.5
t24 -1.5q15 -1 47 -3q16 -1 43 -1q21 0 81 5t169 5q82 0 157 -28q73 -27 126 -76q56 -51 84 -112q30 -64 30 -136z" />
    <glyph glyph-name="q" unicode="q" horiz-adv-x="1630" 
d="M1544 -227l-440 239q-77 -30 -137 -42q-56 -11 -144 -11q-178 0 -318 67q-137 66 -233 175q-94 107 -142 246q-48 138 -48 284q0 136 36 244q37 111 95 191q62 86 136 142q73 56 159 95q76 35 162 54q80 18 147 18q137 0 246 -38q103 -36 190 -102q84 -64 140 -144
q58 -82 92 -167t51 -170q16 -81 16 -152q0 -199 -91 -363q-92 -165 -242 -265l438 -252zM1427 657q0 67 -15 149q-16 86 -49 170q-35 88 -85 169q-50 80 -123 146q-73 65 -165 104q-93 39 -210 39q-88 0 -188 -36q-98 -35 -185 -116q-85 -79 -142 -210q-56 -128 -56 -316
q0 -68 15 -151t48 -167q33 -85 85 -163q51 -77 126 -140q71 -59 170 -98q95 -37 217 -37q125 0 228 50t176 138q74 89 114 209q39 117 39 260z" />
    <glyph glyph-name="r" unicode="r" horiz-adv-x="1325" 
d="M1305 -10q0 -2 -15 -3q-10 -1 -24 -1q-90 0 -186 44q-94 44 -171 126q-50 55 -110 139q-63 89 -123 174q-91 135 -141 211h-248v-526q0 -65 26 -104t58 -58q-39 4 -69 6q-40 2 -77 2q-30 0 -84 -2q-41 -2 -69 -6q40 22 66 60t26 102v1142q0 54 -18 92t-52 54q49 -4 56 -5
q39 -3 75 -3q30 0 108 5t142 5q84 0 157 -29q72 -28 127 -76q56 -48 85 -109q30 -63 30 -130q0 -108 -35 -177q-36 -70 -77 -116q-52 -54 -113 -82q10 -8 43 -60q44 -69 87 -134q50 -76 118 -170q62 -86 135 -170q63 -73 140 -135q68 -55 133 -66zM758 1053q0 74 -23 140
t-64 113q-40 46 -104 74q-61 27 -137 27q-27 0 -60 -5q-12 -2 -83 -18v-663h180q60 0 110 17q52 18 92 58t64 103q25 66 25 154z" />
    <glyph glyph-name="s" unicode="s" horiz-adv-x="851" 
d="M791 375q0 -73 -29 -145q-28 -70 -80 -126q-49 -54 -121 -88q-67 -32 -149 -32q-48 0 -91 7q-54 9 -88 15q-42 8 -71 15q-32 8 -45 8q-9 0 -17 -6q-10 10 -14 21q-4 10 -10 46q-5 23 -6 52q-1 11 -2.5 30t-1.5 27l-5 61q6 -28 21 -57q12 -25 32 -52q22 -31 50 -53
q50 -39 121 -58q65 -17 131 -17q44 0 93 18q51 19 92 52q44 36 71 83q28 49 28 111q0 101 -45 173q-46 73 -112 132q-61 54 -148 110q-77 49 -147 107q-69 57 -113 124q-45 69 -45 161q0 71 24 137t67 115q40 46 108 78q63 30 141 30q75 0 132 -15q54 -14 126 -44
q14 -6 20 -9q5 -3 25 -8q-1 -6 -2.5 -15.5t-1.5 -14.5q-2 -16 -2 -28v-28q0 -19 -1 -30t-1 -33v-37q-6 17 -14 37q-1 3 -14 34q-7 18 -13 29q-40 66 -117 99q-74 32 -147 32q-58 0 -101 -20q-44 -21 -77 -55q-32 -34 -51 -79q-17 -41 -17 -93q0 -79 46 -143q46 -65 114 -123
q67 -58 148 -115q83 -58 149 -120q66 -61 113 -136q47 -74 47 -164z" />
    <glyph glyph-name="t" unicode="t" horiz-adv-x="1310" 
d="M594 1370h-379q-58 0 -99 -14q-46 -16 -75 -64q0 18 3 44q3 25 12 49q8 22 26 40q17 17 43 17q47 0 87 -1q60 -1 135 -3q80 -2 157 -3q55 -1 153 -1q94 0 147 1t153 3q75 2 135 3q40 1 88 1q23 0 42 -16q16 -13 27 -37q12 -25 16 -49q5 -28 5 -46q-43 76 -180 76h-373
v-1196q0 -84 24 -120q23 -34 68 -62l-53 4q-20 1 -50 3q-18 1 -51 1q-32 0 -50 -1q-30 -2 -50 -3l-53 -4q22 12 38 26q17 14 29 35q14 24 19 49q6 28 6 72v1196z" />
    <glyph glyph-name="u" unicode="u" horiz-adv-x="1460" 
d="M1368 1442q-37 -16 -52 -61q-16 -46 -16 -121v-1106q0 -45 14 -76q15 -34 29 -49q18 -20 46 -37q-11 1 -29.5 2.5t-24.5 1.5q-15 1 -47 3q-16 1 -47 1q-21 0 -33 -1q-6 -1 -18.5 -2t-18.5 -1q-8 -1 -22 -2.5t-21 -1.5q14 7 25 31q9 15 17 50q8 34 8 83q-7 -4 -51 -35
q-46 -32 -106 -61q-64 -31 -154 -57q-89 -26 -189 -26q-112 0 -205 37q-95 38 -162 108t-106 175t-39 240v723q0 53 -16 86q-17 36 -37 57q-22 23 -52 39q12 -1 33.5 -2.5t30.5 -1.5l54 -3q18 -1 46 -1q26 0 41 1q25 2 41 3q8 1 22 2.5t21 1.5q-20 -16 -31 -39
q-13 -23 -21 -56q-9 -35 -9 -87v-777q0 -122 47 -208q46 -84 118 -138q72 -53 153 -77q79 -23 155 -23q81 0 148 19q72 20 122 46q48 25 90 55q36 26 56 46v1057q0 76 -14 115t-54 67q18 -5 55 -6q50 -2 76 -2t62 2q25 1 65 6z" />
    <glyph glyph-name="v" unicode="v" horiz-adv-x="1595" 
d="M1595 1442q-30 -4 -63 -27q-30 -19 -62 -54q-34 -37 -63 -97l-651 -1295l-606 1346q-16 36 -44 61q-29 25 -49 39q-29 17 -57 27q9 0 29 -1.5t30 -2.5q20 -1 55 -3q20 -1 54 -1q30 0 46 1q22 1 40 3q8 1 21 2.5t18 1.5q-11 -11 -23 -28q-10 -14 -10 -30q0 -18 7 -38
q8 -23 24 -56l502 -1126l548 1120q20 42 35 75q13 29 13 42q0 9 -5 16l-8 13q-4 4 -10 12q5 0 15 -1.5t16 -2.5q3 0 9 -1t11 -1.5t10 -0.5q11 -1 33 -1q26 0 42 1t44 3q6 0 22.5 1.5t26.5 2.5z" />
    <glyph glyph-name="w" unicode="w" horiz-adv-x="2199" 
d="M2200 1440q-34 -17 -68 -41q-33 -24 -59 -49q-31 -29 -52 -70l-671 -1300l-271 546l-280 -546l-662 1349q-15 27 -37 46t-45 36q-24 15 -55 31q9 0 29 -1.5t30 -2.5q20 -1 55 -3q20 -1 54 -1t49 1q23 1 39 3q8 1 20.5 2.5t16.5 1.5q-11 -16 -17 -32q-8 -22 -8 -44
q0 -36 37 -111l524 -1085l218 424l-342 709q-18 32 -32 51q-29 38 -34 45q-26 28 -39 43l45 -4q21 -2 45 -3q16 -1 51 -1q26 0 40 1q28 2 40 3q8 1 22 2.5t21 1.5q-12 -12 -24 -29q-11 -12 -17 -28q-6 -15 -6 -29q0 -21 39 -105l254 -536l236 459q34 65 57 123q20 50 20 73
q0 10 -5 23q-3 8 -9 22q-6 12 -12 27l37 -4q5 0 16 -1t16 -2q11 -1 31 -1q28 0 44 1t44 3q7 0 23 1.5t24 2.5q-27 -11 -57 -35q-20 -15 -51 -46q-23 -23 -47 -69l-332 -643l235 -477l564 1092q13 25 22 53q8 26 8 45q0 11 -4 24q-1 2 -3.5 12t-4.5 15q-6 15 -12 27
q7 0 21 -1.5t22 -2.5q22 -2 36 -2h29h44q16 0 46 2q7 0 24.5 1.5t27.5 2.5z" />
    <glyph glyph-name="x" unicode="x" horiz-adv-x="1492" 
d="M1462 1442q-46 -30 -98 -80q-51 -50 -129 -141l-412 -492l367 -496q28 -40 43 -59q12 -16 40 -52q8 -10 21 -26.5t17 -21.5q13 -16 29 -28q5 -4 16.5 -13t17.5 -13l37 -28l-53 4q-22 2 -48 3q-17 1 -48 1q-27 0 -43 -1q-5 0 -15 -1t-18 -1.5t-15 -0.5t-24 -1.5t-27 -2.5
q8 14 10 16q4 7 9 20q4 11 4 27q0 21 -9 42q-9 20 -20 38q-11 20 -29 39l-348 467l-379 -457l-49 -61q-24 -32 -34 -46q-15 -21 -15 -30t5 -19q6 -11 11 -18l19 -18l-45 4l-42 3q-14 1 -40 1q-31 0 -48 -1q-26 -1 -48 -3q-10 -1 -27.5 -2.5t-24.5 -1.5q6 4 31.5 17t35.5 19
q24 13 56 37q29 21 62 56q34 35 80 92l407 489l-409 549q-36 47 -62 80q-26 32 -45 50q-22 21 -40 33t-46 28q10 -1 30.5 -2.5t29.5 -1.5q21 -1 53 -3q19 -1 55 -1q32 0 50 1l54 3l62 4q-16 -14 -21 -21q-10 -14 -14 -22q-6 -12 -6 -27q0 -19 4 -32q6 -21 8 -25q4 -9 15 -25
l366 -497l377 450q7 9 39 49q16 22 27 43q12 23 12 39q0 13 -4 24q-7 19 -8 21q-12 21 -13 23l45 -4q12 -1 40 -3q14 -1 40 -1q32 0 48 1q24 1 42 3q8 1 22.5 2.5t18.5 1.5z" />
    <glyph glyph-name="y" unicode="y" horiz-adv-x="1589" 
d="M1589 1442q-33 -15 -65 -41q-29 -23 -61 -61q-31 -37 -60 -95l-658 -1296q-36 -68 -56 -99q-29 -45 -70 -83q-40 -37 -95 -59q-52 -21 -127 -21q61 22 99 45q39 23 72 53q37 33 57 65q27 43 47 82l53 107l-569 1290q-12 26 -38 48q-27 22 -52 36q-30 16 -66 29l70 -4
q32 -2 61 -3q22 -1 57 -1q32 0 49 1q25 1 48 3q7 0 24 1.5t27 2.5q-16 -13 -23 -27q-10 -16 -14 -26q-6 -15 -6 -27q0 -34 29 -98l479 -1084l536 1080q17 39 22 53q9 27 9 49q0 8 -8 24q-6 12 -19 27q-12 15 -26 29q11 -1 30 -2.5t27 -1.5q30 -2 46 -3t36 -1q26 0 42 1t44 3
q6 0 22.5 1.5t26.5 2.5z" />
    <glyph glyph-name="z" unicode="z" horiz-adv-x="1386" 
d="M1329 141q-15 -36 -17 -41q-9 -21 -20 -41q-17 -31 -30 -45q-16 -18 -45 -18q-92 0 -130 1t-114 1q-79 0 -122 1t-151 1h-673q44 66 111 152q102 131 183 233q109 137 218 278q41 52 114.5 146t105.5 135q53 68 190 246q78 101 128 172q-52 0 -162 2q-66 1 -149 3
q-53 1 -145 1q-141 0 -205 -1q-104 -2 -166 -7q-33 -4 -54 -12q-18 -6 -36 -19t-27 -26q0 23 4 43q6 22 9 35q4 18 18 30q17 17 31 24t38 7q30 0 165 -5t296 -5h154q48 0 136 2q44 1 136 3q100 2 152 5q-15 -22 -68 -92q-60 -80 -125 -163q-29 -37 -89.5 -115t-73.5 -95
q-12 -15 -78.5 -101t-102.5 -132q-34 -43 -95 -121.5t-86 -110.5q-35 -45 -96.5 -124.5t-64.5 -83.5q-91 -118 -122 -157q-44 -56 -64 -84q120 -2 180 -2q104 -2 167 -2h167q103 0 156 1q58 1 148 5q79 3 118 7q49 4 63 10q87 34 137 102z" />
    <glyph glyph-name="braceleft" unicode="{" horiz-adv-x="690" 
d="M569 -307q-102 0 -154 16q-54 16 -80 58q-25 40 -30 110q-4 61 -4 176v344q0 75 -6 131t-30 92t-71 55q-46 19 -133 25v35q82 7 133 28q47 19 71 55t30 89q6 54 6 131v369q0 93 5 165q4 62 33 102q26 37 85 52q57 15 164 15v-19q-66 0 -101 -15q-34 -15 -51 -43
q-16 -26 -19 -69q-3 -40 -3 -94v-362q0 -90 -5 -170q-4 -70 -31 -122q-26 -51 -77 -81q-53 -31 -143 -49q90 -18 143 -49q51 -30 77 -81q27 -52 31 -122q5 -80 5 -170v-346q0 -58 3 -102t19 -73t51 -46q36 -17 101 -17v-18h-19z" />
    <glyph glyph-name="bar" unicode="|" 
d="M164 -307v2048h123v-2048h-123z" />
    <glyph glyph-name="braceright" unicode="}" horiz-adv-x="690" 
d="M102 -307v18q63 0 100 17q35 16 53 46q17 28 20 73q4 58 4 102v346q0 90 5 170q4 71 29 122t76 81q53 31 143 49q-90 18 -143 49q-51 30 -76 81t-29 122q-5 80 -5 170v362q0 40 -4 94q-3 44 -20 69q-19 29 -53 43q-36 15 -100 15v19q107 0 164 -15q59 -15 85 -52
q29 -40 33 -102q5 -72 5 -165v-369q0 -78 6 -131t30 -89q24 -35 72 -55q51 -21 132 -28v-35q-85 -6 -132 -25q-48 -20 -72 -55q-24 -36 -30 -92q-6 -55 -6 -131v-344q0 -115 -4 -176q-5 -70 -30 -110q-26 -42 -80 -58q-52 -16 -154 -16h-19z" />
    <glyph glyph-name="asciitilde" unicode="~" horiz-adv-x="1013" 
d="M932 801q-29 -102 -84 -154q-52 -49 -148 -49q-62 0 -110 23q-49 24 -89 48q-47 29 -82 48q-40 22 -91 22q-60 0 -100 -28q-38 -27 -72 -117l-74 39q29 70 60 110q33 43 65 63q36 23 63 27q33 5 60 5q64 0 110 -23q43 -21 85 -48q43 -27 82 -48q43 -23 100 -23q30 0 51 6
q19 5 37 22q14 12 29 43q10 20 30 69z" />
    <glyph glyph-name="nonbreakingspace" unicode="&#xa0;" horiz-adv-x="512" 
 />
    <glyph glyph-name="exclamdown" unicode="&#xa1;" horiz-adv-x="530" 
d="M360 1350q0 -40 -27 -68q-27 -29 -69 -29q-38 0 -67 29t-29 68q0 40 29 67q28 27 67 27q42 0 69 -27t27 -67zM408 -16q-8 1 -24.5 2.5t-23.5 1.5q-23 2 -46 3q-17 1 -50 1q-17 0 -49 -2q-9 -1 -24 -2.5t-21 -1.5q-7 0 -23 -1.5t-24 -2.5q18 7 35 20q10 9 23 30
q13 20 14 48l61 1020h12l70 -1020q2 -29 13 -48q12 -20 24 -30q15 -12 33 -18z" />
    <glyph glyph-name="cent" unicode="&#xa2;" horiz-adv-x="940" 
d="M500 258q-119 11 -203 51q-81 39 -136 102q-51 59 -76 137q-24 76 -24 157q0 118 40 202q41 87 104 144q64 58 141 86q75 27 154 32v406h51v-406q81 -5 143 -18q78 -16 133 -35q0 -25 -2 -75q-1 -35 -8 -68q-45 71 -107 110q-62 38 -159 43v-827h18q73 0 118 14
q51 16 81 35q33 21 53 44q21 24 37 40q-5 -42 -9 -71t-22 -66q-55 -10 -124 -26q-58 -13 -132 -13h-20v-395h-51v397zM170 756q0 -80 18 -156q17 -74 59 -137t102 -105q62 -43 151 -55v823q-154 -8 -242 -109t-88 -261z" />
    <glyph glyph-name="sterling" unicode="&#xa3;" horiz-adv-x="1044" 
d="M1006 137q-1 -7 -9 -28q-1 -4 -4.5 -13.5t-5.5 -15.5q-7 -20 -16 -35q-16 -31 -39 -47q-21 -14 -62 -14q-30 0 -140 2q-51 1 -173 5q-100 3 -176 6q-85 3 -150 3q-12 0 -54 -2q-32 -2 -62 -6q-38 -5 -74 -6q23 16 72 38q40 18 77 49t63 89t26 155v23q0 1 -3 22l-20 320
h-203v68h199l-14 231q0 17 -1 25t-1 24q0 107 26 185q28 83 73 137q47 56 109 84t138 28q45 0 85 -5q36 -5 63 -12q30 -8 54 -19q11 -5 32.5 -13.5t25.5 -9.5l20 -8q4 -2 27 -8l-4 -33q-1 -5 -2 -14.5t-1 -14.5q-1 -10 -1 -27v-63q0 -13 2 -35q-14 30 -19 45l-16 37
q-3 7 -9.5 19t-7.5 14q-14 22 -38 40q-29 22 -63 38q-26 12 -77 27q-40 12 -80 12q-104 0 -164 -69q-61 -70 -61 -179v-29l29 -407h262v-68h-256l10 -178q2 -22 2 -32v-32q0 -111 -20 -180q-22 -75 -43 -113q-27 -50 -62 -75q4 0 59 -5q103 -9 112 -10q20 -1 61.5 -3.5
t62.5 -4.5q55 -4 94 -4q13 0 69 2q43 2 83 6q48 5 75 10q30 5 46 15q20 14 23 16q12 8 17 11q3 1 14 13z" />
    <glyph glyph-name="currency" unicode="&#xa4;" horiz-adv-x="1449" 
d="M391 594q23 -116 74 -226q50 -109 125 -190q77 -83 180 -130q105 -48 242 -48q73 0 134 22q60 21 102 55q45 36 74 76q28 40 46 83l-1 -14q-1 -5 -1.5 -15.5t-0.5 -16.5q-2 -24 -4 -38q-3 -23 -7 -33q-2 -8 -7 -25t-7 -25q-5 -22 -15 -44q-84 -37 -154 -51
q-77 -15 -170 -15q-191 0 -327 53q-134 52 -224 142q-91 91 -138 202q-47 112 -64 238h-207l22 68h179q-2 20 -2 27v28v27q0 8 2 28h-201l22 68h183q21 168 88 287q68 120 161 197q93 76 201 114q107 37 213 37q60 0 113 -8q57 -9 88 -17q44 -12 72 -22q7 -3 65 -21
q21 -6 59 -14q21 -5 27 -9v-36q0 -22 1 -32t1 -28q0 -31 -6 -61q-3 -14 -10 -62q-17 56 -49 109q-28 46 -78 85q-45 34 -114 55q-68 20 -158 20q-123 0 -223 -41q-98 -40 -170 -118q-69 -74 -110 -188q-40 -110 -46 -247h837l-24 -68h-813q0 -28 3 -55q4 -36 7 -55h768
l-25 -68h-733z" />
    <glyph glyph-name="yen" unicode="&#xa5;" horiz-adv-x="1236" 
d="M285 641h258v8l-377 666q-16 30 -33 53q-16 22 -40 43q-23 20 -52 31q2 0 26 -2q30 -2 37 -3t21 -1t21 -1q14 -1 38 -1q26 0 41 1q25 2 41 3q8 1 22 2.5t21 1.5q-3 -5 -16 -23q-8 -14 -11 -22q-6 -16 -6 -25q0 -5 16 -37q4 -9 10.5 -20.5t15 -27.5t14.5 -27
q21 -39 56 -101q12 -22 36 -63t29 -49q101 -173 176 -299q107 178 180 307q5 9 65 115q31 55 59 106q26 47 41 79q15 31 15 40q0 15 -9 29q-10 15 -13 18q4 0 18.5 -2t25.5 -3q30 -3 54 -3q15 0 69 2q40 1 58 6q-10 -4 -30 -15q-22 -12 -43 -29q-24 -19 -49 -52
q-27 -36 -50 -82l-354 -615v-8h260v-68h-260v-110h260v-68h-260v-241q0 -48 10 -77q10 -30 22 -50q15 -23 35 -37l-45 4q-7 0 -21 1.5t-22 2.5q-30 2 -41 2q-26 0 -40 -1l-42 -3q-7 0 -23 -1.5t-24 -2.5q17 12 33 35q8 13 23 49q12 30 12 78v241h-258v68h258v110h-258v68z
" />
    <glyph glyph-name="brokenbar" unicode="&#xa6;" 
d="M164 819v819h123v-819h-123zM287 614v-819h-123v819h123z" />
    <glyph glyph-name="section" unicode="&#xa7;" horiz-adv-x="757" 
d="M109 1253q0 62 19 113q20 53 55 93t87 64q49 23 115 23q67 0 129 -17q67 -18 119 -42q-6 -42 -5 -79q1 -27 -1 -81q-33 70 -100 124q-64 52 -150 52q-41 0 -75 -15q-31 -14 -57 -41q-23 -25 -37 -58q-13 -32 -13 -70q0 -66 35 -114q37 -51 89 -94q54 -44 116 -86
q67 -44 116 -91q54 -51 89 -108q36 -58 36 -134q0 -114 -47 -187t-125 -106q60 -45 103 -104q42 -57 42 -139q0 -62 -19 -113q-19 -52 -56 -93q-35 -40 -87 -64q-49 -23 -114 -23q-67 0 -129 17q-67 18 -119 42q6 42 5 79q-1 27 1 81q34 -71 99 -124q64 -52 151 -52
q41 0 75 15q31 14 57 41q23 25 37 58q13 32 13 70q0 64 -36 114q-37 51 -89 94q-67 54 -115 86q-67 44 -116 91q-54 51 -89 108q-36 59 -36 134q0 115 46 186q47 72 124 105q-58 45 -101 105q-42 59 -42 140zM586 621q0 63 -26 113q-27 52 -66 91t-92 76q-17 12 -50 35.5
t-49 34.5q-50 -17 -91 -62q-40 -43 -40 -121q0 -62 24 -112q25 -52 63 -90q42 -42 90 -77t106 -71q49 16 91 61q40 43 40 122z" />
    <glyph glyph-name="dieresis" unicode="&#xa8;" horiz-adv-x="528" 
d="M61 1614q0 33 22 57q21 23 52 23q30 0 53 -23t23 -57q0 -35 -23 -56q-24 -22 -53 -22q-30 0 -52 22t-22 56zM317 1614q0 33 22 57q21 23 52 23q30 0 53 -23t23 -57q0 -35 -23 -56q-24 -22 -53 -22q-30 0 -52 22t-22 56z" />
    <glyph glyph-name="copyright" unicode="&#xa9;" horiz-adv-x="1622" 
d="M1114 461q-5 -38 -9 -65q-4 -29 -20 -60q-48 -9 -110 -23q-53 -12 -119 -12q-126 0 -213 34q-88 34 -143 91q-56 58 -80 129q-25 75 -25 150q0 106 38 187q36 77 98 131q60 52 134 77q72 24 142 24q75 0 144 -13q73 -14 134 -36q0 -20 -2 -66q-1 -35 -6 -63
q-44 69 -104 105q-59 36 -160 36q-73 0 -133 -24q-58 -23 -100 -70t-64 -106q-22 -60 -22 -135q0 -78 21 -153q20 -72 67 -133q46 -59 113 -93q70 -35 165 -35q66 0 106 13q41 13 70 33q28 19 46 40q27 32 32 37zM61 717q0 155 60 292q60 136 161 237t237 161q134 59 292 59
t292 -59q136 -60 237 -161t161 -237q60 -137 60 -292t-60 -292t-161 -238q-100 -100 -237 -160t-292 -60t-292 60t-237 160q-101 101 -161 238t-60 292zM137 717q0 -137 53 -263q51 -122 145 -217t214 -148q123 -54 262 -54t262 54q120 53 214 148t145 217q53 126 53 263
t-53 263q-51 122 -145 217t-214 148q-123 54 -262 54t-262 -54q-120 -53 -214 -148t-145 -217q-53 -126 -53 -263z" />
    <glyph glyph-name="ordfeminine" unicode="&#xaa;" horiz-adv-x="1052" 
d="M1032 569q-26 5 -66 8q-44 3 -81 3q-8 0 -36 -2q-7 0 -21 -2l-21 -3q-6 0 -22.5 -1.5t-26.5 -2.5q5 4 24 23l19 19q8 10 8 18q0 6 -2 28q-1 14 -10 33l-49 117h-482l-51 -117q-14 -31 -14 -55q0 -6 6 -18q5 -10 16 -21q14 -16 25 -27l-45 4l-37 5q-24 2 -27 2
q-33 0 -64 -3q-29 -3 -55 -8q35 21 72 57q33 32 51 70l381 791l379 -791q22 -43 54 -72q37 -34 75 -55zM508 1319q-54 -113 -65 -138q-40 -89 -70 -151q-69 -146 -80 -170h430zM20 313v68h1012v-68h-1012z" />
    <glyph glyph-name="uni00AB" unicode="&#xab;" horiz-adv-x="856" 
d="M729 328l-297 389l301 385l-176 -383zM420 328l-297 389l301 385l-174 -383z" />
    <glyph glyph-name="logicalnot" unicode="&#xac;" horiz-adv-x="1013" 
d="M836 365v311h-754v96h850v-407h-96z" />
    <glyph glyph-name="uni00AD" unicode="&#xad;" horiz-adv-x="634" 
d="M74 715v108h485v-108h-485z" />
    <glyph glyph-name="registered" unicode="&#xae;" horiz-adv-x="1622" 
d="M1231 352q-1 -5 -10 -10q-18 -8 -37 -8q-52 0 -103 25q-54 26 -94 69q-17 20 -56 73q-43 58 -65 91q-15 21 -42.5 62t-32.5 48h-117v-268q0 -20 9 -38q7 -14 19 -31q10 -13 31 -31q-8 1 -21 2.5t-18 1.5t-16.5 1.5t-17.5 2.5q-24 2 -27 2q-25 0 -50 -3q-29 -3 -42 -7
q13 10 24 28q14 20 19 32q8 19 8 40v604q0 22 -7 37q-8 18 -18 29q-9 12 -22 24q22 -3 38 -4q36 -2 50 -2q21 0 61 2t72 2q46 0 86 -15q41 -15 71 -42q29 -26 47 -61q17 -33 17 -72q0 -61 -17 -98q-19 -41 -40 -62q-22 -25 -58 -43l23 -33q12 -20 63 -98q37 -57 84 -115
q40 -50 94 -95q47 -40 95 -40zM907 909q0 77 -44 129t-122 52q-13 0 -24 -1q-16 -1 -43 -12v-334h86q56 0 102 38q45 37 45 128zM61 717q0 155 60 292q60 136 161 237t237 161q134 59 292 59t292 -59q136 -60 237 -161t161 -237q60 -137 60 -292t-60 -292t-161 -238
q-100 -100 -237 -160t-292 -60t-292 60t-237 160q-101 101 -161 238t-60 292zM137 717q0 -137 53 -263q51 -122 145 -217t214 -148q123 -54 262 -54t262 54q120 53 214 148t145 217q53 126 53 263t-53 263q-51 122 -145 217t-214 148q-123 54 -262 54t-262 -54
q-120 -53 -214 -148t-145 -217q-53 -126 -53 -263z" />
    <glyph glyph-name="macron" unicode="&#xaf;" horiz-adv-x="577" 
d="M82 1638h434l-20 -82h-435z" />
    <glyph glyph-name="degree" unicode="&#xb0;" horiz-adv-x="530" 
d="M61 1270q0 84 59 145q58 60 144 60t146 -60q59 -59 59 -145q0 -87 -59 -145t-146 -58q-86 0 -144 58q-59 59 -59 145zM117 1270q0 -63 43 -106q44 -44 104 -44q62 0 106 44t44 106q0 60 -44 106q-44 45 -106 45q-60 0 -104 -45q-43 -44 -43 -106z" />
    <glyph glyph-name="plusminus" unicode="&#xb1;" horiz-adv-x="1013" 
d="M557 905h375v-96h-375v-377h-100v377h-375v96h375v377h100v-377zM82 195v96h850v-96h-850z" />
    <glyph glyph-name="twosuperior" unicode="&#xb2;" horiz-adv-x="645" 
d="M584 709q-15 -30 -34 -79q-18 -47 -52 -75q-39 11 -54 12q-20 2 -34 2h-261q-15 0 -29 -1q-43 -3 -59 -5v25q100 114 152 179q79 97 121 161q54 81 79 145q27 69 27 137q0 34 -8 71q-8 35 -25 61q-19 28 -43 44q-26 17 -61 17q-30 0 -54 -14q-28 -17 -47 -38
q-21 -24 -38 -52q-18 -30 -25 -54q-4 13 -10 51t-6 58v37q0 6 2 16q30 14 71 28q33 11 103 11q106 0 170 -61q63 -60 63 -171q0 -64 -25 -129t-72 -136q-49 -75 -108 -146q-46 -56 -137 -158h199q72 0 114 18q44 19 81 46z" />
    <glyph glyph-name="threesuperior" unicode="&#xb3;" horiz-adv-x="585" 
d="M524 825q0 -64 -23 -111q-24 -50 -62 -85q-39 -36 -85 -55q-45 -19 -94 -19q-43 0 -59 1q-31 2 -45 5t-40 9q-12 3 -46 16v2q-1 2 -1.5 5.5t-0.5 7.5q-1 9 -3 29l-3 30q-1 10 -1 24v39q0 6 2 22q19 -39 31 -60q15 -26 35 -43q21 -18 48 -27t73 -9q88 0 130 56t42 137
q0 40 -20 77q-18 34 -51 62q-31 27 -71 43q-41 17 -79 18v31q40 18 69 35q38 23 62 47q27 26 43 58q16 31 16 71q0 65 -35 106q-33 39 -84 39q-72 0 -113 -34q-43 -35 -55 -97q-9 24 -10 45q-2 32 -2 41v15q0 6 2 14q0 6 2 14q40 38 86 50q47 12 94 12q33 0 67 -10
q39 -11 67 -34q31 -25 50 -61q19 -37 19 -90q0 -73 -44 -117q-41 -41 -97 -81q33 -7 71 -33q31 -22 59 -56q26 -33 41 -69q15 -37 15 -70z" />
    <glyph glyph-name="acute" unicode="&#xb4;" horiz-adv-x="526" 
d="M424 1722q0 -37 -59 -65l-297 -121l-7 8l197 189q47 47 96 47q27 0 49 -17q21 -16 21 -41z" />
    <glyph glyph-name="uni00B5" unicode="&#xb5;" horiz-adv-x="1988" 
d="M1907 -8q-7 0 -21 1.5t-22 2.5q-16 1 -41 3q-15 1 -43 1q-26 0 -41 -1t-43 -3l-45 -4q13 17 20 35q2 4 7.5 15.5t8.5 18.5q7 17 7 39q0 8 -6 57q-3 27 -17 127q-3 20 -10.5 78.5t-12.5 94.5q-18 128 -28 194q-34 239 -72 520l-573 -1200l-561 1209q-56 -270 -99 -498
q-6 -34 -18 -99.5t-17 -94.5q-7 -38 -18 -102t-14 -79q-17 -92 -23 -147q-8 -67 -8 -92q0 -16 20 -36q19 -19 46 -40q-7 0 -21 1.5t-22 2.5q-12 1 -40 3q-14 1 -40 1q-17 0 -30 -1q-26 -2 -40 -3q-6 0 -22.5 -1.5t-26.5 -2.5q28 21 40 33q15 15 25 36q11 24 20 62
q10 43 21 104q31 159 101 521q7 39 20.5 109t16.5 84q6 32 16.5 89.5t15.5 83.5q17 89 23 129q8 54 8 60q0 19 -19 42q-17 21 -42 46q-23 21 -62 51l54 -4q15 -1 47 -3q16 -1 45 -1q21 0 32 1l33 3l37 4q0 -63 14 -106q15 -46 39 -99l473 -1022l474 975q12 23 32 67
q14 33 23 59q10 29 10 48q0 14 -6 29q-4 10 -14 24q-7 11 -19 25q8 -1 24 -2.5t23 -1.5t20.5 -1t20.5 -2q14 -1 37 -1t40 1q34 2 50 3q8 0 29 1.5t33 2.5q-25 -16 -56 -34q-16 -9 -31 -24q-11 -11 -16 -27q-4 -13 -4 -44v-30q0 -9 2 -23q0 -9 2 -25l123 -995q5 -37 14 -76
q6 -26 21 -62q11 -25 31 -54q20 -28 45 -56z" />
    <glyph glyph-name="paragraph" unicode="&#xb6;" horiz-adv-x="1169" 
d="M612 1305q0 60 -6 84t-24 24q-53 0 -97 -22q-43 -22 -77 -69q-34 -48 -53 -118t-19 -172q0 -179 74 -280t202 -101v654zM612 614h-37q-103 0 -185 30t-142 84q-58 52 -92 131q-33 76 -33 173q0 84 31 160q30 74 87 129q58 56 134 87q79 32 174 32q23 0 44 -1
q11 -1 34 -1.5t35 -0.5t35 -0.5t34 -1.5q22 -1 49 -1h40q49 0 78 1q44 1 90 3q18 1 46 2.5t33 1.5q-18 -8 -31 -25q-12 -17 -21 -42t-9 -66v-1432q0 -48 10 -77q10 -30 22 -50q15 -23 35 -37l-45 4q-7 0 -21 1.5t-22 2.5q-4 0 -19 1.5t-22 1.5q-12 0 -40 -2l-42 -3
q-7 0 -23 -1.5t-24 -2.5q16 15 31 37q12 20 22 50q11 31 11 77v40q0 42 1 77t1 146q0 145 1 249t1 384v552q0 30 -17 58t-57 28q-35 0 -54 -21q-20 -22 -20 -61v-1452q0 -48 10 -77q9 -25 23 -50q15 -23 35 -37l-45 4q-7 0 -21 2t-22 3q-30 2 -41 2q-26 0 -40 -1
q-7 -1 -21 -2t-21 -2q-7 0 -23 -1.5t-24 -2.5q17 12 33 35q8 13 23 49q11 27 11 78v735z" />
    <glyph glyph-name="periodcentered" unicode="&#xb7;" horiz-adv-x="356" 
d="M274 717q0 -41 -28 -68q-27 -26 -68 -26q-42 0 -68 26q-28 28 -28 68q0 37 28 67q27 29 68 29q39 0 68 -29q28 -28 28 -67z" />
    <glyph glyph-name="cedilla" unicode="&#xb8;" horiz-adv-x="555" 
d="M494 -266q0 -43 -29 -78t-72 -59q-47 -26 -90 -37q-50 -13 -84 -13h-20q-9 0 -39 2q-6 0 -22.5 1.5t-26.5 2.5q-35 2 -50 5q33 0 95 5q58 5 105 19q53 16 85 41q35 27 35 72q0 44 -28 86q-27 40 -115 67q-13 5 -18 5t-5 4l25 22l129 111h28q-26 -22 -54 -58
q-10 -13 -24.5 -31.5t-17.5 -21.5q99 0 145 -43q48 -45 48 -102z" />
    <glyph glyph-name="onesuperior" unicode="&#xb9;" horiz-adv-x="395" 
d="M334 561q-5 0 -54 5q-32 3 -53 3q-12 0 -24 -1q-18 -2 -39 -3q-6 0 -22.5 -1.5t-26.5 -2.5q14 9 32 31q15 18 23 35q10 20 10 43v628l-92 -104l-27 29l191 223h20v-776q0 -24 10 -46q8 -18 21 -34q12 -16 31 -29z" />
    <glyph glyph-name="ordmasculine" unicode="&#xba;" horiz-adv-x="1007" 
d="M946 991q0 -96 -40 -175q-40 -78 -101 -135q-61 -56 -136 -88q-76 -32 -147 -32q-98 0 -183 33t-146 94q-63 62 -97 148q-35 87 -35 192q0 102 37 183q38 83 98 142t138 90q79 32 162 32q115 0 201 -44q85 -43 141 -113q54 -68 82 -155q26 -82 26 -172zM854 977
q0 89 -28 175q-27 83 -76 145q-49 63 -115 100q-65 37 -139 37q-78 0 -143 -31q-60 -29 -106 -84q-45 -56 -68 -125t-23 -156q0 -90 29 -167q30 -80 82 -139q54 -61 121 -95q70 -35 149 -35q52 0 109 24q59 25 103 69t75 117q30 70 30 165zM61 313v68h885v-68h-885z" />
    <glyph glyph-name="uni00BB" unicode="&#xbb;" horiz-adv-x="856" 
d="M299 719l-176 383l301 -385l-297 -389zM606 719l-174 383l301 -385l-297 -389z" />
    <glyph glyph-name="onequarter" unicode="&#xbc;" horiz-adv-x="1292" 
d="M334 561q-5 0 -54 5q-32 3 -53 3q-12 0 -24 -1q-18 -2 -39 -3q-6 0 -22.5 -1.5t-26.5 -2.5q14 9 32 31q15 18 23 35q10 20 10 43v628l-92 -104l-27 29l191 223h20v-776q0 -24 10 -46q8 -18 21 -34q12 -16 31 -29zM229 -18h-88l936 1507h88zM1231 326q0 -10 -4 -17
q-2 -4 -8 -19l-9 -24q-22 -39 -69 -39h-39v-123q0 -28 10 -49t23 -39q14 -19 32 -36l-45 4q-6 0 -18.5 1.5t-19.5 2.5q-26 2 -29 2q-18 0 -30 -1t-34 -3q-28 -2 -39 -2q20 20 29 36q9 14 19 39t10 45v123h-420l512 688v-634q58 0 81 10t48 35zM1010 692l-303 -411h303v411z
" />
    <glyph glyph-name="onehalf" unicode="&#xbd;" horiz-adv-x="1441" 
d="M334 561q-5 0 -54 5q-32 3 -53 3q-12 0 -24 -1q-18 -2 -39 -3q-6 0 -22.5 -1.5t-26.5 -2.5q14 9 32 31q15 18 23 35q10 20 10 43v628l-92 -104l-27 29l191 223h20v-776q0 -24 10 -46q8 -18 21 -34q12 -16 31 -29zM225 -18h-88l936 1507h88zM1380 139q-11 -21 -33 -79
q-17 -44 -53 -74q-40 11 -53 12q-20 2 -35 2h-260q-16 0 -30 -1q-40 -3 -58 -5v24q89 102 152 180q77 95 120 160q53 79 79 146q28 72 28 137q0 34 -8 71q-7 33 -26 61t-43 44q-26 17 -60 17q-28 0 -54 -15q-30 -18 -48 -38q-19 -22 -37 -51q-18 -30 -25 -54q-4 13 -10 51
q-6 37 -6 57v37q0 7 2 17q25 12 70 27q36 12 104 12q106 0 170 -61q63 -60 63 -171q0 -64 -25 -129t-72 -136q-49 -74 -109 -147q-47 -57 -136 -157h199q73 0 113 17q44 19 81 46z" />
    <glyph glyph-name="threequarters" unicode="&#xbe;" horiz-adv-x="1349" 
d="M524 825q0 -64 -23 -111q-24 -50 -62 -85q-39 -36 -85 -55q-45 -19 -94 -19q-43 0 -59 1q-31 2 -45 5t-40 9q-12 3 -46 16v2q-1 2 -1.5 5.5t-0.5 7.5q-1 9 -3 29l-3 30q-1 10 -1 24v39q0 6 2 22q19 -39 31 -60q15 -26 35 -43q21 -18 48 -27t73 -9q88 0 130 56t42 137
q0 40 -20 77q-18 34 -51 62q-31 27 -71 43q-41 17 -79 18v31q40 18 69 35q38 23 62 47q27 26 43 58q16 31 16 71q0 65 -35 106q-33 39 -84 39q-72 0 -113 -34q-43 -35 -55 -97q-9 24 -10 45q-2 32 -2 41v15q0 6 2 14q0 6 2 14q40 38 86 50q47 12 94 12q33 0 67 -10
q39 -11 67 -34q31 -25 50 -61q19 -37 19 -90q0 -73 -44 -117q-41 -41 -97 -81q33 -7 71 -33q31 -22 59 -56q26 -33 41 -69q15 -37 15 -70zM287 -18h-88l936 1507h88zM1288 326q0 -10 -4 -17q-2 -4 -8 -19q-2 -4 -4 -12t-4 -12q-22 -39 -70 -39h-39v-123q0 -28 10 -49t23 -39
q12 -17 33 -36l-45 4q-6 0 -18.5 1.5t-19.5 2.5q-26 2 -30 2q-18 0 -30 -1l-33 -3q-28 -2 -39 -2q17 17 28 36q12 19 20 39q9 23 9 45v123h-420l512 688v-634q58 0 81 10t48 35zM1067 692l-303 -411h303v411z" />
    <glyph glyph-name="questiondown" unicode="&#xbf;" horiz-adv-x="933" 
d="M610 1360q0 -40 -27 -68t-69 -28q-40 0 -68 28t-28 68t28 67t68 27q42 0 69 -27t27 -67zM811 18q-37 -5 -57 -10q-34 -8 -39 -10q-55 -16 -115 -27q-54 -10 -117 -10q-96 0 -165 24t-111 66q-43 43 -64 102q-20 56 -20 126q0 67 15 116q14 48 44 85q28 36 69 63
q43 29 89 51q39 18 98 45q50 23 84 43q40 23 69 61q30 39 30 84q0 42 -10 80q-10 39 -23 62q-16 28 -32 46q-6 7 -17.5 19.5t-16.5 18.5q80 -48 128 -119q46 -68 46 -129q0 -47 -18 -84q-17 -35 -49 -69q-28 -30 -73 -60q-11 -8 -40.5 -28.5t-46.5 -31.5q-45 -31 -87 -56
q-45 -26 -84 -62q-38 -35 -64 -79q-25 -43 -25 -102q0 -64 22 -107q23 -45 61 -72q39 -28 89 -40q51 -12 106 -12q45 0 93 8q41 7 83 27q37 18 63 45q27 29 34 63v3q1 2 1.5 6.5t0.5 9.5t1 11t2 14.5t2 14.5q4 32 7 49q1 4 3.5 21t4.5 25q1 -6 2.5 -21t2.5 -22
q1 -8 3.5 -26.5t3.5 -28.5q4 -38 5 -54l2 -32z" />
    <glyph glyph-name="Agrave" unicode="&#xc0;" horiz-adv-x="1650" 
d="M1630 -8q-11 0 -33 1.5t-34 2.5q-24 1 -64 3q-23 1 -67 1q-32 0 -50 -1q-24 -1 -49 -3l-53 -4q12 8 20 20q12 17 16 24q7 13 7 30q0 29 -4 49q-4 22 -21 61l-94 209h-827l-98 -209q-10 -22 -18 -50q-7 -25 -7 -50q0 -11 8 -27q5 -10 19 -26q12 -17 26 -31q-10 1 -27 2.5
t-24 1.5q-30 2 -46 3t-44 1q-33 0 -50 -1q-26 -1 -48 -3q-8 -1 -24.5 -2.5t-23.5 -1.5q40 24 56 36q29 22 44 38q19 20 37 46q15 22 33 62l631 1311l625 -1311q18 -37 34 -60q17 -24 39 -46q21 -21 48 -39q36 -24 63 -37zM795 1276l-392 -832h775zM541 1722q0 25 20 41
q22 17 49 17q50 0 97 -47l196 -189l-6 -8l-297 121q-59 28 -59 65z" />
    <glyph glyph-name="Aacute" unicode="&#xc1;" horiz-adv-x="1650" 
d="M1630 -8q-11 0 -33 1.5t-34 2.5q-24 1 -64 3q-23 1 -67 1q-32 0 -50 -1q-24 -1 -49 -3l-53 -4q12 8 20 20q12 17 16 24q7 13 7 30q0 29 -4 49q-4 22 -21 61l-94 209h-827l-98 -209q-10 -22 -18 -50q-7 -25 -7 -50q0 -11 8 -27q5 -10 19 -26q12 -17 26 -31q-10 1 -27 2.5
t-24 1.5q-30 2 -46 3t-44 1q-33 0 -50 -1q-26 -1 -48 -3q-8 -1 -24.5 -2.5t-23.5 -1.5q40 24 56 36q29 22 44 38q19 20 37 46q15 22 33 62l631 1311l625 -1311q18 -37 34 -60q17 -24 39 -46q21 -21 48 -39q36 -24 63 -37zM795 1276l-392 -832h775zM1128 1722q0 -37 -59 -65
l-297 -121l-6 8l197 189q47 47 96 47q27 0 49 -17q20 -16 20 -41z" />
    <glyph glyph-name="Acircumflex" unicode="&#xc2;" horiz-adv-x="1650" 
d="M1630 -8q-11 0 -33 1.5t-34 2.5q-24 1 -64 3q-23 1 -67 1q-32 0 -50 -1q-24 -1 -49 -3l-53 -4q12 8 20 20q12 17 16 24q7 13 7 30q0 29 -4 49q-4 22 -21 61l-94 209h-827l-98 -209q-10 -22 -18 -50q-7 -25 -7 -50q0 -11 8 -27q5 -10 19 -26q12 -17 26 -31q-10 1 -27 2.5
t-24 1.5q-30 2 -46 3t-44 1q-33 0 -50 -1q-26 -1 -48 -3q-8 -1 -24.5 -2.5t-23.5 -1.5q40 24 56 36q29 22 44 38q19 20 37 46q15 22 33 62l631 1311l625 -1311q18 -37 34 -60q17 -24 39 -46q21 -21 48 -39q36 -24 63 -37zM795 1276l-392 -832h775zM1085 1536l-262 121
l-260 -121l-4 8l264 254l267 -254z" />
    <glyph glyph-name="Atilde" unicode="&#xc3;" horiz-adv-x="1650" 
d="M1630 -8q-11 0 -33 1.5t-34 2.5q-24 1 -64 3q-23 1 -67 1q-32 0 -50 -1q-24 -1 -49 -3l-53 -4q12 8 20 20q12 17 16 24q7 13 7 30q0 29 -4 49q-4 22 -21 61l-94 209h-827l-98 -209q-10 -22 -18 -50q-7 -25 -7 -50q0 -11 8 -27q5 -10 19 -26q12 -17 26 -31q-10 1 -27 2.5
t-24 1.5q-30 2 -46 3t-44 1q-33 0 -50 -1q-26 -1 -48 -3q-8 -1 -24.5 -2.5t-23.5 -1.5q40 24 56 36q29 22 44 38q19 20 37 46q15 22 33 62l631 1311l625 -1311q18 -37 34 -60q17 -24 39 -46q21 -21 48 -39q36 -24 63 -37zM795 1276l-392 -832h775zM1073 1692
q-24 -94 -50 -125t-73 -31q-26 0 -59 13q-13 5 -38 15t-34 14q-65 26 -73 29q-35 13 -64 13q-28 0 -54 -30q-30 -35 -44 -54l-6 4q29 87 69 124q41 38 84 38q26 0 53 -13q38 -18 60 -29q31 -15 61 -29q29 -13 60 -13q35 0 60 21q25 20 42 55z" />
    <glyph glyph-name="Adieresis" unicode="&#xc4;" horiz-adv-x="1650" 
d="M1630 -8q-11 0 -33 1.5t-34 2.5q-24 1 -64 3q-23 1 -67 1q-32 0 -50 -1q-24 -1 -49 -3l-53 -4q12 8 20 20q12 17 16 24q7 13 7 30q0 29 -4 49q-4 22 -21 61l-94 209h-827l-98 -209q-10 -22 -18 -50q-7 -25 -7 -50q0 -11 8 -27q5 -10 19 -26q12 -17 26 -31q-10 1 -27 2.5
t-24 1.5q-30 2 -46 3t-44 1q-33 0 -50 -1q-26 -1 -48 -3q-8 -1 -24.5 -2.5t-23.5 -1.5q40 24 56 36q29 22 44 38q19 20 37 46q15 22 33 62l631 1311l625 -1311q18 -37 34 -60q17 -24 39 -46q21 -21 48 -39q36 -24 63 -37zM795 1276l-392 -832h775zM623 1614q0 34 21 57
t52 23t54 -23q22 -22 22 -57t-22 -56q-24 -22 -54 -22t-52 22q-21 21 -21 56zM879 1614q0 34 21 57t52 23t54 -23q22 -22 22 -57t-22 -56q-24 -22 -54 -22t-52 22q-21 21 -21 56z" />
    <glyph glyph-name="Aring" unicode="&#xc5;" horiz-adv-x="1650" 
d="M1630 -8q-11 0 -33 1.5t-34 2.5q-24 1 -64 3q-23 1 -67 1q-32 0 -50 -1q-24 -1 -49 -3l-53 -4q12 8 20 20q12 17 16 24q7 13 7 30q0 29 -4 49q-4 22 -21 61l-94 209h-827l-98 -209q-10 -22 -18 -50q-7 -25 -7 -50q0 -11 8 -27q5 -10 19 -26q12 -17 26 -31q-10 1 -27 2.5
t-24 1.5q-30 2 -46 3t-44 1q-33 0 -50 -1q-26 -1 -48 -3q-8 -1 -24.5 -2.5t-23.5 -1.5q40 24 56 36q29 22 44 38q19 20 37 46q15 22 33 62l631 1311l625 -1311q18 -37 34 -60q17 -24 39 -46q21 -21 48 -39q36 -24 63 -37zM795 1276l-392 -832h775zM647 1632q0 62 52 105
t126 43t126 -43q53 -44 53 -105t-53 -103t-126 -42t-126 42q-52 42 -52 103zM713 1632q0 -48 32 -80t80 -32t81 32q34 33 34 80t-34 81t-81 34t-80 -34q-32 -33 -32 -81z" />
    <glyph glyph-name="AE" unicode="&#xc6;" horiz-adv-x="1820" 
d="M1042 1268l-555 -817h555v817zM1104 0q-21 0 -38 -1q-34 -2 -52 -3q-9 0 -30.5 -1.5t-33.5 -2.5q29 18 43 31q19 18 29 37q10 20 15 53t5 75v191h-604l-131 -195q-18 -27 -40 -63q-17 -28 -17 -53q0 -10 5 -27q4 -12 13 -25q5 -10 19 -26l-49 4q-7 0 -23 1.5t-24 2.5
q-32 2 -44 2q-33 0 -50 -1q-25 -1 -48 -3l-49 -4q5 3 12 7.5t18.5 11.5t20.5 12q43 26 70 45q17 12 33 30q6 6 15.5 18t14.5 17q22 28 33 43l817 1186q-7 27 -20 43q-17 21 -39 37l45 -4q28 -2 43 -3t41 -1q5 0 85 2q18 0 61 1.5t67 2.5q25 1 67 2.5t58 1.5q14 0 32.5 0.5
t28.5 1t15 0.5q22 0 37 -12t26 -32q10 -19 15 -41q8 -36 8 -40q-17 22 -31 33q-15 12 -37 18q-20 5 -57 7q-23 1 -88 1h-226v-606h305q43 0 69 10q29 11 44 25q19 18 29 37q-2 -24 -2 -35q-2 -20 -2 -31v-28v-33q0 -11 2 -33q1 -6 2.5 -18t1.5 -17q-10 17 -29 33
q-17 13 -44 23q-26 10 -68 10h-308v-668q21 -1 63 -2.5t62 -1.5q70 -2 109 -2h96q25 0 79 2q33 1 77 10q32 6 67 24q30 15 51 42q-6 -28 -10 -44q-6 -24 -16 -44t-27 -34q-16 -13 -39 -13q-42 0 -160 2q-65 1 -174 5q-123 4 -150 5q-88 2 -89 2z" />
    <glyph glyph-name="Ccedilla" unicode="&#xc7;" horiz-adv-x="1462" 
d="M1360 236l-4 -46q0 -5 -1.5 -17.5t-2.5 -20.5q-1 -20 -6 -35q-2 -6 -7 -23t-7 -25q-5 -22 -15 -44q-7 0 -23 -4q-11 -3 -24 -11q-5 -2 -44 -14q-34 -10 -84 -21q-49 -10 -113 -18q-67 -8 -130 -8h-16l-41 -80q3 0 12 1.5l15 2.5q20 2 30 2q65 0 110 -28q44 -27 44 -85
q0 -37 -22 -64q-22 -26 -54 -41q-36 -16 -75 -22q-42 -6 -81 -6q-32 0 -44 1q-22 2 -34 4q-6 1 -18 4.5t-16 4.5q-36 9 -45 11l14 35q6 -1 27 -6t33 -7q32 -6 61 -6q53 0 85 23q31 22 31 65q0 29 -25 44q-27 16 -54 16q-20 0 -42 -5q-26 -6 -38 -6l-15 9l72 135
q-173 0 -311 58q-140 59 -237 159q-98 101 -150 235q-54 139 -54 289q0 196 68 341t174 239q105 93 238 139q131 45 260 45q126 0 240 -21t180 -42q55 -18 57 -18q23 -5 27 -5v-35q0 -21 1 -32t1 -27q0 -10 -2 -38q-1 -17 -7 -40q-4 -22 -6 -45q-8 35 -20 66q-9 24 -27 53
q-16 26 -41 43q-24 17 -63 36q-37 19 -88 34q-54 16 -109 26q-57 10 -125 10q-143 0 -257 -46t-197 -129t-126 -200q-44 -120 -44 -262q0 -150 43 -291q44 -144 131 -253q90 -113 223 -178q135 -66 317 -66q106 0 173 17q74 19 120 44q47 26 79 59q27 28 50 58q4 5 10 16
q8 14 11 21q7 12 8 25z" />
    <glyph glyph-name="Egrave" unicode="&#xc8;" horiz-adv-x="942" 
d="M891 121q-6 -28 -10 -44q-5 -20 -17 -44q-11 -22 -26 -34q-16 -13 -39 -13q-43 0 -161 2q-63 1 -173 5q-121 4 -151 5q-88 2 -89 2q-21 0 -38 -1q-34 -2 -52 -3q-9 0 -30 -1.5t-33 -2.5q29 18 43 31q18 16 28 37q11 23 16 53q5 33 5 75v1072q0 27 -2 63q-1 26 -9 47
q-7 19 -21 38q-13 17 -36 34l45 -4q28 -2 43 -3t41 -1q5 0 85 2q18 0 61 1.5t67 2.5q25 1 67 2.5t58 1.5l76 2q23 0 38 -12q14 -11 25 -32q12 -22 16 -41q6 -28 7 -40q-17 22 -31 33q-15 12 -37 18q-20 5 -57 7q-23 1 -88 1h-225v-606h305q42 0 68 10q31 12 45 25
q18 16 28 37q-2 -24 -2 -35q-2 -20 -2 -31v-28v-33q0 -11 2 -33q1 -6 2.5 -18t1.5 -17q-11 19 -28 33q-17 13 -44 23q-26 10 -69 10h-307v-668q21 -1 63 -2.5t62 -1.5q70 -2 108 -2h96q25 0 79 2q33 1 77 10q33 7 68 24q30 15 51 42zM139 1722q0 25 21 41q22 17 49 17
q49 0 96 -47l197 -189l-6 -8l-297 121q-60 29 -60 65z" />
    <glyph glyph-name="Eacute" unicode="&#xc9;" horiz-adv-x="942" 
d="M891 121q-6 -28 -10 -44q-5 -20 -17 -44q-11 -22 -26 -34q-16 -13 -39 -13q-43 0 -161 2q-63 1 -173 5q-121 4 -151 5q-88 2 -89 2q-21 0 -38 -1q-34 -2 -52 -3q-9 0 -30 -1.5t-33 -2.5q29 18 43 31q18 16 28 37q11 23 16 53q5 33 5 75v1072q0 27 -2 63q-1 26 -9 47
q-7 19 -21 38q-13 17 -36 34l45 -4q28 -2 43 -3t41 -1q5 0 85 2q18 0 61 1.5t67 2.5q25 1 67 2.5t58 1.5l76 2q23 0 38 -12q14 -11 25 -32q12 -22 16 -41q6 -28 7 -40q-17 22 -31 33q-15 12 -37 18q-20 5 -57 7q-23 1 -88 1h-225v-606h305q42 0 68 10q31 12 45 25
q18 16 28 37q-2 -24 -2 -35q-2 -20 -2 -31v-28v-33q0 -11 2 -33q1 -6 2.5 -18t1.5 -17q-11 19 -28 33q-17 13 -44 23q-26 10 -69 10h-307v-668q21 -1 63 -2.5t62 -1.5q70 -2 108 -2h96q25 0 79 2q33 1 77 10q33 7 68 24q30 15 51 42zM694 1722q0 -37 -59 -65l-297 -121l-6 8
l196 189q47 47 97 47q27 0 49 -17q20 -16 20 -41z" />
    <glyph glyph-name="Ecircumflex" unicode="&#xca;" horiz-adv-x="942" 
d="M891 121q-6 -28 -10 -44q-5 -20 -17 -44q-11 -22 -26 -34q-16 -13 -39 -13q-43 0 -161 2q-63 1 -173 5q-121 4 -151 5q-88 2 -89 2q-21 0 -38 -1q-34 -2 -52 -3q-9 0 -30 -1.5t-33 -2.5q29 18 43 31q18 16 28 37q11 23 16 53q5 33 5 75v1072q0 27 -2 63q-1 26 -9 47
q-7 19 -21 38q-13 17 -36 34l45 -4q28 -2 43 -3t41 -1q5 0 85 2q18 0 61 1.5t67 2.5q25 1 67 2.5t58 1.5l76 2q23 0 38 -12q14 -11 25 -32q12 -22 16 -41q6 -28 7 -40q-17 22 -31 33q-15 12 -37 18q-20 5 -57 7q-23 1 -88 1h-225v-606h305q42 0 68 10q31 12 45 25
q18 16 28 37q-2 -24 -2 -35q-2 -20 -2 -31v-28v-33q0 -11 2 -33q1 -6 2.5 -18t1.5 -17q-11 19 -28 33q-17 13 -44 23q-26 10 -69 10h-307v-668q21 -1 63 -2.5t62 -1.5q70 -2 108 -2h96q25 0 79 2q33 1 77 10q33 7 68 24q30 15 51 42zM672 1536l-262 121l-261 -121l-4 8
l265 254l266 -254z" />
    <glyph glyph-name="Edieresis" unicode="&#xcb;" horiz-adv-x="942" 
d="M891 121q-6 -28 -10 -44q-5 -20 -17 -44q-11 -22 -26 -34q-16 -13 -39 -13q-43 0 -161 2q-63 1 -173 5q-121 4 -151 5q-88 2 -89 2q-21 0 -38 -1q-34 -2 -52 -3q-9 0 -30 -1.5t-33 -2.5q29 18 43 31q18 16 28 37q11 23 16 53q5 33 5 75v1072q0 27 -2 63q-1 26 -9 47
q-7 19 -21 38q-13 17 -36 34l45 -4q28 -2 43 -3t41 -1q5 0 85 2q18 0 61 1.5t67 2.5q25 1 67 2.5t58 1.5l76 2q23 0 38 -12q14 -11 25 -32q12 -22 16 -41q6 -28 7 -40q-17 22 -31 33q-15 12 -37 18q-20 5 -57 7q-23 1 -88 1h-225v-606h305q42 0 68 10q31 12 45 25
q18 16 28 37q-2 -24 -2 -35q-2 -20 -2 -31v-28v-33q0 -11 2 -33q1 -6 2.5 -18t1.5 -17q-11 19 -28 33q-17 13 -44 23q-26 10 -69 10h-307v-668q21 -1 63 -2.5t62 -1.5q70 -2 108 -2h96q25 0 79 2q33 1 77 10q33 7 68 24q30 15 51 42zM227 1614q0 33 22 57q21 23 52 23
q30 0 53 -23t23 -57q0 -35 -23 -56q-24 -22 -53 -22q-30 0 -52 22t-22 56zM483 1614q0 33 22 57q21 23 52 23q30 0 53 -23t23 -57q0 -35 -23 -56q-24 -22 -53 -22q-30 0 -52 22t-22 56z" />
    <glyph glyph-name="Igrave" unicode="&#xcc;" 
d="M379 -8l-53 4q-15 1 -51 3q-18 1 -50 1t-50 -1q-30 -2 -50 -3l-53 -4q22 12 38 26q17 14 29 35q14 24 19 49q6 28 6 72v1100q0 75 -17 111q-17 35 -51 57l45 -4q28 -2 43 -3t41 -1t40 1l42 3q7 0 23 1.5t24 2.5q-32 -16 -50 -53q-17 -35 -17 -115v-1100q0 -84 24 -120
q23 -34 68 -62zM-16 1722q0 25 20 41q22 17 49 17q50 0 97 -47l196 -189l-6 -8l-297 121q-59 28 -59 65z" />
    <glyph glyph-name="Iacute" unicode="&#xcd;" 
d="M379 -8l-53 4q-15 1 -51 3q-18 1 -50 1t-50 -1q-30 -2 -50 -3l-53 -4q22 12 38 26q17 14 29 35q14 24 19 49q6 28 6 72v1100q0 75 -17 111q-17 35 -51 57l45 -4q28 -2 43 -3t41 -1t40 1l42 3q7 0 23 1.5t24 2.5q-32 -16 -50 -53q-17 -35 -17 -115v-1100q0 -84 24 -120
q23 -34 68 -62zM467 1722q0 -37 -59 -65l-297 -121l-7 8l197 189q47 47 96 47q27 0 49 -17q21 -16 21 -41z" />
    <glyph glyph-name="Icircumflex" unicode="&#xce;" 
d="M379 -8l-53 4q-15 1 -51 3q-18 1 -50 1t-50 -1q-30 -2 -50 -3l-53 -4q22 12 38 26q17 14 29 35q14 24 19 49q6 28 6 72v1100q0 75 -17 111q-17 35 -51 57l45 -4q28 -2 43 -3t41 -1t40 1l42 3q7 0 23 1.5t24 2.5q-32 -16 -50 -53q-17 -35 -17 -115v-1100q0 -84 24 -120
q23 -34 68 -62zM489 1536l-262 121l-260 -121l-4 8l264 254l267 -254z" />
    <glyph glyph-name="Idieresis" unicode="&#xcf;" 
d="M379 -8l-53 4q-15 1 -51 3q-18 1 -50 1t-50 -1q-30 -2 -50 -3l-53 -4q22 12 38 26q17 14 29 35q14 24 19 49q6 28 6 72v1100q0 75 -17 111q-17 35 -51 57l45 -4q28 -2 43 -3t41 -1t40 1l42 3q7 0 23 1.5t24 2.5q-32 -16 -50 -53q-17 -35 -17 -115v-1100q0 -84 24 -120
q23 -34 68 -62zM25 1614q0 34 21 57t52 23t54 -23q22 -22 22 -57t-22 -56q-24 -22 -54 -22t-52 22q-21 21 -21 56zM281 1614q0 34 21 57t52 23t54 -23q22 -22 22 -57t-22 -56q-24 -22 -54 -22t-52 22q-21 21 -21 56z" />
    <glyph glyph-name="Eth" unicode="&#xd0;" horiz-adv-x="1449" 
d="M1368 702q0 -153 -47 -288q-46 -131 -139 -232q-88 -96 -231 -153q-139 -56 -318 -56q-78 0 -137 4q-11 1 -119 10q-53 5 -90 9q-33 4 -51 4q-21 0 -37 -1q-7 0 -15.5 -0.5t-19 -1.5t-16.5 -1q-23 -1 -46 -3q-14 -1 -22 -1q34 21 41 27q16 13 25 36q10 24 14 61
q4 33 4 99v502h-144v67h144v488q0 66 -10 99q-10 32 -58 71q18 -1 51.5 -2.5t47.5 -1.5t40 -1t40 -2q27 -1 63 -1q9 0 55 2q21 1 76 5q36 3 86 6q45 3 90 3q85 0 165 -14q91 -16 165 -48q78 -34 151 -90t125 -138q55 -86 85 -196q32 -116 32 -262zM287 717v-668
q48 -13 98 -20q69 -11 107 -14q67 -5 126 -5q68 0 139 9q65 8 139 34q64 22 130 69q60 43 108 115q46 70 73 172q28 106 28 238q0 177 -41 321q-40 141 -116 241t-180 152t-232 52q-60 0 -113 -4q-16 -1 -55 -3.5t-59 -4.5q-56 -5 -95 -9l-57 -8v-600h395v-67h-395z" />
    <glyph glyph-name="Ntilde" unicode="&#xd1;" horiz-adv-x="1507" 
d="M1425 1440q-24 -20 -33 -29q-16 -16 -27 -37q-12 -22 -16 -56q-6 -46 -6 -83v-1290l-1099 1302v-1120q0 -34 9 -58t21 -39q13 -16 26 -25q11 -8 24 -13l-45 4q-16 1 -41 3q-15 1 -39 1q-21 0 -35 -1q-7 -1 -20.5 -2t-20.5 -1q-5 0 -22.5 -1.5t-28.5 -2.5q39 21 65 59
q27 39 27 103v1106q0 44 -6 73q-6 28 -22 47t-39 32q-32 18 -56 30q12 -1 33 -2.5t30 -1.5q27 -2 57 -3q20 -1 56 -1h36q14 0 38 2q15 0 43 2q0 -1 -1.5 -5t-2.5 -6q-4 -11 -4 -28q0 -22 6 -46q6 -25 26 -46l908 -1074v1027q0 48 -4 72q-5 28 -15 46q-12 21 -26 32
q-13 11 -39 28q32 -2 47 -2q28 -2 41 -2h37h34q15 0 39 2zM999 1692q-24 -94 -50 -125t-72 -31q-27 0 -60 13q-13 5 -38 15t-34 14q-5 2 -31.5 13t-40.5 16q-35 13 -65 13q-28 0 -54 -30q-30 -35 -44 -54l-6 4q29 87 69 124q41 38 84 38q27 0 54 -13q19 -9 59 -29
q31 -15 61 -29q29 -13 60 -13q35 0 60 21q25 20 42 55z" />
    <glyph glyph-name="Ograve" unicode="&#xd2;" horiz-adv-x="1630" 
d="M1548 672q0 -162 -65 -291q-67 -133 -167 -224q-103 -94 -226 -146t-244 -52q-164 0 -303 54q-140 54 -242 156q-103 103 -161 244t-58 320q0 169 60 305q60 137 161 235q99 96 231 149t267 53q195 0 336 -72q140 -72 232 -186q91 -113 135 -259t44 -286zM1425 649
q0 161 -49 302q-50 143 -133 250t-197 170t-245 63q-138 0 -249 -53q-109 -52 -185 -143q-77 -92 -117 -216q-41 -126 -41 -270q0 -154 51 -290t140 -239q90 -104 210 -163q122 -60 258 -60q96 0 194 40q99 40 180 120t132 201t51 288zM530 1722q0 25 21 41q22 17 49 17
q49 0 96 -47l197 -189l-6 -8l-297 121q-60 29 -60 65z" />
    <glyph glyph-name="Oacute" unicode="&#xd3;" horiz-adv-x="1630" 
d="M1548 672q0 -162 -65 -291q-67 -133 -167 -224q-103 -94 -226 -146t-244 -52q-164 0 -303 54q-140 54 -242 156q-103 103 -161 244t-58 320q0 169 60 305q60 137 161 235q99 96 231 149t267 53q195 0 336 -72q140 -72 232 -186q91 -113 135 -259t44 -286zM1425 649
q0 161 -49 302q-50 143 -133 250t-197 170t-245 63q-138 0 -249 -53q-109 -52 -185 -143q-77 -92 -117 -216q-41 -126 -41 -270q0 -154 51 -290t140 -239q90 -104 210 -163q122 -60 258 -60q96 0 194 40q99 40 180 120t132 201t51 288zM1036 1722q0 -37 -59 -65l-297 -121
l-6 8l196 189q47 47 97 47q27 0 49 -17q20 -16 20 -41z" />
    <glyph glyph-name="Ocircumflex" unicode="&#xd4;" horiz-adv-x="1630" 
d="M1548 672q0 -162 -65 -291q-67 -133 -167 -224q-103 -94 -226 -146t-244 -52q-164 0 -303 54q-140 54 -242 156q-103 103 -161 244t-58 320q0 169 60 305q60 137 161 235q99 96 231 149t267 53q195 0 336 -72q140 -72 232 -186q91 -113 135 -259t44 -286zM1425 649
q0 161 -49 302q-50 143 -133 250t-197 170t-245 63q-138 0 -249 -53q-109 -52 -185 -143q-77 -92 -117 -216q-41 -126 -41 -270q0 -154 51 -290t140 -239q90 -104 210 -163q122 -60 258 -60q96 0 194 40q99 40 180 120t132 201t51 288zM1075 1536l-262 121l-260 -121l-4 8
l264 254l266 -254z" />
    <glyph glyph-name="Otilde" unicode="&#xd5;" horiz-adv-x="1630" 
d="M1548 672q0 -162 -65 -291q-67 -133 -167 -224q-103 -94 -226 -146t-244 -52q-164 0 -303 54q-140 54 -242 156q-103 103 -161 244t-58 320q0 169 60 305q60 137 161 235q99 96 231 149t267 53q195 0 336 -72q140 -72 232 -186q91 -113 135 -259t44 -286zM1425 649
q0 161 -49 302q-50 143 -133 250t-197 170t-245 63q-138 0 -249 -53q-109 -52 -185 -143q-77 -92 -117 -216q-41 -126 -41 -270q0 -154 51 -290t140 -239q90 -104 210 -163q122 -60 258 -60q96 0 194 40q99 40 180 120t132 201t51 288zM1063 1692q-24 -94 -50 -125t-73 -31
q-26 0 -59 13q-13 5 -38 15t-34 14q-65 26 -73 29q-35 13 -64 13q-30 0 -55 -30q-30 -35 -44 -54l-6 4q29 86 70 124t84 38q26 0 53 -13q38 -18 60 -29q31 -15 61 -29q29 -13 59 -13q36 0 61 21q25 20 42 55z" />
    <glyph glyph-name="Odieresis" unicode="&#xd6;" horiz-adv-x="1630" 
d="M1548 672q0 -162 -65 -291q-67 -133 -167 -224q-103 -94 -226 -146t-244 -52q-164 0 -303 54q-140 54 -242 156q-103 103 -161 244t-58 320q0 169 60 305q60 137 161 235q99 96 231 149t267 53q195 0 336 -72q140 -72 232 -186q91 -113 135 -259t44 -286zM1425 649
q0 161 -49 302q-50 143 -133 250t-197 170t-245 63q-138 0 -249 -53q-109 -52 -185 -143q-77 -92 -117 -216q-41 -126 -41 -270q0 -154 51 -290t140 -239q90 -104 210 -163q122 -60 258 -60q96 0 194 40q99 40 180 120t132 201t51 288zM612 1614q0 33 22 57q21 23 52 23
q30 0 53 -23t23 -57q0 -35 -23 -56q-24 -22 -53 -22q-30 0 -52 22t-22 56zM868 1614q0 33 22 57q21 23 52 23q30 0 53 -23t23 -57q0 -35 -23 -56q-24 -22 -53 -22q-30 0 -52 22t-22 56z" />
    <glyph glyph-name="multiply" unicode="&#xd7;" horiz-adv-x="1013" 
d="M506 780l268 267l68 -66l-269 -268l269 -267l-68 -67l-268 266l-266 -266l-68 67l266 267l-266 268l68 66z" />
    <glyph glyph-name="Oslash" unicode="&#xd8;" horiz-adv-x="1636" 
d="M1561 645q0 -158 -67 -287q-65 -125 -169 -217q-102 -90 -228 -138t-245 -48q-270 0 -461 127l-127 -176h-90l156 221q-118 102 -182 244q-66 145 -66 344q0 170 61 305q62 138 163 233q103 97 233 149q129 52 268 52q121 0 220 -24q97 -23 179 -70l121 170h88l-149 -209
q153 -111 224 -287q71 -177 71 -389zM1438 645q0 180 -62 334t-168 260l-762 -1075q89 -85 197 -131q109 -47 231 -47q93 0 195 41q97 39 182 124q81 81 134 205t53 289zM1153 1286q-72 59 -162 94t-186 35q-139 0 -250 -51t-187 -142q-78 -93 -119 -215q-42 -125 -42 -270
q0 -151 51 -283q51 -131 137 -237z" />
    <glyph glyph-name="Ugrave" unicode="&#xd9;" horiz-adv-x="1460" 
d="M1368 1442q-37 -16 -52 -61q-16 -46 -16 -121v-1106q0 -45 14 -76q15 -34 29 -49q18 -20 46 -37q-11 1 -29.5 2.5t-24.5 1.5q-15 1 -47 3q-16 1 -47 1q-21 0 -33 -1q-6 -1 -18.5 -2t-18.5 -1q-8 -1 -22 -2.5t-21 -1.5q14 7 25 31q9 15 17 50q8 34 8 83q-7 -4 -51 -35
q-46 -32 -106 -61q-64 -31 -154 -57q-89 -26 -189 -26q-112 0 -205 37q-95 38 -162 108t-106 175t-39 240v723q0 53 -16 86q-17 36 -37 57q-22 23 -52 39q12 -1 33.5 -2.5t30.5 -1.5l54 -3q18 -1 46 -1q26 0 41 1q25 2 41 3q8 1 22 2.5t21 1.5q-20 -16 -31 -39
q-13 -23 -21 -56q-9 -35 -9 -87v-777q0 -122 47 -208q46 -84 118 -138q72 -53 153 -77q79 -23 155 -23q81 0 148 19q72 20 122 46q48 25 90 55q36 26 56 46v1057q0 76 -14 115t-54 67q18 -5 55 -6q50 -2 76 -2t62 2q25 1 65 6zM432 1722q0 25 21 41q22 17 49 17q49 0 96 -47
l197 -189l-7 -8l-296 121q-60 29 -60 65z" />
    <glyph glyph-name="Uacute" unicode="&#xda;" horiz-adv-x="1460" 
d="M1368 1442q-37 -16 -52 -61q-16 -46 -16 -121v-1106q0 -45 14 -76q15 -34 29 -49q18 -20 46 -37q-11 1 -29.5 2.5t-24.5 1.5q-15 1 -47 3q-16 1 -47 1q-21 0 -33 -1q-6 -1 -18.5 -2t-18.5 -1q-8 -1 -22 -2.5t-21 -1.5q14 7 25 31q9 15 17 50q8 34 8 83q-7 -4 -51 -35
q-46 -32 -106 -61q-64 -31 -154 -57q-89 -26 -189 -26q-112 0 -205 37q-95 38 -162 108t-106 175t-39 240v723q0 53 -16 86q-17 36 -37 57q-22 23 -52 39q12 -1 33.5 -2.5t30.5 -1.5l54 -3q18 -1 46 -1q26 0 41 1q25 2 41 3q8 1 22 2.5t21 1.5q-20 -16 -31 -39
q-13 -23 -21 -56q-9 -35 -9 -87v-777q0 -122 47 -208q46 -84 118 -138q72 -53 153 -77q79 -23 155 -23q81 0 148 19q72 20 122 46q48 25 90 55q36 26 56 46v1057q0 76 -14 115t-54 67q18 -5 55 -6q50 -2 76 -2t62 2q25 1 65 6zM1040 1722q0 -37 -59 -65l-297 -121l-6 8
l196 189q47 47 97 47q27 0 49 -17q20 -16 20 -41z" />
    <glyph glyph-name="Ucircumflex" unicode="&#xdb;" horiz-adv-x="1460" 
d="M1368 1442q-37 -16 -52 -61q-16 -46 -16 -121v-1106q0 -45 14 -76q15 -34 29 -49q18 -20 46 -37q-11 1 -29.5 2.5t-24.5 1.5q-15 1 -47 3q-16 1 -47 1q-21 0 -33 -1q-6 -1 -18.5 -2t-18.5 -1q-8 -1 -22 -2.5t-21 -1.5q14 7 25 31q9 15 17 50q8 34 8 83q-7 -4 -51 -35
q-46 -32 -106 -61q-64 -31 -154 -57q-89 -26 -189 -26q-112 0 -205 37q-95 38 -162 108t-106 175t-39 240v723q0 53 -16 86q-17 36 -37 57q-22 23 -52 39q12 -1 33.5 -2.5t30.5 -1.5l54 -3q18 -1 46 -1q26 0 41 1q25 2 41 3q8 1 22 2.5t21 1.5q-20 -16 -31 -39
q-13 -23 -21 -56q-9 -35 -9 -87v-777q0 -122 47 -208q46 -84 118 -138q72 -53 153 -77q79 -23 155 -23q81 0 148 19q72 20 122 46q48 25 90 55q36 26 56 46v1057q0 76 -14 115t-54 67q18 -5 55 -6q50 -2 76 -2t62 2q25 1 65 6zM997 1536l-262 121l-260 -121l-4 8l264 254
l266 -254z" />
    <glyph glyph-name="Udieresis" unicode="&#xdc;" horiz-adv-x="1460" 
d="M1368 1442q-37 -16 -52 -61q-16 -46 -16 -121v-1106q0 -45 14 -76q15 -34 29 -49q18 -20 46 -37q-11 1 -29.5 2.5t-24.5 1.5q-15 1 -47 3q-16 1 -47 1q-21 0 -33 -1q-6 -1 -18.5 -2t-18.5 -1q-8 -1 -22 -2.5t-21 -1.5q14 7 25 31q9 15 17 50q8 34 8 83q-7 -4 -51 -35
q-46 -32 -106 -61q-64 -31 -154 -57q-89 -26 -189 -26q-112 0 -205 37q-95 38 -162 108t-106 175t-39 240v723q0 53 -16 86q-17 36 -37 57q-22 23 -52 39q12 -1 33.5 -2.5t30.5 -1.5l54 -3q18 -1 46 -1q26 0 41 1q25 2 41 3q8 1 22 2.5t21 1.5q-20 -16 -31 -39
q-13 -23 -21 -56q-9 -35 -9 -87v-777q0 -122 47 -208q46 -84 118 -138q72 -53 153 -77q79 -23 155 -23q81 0 148 19q72 20 122 46q48 25 90 55q36 26 56 46v1057q0 76 -14 115t-54 67q18 -5 55 -6q50 -2 76 -2t62 2q25 1 65 6zM535 1614q0 34 21 57t52 23t54 -23
q22 -22 22 -57t-22 -56q-24 -22 -54 -22t-52 22q-21 21 -21 56zM791 1614q0 34 21 57t52 23t54 -23q22 -22 22 -57t-22 -56q-24 -22 -54 -22t-52 22q-21 21 -21 56z" />
    <glyph glyph-name="Yacute" unicode="&#xdd;" horiz-adv-x="1589" 
d="M1589 1442q-33 -15 -65 -41q-29 -23 -61 -61q-31 -37 -60 -95l-658 -1296q-36 -68 -56 -99q-29 -45 -70 -83q-40 -37 -95 -59q-52 -21 -127 -21q61 22 99 45q39 23 72 53q37 33 57 65q27 43 47 82l53 107l-569 1290q-12 26 -38 48q-27 22 -52 36q-30 16 -66 29l70 -4
q32 -2 61 -3q22 -1 57 -1q32 0 49 1q25 1 48 3q7 0 24 1.5t27 2.5q-16 -13 -23 -27q-10 -16 -14 -26q-6 -15 -6 -27q0 -34 29 -98l479 -1084l536 1080q17 39 22 53q9 27 9 49q0 8 -8 24q-6 12 -19 27q-12 15 -26 29q11 -1 30 -2.5t27 -1.5q30 -2 46 -3t36 -1q26 0 42 1t44 3
q6 0 22.5 1.5t26.5 2.5zM1057 1722q0 -36 -60 -65l-297 -121l-6 8l197 189q47 47 96 47q27 0 49 -17q21 -16 21 -41z" />
    <glyph glyph-name="Thorn" unicode="&#xde;" horiz-adv-x="935" 
d="M870 815q0 -119 -28 -194q-28 -74 -77 -119q-48 -44 -111 -60q-61 -16 -130 -16q-24 0 -51 3q-31 3 -49 7q-31 6 -37 8q-14 4 -14 9q0 4 8 4q12 0 42 -6q35 -7 71 -7q46 0 95 17t86 55q39 41 62 101q25 66 25 153q0 74 -23 140q-23 67 -65 113q-44 48 -105 75
q-59 26 -139 26q-20 0 -66 -2q-33 -1 -77 -18v-950q0 -44 10 -73t25 -50q19 -25 36 -39q-7 0 -21 1.5t-22 2.5q-18 2 -42 3q-16 1 -46 1q-21 0 -37 -1q-8 -1 -24.5 -2t-24.5 -1q-9 0 -29 -1.5t-30 -2.5q23 12 41 35q17 18 29 49q12 30 12 78v1138q0 49 -12 79q-12 29 -27 46
q-19 19 -39 25q10 -1 27 -2.5t24 -1.5q15 -1 47 -3q16 -1 43 -1h30q12 0 40 2q5 0 22.5 1.5t28.5 2.5q-19 -8 -31 -29q-12 -16 -21 -47q-9 -30 -9 -80v-135q29 2 59 6q7 0 27.5 1.5t33.5 2.5q46 2 70 2q87 0 156 -26q72 -27 125 -74q52 -46 83 -111q29 -61 29 -135z" />
    <glyph glyph-name="germandbls" unicode="&#xdf;" horiz-adv-x="1761" 
d="M1675 373q0 -77 -29 -145q-30 -71 -81 -125t-122 -87q-68 -32 -151 -32q-80 0 -141 13q-62 13 -119 21q-4 1 -11.5 2.5t-10.5 1.5q-7 1 -19 1h-14l-8 24q-4 8 -7 22q-1 3 -3 10t-3 11q-3 17 -7 51q-4 38 -5 54q-2 38 -2 59q16 -35 31 -61q25 -40 33 -52q18 -28 38 -43
q60 -48 121 -62q58 -13 131 -13q44 0 93 15q46 14 91 46q42 30 69 77q28 48 28 107q0 100 -45 175q-46 76 -113 136q-71 63 -145 113q-75 51 -146 112q-66 57 -112 128q-45 69 -45 162q0 74 23 136q23 63 68 112t107 76q65 28 142 28t132 -16q49 -14 126 -46q14 -6 16 -7
q3 -2 23 -7v-34v-59q0 -41 -1 -60t-1 -35q-2 5 -15 37q-5 14 -13 33q-10 24 -13 30q-39 64 -116 98q-75 33 -146 33q-55 0 -102 -21q-44 -20 -78 -57q-32 -35 -50 -80t-18 -94q0 -74 46 -136q49 -66 114 -120q61 -50 150 -113q81 -57 149 -119q69 -63 115 -136t46 -164z
M797 373q0 -75 -30 -145q-30 -71 -81 -125t-122 -87q-68 -32 -150 -32q-81 0 -142 13q-64 14 -118 21q-4 1 -12 2.5t-11 1.5q-7 1 -18 1h-15l-8 24q-4 8 -7 22q-5 19 -5 21q-3 17 -7 51q-4 38 -5 54q-3 57 -3 59q16 -35 31 -61q25 -40 33 -52q17 -26 39 -43q60 -48 121 -62
q58 -13 131 -13q43 0 92 15q46 14 91 46q43 31 70 77q27 47 27 107q0 100 -45 175q-47 78 -112 136q-68 61 -146 113q-71 48 -145 112q-68 59 -113 128t-45 162q0 72 24 136q24 65 67 112q44 49 108 76q65 28 141 28q77 0 132 -16q49 -14 126 -46q3 -1 9 -3.5t8 -3.5
q4 -2 22 -7v-34v-59q0 -41 -1 -60t-1 -35q-6 17 -14 37q-2 6 -7.5 18t-6.5 15q-10 24 -13 30q-39 64 -116 98q-75 33 -146 33q-54 0 -101 -21q-44 -20 -78 -57q-32 -35 -50 -80q-19 -47 -19 -94q0 -74 46 -136q47 -64 115 -120q67 -55 149 -113q86 -60 150 -119
q69 -63 115 -136t46 -164z" />
    <glyph glyph-name="agrave" unicode="&#xe0;" horiz-adv-x="1650" 
d="M1630 -8q-11 0 -33 1.5t-34 2.5q-24 1 -64 3q-23 1 -67 1q-32 0 -50 -1q-24 -1 -49 -3l-53 -4q12 8 20 20q12 17 16 24q7 13 7 30q0 29 -4 49q-4 22 -21 61l-94 209h-827l-98 -209q-10 -22 -18 -50q-7 -25 -7 -50q0 -11 8 -27q5 -10 19 -26q12 -17 26 -31q-10 1 -27 2.5
t-24 1.5q-30 2 -46 3t-44 1q-33 0 -50 -1q-26 -1 -48 -3q-8 -1 -24.5 -2.5t-23.5 -1.5q40 24 56 36q29 22 44 38q19 20 37 46q15 22 33 62l631 1311l625 -1311q18 -37 34 -60q17 -24 39 -46q21 -21 48 -39q36 -24 63 -37zM795 1276l-392 -832h775zM541 1722q0 25 20 41
q22 17 49 17q50 0 97 -47l196 -189l-6 -8l-297 121q-59 28 -59 65z" />
    <glyph glyph-name="aacute" unicode="&#xe1;" horiz-adv-x="1650" 
d="M1630 -8q-11 0 -33 1.5t-34 2.5q-24 1 -64 3q-23 1 -67 1q-32 0 -50 -1q-24 -1 -49 -3l-53 -4q12 8 20 20q12 17 16 24q7 13 7 30q0 29 -4 49q-4 22 -21 61l-94 209h-827l-98 -209q-10 -22 -18 -50q-7 -25 -7 -50q0 -11 8 -27q5 -10 19 -26q12 -17 26 -31q-10 1 -27 2.5
t-24 1.5q-30 2 -46 3t-44 1q-33 0 -50 -1q-26 -1 -48 -3q-8 -1 -24.5 -2.5t-23.5 -1.5q40 24 56 36q29 22 44 38q19 20 37 46q15 22 33 62l631 1311l625 -1311q18 -37 34 -60q17 -24 39 -46q21 -21 48 -39q36 -24 63 -37zM795 1276l-392 -832h775zM1128 1722q0 -37 -59 -65
l-297 -121l-6 8l197 189q47 47 96 47q27 0 49 -17q20 -16 20 -41z" />
    <glyph glyph-name="acircumflex" unicode="&#xe2;" horiz-adv-x="1650" 
d="M1630 -8q-11 0 -33 1.5t-34 2.5q-24 1 -64 3q-23 1 -67 1q-32 0 -50 -1q-24 -1 -49 -3l-53 -4q12 8 20 20q12 17 16 24q7 13 7 30q0 29 -4 49q-4 22 -21 61l-94 209h-827l-98 -209q-10 -22 -18 -50q-7 -25 -7 -50q0 -11 8 -27q5 -10 19 -26q12 -17 26 -31q-10 1 -27 2.5
t-24 1.5q-30 2 -46 3t-44 1q-33 0 -50 -1q-26 -1 -48 -3q-8 -1 -24.5 -2.5t-23.5 -1.5q40 24 56 36q29 22 44 38q19 20 37 46q15 22 33 62l631 1311l625 -1311q18 -37 34 -60q17 -24 39 -46q21 -21 48 -39q36 -24 63 -37zM795 1276l-392 -832h775zM1085 1536l-262 121
l-260 -121l-4 8l264 254l267 -254z" />
    <glyph glyph-name="atilde" unicode="&#xe3;" horiz-adv-x="1650" 
d="M1630 -8q-11 0 -33 1.5t-34 2.5q-24 1 -64 3q-23 1 -67 1q-32 0 -50 -1q-24 -1 -49 -3l-53 -4q12 8 20 20q12 17 16 24q7 13 7 30q0 29 -4 49q-4 22 -21 61l-94 209h-827l-98 -209q-10 -22 -18 -50q-7 -25 -7 -50q0 -11 8 -27q5 -10 19 -26q12 -17 26 -31q-10 1 -27 2.5
t-24 1.5q-30 2 -46 3t-44 1q-33 0 -50 -1q-26 -1 -48 -3q-8 -1 -24.5 -2.5t-23.5 -1.5q40 24 56 36q29 22 44 38q19 20 37 46q15 22 33 62l631 1311l625 -1311q18 -37 34 -60q17 -24 39 -46q21 -21 48 -39q36 -24 63 -37zM795 1276l-392 -832h775zM1073 1692
q-24 -94 -50 -125t-73 -31q-26 0 -59 13q-13 5 -38 15t-34 14q-65 26 -73 29q-35 13 -64 13q-28 0 -54 -30q-30 -35 -44 -54l-6 4q29 87 69 124q41 38 84 38q26 0 53 -13q38 -18 60 -29q31 -15 61 -29q29 -13 60 -13q35 0 60 21q25 20 42 55z" />
    <glyph glyph-name="adieresis" unicode="&#xe4;" horiz-adv-x="1650" 
d="M1630 -8q-11 0 -33 1.5t-34 2.5q-24 1 -64 3q-23 1 -67 1q-32 0 -50 -1q-24 -1 -49 -3l-53 -4q12 8 20 20q12 17 16 24q7 13 7 30q0 29 -4 49q-4 22 -21 61l-94 209h-827l-98 -209q-10 -22 -18 -50q-7 -25 -7 -50q0 -11 8 -27q5 -10 19 -26q12 -17 26 -31q-10 1 -27 2.5
t-24 1.5q-30 2 -46 3t-44 1q-33 0 -50 -1q-26 -1 -48 -3q-8 -1 -24.5 -2.5t-23.5 -1.5q40 24 56 36q29 22 44 38q19 20 37 46q15 22 33 62l631 1311l625 -1311q18 -37 34 -60q17 -24 39 -46q21 -21 48 -39q36 -24 63 -37zM795 1276l-392 -832h775zM623 1614q0 34 21 57
t52 23t54 -23q22 -22 22 -57t-22 -56q-24 -22 -54 -22t-52 22q-21 21 -21 56zM879 1614q0 34 21 57t52 23t54 -23q22 -22 22 -57t-22 -56q-24 -22 -54 -22t-52 22q-21 21 -21 56z" />
    <glyph glyph-name="aring" unicode="&#xe5;" horiz-adv-x="1650" 
d="M1630 -8q-11 0 -33 1.5t-34 2.5q-24 1 -64 3q-23 1 -67 1q-32 0 -50 -1q-24 -1 -49 -3l-53 -4q12 8 20 20q12 17 16 24q7 13 7 30q0 29 -4 49q-4 22 -21 61l-94 209h-827l-98 -209q-10 -22 -18 -50q-7 -25 -7 -50q0 -11 8 -27q5 -10 19 -26q12 -17 26 -31q-10 1 -27 2.5
t-24 1.5q-30 2 -46 3t-44 1q-33 0 -50 -1q-26 -1 -48 -3q-8 -1 -24.5 -2.5t-23.5 -1.5q40 24 56 36q29 22 44 38q19 20 37 46q15 22 33 62l631 1311l625 -1311q18 -37 34 -60q17 -24 39 -46q21 -21 48 -39q36 -24 63 -37zM795 1276l-392 -832h775zM647 1632q0 62 52 105
t126 43t126 -43q53 -44 53 -105t-53 -103t-126 -42t-126 42q-52 42 -52 103zM713 1632q0 -48 32 -80t80 -32t81 32q34 33 34 80t-34 81t-81 34t-80 -34q-32 -33 -32 -81z" />
    <glyph glyph-name="ae" unicode="&#xe6;" horiz-adv-x="1820" 
d="M1042 1268l-555 -817h555v817zM1104 0q-21 0 -38 -1q-34 -2 -52 -3q-9 0 -30.5 -1.5t-33.5 -2.5q29 18 43 31q19 18 29 37q10 20 15 53t5 75v191h-604l-131 -195q-18 -27 -40 -63q-17 -28 -17 -53q0 -10 5 -27q4 -12 13 -25q5 -10 19 -26l-49 4q-7 0 -23 1.5t-24 2.5
q-32 2 -44 2q-33 0 -50 -1q-25 -1 -48 -3l-49 -4q5 3 12 7.5t18.5 11.5t20.5 12q43 26 70 45q17 12 33 30q6 6 15.5 18t14.5 17q22 28 33 43l817 1186q-7 27 -20 43q-17 21 -39 37l45 -4q28 -2 43 -3t41 -1q5 0 85 2q18 0 61 1.5t67 2.5q25 1 67 2.5t58 1.5q14 0 32.5 0.5
t28.5 1t15 0.5q22 0 37 -12t26 -32q10 -19 15 -41q8 -36 8 -40q-17 22 -31 33q-15 12 -37 18q-20 5 -57 7q-23 1 -88 1h-226v-606h305q43 0 69 10q29 11 44 25q19 18 29 37q-2 -24 -2 -35q-2 -20 -2 -31v-28v-33q0 -11 2 -33q1 -6 2.5 -18t1.5 -17q-10 17 -29 33
q-17 13 -44 23q-26 10 -68 10h-308v-668q21 -1 63 -2.5t62 -1.5q70 -2 109 -2h96q25 0 79 2q33 1 77 10q32 6 67 24q30 15 51 42q-6 -28 -10 -44q-6 -24 -16 -44t-27 -34q-16 -13 -39 -13q-42 0 -160 2q-65 1 -174 5q-123 4 -150 5q-88 2 -89 2z" />
    <glyph glyph-name="ccedilla" unicode="&#xe7;" horiz-adv-x="1462" 
d="M1360 236l-4 -46q0 -5 -1.5 -17.5t-2.5 -20.5q-1 -20 -6 -35q-2 -6 -7 -23t-7 -25q-5 -22 -15 -44q-7 0 -23 -4q-11 -3 -24 -11q-5 -2 -44 -14q-34 -10 -84 -21q-49 -10 -113 -18q-67 -8 -130 -8h-16l-41 -80q27 6 57 6q65 0 110 -28q44 -27 44 -85q0 -37 -22 -64
q-22 -26 -54 -41q-36 -16 -75 -22q-42 -6 -81 -6q-32 0 -44 1q-22 2 -34 4q-6 1 -18 4.5t-16 4.5q-36 9 -45 11l14 35q6 -1 27 -6t33 -7q32 -6 61 -6q53 0 85 23q31 22 31 65q0 29 -25 44q-27 16 -54 16q-20 0 -42 -5q-26 -6 -38 -6l-15 9l72 135q-173 0 -311 58
q-140 59 -237 159q-98 101 -150 235q-54 139 -54 289q0 196 68 341t174 239q105 93 238 139q131 45 260 45q126 0 240 -21t180 -42q55 -18 57 -18q23 -5 27 -5v-35q0 -21 1 -32t1 -27q0 -10 -2 -38q-1 -17 -7 -40q-4 -22 -6 -45q-8 35 -20 66q-9 24 -27 53q-16 26 -41 43
q-24 17 -63 36q-37 19 -88 34q-54 16 -109 26q-57 10 -125 10q-143 0 -257 -46t-197 -129t-126 -200q-44 -120 -44 -262q0 -150 43 -291q44 -144 131 -253q90 -113 223 -178q135 -66 317 -66q106 0 173 17q74 19 120 44q47 26 79 59q27 28 50 58q4 5 10 16q8 14 11 21
q7 12 8 25z" />
    <glyph glyph-name="egrave" unicode="&#xe8;" horiz-adv-x="942" 
d="M891 121q-6 -28 -10 -44q-5 -20 -17 -44q-11 -22 -26 -34q-16 -13 -39 -13q-43 0 -161 2q-63 1 -173 5q-121 4 -151 5q-88 2 -89 2q-21 0 -38 -1q-34 -2 -52 -3q-9 0 -30 -1.5t-33 -2.5q29 18 43 31q18 16 28 37q11 23 16 53q5 33 5 75v1072q0 27 -2 63q-1 26 -9 47
q-7 19 -21 38q-13 17 -36 34l45 -4q28 -2 43 -3t41 -1q5 0 85 2q18 0 61 1.5t67 2.5q25 1 67 2.5t58 1.5l76 2q23 0 38 -12q14 -11 25 -32q12 -22 16 -41q6 -28 7 -40q-17 22 -31 33q-15 12 -37 18q-20 5 -57 7q-23 1 -88 1h-225v-606h305q42 0 68 10q31 12 45 25
q18 16 28 37q-2 -24 -2 -35q-2 -20 -2 -31v-28v-33q0 -11 2 -33q1 -6 2.5 -18t1.5 -17q-11 19 -28 33q-17 13 -44 23q-26 10 -69 10h-307v-668q21 -1 63 -2.5t62 -1.5q70 -2 108 -2h96q25 0 79 2q33 1 77 10q33 7 68 24q30 15 51 42zM139 1722q0 25 21 41q22 17 49 17
q49 0 96 -47l197 -189l-6 -8l-297 121q-60 29 -60 65z" />
    <glyph glyph-name="eacute" unicode="&#xe9;" horiz-adv-x="942" 
d="M891 121q-6 -28 -10 -44q-5 -20 -17 -44q-11 -22 -26 -34q-16 -13 -39 -13q-43 0 -161 2q-63 1 -173 5q-121 4 -151 5q-88 2 -89 2q-21 0 -38 -1q-34 -2 -52 -3q-9 0 -30 -1.5t-33 -2.5q29 18 43 31q18 16 28 37q11 23 16 53q5 33 5 75v1072q0 27 -2 63q-1 26 -9 47
q-7 19 -21 38q-13 17 -36 34l45 -4q28 -2 43 -3t41 -1q5 0 85 2q18 0 61 1.5t67 2.5q25 1 67 2.5t58 1.5l76 2q23 0 38 -12q14 -11 25 -32q12 -22 16 -41q6 -28 7 -40q-17 22 -31 33q-15 12 -37 18q-20 5 -57 7q-23 1 -88 1h-225v-606h305q42 0 68 10q31 12 45 25
q18 16 28 37q-2 -24 -2 -35q-2 -20 -2 -31v-28v-33q0 -11 2 -33q1 -6 2.5 -18t1.5 -17q-11 19 -28 33q-17 13 -44 23q-26 10 -69 10h-307v-668q21 -1 63 -2.5t62 -1.5q70 -2 108 -2h96q25 0 79 2q33 1 77 10q33 7 68 24q30 15 51 42zM694 1722q0 -37 -59 -65l-297 -121l-6 8
l196 189q47 47 97 47q27 0 49 -17q20 -16 20 -41z" />
    <glyph glyph-name="ecircumflex" unicode="&#xea;" horiz-adv-x="942" 
d="M891 121q-6 -28 -10 -44q-5 -20 -17 -44q-11 -22 -26 -34q-16 -13 -39 -13q-43 0 -161 2q-63 1 -173 5q-121 4 -151 5q-88 2 -89 2q-21 0 -38 -1q-34 -2 -52 -3q-9 0 -30 -1.5t-33 -2.5q29 18 43 31q18 16 28 37q11 23 16 53q5 33 5 75v1072q0 27 -2 63q-1 26 -9 47
q-7 19 -21 38q-13 17 -36 34l45 -4q28 -2 43 -3t41 -1q5 0 85 2q18 0 61 1.5t67 2.5q25 1 67 2.5t58 1.5l76 2q23 0 38 -12q14 -11 25 -32q12 -22 16 -41q6 -28 7 -40q-17 22 -31 33q-15 12 -37 18q-20 5 -57 7q-23 1 -88 1h-225v-606h305q42 0 68 10q31 12 45 25
q18 16 28 37q-2 -24 -2 -35q-2 -20 -2 -31v-28v-33q0 -11 2 -33q1 -6 2.5 -18t1.5 -17q-11 19 -28 33q-17 13 -44 23q-26 10 -69 10h-307v-668q21 -1 63 -2.5t62 -1.5q70 -2 108 -2h96q25 0 79 2q33 1 77 10q33 7 68 24q30 15 51 42zM672 1536l-262 121l-261 -121l-4 8
l265 254l266 -254z" />
    <glyph glyph-name="edieresis" unicode="&#xeb;" horiz-adv-x="942" 
d="M891 121q-6 -28 -10 -44q-5 -20 -17 -44q-11 -22 -26 -34q-16 -13 -39 -13q-43 0 -161 2q-63 1 -173 5q-121 4 -151 5q-88 2 -89 2q-21 0 -38 -1q-34 -2 -52 -3q-9 0 -30 -1.5t-33 -2.5q29 18 43 31q18 16 28 37q11 23 16 53q5 33 5 75v1072q0 27 -2 63q-1 26 -9 47
q-7 19 -21 38q-13 17 -36 34l45 -4q28 -2 43 -3t41 -1q5 0 85 2q18 0 61 1.5t67 2.5q25 1 67 2.5t58 1.5l76 2q23 0 38 -12q14 -11 25 -32q12 -22 16 -41q6 -28 7 -40q-17 22 -31 33q-15 12 -37 18q-20 5 -57 7q-23 1 -88 1h-225v-606h305q42 0 68 10q31 12 45 25
q18 16 28 37q-2 -24 -2 -35q-2 -20 -2 -31v-28v-33q0 -11 2 -33q1 -6 2.5 -18t1.5 -17q-11 19 -28 33q-17 13 -44 23q-26 10 -69 10h-307v-668q21 -1 63 -2.5t62 -1.5q70 -2 108 -2h96q25 0 79 2q33 1 77 10q33 7 68 24q30 15 51 42zM227 1614q0 33 22 57q21 23 52 23
q30 0 53 -23t23 -57q0 -35 -23 -56q-24 -22 -53 -22q-30 0 -52 22t-22 56zM483 1614q0 33 22 57q21 23 52 23q30 0 53 -23t23 -57q0 -35 -23 -56q-24 -22 -53 -22q-30 0 -52 22t-22 56z" />
    <glyph glyph-name="igrave" unicode="&#xec;" 
d="M379 -8l-53 4q-15 1 -51 3q-18 1 -50 1t-50 -1q-30 -2 -50 -3l-53 -4q22 12 38 26q17 14 29 35q14 24 19 49q6 28 6 72v1100q0 75 -17 111q-17 35 -51 57l45 -4q28 -2 43 -3t41 -1t40 1l42 3q7 0 23 1.5t24 2.5q-32 -16 -50 -53q-17 -35 -17 -115v-1100q0 -84 24 -120
q23 -34 68 -62zM-57 1722q0 25 20 41q22 17 49 17q50 0 97 -47l196 -189l-6 -8l-297 121q-59 28 -59 65z" />
    <glyph glyph-name="iacute" unicode="&#xed;" 
d="M379 -8l-53 4q-15 1 -51 3q-18 1 -50 1t-50 -1q-30 -2 -50 -3l-53 -4q22 12 38 26q17 14 29 35q14 24 19 49q6 28 6 72v1100q0 75 -17 111q-17 35 -51 57l45 -4q28 -2 43 -3t41 -1t40 1l42 3q7 0 23 1.5t24 2.5q-32 -16 -50 -53q-17 -35 -17 -115v-1100q0 -84 24 -120
q23 -34 68 -62zM508 1722q0 -37 -59 -65l-297 -121l-7 8l197 189q47 47 96 47q27 0 49 -17q21 -16 21 -41z" />
    <glyph glyph-name="icircumflex" unicode="&#xee;" 
d="M379 -8l-53 4q-15 1 -51 3q-18 1 -50 1t-50 -1q-30 -2 -50 -3l-53 -4q22 12 38 26q17 14 29 35q14 24 19 49q6 28 6 72v1100q0 75 -17 111q-17 35 -51 57l45 -4q28 -2 43 -3t41 -1t40 1l42 3q7 0 23 1.5t24 2.5q-32 -16 -50 -53q-17 -35 -17 -115v-1100q0 -84 24 -120
q23 -34 68 -62zM489 1536l-262 121l-260 -121l-4 8l264 254l267 -254z" />
    <glyph glyph-name="idieresis" unicode="&#xef;" 
d="M379 -8l-53 4q-15 1 -51 3q-18 1 -50 1t-50 -1q-30 -2 -50 -3l-53 -4q22 12 38 26q17 14 29 35q14 24 19 49q6 28 6 72v1100q0 75 -17 111q-17 35 -51 57l45 -4q28 -2 43 -3t41 -1t40 1l42 3q7 0 23 1.5t24 2.5q-32 -16 -50 -53q-17 -35 -17 -115v-1100q0 -84 24 -120
q23 -34 68 -62zM25 1614q0 34 21 57t52 23t54 -23q22 -22 22 -57t-22 -56q-24 -22 -54 -22t-52 22q-21 21 -21 56zM281 1614q0 34 21 57t52 23t54 -23q22 -22 22 -57t-22 -56q-24 -22 -54 -22t-52 22q-21 21 -21 56z" />
    <glyph glyph-name="eth" unicode="&#xf0;" horiz-adv-x="1449" 
d="M1368 702q0 -153 -47 -288q-46 -131 -139 -232q-88 -96 -231 -153q-139 -56 -318 -56q-78 0 -137 4q-11 1 -119 10q-53 5 -90 9q-33 4 -51 4q-21 0 -37 -1q-7 0 -15.5 -0.5t-19 -1.5t-16.5 -1q-23 -1 -46 -3q-14 -1 -22 -1q34 21 41 27q16 13 25 36q10 24 14 61
q4 33 4 99v502h-144v67h144v488q0 66 -10 99q-10 32 -58 71q18 -1 51.5 -2.5t47.5 -1.5t40 -1t40 -2q27 -1 63 -1q9 0 55 2q21 1 76 5q36 3 86 6q45 3 90 3q85 0 165 -14q91 -16 165 -48q78 -34 151 -90t125 -138q55 -86 85 -196q32 -116 32 -262zM287 717v-668
q48 -13 98 -20q69 -11 107 -14q67 -5 126 -5q68 0 139 9q65 8 139 34q64 22 130 69q60 43 108 115q46 70 73 172q28 106 28 238q0 177 -41 321q-40 141 -116 241t-180 152t-232 52q-60 0 -113 -4q-16 -1 -55 -3.5t-59 -4.5q-56 -5 -95 -9l-57 -8v-600h395v-67h-395z" />
    <glyph glyph-name="ntilde" unicode="&#xf1;" horiz-adv-x="1507" 
d="M1425 1440q-24 -20 -33 -29q-16 -16 -27 -37q-12 -22 -16 -56q-6 -46 -6 -83v-1290l-1099 1302v-1120q0 -34 9 -58t21 -39q13 -16 26 -25q11 -8 24 -13l-45 4q-16 1 -41 3q-15 1 -39 1q-21 0 -35 -1q-7 -1 -20.5 -2t-20.5 -1q-5 0 -22.5 -1.5t-28.5 -2.5q39 21 65 59
q27 39 27 103v1106q0 44 -6 73q-6 28 -22 47t-39 32q-32 18 -56 30q12 -1 33 -2.5t30 -1.5q27 -2 57 -3q20 -1 56 -1h36q14 0 38 2q15 0 43 2q0 -1 -1.5 -5t-2.5 -6q-4 -11 -4 -28q0 -22 6 -46q6 -25 26 -46l908 -1074v1027q0 48 -4 72q-5 28 -15 46q-12 21 -26 32
q-13 11 -39 28q32 -2 47 -2q28 -2 41 -2h37h34q15 0 39 2zM999 1692q-24 -94 -50 -125t-72 -31q-27 0 -60 13q-13 5 -38 15t-34 14q-5 2 -31.5 13t-40.5 16q-35 13 -65 13q-28 0 -54 -30q-30 -35 -44 -54l-6 4q29 87 69 124q41 38 84 38q27 0 54 -13q19 -9 59 -29
q31 -15 61 -29q29 -13 60 -13q35 0 60 21q25 20 42 55z" />
    <glyph glyph-name="ograve" unicode="&#xf2;" horiz-adv-x="1630" 
d="M1548 672q0 -162 -65 -291q-67 -133 -167 -224q-103 -94 -226 -146t-244 -52q-164 0 -303 54q-140 54 -242 156q-103 103 -161 244t-58 320q0 169 60 305q60 137 161 235q99 96 231 149t267 53q195 0 336 -72q140 -72 232 -186q91 -113 135 -259t44 -286zM1425 649
q0 161 -49 302q-50 143 -133 250t-197 170t-245 63q-138 0 -249 -53q-109 -52 -185 -143q-77 -92 -117 -216q-41 -126 -41 -270q0 -154 51 -290t140 -239q90 -104 210 -163q122 -60 258 -60q96 0 194 40q99 40 180 120t132 201t51 288zM530 1722q0 25 21 41q22 17 49 17
q49 0 96 -47l197 -189l-6 -8l-297 121q-60 29 -60 65z" />
    <glyph glyph-name="oacute" unicode="&#xf3;" horiz-adv-x="1630" 
d="M1548 672q0 -162 -65 -291q-67 -133 -167 -224q-103 -94 -226 -146t-244 -52q-164 0 -303 54q-140 54 -242 156q-103 103 -161 244t-58 320q0 169 60 305q60 137 161 235q99 96 231 149t267 53q195 0 336 -72q140 -72 232 -186q91 -113 135 -259t44 -286zM1425 649
q0 161 -49 302q-50 143 -133 250t-197 170t-245 63q-138 0 -249 -53q-109 -52 -185 -143q-77 -92 -117 -216q-41 -126 -41 -270q0 -154 51 -290t140 -239q90 -104 210 -163q122 -60 258 -60q96 0 194 40q99 40 180 120t132 201t51 288zM1036 1722q0 -37 -59 -65l-297 -121
l-6 8l196 189q47 47 97 47q27 0 49 -17q20 -16 20 -41z" />
    <glyph glyph-name="ocircumflex" unicode="&#xf4;" horiz-adv-x="1630" 
d="M1548 672q0 -162 -65 -291q-67 -133 -167 -224q-103 -94 -226 -146t-244 -52q-164 0 -303 54q-140 54 -242 156q-103 103 -161 244t-58 320q0 169 60 305q60 137 161 235q99 96 231 149t267 53q195 0 336 -72q140 -72 232 -186q91 -113 135 -259t44 -286zM1425 649
q0 161 -49 302q-50 143 -133 250t-197 170t-245 63q-138 0 -249 -53q-109 -52 -185 -143q-77 -92 -117 -216q-41 -126 -41 -270q0 -154 51 -290t140 -239q90 -104 210 -163q122 -60 258 -60q96 0 194 40q99 40 180 120t132 201t51 288zM1075 1536l-262 121l-260 -121l-4 8
l264 254l266 -254z" />
    <glyph glyph-name="otilde" unicode="&#xf5;" horiz-adv-x="1630" 
d="M1548 672q0 -162 -65 -291q-67 -133 -167 -224q-103 -94 -226 -146t-244 -52q-164 0 -303 54q-140 54 -242 156q-103 103 -161 244t-58 320q0 169 60 305q60 137 161 235q99 96 231 149t267 53q195 0 336 -72q140 -72 232 -186q91 -113 135 -259t44 -286zM1425 649
q0 161 -49 302q-50 143 -133 250t-197 170t-245 63q-138 0 -249 -53q-109 -52 -185 -143q-77 -92 -117 -216q-41 -126 -41 -270q0 -154 51 -290t140 -239q90 -104 210 -163q122 -60 258 -60q96 0 194 40q99 40 180 120t132 201t51 288zM1063 1692q-24 -94 -50 -125t-73 -31
q-26 0 -59 13q-13 5 -38 15t-34 14q-65 26 -73 29q-35 13 -64 13q-30 0 -55 -30q-30 -35 -44 -54l-6 4q29 86 70 124t84 38q26 0 53 -13q38 -18 60 -29q31 -15 61 -29q29 -13 59 -13q36 0 61 21q25 20 42 55z" />
    <glyph glyph-name="odieresis" unicode="&#xf6;" horiz-adv-x="1630" 
d="M1548 672q0 -162 -65 -291q-67 -133 -167 -224q-103 -94 -226 -146t-244 -52q-164 0 -303 54q-140 54 -242 156q-103 103 -161 244t-58 320q0 169 60 305q60 137 161 235q99 96 231 149t267 53q195 0 336 -72q140 -72 232 -186q91 -113 135 -259t44 -286zM1425 649
q0 161 -49 302q-50 143 -133 250t-197 170t-245 63q-138 0 -249 -53q-109 -52 -185 -143q-77 -92 -117 -216q-41 -126 -41 -270q0 -154 51 -290t140 -239q90 -104 210 -163q122 -60 258 -60q96 0 194 40q99 40 180 120t132 201t51 288zM612 1614q0 33 22 57q21 23 52 23
q30 0 53 -23t23 -57q0 -35 -23 -56q-24 -22 -53 -22q-30 0 -52 22t-22 56zM868 1614q0 33 22 57q21 23 52 23q30 0 53 -23t23 -57q0 -35 -23 -56q-24 -22 -53 -22q-30 0 -52 22t-22 56z" />
    <glyph glyph-name="divide" unicode="&#xf7;" horiz-adv-x="1013" 
d="M602 1006q0 -40 -28 -68q-27 -27 -66 -27q-42 0 -69 27t-27 68q0 40 27 67t69 27q39 0 66 -27q28 -28 28 -67zM602 406q0 -40 -28 -68q-27 -27 -66 -27q-42 0 -69 27t-27 68q0 38 27 67t69 29q39 0 66 -29q28 -30 28 -67zM82 666v96h850v-96h-850z" />
    <glyph glyph-name="oslash" unicode="&#xf8;" horiz-adv-x="1634" 
d="M1559 645q0 -158 -67 -287q-65 -125 -169 -217q-102 -90 -228 -138t-245 -48q-270 0 -461 127l-127 -176h-90l156 221q-118 102 -182 244q-66 145 -66 344q0 170 61 305q62 138 163 233q103 97 233 149q129 52 268 52q121 0 220 -24q97 -23 179 -70l121 170h88l-149 -209
q153 -111 224 -287q71 -177 71 -389zM1436 645q0 180 -62 334t-168 260l-762 -1075q89 -85 197 -131q109 -47 231 -47q93 0 195 41q97 39 182 124q81 81 134 205t53 289zM1151 1286q-72 59 -162 94t-186 35q-139 0 -250 -51t-187 -142q-78 -93 -119 -215q-42 -125 -42 -270
q0 -151 51 -283q51 -131 137 -237z" />
    <glyph glyph-name="ugrave" unicode="&#xf9;" horiz-adv-x="1460" 
d="M1368 1442q-37 -16 -52 -61q-16 -46 -16 -121v-1106q0 -45 14 -76q15 -34 29 -49q18 -20 46 -37q-11 1 -29.5 2.5t-24.5 1.5q-15 1 -47 3q-16 1 -47 1q-21 0 -33 -1q-6 -1 -18.5 -2t-18.5 -1q-8 -1 -22 -2.5t-21 -1.5q14 7 25 31q9 15 17 50q8 34 8 83q-7 -4 -51 -35
q-46 -32 -106 -61q-64 -31 -154 -57q-89 -26 -189 -26q-112 0 -205 37q-95 38 -162 108t-106 175t-39 240v723q0 53 -16 86q-17 36 -37 57q-22 23 -52 39q12 -1 33.5 -2.5t30.5 -1.5l54 -3q18 -1 46 -1q26 0 41 1q25 2 41 3q8 1 22 2.5t21 1.5q-20 -16 -31 -39
q-13 -23 -21 -56q-9 -35 -9 -87v-777q0 -122 47 -208q46 -84 118 -138q72 -53 153 -77q79 -23 155 -23q81 0 148 19q72 20 122 46q48 25 90 55q36 26 56 46v1057q0 76 -14 115t-54 67q18 -5 55 -6q50 -2 76 -2t62 2q25 1 65 6zM432 1722q0 25 21 41q22 17 49 17q49 0 96 -47
l197 -189l-7 -8l-296 121q-60 29 -60 65z" />
    <glyph glyph-name="uacute" unicode="&#xfa;" horiz-adv-x="1460" 
d="M1368 1442q-37 -16 -52 -61q-16 -46 -16 -121v-1106q0 -45 14 -76q15 -34 29 -49q18 -20 46 -37q-11 1 -29.5 2.5t-24.5 1.5q-15 1 -47 3q-16 1 -47 1q-21 0 -33 -1q-6 -1 -18.5 -2t-18.5 -1q-8 -1 -22 -2.5t-21 -1.5q14 7 25 31q9 15 17 50q8 34 8 83q-7 -4 -51 -35
q-46 -32 -106 -61q-64 -31 -154 -57q-89 -26 -189 -26q-112 0 -205 37q-95 38 -162 108t-106 175t-39 240v723q0 53 -16 86q-17 36 -37 57q-22 23 -52 39q12 -1 33.5 -2.5t30.5 -1.5l54 -3q18 -1 46 -1q26 0 41 1q25 2 41 3q8 1 22 2.5t21 1.5q-20 -16 -31 -39
q-13 -23 -21 -56q-9 -35 -9 -87v-777q0 -122 47 -208q46 -84 118 -138q72 -53 153 -77q79 -23 155 -23q81 0 148 19q72 20 122 46q48 25 90 55q36 26 56 46v1057q0 76 -14 115t-54 67q18 -5 55 -6q50 -2 76 -2t62 2q25 1 65 6zM1040 1722q0 -37 -59 -65l-297 -121l-6 8
l196 189q47 47 97 47q27 0 49 -17q20 -16 20 -41z" />
    <glyph glyph-name="ucircumflex" unicode="&#xfb;" horiz-adv-x="1460" 
d="M1368 1442q-37 -16 -52 -61q-16 -46 -16 -121v-1106q0 -45 14 -76q15 -34 29 -49q18 -20 46 -37q-11 1 -29.5 2.5t-24.5 1.5q-15 1 -47 3q-16 1 -47 1q-21 0 -33 -1q-6 -1 -18.5 -2t-18.5 -1q-8 -1 -22 -2.5t-21 -1.5q14 7 25 31q9 15 17 50q8 34 8 83q-7 -4 -51 -35
q-46 -32 -106 -61q-64 -31 -154 -57q-89 -26 -189 -26q-112 0 -205 37q-95 38 -162 108t-106 175t-39 240v723q0 53 -16 86q-17 36 -37 57q-22 23 -52 39q12 -1 33.5 -2.5t30.5 -1.5l54 -3q18 -1 46 -1q26 0 41 1q25 2 41 3q8 1 22 2.5t21 1.5q-20 -16 -31 -39
q-13 -23 -21 -56q-9 -35 -9 -87v-777q0 -122 47 -208q46 -84 118 -138q72 -53 153 -77q79 -23 155 -23q81 0 148 19q72 20 122 46q48 25 90 55q36 26 56 46v1057q0 76 -14 115t-54 67q18 -5 55 -6q50 -2 76 -2t62 2q25 1 65 6zM997 1536l-262 121l-260 -121l-4 8l264 254
l266 -254z" />
    <glyph glyph-name="udieresis" unicode="&#xfc;" horiz-adv-x="1460" 
d="M1368 1442q-37 -16 -52 -61q-16 -46 -16 -121v-1106q0 -45 14 -76q15 -34 29 -49q18 -20 46 -37q-11 1 -29.5 2.5t-24.5 1.5q-15 1 -47 3q-16 1 -47 1q-21 0 -33 -1q-6 -1 -18.5 -2t-18.5 -1q-8 -1 -22 -2.5t-21 -1.5q14 7 25 31q9 15 17 50q8 34 8 83q-7 -4 -51 -35
q-46 -32 -106 -61q-64 -31 -154 -57q-89 -26 -189 -26q-112 0 -205 37q-95 38 -162 108t-106 175t-39 240v723q0 53 -16 86q-17 36 -37 57q-22 23 -52 39q12 -1 33.5 -2.5t30.5 -1.5l54 -3q18 -1 46 -1q26 0 41 1q25 2 41 3q8 1 22 2.5t21 1.5q-20 -16 -31 -39
q-13 -23 -21 -56q-9 -35 -9 -87v-777q0 -122 47 -208q46 -84 118 -138q72 -53 153 -77q79 -23 155 -23q81 0 148 19q72 20 122 46q48 25 90 55q36 26 56 46v1057q0 76 -14 115t-54 67q18 -5 55 -6q50 -2 76 -2t62 2q25 1 65 6zM535 1614q0 34 21 57t52 23t54 -23
q22 -22 22 -57t-22 -56q-24 -22 -54 -22t-52 22q-21 21 -21 56zM791 1614q0 34 21 57t52 23t54 -23q22 -22 22 -57t-22 -56q-24 -22 -54 -22t-52 22q-21 21 -21 56z" />
    <glyph glyph-name="yacute" unicode="&#xfd;" horiz-adv-x="1589" 
d="M1589 1442q-33 -15 -65 -41q-29 -23 -61 -61q-31 -37 -60 -95l-658 -1296q-36 -68 -56 -99q-29 -45 -70 -83q-40 -37 -95 -59q-52 -21 -127 -21q61 22 99 45q39 23 72 53q37 33 57 65q27 43 47 82l53 107l-569 1290q-12 26 -38 48q-27 22 -52 36q-30 16 -66 29l70 -4
q32 -2 61 -3q22 -1 57 -1q32 0 49 1q25 1 48 3q7 0 24 1.5t27 2.5q-16 -13 -23 -27q-10 -16 -14 -26q-6 -15 -6 -27q0 -34 29 -98l479 -1084l536 1080q17 39 22 53q9 27 9 49q0 8 -8 24q-6 12 -19 27q-12 15 -26 29q11 -1 30 -2.5t27 -1.5q30 -2 46 -3t36 -1q26 0 42 1t44 3
q6 0 22.5 1.5t26.5 2.5zM1057 1722q0 -36 -60 -65l-297 -121l-6 8l197 189q47 47 96 47q27 0 49 -17q21 -16 21 -41z" />
    <glyph glyph-name="thorn" unicode="&#xfe;" horiz-adv-x="935" 
d="M870 815q0 -119 -28 -194q-28 -74 -77 -119q-48 -44 -111 -60q-61 -16 -130 -16q-24 0 -51 3q-31 3 -49 7q-31 6 -37 8q-14 4 -14 9q0 4 8 4q12 0 42 -6q35 -7 71 -7q46 0 95 17t86 55q39 41 62 101q25 66 25 153q0 74 -23 140q-23 67 -65 113q-44 48 -105 75
q-59 26 -139 26q-20 0 -66 -2q-33 -1 -77 -18v-950q0 -44 10 -73t25 -50q19 -25 36 -39q-7 0 -21 1.5t-22 2.5q-18 2 -42 3q-16 1 -46 1q-21 0 -37 -1q-8 -1 -24.5 -2t-24.5 -1q-9 0 -29 -1.5t-30 -2.5q23 12 41 35q17 18 29 49q12 30 12 78v1138q0 49 -12 79q-12 29 -27 46
q-19 19 -39 25q10 -1 27 -2.5t24 -1.5q15 -1 47 -3q16 -1 43 -1h30q12 0 40 2q5 0 22.5 1.5t28.5 2.5q-19 -8 -31 -29q-12 -16 -21 -47q-9 -30 -9 -80v-135q29 2 59 6q7 0 27.5 1.5t33.5 2.5q46 2 70 2q87 0 156 -26q72 -27 125 -74q52 -46 83 -111q29 -61 29 -135z" />
    <glyph glyph-name="ydieresis" unicode="&#xff;" horiz-adv-x="1589" 
d="M1589 1442q-33 -15 -65 -41q-29 -23 -61 -61q-31 -37 -60 -95l-658 -1296q-36 -68 -56 -99q-29 -45 -70 -83q-40 -37 -95 -59q-52 -21 -127 -21q61 22 99 45q39 23 72 53q37 33 57 65q27 43 47 82l53 107l-569 1290q-12 26 -38 48q-27 22 -52 36q-30 16 -66 29l70 -4
q32 -2 61 -3q22 -1 57 -1q32 0 49 1q25 1 48 3q7 0 24 1.5t27 2.5q-16 -13 -23 -27q-10 -16 -14 -26q-6 -15 -6 -27q0 -34 29 -98l479 -1084l536 1080q17 39 22 53q9 27 9 49q0 8 -8 24q-6 12 -19 27q-12 15 -26 29q11 -1 30 -2.5t27 -1.5q30 -2 46 -3t36 -1q26 0 42 1t44 3
q6 0 22.5 1.5t26.5 2.5zM592 1614q0 34 21 57t53 23q30 0 53 -23q22 -22 22 -57t-22 -56q-24 -22 -53 -22q-31 0 -53 22q-21 21 -21 56zM848 1614q0 34 21 57t53 23q30 0 53 -23q22 -22 22 -57t-22 -56q-24 -22 -53 -22q-31 0 -53 22q-21 21 -21 56z" />
    <glyph glyph-name="Amacron" unicode="&#x100;" horiz-adv-x="1650" 
d="M1630 -8q-11 0 -33 1.5t-34 2.5q-24 1 -64 3q-23 1 -67 1q-32 0 -50 -1q-24 -1 -49 -3l-53 -4q12 8 20 20q12 17 16 24q7 13 7 30q0 29 -4 49q-4 22 -21 61l-94 209h-827l-98 -209q-10 -22 -18 -50q-7 -25 -7 -50q0 -11 8 -27q5 -10 19 -26q12 -17 26 -31q-10 1 -27 2.5
t-24 1.5q-30 2 -46 3t-44 1q-33 0 -50 -1q-26 -1 -48 -3q-8 -1 -24.5 -2.5t-23.5 -1.5q40 24 56 36q29 22 44 38q19 20 37 46q15 22 33 62l631 1311l625 -1311q18 -37 34 -60q17 -24 39 -46q21 -21 48 -39q36 -24 63 -37zM795 1276l-392 -832h775zM618 1638h435l-21 -82
h-434z" />
    <glyph glyph-name="amacron" unicode="&#x101;" horiz-adv-x="1650" 
d="M1630 -8q-11 0 -33 1.5t-34 2.5q-24 1 -64 3q-23 1 -67 1q-32 0 -50 -1q-24 -1 -49 -3l-53 -4q12 8 20 20q12 17 16 24q7 13 7 30q0 29 -4 49q-4 22 -21 61l-94 209h-827l-98 -209q-10 -22 -18 -50q-7 -25 -7 -50q0 -11 8 -27q5 -10 19 -26q12 -17 26 -31q-10 1 -27 2.5
t-24 1.5q-30 2 -46 3t-44 1q-33 0 -50 -1q-26 -1 -48 -3q-8 -1 -24.5 -2.5t-23.5 -1.5q40 24 56 36q29 22 44 38q19 20 37 46q15 22 33 62l631 1311l625 -1311q18 -37 34 -60q17 -24 39 -46q21 -21 48 -39q36 -24 63 -37zM795 1276l-392 -832h775zM618 1638h435l-21 -82
h-434z" />
    <glyph glyph-name="Abreve" unicode="&#x102;" horiz-adv-x="1650" 
d="M1630 -8q-11 0 -33 1.5t-34 2.5q-24 1 -64 3q-23 1 -67 1q-32 0 -50 -1q-24 -1 -49 -3l-53 -4q12 8 20 20q12 17 16 24q7 13 7 30q0 29 -4 49q-4 22 -21 61l-94 209h-827l-98 -209q-10 -22 -18 -50q-7 -25 -7 -50q0 -11 8 -27q5 -10 19 -26q12 -17 26 -31q-10 1 -27 2.5
t-24 1.5q-30 2 -46 3t-44 1q-33 0 -50 -1q-26 -1 -48 -3q-8 -1 -24.5 -2.5t-23.5 -1.5q40 24 56 36q29 22 44 38q19 20 37 46q15 22 33 62l631 1311l625 -1311q18 -37 34 -60q17 -24 39 -46q21 -21 48 -39q36 -24 63 -37zM795 1276l-392 -832h775zM1069 1759q0 -34 -18 -73
q-16 -35 -51 -73q-31 -34 -76 -55q-47 -22 -99 -22q-54 0 -95 20q-43 21 -77 53q-33 31 -52 71q-19 39 -19 79h8q7 -18 17 -34q14 -21 41 -41q25 -18 71 -34t104 -16q61 0 107 16q44 15 70 34t42 41q13 18 19 34h8z" />
    <glyph glyph-name="abreve" unicode="&#x103;" horiz-adv-x="1650" 
d="M1630 -8q-11 0 -33 1.5t-34 2.5q-24 1 -64 3q-23 1 -67 1q-32 0 -50 -1q-24 -1 -49 -3l-53 -4q12 8 20 20q12 17 16 24q7 13 7 30q0 29 -4 49q-4 22 -21 61l-94 209h-827l-98 -209q-10 -22 -18 -50q-7 -25 -7 -50q0 -11 8 -27q5 -10 19 -26q12 -17 26 -31q-10 1 -27 2.5
t-24 1.5q-30 2 -46 3t-44 1q-33 0 -50 -1q-26 -1 -48 -3q-8 -1 -24.5 -2.5t-23.5 -1.5q40 24 56 36q29 22 44 38q19 20 37 46q15 22 33 62l631 1311l625 -1311q18 -37 34 -60q17 -24 39 -46q21 -21 48 -39q36 -24 63 -37zM795 1276l-392 -832h775zM1069 1759q0 -34 -18 -73
q-16 -35 -51 -73q-31 -34 -76 -55q-47 -22 -99 -22q-54 0 -95 20q-43 21 -77 53q-33 31 -52 71q-19 39 -19 79h8q7 -18 17 -34q14 -21 41 -41q25 -18 71 -34t104 -16q61 0 107 16q44 15 70 34t42 41q13 18 19 34h8z" />
    <glyph glyph-name="Aogonek" unicode="&#x104;" horiz-adv-x="1650" 
d="M1630 -362q0 -8 -50 -22q-48 -13 -124 -13q-41 0 -76 7q-38 8 -64 22t-45 40q-18 24 -18 58q0 37 25 82q23 41 57 80q38 43 67 67q47 39 50 41h-20q-32 0 -50 -1q-24 -1 -49 -3l-53 -4q12 8 20 20q12 17 16 24q7 13 7 30q0 29 -4 49q-4 22 -21 61l-94 209h-827l-98 -209
q-10 -22 -18 -50q-7 -25 -7 -50q0 -11 8 -27q3 -6 19 -29q10 -15 26 -30q-10 1 -27 2.5t-24 1.5t-22.5 1.5t-23.5 2.5q-32 2 -44 2q-33 0 -50 -1q-26 -1 -48 -3q-8 -1 -24.5 -2.5t-23.5 -1.5q40 24 56 36q29 22 44 38q19 20 37 46q15 22 33 62l631 1311l625 -1311
q18 -37 34 -60q17 -24 39 -46q21 -21 48 -39q36 -24 63 -37q-4 0 -18.5 1.5t-22.5 2.5q-24 2 -43 2q-15 0 -51 2q-12 -12 -44 -46q-22 -24 -43 -54q-18 -27 -33 -61q-13 -30 -13 -62q0 -36 16 -61q17 -27 43 -44q27 -18 61 -27q38 -10 70 -10q19 0 43 4q18 3 27 3q8 0 8 -4z
M795 1276l-392 -832h775z" />
    <glyph glyph-name="aogonek" unicode="&#x105;" horiz-adv-x="1650" 
d="M1630 -362q0 -8 -50 -22q-48 -13 -124 -13q-41 0 -76 7q-38 8 -64 22t-45 40q-18 24 -18 58q0 37 25 82q23 41 57 80q38 43 67 67q47 39 50 41h-20q-32 0 -50 -1q-24 -1 -49 -3l-53 -4q12 8 20 20q12 17 16 24q7 13 7 30q0 29 -4 49q-4 22 -21 61l-94 209h-827l-98 -209
q-10 -22 -18 -50q-7 -25 -7 -50q0 -11 8 -27q3 -6 19 -29q10 -15 26 -30q-10 1 -27 2.5t-24 1.5t-22.5 1.5t-23.5 2.5q-32 2 -44 2q-33 0 -50 -1q-26 -1 -48 -3q-8 -1 -24.5 -2.5t-23.5 -1.5q40 24 56 36q29 22 44 38q19 20 37 46q15 22 33 62l631 1311l625 -1311
q18 -37 34 -60q17 -24 39 -46q21 -21 48 -39q36 -24 63 -37q-4 0 -18.5 1.5t-22.5 2.5q-24 2 -43 2q-15 0 -51 2q-12 -12 -44 -46q-22 -24 -43 -54q-18 -27 -33 -61q-13 -30 -13 -62q0 -36 16 -61q17 -27 43 -44q27 -18 61 -27q38 -10 70 -10q19 0 43 4q18 3 27 3q8 0 8 -4z
M795 1276l-392 -832h775z" />
    <glyph glyph-name="Cacute" unicode="&#x106;" horiz-adv-x="1497" 
d="M1395 238l-4 -45q0 -5 -2 -18.5t-3 -20.5q-1 -20 -6 -35q-12 -47 -13 -50q-5 -22 -15 -44q-14 -6 -24 -7q-12 -1 -25 -8q-11 -6 -46 -14q-48 -10 -86 -16q-80 -12 -114 -15q-63 -6 -131 -6q-232 0 -395 64q-162 64 -260 166q-98 103 -144 238q-45 133 -45 275
q0 199 69 346q68 144 177 240q106 93 242 140q135 47 264 47q128 0 241 -24q121 -26 178 -44q21 -6 59 -14q21 -5 27 -9v-36q0 -22 1 -32t1 -28q0 -31 -6 -61q-3 -14 -10 -62q-8 35 -20 66q-11 27 -27 54q-17 27 -41 44q-52 36 -155 70q-107 35 -238 35q-144 0 -260 -46
t-199 -132q-82 -85 -127 -203q-45 -119 -45 -265q0 -149 44 -293q43 -141 133 -252q89 -110 225 -176q139 -67 321 -67q107 0 175 17q76 19 122 44q47 26 81 58q30 28 52 57q1 2 10 17q6 10 10 20q8 14 9 25zM1073 1722q0 -37 -59 -65l-297 -121l-6 8l196 189q47 47 97 47
q27 0 49 -17q20 -16 20 -41z" />
    <glyph glyph-name="cacute" unicode="&#x107;" horiz-adv-x="1497" 
d="M1395 238l-4 -45q0 -5 -2 -18.5t-3 -20.5q-1 -20 -6 -35q-12 -47 -13 -50q-5 -22 -15 -44q-14 -6 -24 -7q-12 -1 -25 -8q-11 -6 -46 -14q-48 -10 -86 -16q-80 -12 -114 -15q-63 -6 -131 -6q-232 0 -395 64q-162 64 -260 166q-98 103 -144 238q-45 133 -45 275
q0 199 69 346q68 144 177 240q106 93 242 140q135 47 264 47q128 0 241 -24q121 -26 178 -44q21 -6 59 -14q21 -5 27 -9v-36q0 -22 1 -32t1 -28q0 -31 -6 -61q-3 -14 -10 -62q-8 35 -20 66q-11 27 -27 54q-17 27 -41 44q-52 36 -155 70q-107 35 -238 35q-144 0 -260 -46
t-199 -132q-82 -85 -127 -203q-45 -119 -45 -265q0 -149 44 -293q43 -141 133 -252q89 -110 225 -176q139 -67 321 -67q107 0 175 17q76 19 122 44q47 26 81 58q30 28 52 57q1 2 10 17q6 10 10 20q8 14 9 25zM1073 1722q0 -37 -59 -65l-297 -121l-6 8l196 189q47 47 97 47
q27 0 49 -17q20 -16 20 -41z" />
    <glyph glyph-name="Ccircumflex" unicode="&#x108;" horiz-adv-x="1497" 
d="M1395 238l-4 -45q0 -5 -2 -18.5t-3 -20.5q-1 -20 -6 -35q-12 -47 -13 -50q-5 -22 -15 -44q-14 -6 -24 -7q-12 -1 -25 -8q-11 -6 -46 -14q-48 -10 -86 -16q-80 -12 -114 -15q-63 -6 -131 -6q-232 0 -395 64q-162 64 -260 166q-98 103 -144 238q-45 133 -45 275
q0 199 69 346q68 144 177 240q106 93 242 140q135 47 264 47q128 0 241 -24q121 -26 178 -44q21 -6 59 -14q21 -5 27 -9v-36q0 -22 1 -32t1 -28q0 -31 -6 -61q-3 -14 -10 -62q-8 35 -20 66q-11 27 -27 54q-17 27 -41 44q-52 36 -155 70q-107 35 -238 35q-144 0 -260 -46
t-199 -132q-82 -85 -127 -203q-45 -119 -45 -265q0 -149 44 -293q43 -141 133 -252q89 -110 225 -176q139 -67 321 -67q107 0 175 17q76 19 122 44q47 26 81 58q30 28 52 57q1 2 10 17q6 10 10 20q8 14 9 25zM1087 1536l-262 121l-260 -121l-4 8l264 254l267 -254z" />
    <glyph glyph-name="ccircumflex" unicode="&#x109;" horiz-adv-x="1497" 
d="M1395 238l-4 -45q0 -5 -2 -18.5t-3 -20.5q-1 -20 -6 -35q-12 -47 -13 -50q-5 -22 -15 -44q-14 -6 -24 -7q-12 -1 -25 -8q-11 -6 -46 -14q-48 -10 -86 -16q-80 -12 -114 -15q-63 -6 -131 -6q-232 0 -395 64q-162 64 -260 166q-98 103 -144 238q-45 133 -45 275
q0 199 69 346q68 144 177 240q106 93 242 140q135 47 264 47q128 0 241 -24q121 -26 178 -44q21 -6 59 -14q21 -5 27 -9v-36q0 -22 1 -32t1 -28q0 -31 -6 -61q-3 -14 -10 -62q-8 35 -20 66q-11 27 -27 54q-17 27 -41 44q-52 36 -155 70q-107 35 -238 35q-144 0 -260 -46
t-199 -132q-82 -85 -127 -203q-45 -119 -45 -265q0 -149 44 -293q43 -141 133 -252q89 -110 225 -176q139 -67 321 -67q107 0 175 17q76 19 122 44q47 26 81 58q30 28 52 57q1 2 10 17q6 10 10 20q8 14 9 25zM1087 1536l-262 121l-260 -121l-4 8l264 254l267 -254z" />
    <glyph glyph-name="Cdotaccent" unicode="&#x10a;" horiz-adv-x="1497" 
d="M1395 238l-4 -45q0 -5 -2 -18.5t-3 -20.5q-1 -20 -6 -35q-12 -47 -13 -50q-5 -22 -15 -44q-14 -6 -24 -7q-12 -1 -25 -8q-11 -6 -46 -14q-48 -10 -86 -16q-80 -12 -114 -15q-63 -6 -131 -6q-232 0 -395 64q-162 64 -260 166q-98 103 -144 238q-45 133 -45 275
q0 199 69 346q68 144 177 240q106 93 242 140q135 47 264 47q128 0 241 -24q121 -26 178 -44q21 -6 59 -14q21 -5 27 -9v-36q0 -22 1 -32t1 -28q0 -31 -6 -61q-3 -14 -10 -62q-8 35 -20 66q-11 27 -27 54q-17 27 -41 44q-52 36 -155 70q-107 35 -238 35q-144 0 -260 -46
t-199 -132q-82 -85 -127 -203q-45 -119 -45 -265q0 -149 44 -293q43 -141 133 -252q89 -110 225 -176q139 -67 321 -67q107 0 175 17q76 19 122 44q47 26 81 58q30 28 52 57q1 2 10 17q6 10 10 20q8 14 9 25zM909 1638q0 -39 -22 -65q-23 -27 -60 -27q-42 0 -62 29t-20 57
q0 29 20 60q19 30 62 30q36 0 59 -22t23 -62z" />
    <glyph glyph-name="cdotaccent" unicode="&#x10b;" horiz-adv-x="1497" 
d="M1395 238l-4 -45q0 -5 -2 -18.5t-3 -20.5q-1 -20 -6 -35q-12 -47 -13 -50q-5 -22 -15 -44q-14 -6 -24 -7q-12 -1 -25 -8q-11 -6 -46 -14q-48 -10 -86 -16q-80 -12 -114 -15q-63 -6 -131 -6q-232 0 -395 64q-162 64 -260 166q-98 103 -144 238q-45 133 -45 275
q0 199 69 346q68 144 177 240q106 93 242 140q135 47 264 47q128 0 241 -24q121 -26 178 -44q21 -6 59 -14q21 -5 27 -9v-36q0 -22 1 -32t1 -28q0 -31 -6 -61q-3 -14 -10 -62q-8 35 -20 66q-11 27 -27 54q-17 27 -41 44q-52 36 -155 70q-107 35 -238 35q-144 0 -260 -46
t-199 -132q-82 -85 -127 -203q-45 -119 -45 -265q0 -149 44 -293q43 -141 133 -252q89 -110 225 -176q139 -67 321 -67q107 0 175 17q76 19 122 44q47 26 81 58q30 28 52 57q1 2 10 17q6 10 10 20q8 14 9 25zM909 1638q0 -39 -22 -65q-23 -27 -60 -27q-42 0 -62 29t-20 57
q0 29 20 60q19 30 62 30q36 0 59 -22t23 -62z" />
    <glyph glyph-name="Ccaron" unicode="&#x10c;" horiz-adv-x="1497" 
d="M1395 238l-4 -45q0 -5 -2 -18.5t-3 -20.5q-1 -20 -6 -35q-12 -47 -13 -50q-5 -22 -15 -44q-14 -6 -24 -7q-12 -1 -25 -8q-11 -6 -46 -14q-48 -10 -86 -16q-80 -12 -114 -15q-63 -6 -131 -6q-232 0 -395 64q-162 64 -260 166q-98 103 -144 238q-45 133 -45 275
q0 199 69 346q68 144 177 240q106 93 242 140q135 47 264 47q128 0 241 -24q121 -26 178 -44q21 -6 59 -14q21 -5 27 -9v-36q0 -22 1 -32t1 -28q0 -31 -6 -61q-3 -14 -10 -62q-8 35 -20 66q-11 27 -27 54q-17 27 -41 44q-52 36 -155 70q-107 35 -238 35q-144 0 -260 -46
t-199 -132q-82 -85 -127 -203q-45 -119 -45 -265q0 -149 44 -293q43 -141 133 -252q89 -110 225 -176q139 -67 321 -67q107 0 175 17q76 19 122 44q47 26 81 58q30 28 52 57q1 2 10 17q6 10 10 20q8 14 9 25zM569 1798l262 -121l261 121l4 -8l-265 -254l-266 254z" />
    <glyph glyph-name="ccaron" unicode="&#x10d;" horiz-adv-x="1497" 
d="M1395 238l-4 -45q0 -5 -2 -18.5t-3 -20.5q-1 -20 -6 -35q-12 -47 -13 -50q-5 -22 -15 -44q-14 -6 -24 -7q-12 -1 -25 -8q-11 -6 -46 -14q-48 -10 -86 -16q-80 -12 -114 -15q-63 -6 -131 -6q-232 0 -395 64q-162 64 -260 166q-98 103 -144 238q-45 133 -45 275
q0 199 69 346q68 144 177 240q106 93 242 140q135 47 264 47q128 0 241 -24q121 -26 178 -44q21 -6 59 -14q21 -5 27 -9v-36q0 -22 1 -32t1 -28q0 -31 -6 -61q-3 -14 -10 -62q-8 35 -20 66q-11 27 -27 54q-17 27 -41 44q-52 36 -155 70q-107 35 -238 35q-144 0 -260 -46
t-199 -132q-82 -85 -127 -203q-45 -119 -45 -265q0 -149 44 -293q43 -141 133 -252q89 -110 225 -176q139 -67 321 -67q107 0 175 17q76 19 122 44q47 26 81 58q30 28 52 57q1 2 10 17q6 10 10 20q8 14 9 25zM569 1798l262 -121l261 121l4 -8l-265 -254l-266 254z" />
    <glyph glyph-name="Dcaron" unicode="&#x10e;" horiz-adv-x="1449" 
d="M1368 702q0 -153 -47 -288q-46 -131 -139 -232q-88 -96 -231 -153q-139 -56 -318 -56q-79 0 -139 4q-20 1 -41.5 3t-45.5 4l-36 3q-57 5 -95 9q-35 4 -53 4q-37 0 -55 -1q-24 -1 -49 -3q-8 -1 -24 -2.5t-23 -1.5q24 16 42 30q16 12 28 35q13 24 17 60q5 42 5 98v1057
q0 66 -10 99q-10 32 -58 71q3 0 15 -1.5l20 -2.5q18 -2 40 -3q16 -1 52 -1q26 0 65 4q17 2 53.5 4.5t44.5 3.5q20 2 59 4.5t56 3.5q53 4 115 4q80 0 167 -15q90 -15 170 -49q84 -35 159 -91q72 -54 132 -142q55 -81 90 -197q34 -112 34 -262zM1245 647q0 176 -47 322
q-46 142 -129 243q-84 102 -193 155q-111 54 -239 54q-151 0 -232 -13q-83 -13 -118 -24v-1335q48 -13 98 -20q69 -11 107 -14q67 -5 126 -5q98 0 211 23q112 23 203 90q94 69 153 192q60 124 60 332zM360 1798l263 -121l260 121l4 -8l-264 -254l-267 254z" />
    <glyph glyph-name="dcaron" unicode="&#x10f;" horiz-adv-x="1449" 
d="M1368 702q0 -153 -47 -288q-46 -131 -139 -232q-88 -96 -231 -153q-139 -56 -318 -56q-79 0 -139 4q-20 1 -41.5 3t-45.5 4l-36 3q-57 5 -95 9q-35 4 -53 4q-37 0 -55 -1q-24 -1 -49 -3q-8 -1 -24 -2.5t-23 -1.5q24 16 42 30q16 12 28 35q13 24 17 60q5 42 5 98v1057
q0 66 -10 99q-10 32 -58 71q3 0 15 -1.5l20 -2.5q18 -2 40 -3q16 -1 52 -1q26 0 65 4q17 2 53.5 4.5t44.5 3.5q20 2 59 4.5t56 3.5q53 4 115 4q80 0 167 -15q90 -15 170 -49q84 -35 159 -91q72 -54 132 -142q55 -81 90 -197q34 -112 34 -262zM1245 647q0 176 -47 322
q-46 142 -129 243q-84 102 -193 155q-111 54 -239 54q-151 0 -232 -13q-83 -13 -118 -24v-1335q48 -13 98 -20q69 -11 107 -14q67 -5 126 -5q98 0 211 23q112 23 203 90q94 69 153 192q60 124 60 332zM360 1798l263 -121l260 121l4 -8l-264 -254l-267 254z" />
    <glyph glyph-name="Dcroat" unicode="&#x110;" horiz-adv-x="1449" 
d="M1368 702q0 -153 -47 -288q-46 -131 -139 -232q-88 -96 -231 -153q-139 -56 -318 -56q-78 0 -137 4q-11 1 -119 10q-53 5 -90 9q-33 4 -51 4q-21 0 -37 -1q-7 0 -15.5 -0.5t-19 -1.5t-16.5 -1q-23 -1 -46 -3q-14 -1 -22 -1q34 21 41 27q16 13 25 36q10 24 14 61
q4 33 4 99v502h-90v67h90v488q0 66 -10 99q-10 32 -58 71q18 -1 51.5 -2.5t47.5 -1.5t40 -1t40 -2q27 -1 63 -1q9 0 55 2q21 1 76 5q36 3 86 6q45 3 90 3q85 0 165 -14q91 -16 165 -48q78 -34 151 -90t125 -138q55 -86 85 -196q32 -116 32 -262zM287 717v-668q48 -13 98 -20
q69 -11 107 -14q67 -5 126 -5q68 0 139 9q65 8 139 34q64 22 130 69q60 43 108 115q46 70 73 172q28 106 28 238q0 177 -41 321q-40 141 -116 241t-180 152t-232 52q-60 0 -113 -4q-16 -1 -55 -3.5t-59 -4.5q-56 -5 -95 -9l-57 -8v-600h395v-67h-395z" />
    <glyph glyph-name="dcroat" unicode="&#x111;" horiz-adv-x="1449" 
d="M1368 702q0 -153 -47 -288q-46 -131 -139 -232q-88 -96 -231 -153q-139 -56 -318 -56q-78 0 -137 4q-11 1 -119 10q-53 5 -90 9q-33 4 -51 4q-21 0 -37 -1q-7 0 -15.5 -0.5t-19 -1.5t-16.5 -1q-23 -1 -46 -3q-14 -1 -22 -1q34 21 41 27q16 13 25 36q10 24 14 61
q4 33 4 99v502h-90v67h90v488q0 66 -10 99q-10 32 -58 71q18 -1 51.5 -2.5t47.5 -1.5t40 -1t40 -2q27 -1 63 -1q9 0 55 2q21 1 76 5q36 3 86 6q45 3 90 3q85 0 165 -14q91 -16 165 -48q78 -34 151 -90t125 -138q55 -86 85 -196q32 -116 32 -262zM287 717v-668q48 -13 98 -20
q69 -11 107 -14q67 -5 126 -5q68 0 139 9q65 8 139 34q64 22 130 69q60 43 108 115q46 70 73 172q28 106 28 238q0 177 -41 321q-40 141 -116 241t-180 152t-232 52q-60 0 -113 -4q-16 -1 -55 -3.5t-59 -4.5q-56 -5 -95 -9l-57 -8v-600h395v-67h-395z" />
    <glyph glyph-name="Emacron" unicode="&#x112;" horiz-adv-x="942" 
d="M891 121q-6 -28 -10 -44q-5 -20 -17 -44q-11 -22 -26 -34q-16 -13 -39 -13q-43 0 -161 2q-63 1 -173 5q-121 4 -151 5q-88 2 -89 2q-21 0 -38 -1q-34 -2 -52 -3q-9 0 -30 -1.5t-33 -2.5q29 18 43 31q18 16 28 37q11 23 16 53q5 33 5 75v1072q0 27 -2 63q-1 26 -9 47
q-7 19 -21 38q-13 17 -36 34l45 -4q28 -2 43 -3t41 -1q5 0 85 2q18 0 61 1.5t67 2.5q25 1 67 2.5t58 1.5l76 2q23 0 38 -12q14 -11 25 -32q12 -22 16 -41q6 -28 7 -40q-17 22 -31 33q-15 12 -37 18q-20 5 -57 7q-23 1 -88 1h-225v-606h305q42 0 68 10q31 12 45 25
q18 16 28 37q-2 -24 -2 -35q-2 -20 -2 -31v-28v-33q0 -11 2 -33q1 -6 2.5 -18t1.5 -17q-11 19 -28 33q-17 13 -44 23q-26 10 -69 10h-307v-668q21 -1 63 -2.5t62 -1.5q70 -2 108 -2h96q25 0 79 2q33 1 77 10q33 7 68 24q30 15 51 42zM223 1638h434l-20 -82h-434z" />
    <glyph glyph-name="emacron" unicode="&#x113;" horiz-adv-x="942" 
d="M891 121q-6 -28 -10 -44q-5 -20 -17 -44q-11 -22 -26 -34q-16 -13 -39 -13q-43 0 -161 2q-63 1 -173 5q-121 4 -151 5q-88 2 -89 2q-21 0 -38 -1q-34 -2 -52 -3q-9 0 -30 -1.5t-33 -2.5q29 18 43 31q18 16 28 37q11 23 16 53q5 33 5 75v1072q0 27 -2 63q-1 26 -9 47
q-7 19 -21 38q-13 17 -36 34l45 -4q28 -2 43 -3t41 -1q5 0 85 2q18 0 61 1.5t67 2.5q25 1 67 2.5t58 1.5l76 2q23 0 38 -12q14 -11 25 -32q12 -22 16 -41q6 -28 7 -40q-17 22 -31 33q-15 12 -37 18q-20 5 -57 7q-23 1 -88 1h-225v-606h305q42 0 68 10q31 12 45 25
q18 16 28 37q-2 -24 -2 -35q-2 -20 -2 -31v-28v-33q0 -11 2 -33q1 -6 2.5 -18t1.5 -17q-11 19 -28 33q-17 13 -44 23q-26 10 -69 10h-307v-668q21 -1 63 -2.5t62 -1.5q70 -2 108 -2h96q25 0 79 2q33 1 77 10q33 7 68 24q30 15 51 42zM223 1638h434l-20 -82h-434z" />
    <glyph glyph-name="Ebreve" unicode="&#x114;" horiz-adv-x="942" 
d="M891 121q-6 -28 -10 -44q-5 -20 -17 -44q-11 -22 -26 -34q-16 -13 -39 -13q-43 0 -161 2q-63 1 -173 5q-121 4 -151 5q-88 2 -89 2q-21 0 -38 -1q-34 -2 -52 -3q-9 0 -30 -1.5t-33 -2.5q29 18 43 31q18 16 28 37q11 23 16 53q5 33 5 75v1072q0 27 -2 63q-1 26 -9 47
q-7 19 -21 38q-13 17 -36 34l45 -4q28 -2 43 -3t41 -1q5 0 85 2q18 0 61 1.5t67 2.5q25 1 67 2.5t58 1.5l76 2q23 0 38 -12q14 -11 25 -32q12 -22 16 -41q6 -28 7 -40q-17 22 -31 33q-15 12 -37 18q-20 5 -57 7q-23 1 -88 1h-225v-606h305q42 0 68 10q31 12 45 25
q18 16 28 37q-2 -24 -2 -35q-2 -20 -2 -31v-28v-33q0 -11 2 -33q1 -6 2.5 -18t1.5 -17q-11 19 -28 33q-17 13 -44 23q-26 10 -69 10h-307v-668q21 -1 63 -2.5t62 -1.5q70 -2 108 -2h96q25 0 79 2q33 1 77 10q33 7 68 24q30 15 51 42zM676 1759q0 -32 -19 -73
q-17 -37 -50 -73q-30 -33 -77 -55t-98 -22q-54 0 -95 20q-43 21 -77 53q-33 31 -52 71q-20 42 -20 79h9q7 -18 17 -34q14 -21 41 -41q25 -18 71 -34t104 -16q61 0 107 16q44 15 70 34t42 41q13 18 19 34h8z" />
    <glyph glyph-name="ebreve" unicode="&#x115;" horiz-adv-x="942" 
d="M891 121q-6 -28 -10 -44q-5 -20 -17 -44q-11 -22 -26 -34q-16 -13 -39 -13q-43 0 -161 2q-63 1 -173 5q-121 4 -151 5q-88 2 -89 2q-21 0 -38 -1q-34 -2 -52 -3q-9 0 -30 -1.5t-33 -2.5q29 18 43 31q18 16 28 37q11 23 16 53q5 33 5 75v1072q0 27 -2 63q-1 26 -9 47
q-7 19 -21 38q-13 17 -36 34l45 -4q28 -2 43 -3t41 -1q5 0 85 2q18 0 61 1.5t67 2.5q25 1 67 2.5t58 1.5l76 2q23 0 38 -12q14 -11 25 -32q12 -22 16 -41q6 -28 7 -40q-17 22 -31 33q-15 12 -37 18q-20 5 -57 7q-23 1 -88 1h-225v-606h305q42 0 68 10q31 12 45 25
q18 16 28 37q-2 -24 -2 -35q-2 -20 -2 -31v-28v-33q0 -11 2 -33q1 -6 2.5 -18t1.5 -17q-11 19 -28 33q-17 13 -44 23q-26 10 -69 10h-307v-668q21 -1 63 -2.5t62 -1.5q70 -2 108 -2h96q25 0 79 2q33 1 77 10q33 7 68 24q30 15 51 42zM676 1759q0 -32 -19 -73
q-17 -37 -50 -73q-30 -33 -77 -55t-98 -22q-54 0 -95 20q-43 21 -77 53q-33 31 -52 71q-20 42 -20 79h9q7 -18 17 -34q14 -21 41 -41q25 -18 71 -34t104 -16q61 0 107 16q44 15 70 34t42 41q13 18 19 34h8z" />
    <glyph glyph-name="Edotaccent" unicode="&#x116;" horiz-adv-x="942" 
d="M891 121q-6 -28 -10 -44q-5 -20 -17 -44q-11 -22 -26 -34q-16 -13 -39 -13q-43 0 -161 2q-63 1 -173 5q-121 4 -151 5q-88 2 -89 2q-21 0 -38 -1q-34 -2 -52 -3q-9 0 -30 -1.5t-33 -2.5q29 18 43 31q18 16 28 37q11 23 16 53q5 33 5 75v1072q0 27 -2 63q-1 26 -9 47
q-7 19 -21 38q-13 17 -36 34l45 -4q28 -2 43 -3t41 -1q5 0 85 2q18 0 61 1.5t67 2.5q25 1 67 2.5t58 1.5l76 2q23 0 38 -12q14 -11 25 -32q12 -22 16 -41q6 -28 7 -40q-17 22 -31 33q-15 12 -37 18q-20 5 -57 7q-23 1 -88 1h-225v-606h305q42 0 68 10q31 12 45 25
q18 16 28 37q-2 -24 -2 -35q-2 -20 -2 -31v-28v-33q0 -11 2 -33q1 -6 2.5 -18t1.5 -17q-11 19 -28 33q-17 13 -44 23q-26 10 -69 10h-307v-668q21 -1 63 -2.5t62 -1.5q70 -2 108 -2h96q25 0 79 2q33 1 77 10q33 7 68 24q30 15 51 42zM512 1638q0 -37 -23 -65
q-23 -27 -59 -27q-42 0 -62 29t-20 57q0 29 20 60q20 30 62 30q35 0 58 -22q24 -23 24 -62z" />
    <glyph glyph-name="edotaccent" unicode="&#x117;" horiz-adv-x="942" 
d="M891 121q-6 -28 -10 -44q-5 -20 -17 -44q-11 -22 -26 -34q-16 -13 -39 -13q-43 0 -161 2q-63 1 -173 5q-121 4 -151 5q-88 2 -89 2q-21 0 -38 -1q-34 -2 -52 -3q-9 0 -30 -1.5t-33 -2.5q29 18 43 31q18 16 28 37q11 23 16 53q5 33 5 75v1072q0 27 -2 63q-1 26 -9 47
q-7 19 -21 38q-13 17 -36 34l45 -4q28 -2 43 -3t41 -1q5 0 85 2q18 0 61 1.5t67 2.5q25 1 67 2.5t58 1.5l76 2q23 0 38 -12q14 -11 25 -32q12 -22 16 -41q6 -28 7 -40q-17 22 -31 33q-15 12 -37 18q-20 5 -57 7q-23 1 -88 1h-225v-606h305q42 0 68 10q31 12 45 25
q18 16 28 37q-2 -24 -2 -35q-2 -20 -2 -31v-28v-33q0 -11 2 -33q1 -6 2.5 -18t1.5 -17q-11 19 -28 33q-17 13 -44 23q-26 10 -69 10h-307v-668q21 -1 63 -2.5t62 -1.5q70 -2 108 -2h96q25 0 79 2q33 1 77 10q33 7 68 24q30 15 51 42zM512 1638q0 -37 -23 -65
q-23 -27 -59 -27q-42 0 -62 29t-20 57q0 29 20 60q20 30 62 30q35 0 58 -22q24 -23 24 -62z" />
    <glyph glyph-name="Eogonek" unicode="&#x118;" horiz-adv-x="927" 
d="M877 -352q-33 -21 -89 -33t-114 -12q-41 0 -76 7q-41 8 -65 23q-28 17 -45 43t-17 66q0 65 52 127q56 68 124 117q-66 0 -132 3q-91 4 -124 5q-22 1 -57 2.5t-44 1.5q-58 2 -65 2q-21 0 -38 -1q-34 -2 -52 -3q-9 0 -30 -1.5t-33 -2.5q29 18 43 31q18 16 28 37
q11 23 16 53q5 33 5 75v1072q0 27 -2 63q-1 26 -9 47q-7 19 -21 38q-13 17 -36 34l45 -4q28 -2 43 -3t41 -1q8 0 76 2q16 0 51.5 1.5t55.5 2.5t54.5 2.5t48.5 1.5q64 2 67 2q27 0 39 -13q11 -12 24 -32q6 -11 9 -24q3 -16 7 -25q6 -20 7 -31q-11 8 -31 22q-13 12 -28 19
q-15 8 -27 12q-16 4 -46 6q-33 2 -62 3q-23 1 -68 1h-60h-55v-610h233q41 0 68 10q28 10 47 23q20 13 26 23q5 8 11 14v-4q-1 -4 -1.5 -12.5t-0.5 -18.5q-2 -44 -2 -57v-33q0 -11 2 -33q1 -6 2.5 -18t1.5 -17q-12 17 -35 33q-19 13 -47 23q-27 10 -70 10h-235v-676h207
q98 0 153 4q61 4 107 29q20 10 28 18l19 19l2 -5q0 -5 1 -8t1 -8q0 -8 -5 -28q-3 -11 -14 -27q-17 -27 -30 -38q-14 -11 -47 -11h-33q-36 -41 -66 -94q-28 -49 -28 -97q0 -39 16 -68q17 -31 43 -50q25 -18 61 -29q33 -10 70 -10q48 0 100 18z" />
    <glyph glyph-name="eogonek" unicode="&#x119;" horiz-adv-x="927" 
d="M877 -352q-33 -21 -89 -33t-114 -12q-41 0 -76 7q-41 8 -65 23q-28 17 -45 43t-17 66q0 65 52 127q56 68 124 117q-66 0 -132 3q-91 4 -124 5q-22 1 -57 2.5t-44 1.5q-58 2 -65 2q-21 0 -38 -1q-34 -2 -52 -3q-9 0 -30 -1.5t-33 -2.5q29 18 43 31q18 16 28 37
q11 23 16 53q5 33 5 75v1072q0 27 -2 63q-1 26 -9 47q-7 19 -21 38q-13 17 -36 34l45 -4q28 -2 43 -3t41 -1q8 0 76 2q16 0 51.5 1.5t55.5 2.5t54.5 2.5t48.5 1.5q64 2 67 2q27 0 39 -13q11 -12 24 -32q6 -11 9 -24q3 -16 7 -25q6 -20 7 -31q-11 8 -31 22q-13 12 -28 19
q-15 8 -27 12q-16 4 -46 6q-33 2 -62 3q-23 1 -68 1h-60h-55v-610h233q41 0 68 10q28 10 47 23q20 13 26 23q5 8 11 14v-4q-1 -4 -1.5 -12.5t-0.5 -18.5q-2 -44 -2 -57v-33q0 -11 2 -33q1 -6 2.5 -18t1.5 -17q-12 17 -35 33q-19 13 -47 23q-27 10 -70 10h-235v-676h207
q98 0 153 4q61 4 107 29q20 10 28 18l19 19l2 -5q0 -5 1 -8t1 -8q0 -8 -5 -28q-3 -11 -14 -27q-17 -27 -30 -38q-14 -11 -47 -11h-33q-36 -41 -66 -94q-28 -49 -28 -97q0 -39 16 -68q17 -31 43 -50q25 -18 61 -29q33 -10 70 -10q48 0 100 18z" />
    <glyph glyph-name="Ecaron" unicode="&#x11a;" horiz-adv-x="942" 
d="M891 121q-6 -28 -10 -44q-5 -20 -17 -44q-11 -22 -26 -34q-16 -13 -39 -13q-43 0 -161 2q-63 1 -173 5q-121 4 -151 5q-88 2 -89 2q-21 0 -38 -1q-34 -2 -52 -3q-9 0 -30 -1.5t-33 -2.5q29 18 43 31q18 16 28 37q11 23 16 53q5 33 5 75v1072q0 27 -2 63q-1 26 -9 47
q-7 19 -21 38q-13 17 -36 34l45 -4q28 -2 43 -3t41 -1q5 0 85 2q18 0 61 1.5t67 2.5q25 1 67 2.5t58 1.5l76 2q23 0 38 -12q14 -11 25 -32q12 -22 16 -41q6 -28 7 -40q-17 22 -31 33q-15 12 -37 18q-20 5 -57 7q-23 1 -88 1h-225v-606h305q42 0 68 10q31 12 45 25
q18 16 28 37q-2 -24 -2 -35q-2 -20 -2 -31v-28v-33q0 -11 2 -33q1 -6 2.5 -18t1.5 -17q-11 19 -28 33q-17 13 -44 23q-26 10 -69 10h-307v-668q21 -1 63 -2.5t62 -1.5q70 -2 108 -2h96q25 0 79 2q33 1 77 10q33 7 68 24q30 15 51 42zM129 1798l262 -121l260 121l4 -8
l-264 -254l-266 254z" />
    <glyph glyph-name="ecaron" unicode="&#x11b;" horiz-adv-x="942" 
d="M891 121q-6 -28 -10 -44q-5 -20 -17 -44q-11 -22 -26 -34q-16 -13 -39 -13q-43 0 -161 2q-63 1 -173 5q-121 4 -151 5q-88 2 -89 2q-21 0 -38 -1q-34 -2 -52 -3q-9 0 -30 -1.5t-33 -2.5q29 18 43 31q18 16 28 37q11 23 16 53q5 33 5 75v1072q0 27 -2 63q-1 26 -9 47
q-7 19 -21 38q-13 17 -36 34l45 -4q28 -2 43 -3t41 -1q5 0 85 2q18 0 61 1.5t67 2.5q25 1 67 2.5t58 1.5l76 2q23 0 38 -12q14 -11 25 -32q12 -22 16 -41q6 -28 7 -40q-17 22 -31 33q-15 12 -37 18q-20 5 -57 7q-23 1 -88 1h-225v-606h305q42 0 68 10q31 12 45 25
q18 16 28 37q-2 -24 -2 -35q-2 -20 -2 -31v-28v-33q0 -11 2 -33q1 -6 2.5 -18t1.5 -17q-11 19 -28 33q-17 13 -44 23q-26 10 -69 10h-307v-668q21 -1 63 -2.5t62 -1.5q70 -2 108 -2h96q25 0 79 2q33 1 77 10q33 7 68 24q30 15 51 42zM147 1798l263 -121l260 121l4 -8
l-264 -254l-267 254z" />
    <glyph glyph-name="Gcircumflex" unicode="&#x11c;" horiz-adv-x="1525" 
d="M1403 571q-20 -11 -37 -30q-14 -15 -25 -39q-10 -21 -10 -58v-444h-63q-26 0 -56 -6q-45 -9 -75 -14q-66 -11 -106 -15q-60 -6 -146 -6q-167 0 -291 39q-129 40 -214 101q-91 65 -147 143t-91 162q-33 78 -47 162q-13 77 -13 141q0 155 52 295t151 245t237 166
q141 62 316 62q62 0 128 -11q74 -12 117 -24q55 -15 102 -33q49 -19 77 -33q25 -12 51 -18q23 -5 30 -8v-45q0 -11 -2 -41l-4 -45q-4 -24 -6 -52q-16 40 -26 58q-9 17 -31 48q-17 25 -41 42q-56 40 -160 81q-101 40 -244 40q-126 0 -238 -44t-197 -129t-134 -209
q-49 -123 -49 -282q0 -130 40 -265q41 -140 122 -248q84 -113 207 -184q126 -73 294 -73q32 0 82 5q35 3 90 13q32 5 86 21q39 11 76 24v377q0 37 -10 61q-11 27 -22 42q-14 17 -33 28l45 -4q28 -2 43 -3t41 -1t41 1t43 3q7 0 23 1.5t24 2.5zM1098 1536l-262 121l-261 -121
l-4 8l265 254l266 -254z" />
    <glyph glyph-name="gcircumflex" unicode="&#x11d;" horiz-adv-x="1525" 
d="M1403 571q-20 -11 -37 -30q-14 -15 -25 -39q-10 -21 -10 -58v-444h-63q-26 0 -56 -6q-45 -9 -75 -14q-66 -11 -106 -15q-60 -6 -146 -6q-167 0 -291 39q-129 40 -214 101q-91 65 -147 143t-91 162q-33 78 -47 162q-13 77 -13 141q0 155 52 295t151 245t237 166
q141 62 316 62q62 0 128 -11q74 -12 117 -24q55 -15 102 -33q49 -19 77 -33q25 -12 51 -18q23 -5 30 -8v-45q0 -11 -2 -41l-4 -45q-4 -24 -6 -52q-16 40 -26 58q-9 17 -31 48q-17 25 -41 42q-56 40 -160 81q-101 40 -244 40q-126 0 -238 -44t-197 -129t-134 -209
q-49 -123 -49 -282q0 -130 40 -265q41 -140 122 -248q84 -113 207 -184q126 -73 294 -73q32 0 82 5q35 3 90 13q32 5 86 21q39 11 76 24v377q0 37 -10 61q-11 27 -22 42q-14 17 -33 28l45 -4q28 -2 43 -3t41 -1t41 1t43 3q7 0 23 1.5t24 2.5zM1098 1536l-262 121l-261 -121
l-4 8l265 254l266 -254z" />
    <glyph glyph-name="Gbreve" unicode="&#x11e;" horiz-adv-x="1525" 
d="M1403 571q-20 -11 -37 -30q-14 -15 -25 -39q-10 -21 -10 -58v-444h-63q-26 0 -56 -6q-45 -9 -75 -14q-66 -11 -106 -15q-60 -6 -146 -6q-167 0 -291 39q-129 40 -214 101q-91 65 -147 143t-91 162q-33 78 -47 162q-13 77 -13 141q0 155 52 295t151 245t237 166
q141 62 316 62q62 0 128 -11q74 -12 117 -24q55 -15 102 -33q49 -19 77 -33q25 -12 51 -18q23 -5 30 -8v-45q0 -11 -2 -41l-4 -45q-4 -24 -6 -52q-16 40 -26 58q-9 17 -31 48q-17 25 -41 42q-56 40 -160 81q-101 40 -244 40q-126 0 -238 -44t-197 -129t-134 -209
q-49 -123 -49 -282q0 -130 40 -265q41 -140 122 -248q84 -113 207 -184q126 -73 294 -73q32 0 82 5q35 3 90 13q32 5 86 21q39 11 76 24v377q0 37 -10 61q-11 27 -22 42q-14 17 -33 28l45 -4q28 -2 43 -3t41 -1t41 1t43 3q7 0 23 1.5t24 2.5zM1071 1759q0 -34 -18 -73
q-16 -35 -51 -73q-31 -34 -76 -55q-47 -22 -99 -22q-54 0 -95 20q-43 21 -77 53q-33 31 -52 71q-19 39 -19 79h8q7 -18 17 -34q14 -21 41 -41q25 -18 71 -34t104 -16q61 0 107 16q44 15 70 34t42 41q13 18 19 34h8z" />
    <glyph glyph-name="gbreve" unicode="&#x11f;" horiz-adv-x="1525" 
d="M1403 571q-20 -11 -37 -30q-14 -15 -25 -39q-10 -21 -10 -58v-444h-63q-26 0 -56 -6q-45 -9 -75 -14q-66 -11 -106 -15q-60 -6 -146 -6q-167 0 -291 39q-129 40 -214 101q-91 65 -147 143t-91 162q-33 78 -47 162q-13 77 -13 141q0 155 52 295t151 245t237 166
q141 62 316 62q62 0 128 -11q74 -12 117 -24q55 -15 102 -33q49 -19 77 -33q25 -12 51 -18q23 -5 30 -8v-45q0 -11 -2 -41l-4 -45q-4 -24 -6 -52q-16 40 -26 58q-9 17 -31 48q-17 25 -41 42q-56 40 -160 81q-101 40 -244 40q-126 0 -238 -44t-197 -129t-134 -209
q-49 -123 -49 -282q0 -130 40 -265q41 -140 122 -248q84 -113 207 -184q126 -73 294 -73q32 0 82 5q35 3 90 13q32 5 86 21q39 11 76 24v377q0 37 -10 61q-11 27 -22 42q-14 17 -33 28l45 -4q28 -2 43 -3t41 -1t41 1t43 3q7 0 23 1.5t24 2.5zM1069 1759q0 -34 -18 -73
q-16 -35 -51 -73q-31 -34 -76 -55q-47 -22 -99 -22q-54 0 -95 20q-43 21 -77 53q-33 31 -52 71q-19 39 -19 79h8q7 -18 17 -34q14 -21 41 -41q25 -18 71 -34t104 -16q61 0 107 16q44 15 70 34t42 41q13 18 19 34h8z" />
    <glyph glyph-name="Gdotaccent" unicode="&#x120;" horiz-adv-x="1525" 
d="M1403 571q-20 -11 -37 -30q-14 -15 -25 -39q-10 -21 -10 -58v-444h-63q-26 0 -56 -6q-45 -9 -75 -14q-66 -11 -106 -15q-60 -6 -146 -6q-167 0 -291 39q-129 40 -214 101q-91 65 -147 143t-91 162q-33 78 -47 162q-13 77 -13 141q0 155 52 295t151 245t237 166
q141 62 316 62q62 0 128 -11q74 -12 117 -24q55 -15 102 -33q49 -19 77 -33q25 -12 51 -18q23 -5 30 -8v-45q0 -11 -2 -41l-4 -45q-4 -24 -6 -52q-16 40 -26 58q-9 17 -31 48q-17 25 -41 42q-56 40 -160 81q-101 40 -244 40q-126 0 -238 -44t-197 -129t-134 -209
q-49 -123 -49 -282q0 -130 40 -265q41 -140 122 -248q84 -113 207 -184q126 -73 294 -73q32 0 82 5q35 3 90 13q32 5 86 21q39 11 76 24v377q0 37 -10 61q-11 27 -22 42q-14 17 -33 28l45 -4q28 -2 43 -3t41 -1t41 1t43 3q7 0 23 1.5t24 2.5zM909 1638q0 -39 -22 -65
q-23 -27 -60 -27q-42 0 -62 29t-20 57q0 29 20 60q19 30 62 30q36 0 59 -22t23 -62z" />
    <glyph glyph-name="gdotaccent" unicode="&#x121;" horiz-adv-x="1525" 
d="M1403 571q-20 -11 -37 -30q-14 -15 -25 -39q-10 -21 -10 -58v-444h-63q-26 0 -56 -6q-45 -9 -75 -14q-66 -11 -106 -15q-60 -6 -146 -6q-167 0 -291 39q-129 40 -214 101q-91 65 -147 143t-91 162q-33 78 -47 162q-13 77 -13 141q0 155 52 295t151 245t237 166
q141 62 316 62q62 0 128 -11q74 -12 117 -24q55 -15 102 -33q49 -19 77 -33q25 -12 51 -18q23 -5 30 -8v-45q0 -11 -2 -41l-4 -45q-4 -24 -6 -52q-16 40 -26 58q-9 17 -31 48q-17 25 -41 42q-56 40 -160 81q-101 40 -244 40q-126 0 -238 -44t-197 -129t-134 -209
q-49 -123 -49 -282q0 -130 40 -265q41 -140 122 -248q84 -113 207 -184q126 -73 294 -73q32 0 82 5q35 3 90 13q32 5 86 21q39 11 76 24v377q0 37 -10 61q-11 27 -22 42q-14 17 -33 28l45 -4q28 -2 43 -3t41 -1t41 1t43 3q7 0 23 1.5t24 2.5zM905 1638q0 -39 -22 -65
q-23 -27 -60 -27q-42 0 -62 29t-20 57q0 29 20 60q20 30 62 30q36 0 59 -22t23 -62z" />
    <glyph glyph-name="Gcommaaccent" unicode="&#x122;" horiz-adv-x="1525" 
d="M1403 571q-20 -11 -37 -30q-14 -15 -25 -39q-10 -21 -10 -58v-444h-63q-26 0 -56 -6q-45 -9 -75 -14q-66 -11 -106 -15q-60 -6 -146 -6q-167 0 -291 39q-129 40 -214 101q-91 65 -147 143t-91 162q-33 78 -47 162q-13 77 -13 141q0 155 52 295t151 245t237 166
q141 62 316 62q62 0 128 -11q74 -12 117 -24q55 -15 102 -33q49 -19 77 -33q25 -12 51 -18q23 -5 30 -8v-45q0 -11 -2 -41l-4 -45q-4 -24 -6 -52q-16 40 -26 58q-9 17 -31 48q-17 25 -41 42q-56 40 -160 81q-101 40 -244 40q-126 0 -238 -44t-197 -129t-134 -209
q-49 -123 -49 -282q0 -130 40 -265q41 -140 122 -248q84 -113 207 -184q126 -73 294 -73q32 0 82 5q35 3 90 13q32 5 86 21q39 11 76 24v377q0 37 -10 61q-11 27 -22 42q-14 17 -33 28l45 -4q28 -2 43 -3t41 -1t41 1t43 3q7 0 23 1.5t24 2.5zM961 -268q0 -46 -17 -89
q-15 -39 -44 -79q-27 -38 -63 -69q-35 -31 -73 -58l-8 8q76 76 100 126q25 52 25 97q0 14 -13 21q-16 8 -25 13q-14 8 -26 23t-12 48q0 29 20 49t49 20q34 0 60 -25q27 -25 27 -85z" />
    <glyph glyph-name="gcommaaccent" unicode="&#x123;" horiz-adv-x="1525" 
d="M1403 571q-20 -11 -37 -30q-14 -15 -25 -39q-10 -21 -10 -58v-444h-63q-26 0 -56 -6q-45 -9 -75 -14q-66 -11 -106 -15q-60 -6 -146 -6q-167 0 -291 39q-129 40 -214 101q-91 65 -147 143t-91 162q-33 78 -47 162q-13 77 -13 141q0 155 52 295t151 245t237 166
q141 62 316 62q62 0 128 -11q74 -12 117 -24q55 -15 102 -33q49 -19 77 -33q25 -12 51 -18q23 -5 30 -8v-45q0 -11 -2 -41l-4 -45q-4 -24 -6 -52q-16 40 -26 58q-9 17 -31 48q-17 25 -41 42q-56 40 -160 81q-101 40 -244 40q-126 0 -238 -44t-197 -129t-134 -209
q-49 -123 -49 -282q0 -130 40 -265q41 -140 122 -248q84 -113 207 -184q126 -73 294 -73q32 0 82 5q35 3 90 13q32 5 86 21q39 11 76 24v377q0 37 -10 61q-11 27 -22 42q-14 17 -33 28l45 -4q28 -2 43 -3t41 -1t41 1t43 3q7 0 23 1.5t24 2.5zM961 -268q0 -46 -17 -89
q-15 -39 -44 -79q-27 -38 -63 -69q-35 -31 -73 -58l-8 8q76 76 100 126q25 52 25 97q0 14 -13 21q-16 8 -25 13q-14 8 -26 23t-12 48q0 29 20 49t49 20q34 0 60 -25q27 -25 27 -85z" />
    <glyph glyph-name="Hcircumflex" unicode="&#x124;" horiz-adv-x="1437" 
d="M1366 -8l-53 4q-20 1 -50 3q-18 1 -51 1q-26 0 -41 -1t-43 -3q-6 0 -22.5 -1.5t-26.5 -2.5q3 2 14 12t16 15q15 15 23 34q10 23 14 52q5 35 5 83v566h-864v-566q0 -52 3 -83q3 -30 11 -51q7 -17 23 -32q29 -26 34 -30q-4 0 -18.5 1.5t-22.5 2.5q-15 1 -43 3q-16 1 -47 1
t-48 -1q-34 -2 -50 -3l-57 -4q48 28 69 66q23 41 23 137v1048q0 53 -3 85q-3 29 -11 52q-6 17 -21 34q-11 12 -33 28l45 -4q28 -2 43 -3t41 -1q25 0 39 1q21 1 39 3q8 1 22 2.5t21 1.5q-16 -16 -27 -30t-18 -34q-8 -23 -11 -52q-3 -32 -3 -83v-422h864v408q0 40 -2 84
q-1 32 -9 56q-7 22 -20 40q-12 17 -33 33q7 0 21 -1.5t22 -2.5q16 -1 41 -3q15 -1 41 -1q28 0 44 1q24 1 42 3q8 1 22 2.5t21 1.5q-17 -12 -33 -28q-14 -14 -21 -34q-7 -19 -10 -53q-3 -33 -3 -84v-1050q0 -98 25 -139q24 -40 67 -62zM979 1536l-262 121l-260 -121l-4 8
l264 254l266 -254z" />
    <glyph glyph-name="hcircumflex" unicode="&#x125;" horiz-adv-x="1437" 
d="M1366 -8l-53 4q-20 1 -50 3q-18 1 -51 1q-26 0 -41 -1t-43 -3q-6 0 -22.5 -1.5t-26.5 -2.5q3 2 14 12t16 15q15 15 23 34q10 23 14 52q5 35 5 83v566h-864v-566q0 -52 3 -83q3 -30 11 -51q7 -17 23 -32q29 -26 34 -30q-4 0 -18.5 1.5t-22.5 2.5q-15 1 -43 3q-16 1 -47 1
t-48 -1q-34 -2 -50 -3l-57 -4q48 28 69 66q23 41 23 137v1048q0 53 -3 85q-3 29 -11 52q-6 17 -21 34q-11 12 -33 28l45 -4q28 -2 43 -3t41 -1q25 0 39 1q21 1 39 3q8 1 22 2.5t21 1.5q-16 -16 -27 -30t-18 -34q-8 -23 -11 -52q-3 -32 -3 -83v-422h864v408q0 40 -2 84
q-1 32 -9 56q-7 22 -20 40q-12 17 -33 33q7 0 21 -1.5t22 -2.5q16 -1 41 -3q15 -1 41 -1q28 0 44 1q24 1 42 3q8 1 22 2.5t21 1.5q-17 -12 -33 -28q-14 -14 -21 -34q-7 -19 -10 -53q-3 -33 -3 -84v-1050q0 -98 25 -139q24 -40 67 -62zM979 1536l-262 121l-260 -121l-4 8
l264 254l266 -254z" />
    <glyph glyph-name="Hbar" unicode="&#x126;" horiz-adv-x="1437" 
d="M1274 1042v-862q0 -49 3 -79q3 -27 11 -50q9 -20 20 -33q16 -16 27 -26q-5 0 -18 1.5t-21 2.5q-16 2 -39 3q-15 1 -45 1q-26 0 -41 -1t-43 -3q-6 0 -22.5 -1.5t-26.5 -2.5q3 2 14 12t16 15q14 14 23 33q10 21 14 48q5 32 5 76v541h-864v-529q0 -52 3 -83q3 -30 11 -51
q7 -17 23 -32q29 -26 34 -30q-4 0 -18.5 1.5t-22.5 2.5q-15 1 -43 3q-16 1 -47 1t-48 -1q-34 -2 -50 -3l-57 -4q48 28 69 66q23 41 23 137v847h-121v68h121v133q0 53 -3 85q-3 29 -11 52q-6 17 -21 34q-11 12 -33 28l45 -4q28 -2 43 -3t41 -1q25 0 39 1q21 1 39 3
q8 1 22 2.5t21 1.5q-16 -16 -27 -30t-18 -34q-8 -23 -11 -52q-3 -32 -3 -83v-133h864v119q0 40 -2 84q-1 32 -9 56q-7 22 -20 40q-12 17 -33 33q7 0 21 -1.5t22 -2.5q16 -1 41 -3q15 -1 41 -1q28 0 42 1q28 2 40 3q8 1 22.5 2.5t18.5 1.5q-18 -12 -30 -24q-14 -14 -19 -29
q-6 -17 -9 -50q-3 -30 -3 -82v-147h121v-68h-121zM1151 784v258h-864v-258h864z" />
    <glyph glyph-name="hbar" unicode="&#x127;" horiz-adv-x="1437" 
d="M1274 1042v-862q0 -49 3 -79q3 -27 11 -50q9 -20 20 -33q16 -16 27 -26q-5 0 -18 1.5t-21 2.5q-16 2 -39 3q-15 1 -45 1q-26 0 -41 -1t-43 -3q-6 0 -22.5 -1.5t-26.5 -2.5q3 2 14 12t16 15q14 14 23 33q10 21 14 48q5 32 5 76v541h-864v-529q0 -52 3 -83q3 -30 11 -51
q7 -17 23 -32q29 -26 34 -30q-4 0 -18.5 1.5t-22.5 2.5q-15 1 -43 3q-16 1 -47 1t-48 -1q-34 -2 -50 -3l-57 -4q48 28 69 66q23 41 23 137v847h-121v68h121v133q0 53 -3 85q-3 29 -11 52q-6 17 -21 34q-11 12 -33 28l45 -4q28 -2 43 -3t41 -1q25 0 39 1q21 1 39 3
q8 1 22 2.5t21 1.5q-16 -16 -27 -30t-18 -34q-8 -23 -11 -52q-3 -32 -3 -83v-133h864v119q0 40 -2 84q-1 32 -9 56q-7 22 -20 40q-12 17 -33 33q7 0 21 -1.5t22 -2.5q16 -1 41 -3q15 -1 41 -1q28 0 42 1q28 2 40 3q8 1 22.5 2.5t18.5 1.5q-18 -12 -30 -24q-14 -14 -19 -29
q-6 -17 -9 -50q-3 -30 -3 -82v-147h121v-68h-121zM1151 784v258h-864v-258h864z" />
    <glyph glyph-name="Itilde" unicode="&#x128;" 
d="M379 -8l-53 4q-15 1 -51 3q-18 1 -50 1t-50 -1q-30 -2 -50 -3l-53 -4q22 12 38 26q17 14 29 35q14 24 19 49q6 28 6 72v1100q0 75 -17 111q-17 35 -51 57l45 -4q28 -2 43 -3t41 -1t40 1l42 3q7 0 23 1.5t24 2.5q-32 -16 -50 -53q-17 -35 -17 -115v-1100q0 -84 24 -120
q23 -34 68 -62zM475 1692q-24 -94 -50 -125t-73 -31q-26 0 -59 13q-13 5 -38 15t-34 14q-65 26 -73 29q-35 13 -64 13q-28 0 -54 -30q-30 -35 -44 -54l-6 4q29 87 69 124q41 38 84 38q26 0 53 -13q38 -18 60 -29q31 -15 61 -29q29 -13 60 -13q35 0 60 21q25 20 42 55z" />
    <glyph glyph-name="itilde" unicode="&#x129;" 
d="M379 -8l-53 4q-15 1 -51 3q-18 1 -50 1t-50 -1q-30 -2 -50 -3l-53 -4q22 12 38 26q17 14 29 35q14 24 19 49q6 28 6 72v1100q0 75 -17 111q-17 35 -51 57l45 -4q28 -2 43 -3t41 -1t40 1l42 3q7 0 23 1.5t24 2.5q-32 -16 -50 -53q-17 -35 -17 -115v-1100q0 -84 24 -120
q23 -34 68 -62zM475 1692q-24 -94 -50 -125t-73 -31q-26 0 -59 13q-13 5 -38 15t-34 14q-65 26 -73 29q-35 13 -64 13q-28 0 -54 -30q-30 -35 -44 -54l-6 4q29 87 69 124q41 38 84 38q26 0 53 -13q38 -18 60 -29q31 -15 61 -29q29 -13 60 -13q35 0 60 21q25 20 42 55z" />
    <glyph glyph-name="Imacron" unicode="&#x12a;" 
d="M379 -8l-53 4q-15 1 -51 3q-18 1 -50 1t-50 -1q-30 -2 -50 -3l-53 -4q22 12 38 26q17 14 29 35q14 24 19 49q6 28 6 72v1100q0 75 -17 111q-17 35 -51 57l45 -4q28 -2 43 -3t41 -1t40 1l42 3q7 0 23 1.5t24 2.5q-32 -16 -50 -53q-17 -35 -17 -115v-1100q0 -84 24 -120
q23 -34 68 -62zM20 1638h435l-21 -82h-434z" />
    <glyph glyph-name="imacron" unicode="&#x12b;" 
d="M20 1638h435l-21 -82h-434zM379 -8l-53 4q-15 1 -51 3q-18 1 -50 1t-50 -1q-30 -2 -50 -3l-53 -4q22 12 38 26q17 14 29 35q14 24 19 49q6 28 6 72v1100q0 75 -17 111q-17 35 -51 57l45 -4q28 -2 43 -3t41 -1t40 1l42 3q7 0 23 1.5t24 2.5q-32 -16 -50 -53
q-17 -35 -17 -115v-1100q0 -84 24 -120q23 -34 68 -62z" />
    <glyph glyph-name="Ibreve" unicode="&#x12c;" 
d="M379 -8l-53 4q-15 1 -51 3q-18 1 -50 1t-50 -1q-30 -2 -50 -3l-53 -4q22 12 38 26q17 14 29 35q14 24 19 49q6 28 6 72v1100q0 75 -17 111q-17 35 -51 57l45 -4q28 -2 43 -3t41 -1t40 1l42 3q7 0 23 1.5t24 2.5q-32 -16 -50 -53q-17 -35 -17 -115v-1100q0 -84 24 -120
q23 -34 68 -62zM473 1759q0 -34 -18 -73q-16 -35 -51 -73q-31 -34 -76 -55q-47 -22 -99 -22q-54 0 -95 20q-43 21 -77 53q-33 31 -52 71q-19 39 -19 79h8q7 -18 17 -34q14 -21 41 -41q25 -18 71 -34t104 -16q61 0 107 16q44 15 70 34t42 41q13 18 19 34h8z" />
    <glyph glyph-name="ibreve" unicode="&#x12d;" 
d="M379 -8l-53 4q-15 1 -51 3q-18 1 -50 1t-50 -1q-30 -2 -50 -3l-53 -4q22 12 38 26q17 14 29 35q14 24 19 49q6 28 6 72v1100q0 75 -17 111q-17 35 -51 57l45 -4q28 -2 43 -3t41 -1t40 1l42 3q7 0 23 1.5t24 2.5q-32 -16 -50 -53q-17 -35 -17 -115v-1100q0 -84 24 -120
q23 -34 68 -62zM473 1759q0 -34 -18 -73q-16 -35 -51 -73q-31 -34 -76 -55q-47 -22 -99 -22q-54 0 -95 20q-43 21 -77 53q-33 31 -52 71q-19 39 -19 79h8q7 -18 17 -34q14 -21 41 -41q25 -18 71 -34t104 -16q61 0 107 16q44 15 70 34t42 41q13 18 19 34h8z" />
    <glyph glyph-name="Iogonek" unicode="&#x12e;" 
d="M442 -352q-33 -21 -88 -33q-56 -12 -114 -12q-41 0 -76 7q-41 8 -65 23q-28 17 -45 43t-17 66q0 35 16 68q16 34 43 68q27 35 62 65q36 32 73 57h-6q-32 0 -50 -1q-30 -2 -50 -3l-53 -4q22 12 38 26q17 14 29 35q14 24 19 49q6 28 6 72v1100q0 75 -17 111q-17 35 -51 57
l45 -4q28 -2 43 -3t41 -1t40 1l42 3q7 0 23 1.5t24 2.5q-32 -16 -50 -53q-17 -35 -17 -115v-1100q0 -84 24 -120q23 -34 68 -62q-4 0 -18.5 1.5t-22.5 2.5q-24 2 -40 2q-14 0 -44 2q-42 -47 -74 -99q-33 -54 -33 -106q0 -37 17 -68t43 -50q25 -18 61 -29q33 -10 70 -10
q48 0 100 18z" />
    <glyph glyph-name="iogonek" unicode="&#x12f;" 
d="M442 -352q-33 -21 -88 -33q-56 -12 -114 -12q-41 0 -76 7q-41 8 -65 23q-28 17 -45 43t-17 66q0 35 16 68q16 34 43 68q27 35 62 65q36 32 73 57h-6q-32 0 -50 -1q-30 -2 -50 -3l-53 -4q22 12 38 26q17 14 29 35q14 24 19 49q6 28 6 72v1100q0 75 -17 111q-17 35 -51 57
l45 -4q28 -2 43 -3t41 -1t40 1l42 3q7 0 23 1.5t24 2.5q-32 -16 -50 -53q-17 -35 -17 -115v-1100q0 -84 24 -120q23 -34 68 -62q-4 0 -18.5 1.5t-22.5 2.5q-24 2 -40 2q-14 0 -44 2q-42 -47 -74 -99q-33 -54 -33 -106q0 -37 17 -68t43 -50q25 -18 61 -29q33 -10 70 -10
q48 0 100 18z" />
    <glyph glyph-name="Idotaccent" unicode="&#x130;" 
d="M379 -8l-53 4q-15 1 -51 3q-18 1 -50 1t-50 -1q-30 -2 -50 -3l-53 -4q22 12 38 26q17 14 29 35q14 24 19 49q6 28 6 72v1100q0 75 -17 111q-17 35 -51 57l45 -4q28 -2 43 -3t41 -1t40 1l42 3q7 0 23 1.5t24 2.5q-32 -16 -50 -53q-17 -35 -17 -115v-1100q0 -84 24 -120
q23 -34 68 -62zM307 1638q0 -39 -22 -65q-23 -27 -60 -27q-42 0 -62 29t-20 57q0 29 20 60q19 30 62 30q36 0 59 -22t23 -62z" />
    <glyph glyph-name="dotlessi" unicode="&#x131;" 
d="M379 -8l-53 4q-15 1 -51 3q-18 1 -50 1t-50 -1q-30 -2 -50 -3l-53 -4q22 12 38 26q17 14 29 35q14 24 19 49q6 28 6 72v1100q0 75 -17 111q-17 35 -51 57l45 -4q28 -2 43 -3t41 -1t40 1l42 3q7 0 23 1.5t24 2.5q-32 -16 -50 -53q-17 -35 -17 -115v-1100q0 -84 24 -120
q23 -34 68 -62z" />
    <glyph glyph-name="IJ" unicode="&#x132;" horiz-adv-x="901" 
d="M379 -8l-53 4q-15 1 -51 3q-18 1 -50 1t-50 -1q-30 -2 -50 -3l-53 -4q22 12 38 26q17 14 29 35q14 24 19 49q6 28 6 72v1100q0 75 -17 111q-17 35 -51 57l45 -4q28 -2 43 -3t41 -1t40 1l42 3q7 0 23 1.5t24 2.5q-32 -16 -50 -53q-17 -35 -17 -115v-1100q0 -84 24 -120
q23 -34 68 -62zM823 1442q-23 -15 -39 -27q-14 -10 -26 -31q-12 -20 -16 -47q-5 -32 -5 -77v-1291q0 -68 -11 -108q-12 -45 -44 -78q-30 -33 -88 -65q-55 -31 -137 -46q85 52 122 126q35 70 35 171v1291q0 39 -2 77q-1 27 -11 46q-9 18 -27 30q-22 15 -48 29
q10 -1 28.5 -2.5t27.5 -1.5q22 -2 48 -3q17 -1 44 -1q25 0 42 1q34 2 50 3q8 0 27 1.5t30 2.5z" />
    <glyph glyph-name="ij" unicode="&#x133;" horiz-adv-x="901" 
d="M379 -8l-53 4q-15 1 -51 3q-18 1 -50 1t-50 -1q-30 -2 -50 -3l-53 -4q22 12 38 26q17 14 29 35q14 24 19 49q6 28 6 72v1100q0 75 -17 111q-17 35 -51 57l45 -4q28 -2 43 -3t41 -1t40 1l42 3q7 0 23 1.5t24 2.5q-32 -16 -50 -53q-17 -35 -17 -115v-1100q0 -84 24 -120
q23 -34 68 -62zM756 51q0 -63 -21 -120q-20 -55 -58 -99t-94 -69t-126 -25q48 27 88 74q34 40 60 97q28 61 28 142v1209q0 39 -2 77q-1 27 -11 46q-9 18 -27 30q-22 15 -48 29q10 -1 28 -2.5t27 -1.5q22 -2 48 -3q17 -1 44 -1q25 0 42 1q34 2 50 3q8 0 27.5 1.5t30.5 2.5
q-22 -15 -39 -27q-15 -11 -27 -31q-10 -18 -15 -47q-5 -32 -5 -77v-1209z" />
    <glyph glyph-name="Jcircumflex" unicode="&#x134;" 
d="M373 1442q-23 -15 -39 -27q-15 -11 -27 -31q-10 -18 -15 -47q-5 -32 -5 -77v-1291q0 -65 -12 -108q-12 -45 -44 -78q-30 -33 -88 -65q-55 -31 -137 -46q85 52 122 126q36 72 36 171v1291q0 39 -2 77q-1 27 -11 46q-9 18 -27 30q-22 15 -48 29q10 -1 28 -2.5t27 -1.5
q23 -2 48 -3q17 -1 44 -1q25 0 42 1q34 2 50 3q8 0 27.5 1.5t30.5 2.5zM489 1536l-262 121l-260 -121l-4 8l264 254l267 -254z" />
    <glyph glyph-name="jcircumflex" unicode="&#x135;" 
d="M305 51q0 -66 -20 -120q-20 -53 -59 -99q-38 -44 -94 -69t-126 -25q48 27 88 74q36 42 61 97q27 59 27 142v1209q0 39 -2 77q-1 27 -11 46q-9 18 -27 30q-22 15 -48 29q10 -1 28.5 -2.5t27.5 -1.5q22 -2 48 -3q17 -1 44 -1q25 0 42 1q34 2 50 3q8 0 27 1.5t30 2.5
q-23 -15 -39 -27q-14 -10 -26 -31q-12 -20 -16 -47q-5 -32 -5 -77v-1209zM489 1536l-262 121l-260 -121l-4 8l264 254l267 -254z" />
    <glyph glyph-name="Kcommaaccent" unicode="&#x136;" horiz-adv-x="1388" 
d="M1382 -12h-98q-50 0 -95 8q-36 6 -82 27q-37 16 -80 50q-35 27 -85 79l-623 641l478 464q86 86 86 127q0 9 -2 19q0 1 -1.5 7.5t-2.5 10.5q-6 9 -7 21q5 0 18 -1.5t21 -2.5q22 -2 37 -2h39h45q17 0 45 2q7 0 23 1.5t24 2.5q-57 -22 -98 -53q-39 -29 -80 -70l-489 -483
l682 -701q67 -72 127 -97q64 -27 118 -42v-8zM377 -8l-53 4q-20 1 -50 3q-18 1 -49 1q-32 0 -50 -1q-30 -2 -50 -3l-53 -4q37 18 64 58q28 42 28 104v1087q0 57 -4 86q-4 28 -13 54q-7 21 -20 35q-12 13 -31 26q4 0 18.5 -1.5t22.5 -2.5q18 -2 42 -3q16 -1 46 -1t46 1
q24 1 42 3q8 1 22 2.5t21 1.5q-19 -10 -35 -26q-14 -14 -21 -34q-7 -19 -10 -52q-3 -32 -3 -83v-1091q0 -66 27 -107q26 -39 63 -57zM809 -268q0 -48 -16 -89q-15 -39 -44 -79q-25 -35 -64 -69q-35 -31 -73 -58l-8 8q77 77 101 126t24 97q0 15 -12 21l-26 13q-12 7 -25 23
t-13 48q0 28 21 49q20 20 49 20q33 0 59 -25q27 -25 27 -85z" />
    <glyph glyph-name="kcommaaccent" unicode="&#x137;" horiz-adv-x="1388" 
d="M1382 -12h-98q-50 0 -95 8q-36 6 -82 27q-37 16 -80 50q-35 27 -85 79l-623 641l478 464q86 86 86 127q0 9 -2 19q0 1 -1.5 7.5t-2.5 10.5q-6 9 -7 21q5 0 18 -1.5t21 -2.5q22 -2 37 -2h39h45q17 0 45 2q7 0 23 1.5t24 2.5q-57 -22 -98 -53q-39 -29 -80 -70l-489 -483
l682 -701q67 -72 127 -97q64 -27 118 -42v-8zM377 -8l-53 4q-20 1 -50 3q-18 1 -49 1q-32 0 -50 -1q-30 -2 -50 -3l-53 -4q37 18 64 58q28 42 28 104v1087q0 57 -4 86q-4 28 -13 54q-7 21 -20 35q-12 13 -31 26q4 0 18.5 -1.5t22.5 -2.5q18 -2 42 -3q16 -1 46 -1t46 1
q24 1 42 3q8 1 22 2.5t21 1.5q-19 -10 -35 -26q-14 -14 -21 -34q-7 -19 -10 -52q-3 -32 -3 -83v-1091q0 -66 27 -107q26 -39 63 -57zM809 -268q0 -48 -16 -89q-15 -39 -44 -79q-25 -35 -64 -69q-35 -31 -73 -58l-8 8q77 77 101 126t24 97q0 15 -12 21l-26 13q-12 7 -25 23
t-13 48q0 28 21 49q20 20 49 20q33 0 59 -25q27 -25 27 -85z" />
    <glyph glyph-name="kgreenlandic" unicode="&#x138;" horiz-adv-x="1402" 
d="M1382 -12h-98q-50 0 -95 8q-36 6 -82 27q-37 16 -80 50q-35 27 -85 79l-623 641l478 464q86 86 86 127q0 9 -2 19q0 1 -1.5 7.5t-2.5 10.5q-6 9 -7 21q5 0 18 -1.5t21 -2.5q22 -2 37 -2h39h45q17 0 45 2q7 0 23 1.5t24 2.5q-57 -22 -98 -53q-39 -29 -80 -70l-489 -483
l682 -701q67 -72 127 -97q64 -27 118 -42v-8zM377 -8l-53 4q-20 1 -50 3q-18 1 -49 1q-32 0 -50 -1q-30 -2 -50 -3l-53 -4q37 18 64 58q28 42 28 104v1087q0 57 -4 86q-4 28 -13 54q-7 21 -20 35q-12 13 -31 26q4 0 18.5 -1.5t22.5 -2.5q18 -2 42 -3q16 -1 46 -1t46 1
q24 1 42 3q8 1 22 2.5t21 1.5q-19 -10 -35 -26q-14 -14 -21 -34q-7 -19 -10 -52q-3 -32 -3 -83v-1091q0 -66 27 -107q26 -39 63 -57z" />
    <glyph glyph-name="Lacute" unicode="&#x139;" horiz-adv-x="960" 
d="M899 109q-3 -11 -12 -32q-3 -6 -8.5 -18t-8.5 -18q-17 -30 -29 -43q-13 -14 -44 -14q-38 0 -132 2q-43 1 -147 5q-23 1 -48 2t-55 2t-47 2q-75 3 -143 3q-21 0 -38 -1q-34 -2 -52 -3q-9 0 -30 -1.5t-33 -2.5q40 28 66 63t26 99v1106q0 80 -14 119q-15 42 -58 63
q8 -1 24 -2.5t23 -1.5l42 -3q14 -1 40 -1t41 1t43 3q6 0 22.5 1.5t26.5 2.5q-37 -16 -52 -61q-15 -43 -15 -121v-1203q15 -2 43 -4.5t41 -3.5q26 -3 81 -5q29 -1 85 -1q46 0 75 1q58 2 87 5q43 5 84 12q38 7 69 25q19 12 29 22q17 17 28 31zM559 1722q0 -37 -59 -65
l-297 -121l-6 8l196 189q47 47 96 47q28 0 50 -17q20 -16 20 -41z" />
    <glyph glyph-name="lacute" unicode="&#x13a;" horiz-adv-x="960" 
d="M899 109q-3 -11 -12 -32q-3 -6 -8.5 -18t-8.5 -18q-17 -30 -29 -43q-13 -14 -44 -14q-38 0 -132 2q-43 1 -147 5q-23 1 -48 2t-55 2t-47 2q-75 3 -143 3q-21 0 -38 -1q-34 -2 -52 -3q-9 0 -30 -1.5t-33 -2.5q40 28 66 63t26 99v1106q0 80 -14 119q-15 42 -58 63
q8 -1 24 -2.5t23 -1.5l42 -3q14 -1 40 -1t41 1t43 3q6 0 22.5 1.5t26.5 2.5q-37 -16 -52 -61q-15 -43 -15 -121v-1203q15 -2 43 -4.5t41 -3.5q26 -3 81 -5q29 -1 85 -1q46 0 75 1q58 2 87 5q43 5 84 12q38 7 69 25q19 12 29 22q17 17 28 31zM559 1722q0 -37 -59 -65
l-297 -121l-6 8l196 189q47 47 96 47q28 0 50 -17q20 -16 20 -41z" />
    <glyph glyph-name="Lcommaaccent" unicode="&#x13b;" horiz-adv-x="960" 
d="M899 109q-3 -11 -12 -32q-3 -6 -8.5 -18t-8.5 -18q-17 -30 -29 -43q-13 -14 -44 -14q-38 0 -132 2q-43 1 -147 5q-23 1 -48 2t-55 2t-47 2q-75 3 -143 3q-21 0 -38 -1q-34 -2 -52 -3q-9 0 -30 -1.5t-33 -2.5q40 28 66 63t26 99v1106q0 80 -14 119q-15 42 -58 63
q8 -1 24 -2.5t23 -1.5l42 -3q14 -1 40 -1t41 1t43 3q6 0 22.5 1.5t26.5 2.5q-37 -16 -52 -61q-15 -43 -15 -121v-1203q15 -2 43 -4.5t41 -3.5q26 -3 81 -5q29 -1 85 -1q46 0 75 1q58 2 87 5q43 5 84 12q38 7 69 25q19 12 29 22q17 17 28 31zM596 -268q0 -48 -16 -89
q-15 -39 -44 -79q-25 -35 -64 -69q-35 -31 -73 -58l-8 8q77 77 101 126t24 97q0 15 -12 21q-3 1 -8 3.5t-9.5 5t-8.5 4.5q-12 7 -25 23t-13 48q0 28 21 49q20 20 49 20q33 0 59 -25q27 -25 27 -85z" />
    <glyph glyph-name="lcommaaccent" unicode="&#x13c;" horiz-adv-x="960" 
d="M899 109q-3 -11 -12 -32q-3 -6 -8.5 -18t-8.5 -18q-17 -30 -29 -43q-13 -14 -44 -14q-38 0 -132 2q-43 1 -147 5q-23 1 -48 2t-55 2t-47 2q-75 3 -143 3q-21 0 -38 -1q-34 -2 -52 -3q-9 0 -30 -1.5t-33 -2.5q40 28 66 63t26 99v1106q0 80 -14 119q-15 42 -58 63
q8 -1 24 -2.5t23 -1.5l42 -3q14 -1 40 -1t41 1t43 3q6 0 22.5 1.5t26.5 2.5q-37 -16 -52 -61q-15 -43 -15 -121v-1203q15 -2 43 -4.5t41 -3.5q26 -3 81 -5q29 -1 85 -1q46 0 75 1q58 2 87 5q43 5 84 12q38 7 69 25q19 12 29 22q17 17 28 31zM592 -268q0 -46 -17 -89
q-15 -39 -44 -79q-27 -38 -63 -69q-35 -31 -73 -58l-8 8q76 76 100 126q25 52 25 97q0 15 -12 21l-26 13q-12 7 -25 23t-13 48q0 28 21 49q20 20 49 20q33 0 59 -25q27 -25 27 -85z" />
    <glyph glyph-name="Lcaron" unicode="&#x13d;" horiz-adv-x="960" 
d="M899 109q-3 -11 -12 -32q-3 -6 -8.5 -18t-8.5 -18q-17 -30 -29 -43q-13 -14 -44 -14q-38 0 -132 2q-43 1 -147 5q-23 1 -48 2t-55 2t-47 2q-75 3 -143 3q-21 0 -38 -1q-34 -2 -52 -3q-9 0 -30 -1.5t-33 -2.5q40 28 66 63t26 99v1106q0 80 -14 119q-15 42 -58 63
q8 -1 24 -2.5t23 -1.5l42 -3q14 -1 40 -1t41 1t43 3q6 0 22.5 1.5t26.5 2.5q-37 -16 -52 -61q-15 -43 -15 -121v-1203q15 -2 43 -4.5t41 -3.5q26 -3 81 -5q29 -1 85 -1q46 0 75 1q58 2 87 5q43 5 84 12q38 7 69 25q19 12 29 22q17 17 28 31zM551 1374q0 33 21 57
q20 23 55 23q58 0 93 -50q34 -49 34 -116q0 -59 -36 -134q-37 -76 -140 -159l-9 9q58 67 77 119q18 49 18 91q0 45 -18 63q-17 17 -39 28q-24 12 -39 22q-17 11 -17 47z" />
    <glyph glyph-name="lcaron" unicode="&#x13e;" horiz-adv-x="960" 
d="M899 109q-3 -11 -12 -32q-3 -6 -8.5 -18t-8.5 -18q-17 -30 -29 -43q-13 -14 -44 -14q-38 0 -132 2q-43 1 -147 5q-23 1 -48 2t-55 2t-47 2q-75 3 -143 3q-21 0 -38 -1q-34 -2 -52 -3q-9 0 -30 -1.5t-33 -2.5q40 28 66 63t26 99v1106q0 80 -14 119q-15 42 -58 63
q8 -1 24 -2.5t23 -1.5l42 -3q14 -1 40 -1t41 1t43 3q6 0 22.5 1.5t26.5 2.5q-37 -16 -52 -61q-15 -43 -15 -121v-1203q15 -2 43 -4.5t41 -3.5q26 -3 81 -5q29 -1 85 -1q46 0 75 1q58 2 87 5q43 5 84 12q38 7 69 25q19 12 29 22q17 17 28 31zM551 1374q0 33 21 57
q20 23 55 23q58 0 93 -50q34 -49 34 -116q0 -59 -36 -134q-37 -76 -140 -159l-9 9q58 67 77 119q18 49 18 91q0 45 -18 63q-17 17 -39 28q-24 12 -39 22q-17 11 -17 47z" />
    <glyph glyph-name="Ldot" unicode="&#x13f;" horiz-adv-x="960" 
d="M899 109q-3 -11 -12 -32q-3 -6 -8.5 -18t-8.5 -18q-17 -30 -29 -43q-13 -14 -44 -14q-38 0 -132 2q-43 1 -147 5q-23 1 -48 2t-55 2t-47 2q-75 3 -143 3q-21 0 -38 -1q-34 -2 -52 -3q-9 0 -30 -1.5t-33 -2.5q40 28 66 63t26 99v1106q0 80 -14 119q-15 42 -58 63
q8 -1 24 -2.5t23 -1.5l42 -3q14 -1 40 -1t41 1t43 3q6 0 22.5 1.5t26.5 2.5q-37 -16 -52 -61q-15 -43 -15 -121v-1203q15 -2 43 -4.5t41 -3.5q26 -3 81 -5q29 -1 85 -1q46 0 75 1q58 2 87 5q43 5 84 12q38 7 69 25q19 12 29 22q17 17 28 31zM672 723q0 -38 -23 -66
q-22 -26 -59 -26q-44 0 -63 28t-19 58t19 59q20 31 63 31q33 0 58 -23q24 -22 24 -61z" />
    <glyph glyph-name="ldot" unicode="&#x140;" horiz-adv-x="960" 
d="M899 109q-3 -11 -12 -32q-3 -6 -8.5 -18t-8.5 -18q-17 -30 -29 -43q-13 -14 -44 -14q-38 0 -132 2q-43 1 -147 5q-23 1 -48 2t-55 2t-47 2q-75 3 -143 3q-21 0 -38 -1q-34 -2 -52 -3q-9 0 -30 -1.5t-33 -2.5q40 28 66 63t26 99v1106q0 80 -14 119q-15 42 -58 63
q8 -1 24 -2.5t23 -1.5l42 -3q14 -1 40 -1t41 1t43 3q6 0 22.5 1.5t26.5 2.5q-37 -16 -52 -61q-15 -43 -15 -121v-1203q15 -2 43 -4.5t41 -3.5q26 -3 81 -5q29 -1 85 -1q46 0 75 1q58 2 87 5q43 5 84 12q38 7 69 25q19 12 29 22q17 17 28 31zM672 723q0 -38 -23 -66
q-22 -26 -59 -26q-44 0 -63 28t-19 58t19 59q20 31 63 31q33 0 58 -23q24 -22 24 -61z" />
    <glyph glyph-name="Lslash" unicode="&#x141;" horiz-adv-x="960" 
d="M287 705v-648q15 -2 43 -4.5t41 -3.5q26 -3 81 -5q29 -1 85 -1q46 0 75 1q58 2 87 5q43 5 84 12q38 7 69 25q19 12 29 22q17 17 28 31l-10 -30q-3 -11 -12 -32q-3 -6 -8.5 -18t-8.5 -18q-17 -30 -29 -43q-13 -14 -44 -14q-38 0 -132 2q-43 1 -147 5q-23 1 -48 2t-55 2
t-47 2q-75 3 -143 3q-21 0 -38 -1q-34 -2 -52 -3q-9 0 -30 -1.5t-33 -2.5q40 28 66 63t26 99v495l-90 -41v72l90 41v539q0 80 -14 119q-15 42 -58 63q8 -1 24 -2.5t23 -1.5l42 -3q14 -1 40 -1t41 1t43 3q6 0 22.5 1.5t26.5 2.5q-37 -16 -52 -61q-15 -43 -15 -121v-484
l272 123v-72z" />
    <glyph glyph-name="lslash" unicode="&#x142;" horiz-adv-x="960" 
d="M287 705v-648q15 -2 43 -4.5t41 -3.5q26 -3 81 -5q29 -1 85 -1q46 0 75 1q58 2 87 5q43 5 84 12q38 7 69 25q19 12 29 22q17 17 28 31l-10 -30q-3 -11 -12 -32q-3 -6 -8.5 -18t-8.5 -18q-17 -30 -29 -43q-13 -14 -44 -14q-38 0 -132 2q-43 1 -147 5q-23 1 -48 2t-55 2
t-47 2q-75 3 -143 3q-21 0 -38 -1q-34 -2 -52 -3q-9 0 -30 -1.5t-33 -2.5q40 28 66 63t26 99v495l-90 -41v72l90 41v539q0 80 -14 119q-15 42 -58 63q8 -1 24 -2.5t23 -1.5l42 -3q14 -1 40 -1t41 1t43 3q6 0 22.5 1.5t26.5 2.5q-37 -16 -52 -61q-15 -43 -15 -121v-484
l272 123v-72z" />
    <glyph glyph-name="Nacute" unicode="&#x143;" horiz-adv-x="1507" 
d="M1425 1440q-24 -20 -33 -29q-16 -16 -27 -37q-12 -22 -16 -56q-6 -46 -6 -83v-1290l-1099 1302v-1120q0 -34 9 -58t21 -39q13 -16 26 -25q11 -8 24 -13l-45 4q-16 1 -41 3q-15 1 -39 1q-21 0 -35 -1q-7 -1 -20.5 -2t-20.5 -1q-5 0 -22.5 -1.5t-28.5 -2.5q39 21 65 59
q27 39 27 103v1106q0 44 -6 73q-6 28 -22 47t-39 32q-32 18 -56 30q12 -1 33 -2.5t30 -1.5q27 -2 57 -3q20 -1 56 -1h36q14 0 38 2q15 0 43 2q0 -1 -1.5 -5t-2.5 -6q-4 -11 -4 -28q0 -22 6 -46q6 -25 26 -46l908 -1074v1027q0 48 -4 72q-5 28 -15 46q-12 21 -26 32
q-13 11 -39 28q32 -2 47 -2q28 -2 41 -2h37h34q15 0 39 2zM1008 1722q0 -36 -60 -65l-297 -121l-6 8l197 189q47 47 96 47q27 0 49 -17q21 -16 21 -41z" />
    <glyph glyph-name="nacute" unicode="&#x144;" horiz-adv-x="1507" 
d="M1425 1440q-24 -20 -33 -29q-16 -16 -27 -37q-12 -22 -16 -56q-6 -46 -6 -83v-1290l-1099 1302v-1120q0 -34 9 -58t21 -39q13 -16 26 -25q11 -8 24 -13l-45 4q-16 1 -41 3q-15 1 -39 1q-21 0 -35 -1q-7 -1 -20.5 -2t-20.5 -1q-5 0 -22.5 -1.5t-28.5 -2.5q39 21 65 59
q27 39 27 103v1106q0 44 -6 73q-6 28 -22 47t-39 32q-32 18 -56 30q12 -1 33 -2.5t30 -1.5q27 -2 57 -3q20 -1 56 -1h36q14 0 38 2q15 0 43 2q0 -1 -1.5 -5t-2.5 -6q-4 -11 -4 -28q0 -22 6 -46q6 -25 26 -46l908 -1074v1027q0 48 -4 72q-5 28 -15 46q-12 21 -26 32
q-13 11 -39 28q32 -2 47 -2q28 -2 41 -2h37h34q15 0 39 2zM1038 1722q0 -37 -59 -65l-297 -121l-6 8l196 189q47 47 97 47q27 0 49 -17q20 -16 20 -41z" />
    <glyph glyph-name="Ncommaaccent" unicode="&#x145;" horiz-adv-x="1507" 
d="M1425 1440q-24 -20 -33 -29q-16 -16 -27 -37q-12 -22 -16 -56q-6 -46 -6 -83v-1290l-1099 1302v-1120q0 -34 9 -58t21 -39q13 -16 26 -25q11 -8 24 -13l-45 4q-16 1 -41 3q-15 1 -39 1q-21 0 -35 -1q-7 -1 -20.5 -2t-20.5 -1q-5 0 -22.5 -1.5t-28.5 -2.5q39 21 65 59
q27 39 27 103v1106q0 44 -6 73q-6 28 -22 47t-39 32q-32 18 -56 30q12 -1 33 -2.5t30 -1.5q27 -2 57 -3q20 -1 56 -1h36q14 0 38 2q15 0 43 2q0 -1 -1.5 -5t-2.5 -6q-4 -11 -4 -28q0 -22 6 -46q6 -25 26 -46l908 -1074v1027q0 48 -4 72q-5 28 -15 46q-12 21 -26 32
q-13 11 -39 28q32 -2 47 -2q28 -2 41 -2h37h34q15 0 39 2zM856 -268q0 -48 -16 -89q-15 -39 -44 -79q-25 -35 -64 -69q-35 -31 -73 -58l-8 8q77 77 101 126t24 97q0 15 -12 21q-3 1 -8 3.5t-9.5 5t-8.5 4.5q-12 7 -25 23t-13 48q0 28 21 49q20 20 49 20q33 0 59 -25
q27 -25 27 -85z" />
    <glyph glyph-name="ncommaaccent" unicode="&#x146;" horiz-adv-x="1507" 
d="M1425 1440q-24 -20 -33 -29q-16 -16 -27 -37q-12 -22 -16 -56q-6 -46 -6 -83v-1290l-1099 1302v-1120q0 -34 9 -58t21 -39q13 -16 26 -25q11 -8 24 -13l-45 4q-16 1 -41 3q-15 1 -39 1q-21 0 -35 -1q-7 -1 -20.5 -2t-20.5 -1q-5 0 -22.5 -1.5t-28.5 -2.5q39 21 65 59
q27 39 27 103v1106q0 44 -6 73q-6 28 -22 47t-39 32q-32 18 -56 30q12 -1 33 -2.5t30 -1.5q27 -2 57 -3q20 -1 56 -1h36q14 0 38 2q15 0 43 2q0 -1 -1.5 -5t-2.5 -6q-4 -11 -4 -28q0 -22 6 -46q6 -25 26 -46l908 -1074v1027q0 48 -4 72q-5 28 -15 46q-12 21 -26 32
q-13 11 -39 28q32 -2 47 -2q28 -2 41 -2h37h34q15 0 39 2zM887 -268q0 -46 -17 -89q-15 -39 -44 -79q-27 -38 -63 -69q-35 -31 -73 -58l-8 8q76 76 100 126q25 52 25 97q0 15 -12 21q-3 1 -8 3.5t-9.5 5t-8.5 4.5q-14 8 -26 23t-12 48q0 28 21 49q20 20 49 20q33 0 59 -25
q27 -25 27 -85z" />
    <glyph glyph-name="Ncaron" unicode="&#x147;" horiz-adv-x="1507" 
d="M1425 1440q-24 -20 -33 -29q-16 -16 -27 -37q-12 -22 -16 -56q-6 -46 -6 -83v-1290l-1099 1302v-1120q0 -34 9 -58t21 -39q13 -16 26 -25q11 -8 24 -13l-45 4q-16 1 -41 3q-15 1 -39 1q-21 0 -35 -1q-7 -1 -20.5 -2t-20.5 -1q-5 0 -22.5 -1.5t-28.5 -2.5q39 21 65 59
q27 39 27 103v1106q0 44 -6 73q-6 28 -22 47t-39 32q-32 18 -56 30q12 -1 33 -2.5t30 -1.5q27 -2 57 -3q20 -1 56 -1h36q14 0 38 2q15 0 43 2q0 -1 -1.5 -5t-2.5 -6q-4 -11 -4 -28q0 -22 6 -46q6 -25 26 -46l908 -1074v1027q0 48 -4 72q-5 28 -15 46q-12 21 -26 32
q-13 11 -39 28q32 -2 47 -2q28 -2 41 -2h37h34q15 0 39 2zM483 1798l262 -121l261 121l4 -8l-265 -254l-266 254z" />
    <glyph glyph-name="ncaron" unicode="&#x148;" horiz-adv-x="1507" 
d="M1425 1440q-24 -20 -33 -29q-16 -16 -27 -37q-12 -22 -16 -56q-6 -46 -6 -83v-1290l-1099 1302v-1120q0 -34 9 -58t21 -39q13 -16 26 -25q11 -8 24 -13l-45 4q-16 1 -41 3q-15 1 -39 1q-21 0 -35 -1q-7 -1 -20.5 -2t-20.5 -1q-5 0 -22.5 -1.5t-28.5 -2.5q39 21 65 59
q27 39 27 103v1106q0 44 -6 73q-6 28 -22 47t-39 32q-32 18 -56 30q12 -1 33 -2.5t30 -1.5q27 -2 57 -3q20 -1 56 -1h36q14 0 38 2q15 0 43 2q0 -1 -1.5 -5t-2.5 -6q-4 -11 -4 -28q0 -22 6 -46q6 -25 26 -46l908 -1074v1027q0 48 -4 72q-5 28 -15 46q-12 21 -26 32
q-13 11 -39 28q32 -2 47 -2q28 -2 41 -2h37h34q15 0 39 2zM514 1798l262 -121l260 121l4 -8l-264 -254l-266 254z" />
    <glyph glyph-name="napostrophe" unicode="&#x149;" horiz-adv-x="1880" 
d="M1800 1440q-30 -25 -34 -29q-13 -13 -26 -37t-17 -56q-5 -38 -5 -83v-1290l-1100 1302v-1120q0 -31 10 -58q9 -24 21 -39q13 -16 26 -25t23 -13l-45 4q-16 1 -41 3q-15 1 -39 1q-18 0 -32 -1q-7 -1 -20.5 -2t-20.5 -1q-6 0 -22.5 -1.5t-26.5 -2.5q21 11 43 35
q12 13 30 49q15 30 15 78v1106q0 40 -7 73q-6 29 -21 47q-16 19 -39 32q-32 18 -56 30q12 -1 33 -2.5t30 -1.5q27 -2 57 -3q20 -1 56 -1h36q14 0 38 2q15 0 43 2q-3 -10 -4 -13q-5 -18 -5 -26q0 -11 9 -45q8 -29 24 -47l907 -1074v1027q0 48 -4 72q-5 31 -14 46
q-11 19 -27 32q-13 11 -39 28q32 -2 48 -2q28 -2 41 -2h36h35q15 0 39 2zM295 1348q0 -84 -17 -136t-49 -97q-31 -43 -74 -73q-41 -28 -96 -59h-18q85 85 117 146t32 124q0 11 -10 14q-8 2 -22 11q-12 7 -23 25q-10 16 -10 53q0 31 22 54q22 24 56 24q35 0 63 -21
q29 -21 29 -65z" />
    <glyph glyph-name="Eng" unicode="&#x14a;" horiz-adv-x="1507" 
d="M244 1247v-1120q0 -34 9 -58t21 -39q13 -16 26 -25q11 -8 24 -13l-45 4q-16 1 -41 3q-15 1 -39 1q-19 0 -33 -1q-7 -1 -20.5 -2t-20.5 -1q-6 0 -22.5 -1.5t-26.5 -2.5q21 11 43 35q14 16 31 49q14 28 14 78v1106q0 44 -6 73q-6 28 -22 47t-39 32q-32 18 -56 30
q12 -1 33 -2.5t30 -1.5q27 -2 57 -3q20 -1 56 -1h36q14 0 38 2q15 0 43 2q-4 -10 -4 -13q-4 -15 -4 -26q0 -15 8 -45q8 -29 24 -47l908 -1074v1027q0 48 -4 72q-5 28 -15 46q-12 21 -26 32q-13 11 -39 28q32 -2 47 -2q28 -2 41 -2h37h34q15 0 39 2l45 4q-24 -20 -33 -29
q-16 -16 -27 -37q-12 -22 -16 -56q-6 -46 -6 -83v-1327q0 -66 -20 -120q-20 -55 -58 -99q-37 -43 -95 -69t-126 -26q58 27 109 74q40 38 75 98q34 58 34 142v131z" />
    <glyph glyph-name="eng" unicode="&#x14b;" horiz-adv-x="1507" 
d="M244 1247v-1120q0 -34 9 -58t21 -39q13 -16 26 -25q11 -8 24 -13l-45 4q-16 1 -41 3q-15 1 -39 1q-19 0 -33 -1q-7 -1 -20.5 -2t-20.5 -1q-6 0 -22.5 -1.5t-26.5 -2.5q21 11 43 35q14 16 31 49q14 28 14 78v1106q0 44 -6 73q-6 28 -22 47t-39 32q-32 18 -56 30
q12 -1 33 -2.5t30 -1.5q27 -2 57 -3q20 -1 56 -1h36q14 0 38 2q15 0 43 2q-4 -10 -4 -13q-4 -15 -4 -26q0 -15 8 -45q8 -29 24 -47l908 -1074v1027q0 48 -4 72q-5 28 -15 46q-12 21 -26 32q-13 11 -39 28q32 -2 47 -2q28 -2 41 -2h37h34q15 0 39 2l45 4q-24 -20 -33 -29
q-16 -16 -27 -37q-12 -22 -16 -56q-6 -46 -6 -83v-1327q0 -66 -20 -120q-20 -55 -58 -99q-37 -43 -95 -69t-126 -26q58 27 109 74q40 38 75 98q34 58 34 142v131z" />
    <glyph glyph-name="Omacron" unicode="&#x14c;" horiz-adv-x="1630" 
d="M1548 672q0 -162 -65 -291q-67 -133 -167 -224q-103 -94 -226 -146t-244 -52q-164 0 -303 54q-140 54 -242 156q-103 103 -161 244t-58 320q0 169 60 305q60 137 161 235q99 96 231 149t267 53q195 0 336 -72q140 -72 232 -186q91 -113 135 -259t44 -286zM1425 649
q0 161 -49 302q-50 143 -133 250t-197 170t-245 63q-138 0 -249 -53q-109 -52 -185 -143q-77 -92 -117 -216q-41 -126 -41 -270q0 -154 51 -290t140 -239q90 -104 210 -163q122 -60 258 -60q96 0 194 40q99 40 180 120t132 201t51 288zM608 1638h434l-20 -82h-434z" />
    <glyph glyph-name="omacron" unicode="&#x14d;" horiz-adv-x="1630" 
d="M1548 672q0 -162 -65 -291q-67 -133 -167 -224q-103 -94 -226 -146t-244 -52q-164 0 -303 54q-140 54 -242 156q-103 103 -161 244t-58 320q0 169 60 305q60 137 161 235q99 96 231 149t267 53q195 0 336 -72q140 -72 232 -186q91 -113 135 -259t44 -286zM1425 649
q0 161 -49 302q-50 143 -133 250t-197 170t-245 63q-138 0 -249 -53q-109 -52 -185 -143q-77 -92 -117 -216q-41 -126 -41 -270q0 -154 51 -290t140 -239q90 -104 210 -163q122 -60 258 -60q96 0 194 40q99 40 180 120t132 201t51 288zM608 1638h434l-20 -82h-434z" />
    <glyph glyph-name="Obreve" unicode="&#x14e;" horiz-adv-x="1630" 
d="M1548 672q0 -162 -65 -291q-67 -133 -167 -224q-103 -94 -226 -146t-244 -52q-164 0 -303 54q-140 54 -242 156q-103 103 -161 244t-58 320q0 169 60 305q60 137 161 235q99 96 231 149t267 53q195 0 336 -72q140 -72 232 -186q91 -113 135 -259t44 -286zM1425 649
q0 161 -49 302q-50 143 -133 250t-197 170t-245 63q-138 0 -249 -53q-109 -52 -185 -143q-77 -92 -117 -216q-41 -126 -41 -270q0 -154 51 -290t140 -239q90 -104 210 -163q122 -60 258 -60q96 0 194 40q99 40 180 120t132 201t51 288zM1059 1759q0 -32 -19 -73
q-17 -37 -50 -73q-30 -33 -77 -55t-98 -22q-54 0 -95 20q-43 21 -77 53q-33 31 -52 71q-20 42 -20 79h9q7 -18 17 -34q14 -21 41 -41q25 -18 71 -34t104 -16q61 0 107 16q44 15 70 34t42 41q13 18 19 34h8z" />
    <glyph glyph-name="obreve" unicode="&#x14f;" horiz-adv-x="1630" 
d="M1548 672q0 -162 -65 -291q-67 -133 -167 -224q-103 -94 -226 -146t-244 -52q-164 0 -303 54q-140 54 -242 156q-103 103 -161 244t-58 320q0 169 60 305q60 137 161 235q99 96 231 149t267 53q195 0 336 -72q140 -72 232 -186q91 -113 135 -259t44 -286zM1425 649
q0 161 -49 302q-50 143 -133 250t-197 170t-245 63q-138 0 -249 -53q-109 -52 -185 -143q-77 -92 -117 -216q-41 -126 -41 -270q0 -154 51 -290t140 -239q90 -104 210 -163q122 -60 258 -60q96 0 194 40q99 40 180 120t132 201t51 288zM1059 1759q0 -32 -19 -73
q-17 -37 -50 -73q-30 -33 -77 -55t-98 -22q-54 0 -95 20q-43 21 -77 53q-33 31 -52 71q-20 42 -20 79h9q7 -18 17 -34q14 -21 41 -41q25 -18 71 -34t104 -16q61 0 107 16q44 15 70 34t42 41q13 18 19 34h8z" />
    <glyph glyph-name="Ohungarumlaut" unicode="&#x150;" horiz-adv-x="1630" 
d="M1548 672q0 -162 -65 -291q-67 -133 -167 -224q-103 -94 -226 -146t-244 -52q-164 0 -303 54q-140 54 -242 156q-103 103 -161 244t-58 320q0 169 60 305q60 137 161 235q99 96 231 149t267 53q195 0 336 -72q140 -72 232 -186q91 -113 135 -259t44 -286zM1425 649
q0 161 -49 302q-50 143 -133 250t-197 170t-245 63q-138 0 -249 -53q-109 -52 -185 -143q-77 -92 -117 -216q-41 -126 -41 -270q0 -154 51 -290t140 -239q90 -104 210 -163q122 -60 258 -60q96 0 194 40q99 40 180 120t132 201t51 288zM829 1786q21 0 40 -17q18 -16 18 -38
q0 -32 -31 -54l-194 -141l-7 6l111 203q11 17 26 29t37 12zM1145 1724q0 -40 -41 -61l-215 -127l-4 6l143 201q25 31 59 31q20 0 39 -16t19 -34z" />
    <glyph glyph-name="ohungarumlaut" unicode="&#x151;" horiz-adv-x="1630" 
d="M1548 672q0 -162 -65 -291q-67 -133 -167 -224q-103 -94 -226 -146t-244 -52q-164 0 -303 54q-140 54 -242 156q-103 103 -161 244t-58 320q0 169 60 305q60 137 161 235q99 96 231 149t267 53q195 0 336 -72q140 -72 232 -186q91 -113 135 -259t44 -286zM1425 649
q0 161 -49 302q-50 143 -133 250t-197 170t-245 63q-138 0 -249 -53q-109 -52 -185 -143q-77 -92 -117 -216q-41 -126 -41 -270q0 -154 51 -290t140 -239q90 -104 210 -163q122 -60 258 -60q96 0 194 40q99 40 180 120t132 201t51 288zM829 1786q21 0 40 -17q18 -16 18 -38
q0 -32 -31 -54l-194 -141l-7 6l111 203q11 17 26 29t37 12zM1145 1724q0 -40 -41 -61l-215 -127l-4 6l143 201q25 31 59 31q20 0 39 -16t19 -34z" />
    <glyph glyph-name="OE" unicode="&#x152;" horiz-adv-x="1851" 
d="M1073 1229q0 65 -27 105q-26 39 -69 63q-38 21 -89 29t-87 8q-138 0 -249 -53q-109 -52 -185 -143q-77 -92 -117 -216q-41 -126 -41 -270q0 -154 51 -290t140 -239q90 -104 210 -163q122 -60 258 -60q116 0 160 37q45 37 45 131v1061zM1135 0q-66 0 -133 -20
q-70 -21 -156 -21q-164 0 -303 54q-140 54 -242 156q-103 103 -161 244t-58 320q0 169 60 305q60 137 161 235q99 96 231 149t267 53q49 0 100 -7q32 -4 80 -14q55 -11 73 -14q36 -6 81 -6q5 0 85 2q18 0 61 1.5t67 2.5q25 1 67 2.5t58 1.5q14 0 32 0.5t28 1t15 0.5
q23 0 38 -12t26 -32q10 -19 15 -41q6 -28 7 -40q-19 24 -30 33q-15 12 -37 18q-20 5 -58 7q-23 1 -88 1h-225v-606h305q43 0 69 10q29 11 44 25q18 16 28 37q-2 -24 -2 -35q-2 -20 -2 -31v-28v-33q0 -11 2 -33l3 -18t2 -17q-10 17 -29 33q-17 13 -44 23q-26 10 -69 10h-307
v-668q21 -1 63 -2.5t62 -1.5q70 -2 109 -2h96q25 0 79 2q32 1 76 10q33 7 68 24q30 15 51 42q-6 -28 -10 -44q-6 -24 -16 -44t-27 -34q-16 -13 -39 -13q-43 0 -161 2q-63 1 -173 5q-122 4 -150 5q-88 2 -89 2z" />
    <glyph glyph-name="oe" unicode="&#x153;" horiz-adv-x="1851" 
d="M1073 1229q0 65 -27 105q-26 39 -69 63q-38 21 -89 29t-87 8q-138 0 -249 -53q-109 -52 -185 -143q-77 -92 -117 -216q-41 -126 -41 -270q0 -154 51 -290t140 -239q90 -104 210 -163q122 -60 258 -60q116 0 160 37q45 37 45 131v1061zM1135 0q-66 0 -133 -20
q-70 -21 -156 -21q-164 0 -303 54q-140 54 -242 156q-103 103 -161 244t-58 320q0 169 60 305q60 137 161 235q99 96 231 149t267 53q49 0 100 -7q32 -4 80 -14q55 -11 73 -14q36 -6 81 -6q5 0 85 2q18 0 61 1.5t67 2.5q25 1 67 2.5t58 1.5q14 0 32 0.5t28 1t15 0.5
q23 0 38 -12t26 -32q10 -19 15 -41q6 -28 7 -40q-19 24 -30 33q-15 12 -37 18q-20 5 -58 7q-23 1 -88 1h-225v-606h305q43 0 69 10q29 11 44 25q18 16 28 37q-2 -24 -2 -35q-2 -20 -2 -31v-28v-33q0 -11 2 -33l3 -18t2 -17q-10 17 -29 33q-17 13 -44 23q-26 10 -69 10h-307
v-668q21 -1 63 -2.5t62 -1.5q70 -2 109 -2h96q25 0 79 2q32 1 76 10q33 7 68 24q30 15 51 42q-6 -28 -10 -44q-6 -24 -16 -44t-27 -34q-16 -13 -39 -13q-43 0 -161 2q-63 1 -173 5q-122 4 -150 5q-88 2 -89 2z" />
    <glyph glyph-name="Racute" unicode="&#x154;" horiz-adv-x="1325" 
d="M1305 -10q0 -2 -15 -3q-10 -1 -24 -1q-90 0 -186 44q-94 44 -171 126q-50 55 -110 139q-63 89 -123 174q-91 135 -141 211h-248v-526q0 -65 26 -104t58 -58q-39 4 -69 6q-40 2 -77 2q-30 0 -84 -2q-41 -2 -69 -6q40 22 66 60t26 102v1142q0 54 -18 92t-52 54q49 -4 56 -5
q39 -3 75 -3q30 0 108 5t142 5q84 0 157 -29q72 -28 127 -76q56 -48 85 -109q30 -63 30 -130q0 -108 -35 -177q-36 -70 -77 -116q-52 -54 -113 -82q10 -8 43 -60q44 -69 87 -134q50 -76 118 -170q62 -86 135 -170q63 -73 140 -135q68 -55 133 -66zM758 1053q0 74 -23 140
t-64 113q-40 46 -104 74q-61 27 -137 27q-27 0 -60 -5q-12 -2 -83 -18v-663h180q60 0 110 17q52 18 92 58t64 103q25 66 25 154zM782 1722q0 -37 -59 -65l-297 -121l-6 8l196 189q47 47 97 47q27 0 49 -17q20 -16 20 -41z" />
    <glyph glyph-name="racute" unicode="&#x155;" horiz-adv-x="1325" 
d="M1305 -10q0 -2 -15 -3q-10 -1 -24 -1q-90 0 -186 44q-94 44 -171 126q-50 55 -110 139q-63 89 -123 174q-91 135 -141 211h-248v-526q0 -65 26 -104t58 -58q-39 4 -69 6q-40 2 -77 2q-30 0 -84 -2q-41 -2 -69 -6q40 22 66 60t26 102v1142q0 54 -18 92t-52 54q49 -4 56 -5
q39 -3 75 -3q30 0 108 5t142 5q84 0 157 -29q72 -28 127 -76q56 -48 85 -109q30 -63 30 -130q0 -108 -35 -177q-36 -70 -77 -116q-52 -54 -113 -82q10 -8 43 -60q44 -69 87 -134q50 -76 118 -170q62 -86 135 -170q63 -73 140 -135q68 -55 133 -66zM758 1053q0 74 -23 140
t-64 113q-40 46 -104 74q-61 27 -137 27q-27 0 -60 -5q-12 -2 -83 -18v-663h180q60 0 110 17q52 18 92 58t64 103q25 66 25 154zM782 1722q0 -37 -59 -65l-297 -121l-6 8l196 189q47 47 97 47q27 0 49 -17q20 -16 20 -41z" />
    <glyph glyph-name="Rcommaaccent" unicode="&#x156;" horiz-adv-x="1325" 
d="M1305 -10q0 -2 -15 -3q-10 -1 -24 -1q-90 0 -186 44q-94 44 -171 126q-50 55 -110 139q-63 89 -123 174q-91 135 -141 211h-248v-526q0 -65 26 -104t58 -58q-39 4 -69 6q-40 2 -77 2q-30 0 -84 -2q-41 -2 -69 -6q40 22 66 60t26 102v1142q0 54 -18 92t-52 54q49 -4 56 -5
q39 -3 75 -3q30 0 108 5t142 5q84 0 157 -29q72 -28 127 -76q56 -48 85 -109q30 -63 30 -130q0 -108 -35 -177q-36 -70 -77 -116q-52 -54 -113 -82q10 -8 43 -60q44 -69 87 -134q50 -76 118 -170q62 -86 135 -170q63 -73 140 -135q68 -55 133 -66zM758 1053q0 74 -23 140
t-64 113q-40 46 -104 74q-61 27 -137 27q-27 0 -60 -5q-12 -2 -83 -18v-663h180q60 0 110 17q52 18 92 58t64 103q25 66 25 154zM707 -268q0 -46 -17 -89q-15 -39 -44 -79q-27 -38 -63 -69q-35 -31 -73 -58l-8 8q76 76 100 126q25 52 25 97q0 14 -13 21q-16 8 -25 13
q-14 8 -26 23t-12 48q0 29 20 49t50 20q33 0 59 -25q27 -25 27 -85z" />
    <glyph glyph-name="rcommaaccent" unicode="&#x157;" horiz-adv-x="1325" 
d="M707 -268q0 -46 -17 -89q-15 -39 -44 -79q-27 -38 -63 -69q-35 -31 -73 -58l-8 8q76 76 100 126q25 52 25 97q0 14 -13 21q-16 8 -25 13q-14 8 -26 23t-12 48q0 29 20 49t50 20q33 0 59 -25q27 -25 27 -85zM1305 -10q0 -2 -15 -3q-10 -1 -24 -1q-90 0 -186 44
q-94 44 -171 126q-50 55 -110 139q-63 89 -123 174q-91 135 -141 211h-248v-526q0 -65 26 -104t58 -58q-39 4 -69 6q-40 2 -77 2q-30 0 -84 -2q-41 -2 -69 -6q40 22 66 60t26 102v1142q0 54 -18 92t-52 54q49 -4 56 -5q39 -3 75 -3q30 0 108 5t142 5q84 0 157 -29
q72 -28 127 -76q56 -48 85 -109q30 -63 30 -130q0 -108 -35 -177q-36 -70 -77 -116q-52 -54 -113 -82q10 -8 43 -60q44 -69 87 -134q50 -76 118 -170q62 -86 135 -170q63 -73 140 -135q68 -55 133 -66zM758 1053q0 74 -23 140t-64 113q-40 46 -104 74q-61 27 -137 27
q-27 0 -60 -5q-12 -2 -83 -18v-663h180q60 0 110 17q52 18 92 58t64 103q25 66 25 154z" />
    <glyph glyph-name="Rcaron" unicode="&#x158;" horiz-adv-x="1325" 
d="M1305 -10q0 -2 -15 -3q-10 -1 -24 -1q-90 0 -186 44q-94 44 -171 126q-50 55 -110 139q-63 89 -123 174q-91 135 -141 211h-248v-526q0 -65 26 -104t58 -58q-39 4 -69 6q-40 2 -77 2q-30 0 -84 -2q-41 -2 -69 -6q40 22 66 60t26 102v1142q0 54 -18 92t-52 54q49 -4 56 -5
q39 -3 75 -3q30 0 108 5t142 5q84 0 157 -29q72 -28 127 -76q56 -48 85 -109q30 -63 30 -130q0 -108 -35 -177q-36 -70 -77 -116q-52 -54 -113 -82q10 -8 43 -60q44 -69 87 -134q50 -76 118 -170q62 -86 135 -170q63 -73 140 -135q68 -55 133 -66zM758 1053q0 74 -23 140
t-64 113q-40 46 -104 74q-61 27 -137 27q-27 0 -60 -5q-12 -2 -83 -18v-663h180q60 0 110 17q52 18 92 58t64 103q25 66 25 154zM197 1798l262 -121l260 121l4 -8l-264 -254l-266 254z" />
    <glyph glyph-name="rcaron" unicode="&#x159;" horiz-adv-x="1325" 
d="M1305 -10q0 -2 -15 -3q-10 -1 -24 -1q-90 0 -186 44q-94 44 -171 126q-50 55 -110 139q-63 89 -123 174q-91 135 -141 211h-248v-526q0 -65 26 -104t58 -58q-39 4 -69 6q-40 2 -77 2q-30 0 -84 -2q-41 -2 -69 -6q40 22 66 60t26 102v1142q0 54 -18 92t-52 54q49 -4 56 -5
q39 -3 75 -3q30 0 108 5t142 5q84 0 157 -29q72 -28 127 -76q56 -48 85 -109q30 -63 30 -130q0 -108 -35 -177q-36 -70 -77 -116q-52 -54 -113 -82q10 -8 43 -60q44 -69 87 -134q50 -76 118 -170q62 -86 135 -170q63 -73 140 -135q68 -55 133 -66zM758 1053q0 74 -23 140
t-64 113q-40 46 -104 74q-61 27 -137 27q-27 0 -60 -5q-12 -2 -83 -18v-663h180q60 0 110 17q52 18 92 58t64 103q25 66 25 154zM197 1798l262 -121l260 121l4 -8l-264 -254l-266 254z" />
    <glyph glyph-name="Sacute" unicode="&#x15a;" horiz-adv-x="851" 
d="M791 375q0 -73 -29 -145q-28 -70 -80 -126q-49 -54 -121 -88q-67 -32 -149 -32q-48 0 -91 7q-54 9 -88 15q-42 8 -71 15q-32 8 -45 8q-9 0 -17 -6q-10 10 -14 21q-4 10 -10 46q-5 23 -6 52q-1 11 -2.5 30t-1.5 27l-5 61q6 -28 21 -57q12 -25 32 -52q22 -31 50 -53
q50 -39 121 -58q65 -17 131 -17q44 0 93 18q51 19 92 52q44 36 71 83q28 49 28 111q0 101 -45 173q-46 73 -112 132q-61 54 -148 110q-77 49 -147 107q-69 57 -113 124q-45 69 -45 161q0 71 24 137t67 115q40 46 108 78q63 30 141 30q75 0 132 -15q54 -14 126 -44
q14 -6 20 -9q5 -3 25 -8q-1 -6 -2.5 -15.5t-1.5 -14.5q-2 -16 -2 -28v-28q0 -19 -1 -30t-1 -33v-37q-6 17 -14 37q-1 3 -14 34q-7 18 -13 29q-40 66 -117 99q-74 32 -147 32q-58 0 -101 -20q-44 -21 -77 -55q-32 -34 -51 -79q-17 -41 -17 -93q0 -79 46 -143q46 -65 114 -123
q67 -58 148 -115q83 -58 149 -120q66 -61 113 -136q47 -74 47 -164zM688 1722q0 -37 -59 -65l-297 -121l-6 8l196 189q47 47 96 47q28 0 50 -17q20 -16 20 -41z" />
    <glyph glyph-name="sacute" unicode="&#x15b;" horiz-adv-x="851" 
d="M791 375q0 -73 -29 -145q-28 -70 -80 -126q-49 -54 -121 -88q-67 -32 -149 -32q-48 0 -91 7q-54 9 -88 15q-42 8 -71 15q-32 8 -45 8q-9 0 -17 -6q-10 10 -14 21q-4 10 -10 46q-5 23 -6 52q-1 11 -2.5 30t-1.5 27l-5 61q6 -28 21 -57q12 -25 32 -52q22 -31 50 -53
q50 -39 121 -58q65 -17 131 -17q44 0 93 18q51 19 92 52q44 36 71 83q28 49 28 111q0 101 -45 173q-46 73 -112 132q-61 54 -148 110q-77 49 -147 107q-69 57 -113 124q-45 69 -45 161q0 71 24 137t67 115q40 46 108 78q63 30 141 30q75 0 132 -15q54 -14 126 -44
q14 -6 20 -9q5 -3 25 -8q-1 -6 -2.5 -15.5t-1.5 -14.5q-2 -16 -2 -28v-28q0 -19 -1 -30t-1 -33v-37q-6 17 -14 37q-1 3 -14 34q-7 18 -13 29q-40 66 -117 99q-74 32 -147 32q-58 0 -101 -20q-44 -21 -77 -55q-32 -34 -51 -79q-17 -41 -17 -93q0 -79 46 -143q46 -65 114 -123
q67 -58 148 -115q83 -58 149 -120q66 -61 113 -136q47 -74 47 -164zM688 1722q0 -37 -59 -65l-297 -121l-6 8l196 189q47 47 96 47q28 0 50 -17q20 -16 20 -41z" />
    <glyph glyph-name="Scircumflex" unicode="&#x15c;" horiz-adv-x="851" 
d="M791 375q0 -73 -29 -145q-28 -70 -80 -126q-49 -54 -121 -88q-67 -32 -149 -32q-48 0 -91 7q-54 9 -88 15q-42 8 -71 15q-32 8 -45 8q-9 0 -17 -6q-10 10 -14 21q-4 10 -10 46q-5 23 -6 52q-1 11 -2.5 30t-1.5 27l-5 61q6 -28 21 -57q12 -25 32 -52q22 -31 50 -53
q50 -39 121 -58q65 -17 131 -17q44 0 93 18q51 19 92 52q44 36 71 83q28 49 28 111q0 101 -45 173q-46 73 -112 132q-61 54 -148 110q-77 49 -147 107q-69 57 -113 124q-45 69 -45 161q0 71 24 137t67 115q40 46 108 78q63 30 141 30q75 0 132 -15q54 -14 126 -44
q14 -6 20 -9q5 -3 25 -8q-1 -6 -2.5 -15.5t-1.5 -14.5q-2 -16 -2 -28v-28q0 -19 -1 -30t-1 -33v-37q-6 17 -14 37q-1 3 -14 34q-7 18 -13 29q-40 66 -117 99q-74 32 -147 32q-58 0 -101 -20q-44 -21 -77 -55q-32 -34 -51 -79q-17 -41 -17 -93q0 -79 46 -143q46 -65 114 -123
q67 -58 148 -115q83 -58 149 -120q66 -61 113 -136q47 -74 47 -164zM686 1536l-262 121l-260 -121l-4 8l264 254l266 -254z" />
    <glyph glyph-name="scircumflex" unicode="&#x15d;" horiz-adv-x="851" 
d="M791 375q0 -73 -29 -145q-28 -70 -80 -126q-49 -54 -121 -88q-67 -32 -149 -32q-48 0 -91 7q-54 9 -88 15q-42 8 -71 15q-32 8 -45 8q-9 0 -17 -6q-10 10 -14 21q-4 10 -10 46q-5 23 -6 52q-1 11 -2.5 30t-1.5 27l-5 61q6 -28 21 -57q12 -25 32 -52q22 -31 50 -53
q50 -39 121 -58q65 -17 131 -17q44 0 93 18q51 19 92 52q44 36 71 83q28 49 28 111q0 101 -45 173q-46 73 -112 132q-61 54 -148 110q-77 49 -147 107q-69 57 -113 124q-45 69 -45 161q0 71 24 137t67 115q40 46 108 78q63 30 141 30q75 0 132 -15q54 -14 126 -44
q14 -6 20 -9q5 -3 25 -8q-1 -6 -2.5 -15.5t-1.5 -14.5q-2 -16 -2 -28v-28q0 -19 -1 -30t-1 -33v-37q-6 17 -14 37q-1 3 -14 34q-7 18 -13 29q-40 66 -117 99q-74 32 -147 32q-58 0 -101 -20q-44 -21 -77 -55q-32 -34 -51 -79q-17 -41 -17 -93q0 -79 46 -143q46 -65 114 -123
q67 -58 148 -115q83 -58 149 -120q66 -61 113 -136q47 -74 47 -164zM686 1536l-262 121l-260 -121l-4 8l264 254l266 -254z" />
    <glyph glyph-name="uni015E" unicode="&#x15e;" horiz-adv-x="851" 
d="M520 -266q0 -44 -28 -78q-29 -35 -72 -59q-47 -26 -90 -37q-50 -13 -84 -13h-21q-9 0 -39 2q-6 0 -22.5 1.5t-26.5 2.5q-33 2 -49 5q32 0 94 5q59 5 106 19q53 16 85 41q35 27 35 72q0 44 -28 86q-26 40 -116 67q-13 5 -17 5q-5 0 -5 4q0 1 24 22l121 105q-43 1 -85 9
q-37 7 -79 15l-64 15q-27 6 -42 6q-9 0 -17 -6q-10 10 -14 21q-4 10 -10 46q-3 16 -7 50q-2 16 -4 54q-1 24 -3 43q-1 12 -1 21q0 -1 7 -20q8 -22 17 -40q13 -26 31 -51q19 -26 48 -49q50 -39 121 -58q65 -17 131 -17q44 0 93 18q51 19 92 52q44 36 71 83q28 49 28 111
q0 101 -45 173q-46 73 -112 132q-61 54 -148 110q-77 49 -147 107q-69 57 -113 124q-45 69 -45 161q0 71 24 137t67 115q40 46 108 78q63 30 141 30q75 0 132 -15q54 -14 126 -44q14 -6 20 -9q5 -3 25 -8q-1 -6 -2.5 -15.5t-1.5 -14.5q-2 -16 -2 -28v-28q0 -19 -1 -30
t-1 -33v-37q-6 17 -14 37q-1 3 -14 34q-7 18 -13 29q-40 66 -117 99q-74 32 -147 32q-58 0 -101 -20q-44 -21 -77 -55q-32 -34 -51 -79q-17 -41 -17 -93q0 -79 46 -143q46 -65 114 -123q67 -58 148 -115q83 -58 149 -120q66 -61 113 -136q47 -74 47 -164q0 -74 -29 -144
q-28 -67 -79 -123q-50 -54 -119 -89q-67 -33 -148 -35q-21 -19 -49 -56q-27 -35 -39 -49q99 0 145 -43q47 -44 47 -102z" />
    <glyph glyph-name="uni015F" unicode="&#x15f;" horiz-adv-x="851" 
d="M520 -266q0 -44 -28 -78q-29 -35 -72 -59q-47 -26 -90 -37q-50 -13 -84 -13h-21q-9 0 -39 2q-6 0 -22.5 1.5t-26.5 2.5q-33 2 -49 5q32 0 94 5q59 5 106 19q53 16 85 41q35 27 35 72q0 44 -28 86q-26 40 -116 67q-13 5 -17 5q-5 0 -5 4q0 1 24 22l121 105q-43 1 -85 9
q-37 7 -79 15l-64 15q-27 6 -42 6q-9 0 -17 -6q-10 10 -14 21q-4 10 -10 46q-3 16 -7 50q-2 16 -4 54q-1 24 -3 43q-1 12 -1 21q0 -1 7 -20q8 -22 17 -40q13 -26 31 -51q19 -26 48 -49q50 -39 121 -58q65 -17 131 -17q44 0 93 18q51 19 92 52q44 36 71 83q28 49 28 111
q0 101 -45 173q-46 73 -112 132q-61 54 -148 110q-77 49 -147 107q-69 57 -113 124q-45 69 -45 161q0 71 24 137t67 115q40 46 108 78q63 30 141 30q75 0 132 -15q54 -14 126 -44q14 -6 20 -9q5 -3 25 -8q-1 -6 -2.5 -15.5t-1.5 -14.5q-2 -16 -2 -28v-28q0 -19 -1 -30
t-1 -33v-37q-6 17 -14 37q-1 3 -14 34q-7 18 -13 29q-40 66 -117 99q-74 32 -147 32q-58 0 -101 -20q-44 -21 -77 -55q-32 -34 -51 -79q-17 -41 -17 -93q0 -79 46 -143q46 -65 114 -123q67 -58 148 -115q83 -58 149 -120q66 -61 113 -136q47 -74 47 -164q0 -74 -29 -144
q-28 -67 -79 -123q-50 -54 -119 -89q-67 -33 -148 -35q-21 -19 -49 -56q-27 -35 -39 -49q99 0 145 -43q47 -44 47 -102z" />
    </font>
</defs>
</svg>
