<svg width="20" height="23" viewBox="0 0 20 23" fill="none" xmlns="http://www.w3.org/2000/svg">
<path d="M1.0071 21.2039L2.77999 8.96729C2.83157 8.62176 3.13959 8.36454 3.50439 8.36363H15.7685C16.1332 8.36499 16.4413 8.62176 16.4928 8.96729L18.2657 21.2039C18.3211 21.587 18.0415 21.9402 17.6412 21.9932C17.6081 21.9977 17.5745 22 17.5413 22H1.73102C1.32742 22 1 21.6866 1 21.3003C1 21.2682 1.00237 21.236 1.0071 21.2039Z" stroke="#0F0F0F" stroke-width="1.5" stroke-miterlimit="10"/>
<path d="M7.15601 4.49644V4.2673C7.15601 2.70863 8.41938 1.44525 9.97805 1.44525C11.5367 1.44525 12.8001 2.70863 12.8001 4.2673V4.49644" stroke="#0F0F0F" stroke-width="1.5" stroke-miterlimit="10"/>
</svg>
