<?xml version="1.0" encoding="utf-8"?>
<!-- Generator: Adobe Illustrator 21.1.0, SVG Export Plug-In . SVG Version: 6.00 Build 0)  -->
<svg version="1.1" id="fl928_logo" xmlns="http://www.w3.org/2000/svg" xmlns:xlink="http://www.w3.org/1999/xlink" x="0px" y="0px"
	 viewBox="0 0 178.7 269.4" style="enable-background:new 0 0 178.7 269.4;" xml:space="preserve">
<style type="text/css">
	.st0{fill:#FFFFFF;}
</style>
<g>
	<path class="st0" d="M16,263.5v-37.3c0-1.2-0.2-2.4-0.7-3.4c-0.4-1-1.3-1.7-2.7-2.1H43l1.9,8.3c-2.6-4.9-6.7-7.4-12.1-7.4H20.8
		v22.6H31c1.5,0,2.8-0.3,4-0.9c1.2-0.6,2.1-1.7,2.6-3.2v8.9c-0.5-1.5-1.3-2.5-2.6-3.1s-2.6-0.9-4-0.9H20.8v18.7
		c0,1.2,0.2,2.3,0.7,3.4c0.5,1.1,1.3,1.8,2.6,2.2H12.7c1.3-0.4,2.2-1.2,2.7-2.2C15.8,266,16,264.8,16,263.5z"/>
	<path class="st0" d="M57.8,220.7c-1.3,0.4-2.2,1.1-2.7,2.1c-0.4,1-0.7,2.1-0.5,3.4v42.2h9c2.8,0,5.1-0.7,7-2.2
		c1.9-1.4,3.5-3.3,4.8-5.6l-1.9,8.5H46.5c1.3-0.4,2.2-1.2,2.7-2.2c0.4-1.1,0.7-2.2,0.7-3.5v-37.3c0-1.2-0.2-2.4-0.7-3.4
		c-0.4-1-1.3-1.7-2.7-2.1H57.8z"/>
	<path class="st0" d="M73.7,237.4c0-1.6,0.3-3.3,0.8-5.3c0.6-2,1.5-3.8,2.7-5.5s2.9-3.2,4.9-4.3c2-1.2,4.4-1.8,7.2-1.8
		c2.6,0,4.9,0.6,6.9,1.8c2,1.2,3.7,2.8,5,4.8c1.3,2,2.3,4.2,3,6.7c0.7,2.5,1,5,1,7.6c0,3.9-0.7,7.5-2,10.6c-1.4,3.2-3.2,5.9-5.4,8.3
		s-4.8,4.3-7.7,5.8c-2.9,1.5-5.9,2.6-8.9,3.2l-0.2-1c3.2-0.5,6-1.5,8.3-3.1c2.3-1.5,4.2-3.4,5.6-5.5s2.6-4.6,3.4-7.1
		c0.8-2.6,1.3-5.2,1.5-7.8c-0.5,0.9-1.1,1.7-1.8,2.5c-0.8,0.8-1.6,1.5-2.6,2.1c-1,0.6-2,1.1-3.1,1.5c-1.1,0.4-2.2,0.6-3.4,0.6
		c-2.4,0-4.6-0.4-6.4-1.1c-1.9-0.7-3.5-1.7-4.8-2.9c-1.3-1.2-2.3-2.7-2.9-4.5C74,241.3,73.7,239.4,73.7,237.4z M79,235.5
		c0,1.9,0.2,3.7,0.5,5.6s0.9,3.5,1.7,5c0.8,1.5,1.8,2.6,3,3.5c1.2,0.9,2.7,1.4,4.5,1.4c1.2,0,2.5-0.3,3.9-0.8
		c1.3-0.6,2.6-1.3,3.6-2.3c1.1-1,2-2.2,2.7-3.7c0.7-1.5,1-3.1,1-4.9c0-1.9-0.2-4-0.6-6c-0.4-2.1-1-4-1.9-5.7c-0.9-1.7-2-3.2-3.3-4.3
		s-2.9-1.7-4.8-1.7c-2.4,0-4.2,0.5-5.6,1.6c-1.4,1-2.4,2.3-3.1,3.8c-0.7,1.5-1.1,3-1.4,4.6C79.1,233.1,79,234.4,79,235.5z"/>
	<path class="st0" d="M106.1,269.2c0.4-0.2,1-0.8,1.8-1.6c0.8-0.8,1.7-1.8,2.6-2.9c1-1.1,1.9-2.4,3-3.7c1-1.3,2-2.6,2.9-3.8
		c0.9-1.2,1.7-2.3,2.4-3.3c0.7-1,1.2-1.7,1.5-2.2c1.5-2.4,2.8-4.5,3.8-6.4c1-1.9,1.7-3.6,2.2-5.2c0.5-1.5,0.9-3,1-4.2
		c0.2-1.3,0.3-2.5,0.3-3.6c0-2.9-0.7-5.1-2-6.7c-1.3-1.6-3.3-2.3-5.9-2.3c-0.9,0-1.8,0.2-2.7,0.5s-1.8,0.8-2.7,1.6
		c-0.9,0.7-1.7,1.6-2.6,2.7c-0.8,1.1-1.6,2.4-2.2,4l-0.5-0.2c0.7-1.5,1.5-3,2.4-4.3c0.9-1.4,1.9-2.6,3-3.6c1.1-1,2.4-1.9,3.7-2.5
		c1.3-0.6,2.7-0.9,4.1-0.9c3,0,5.4,1,7.2,3.1c1.8,2.1,2.7,4.9,2.7,8.5c0,1.8-0.4,3.6-1.1,5.5c-0.7,1.9-1.6,3.9-2.8,5.9
		c-1.2,2-2.5,4-3.9,6s-2.9,3.9-4.4,5.8c-1.5,1.8-2.9,3.6-4.3,5.2c-1.4,1.6-2.5,3-3.5,4.3h15.5c1.3,0,2.4-0.1,3.2-0.3
		c0.9-0.2,1.7-0.5,2.3-0.8c0.6-0.3,1.2-0.7,1.6-1.2c0.4-0.4,0.8-0.9,1.1-1.5l-1.7,8H106.1z"/>
	<path class="st0" d="M151.6,242.7c-0.9-0.7-1.9-1.5-2.8-2.4c-0.9-0.9-1.8-1.8-2.6-2.8c-0.8-1-1.4-2.1-1.8-3.2
		c-0.5-1.2-0.7-2.4-0.7-3.7c0-1.6,0.4-3.1,1.1-4.3c0.7-1.3,1.7-2.3,2.8-3.2c1.2-0.9,2.5-1.6,4-2c1.5-0.5,3-0.7,4.5-0.7
		c1.2,0,2.5,0.2,3.8,0.6c1.4,0.4,2.6,0.9,3.8,1.7c1.2,0.8,2.2,1.8,3,3c0.8,1.2,1.2,2.7,1.2,4.4c0,2.5-0.9,4.6-2.8,6.3
		c-1.9,1.7-4.2,3.3-7.2,4.8c1.4,0.7,2.9,1.6,4.3,2.7s2.7,2.3,3.9,3.6c1.2,1.3,2.1,2.7,2.9,4.3c0.7,1.5,1.1,3.1,1.1,4.8
		c0,1.6-0.3,3.1-1,4.7c-0.7,1.6-1.6,2.9-2.9,4.1c-1.3,1.2-2.8,2.2-4.6,2.9c-1.8,0.7-3.9,1.1-6.2,1.1c-1.9,0-3.8-0.3-5.6-0.9
		c-1.8-0.6-3.4-1.5-4.8-2.6c-1.4-1.1-2.5-2.5-3.4-4.1s-1.3-3.4-1.3-5.4c0-1.6,0.3-3.1,0.9-4.4c0.6-1.3,1.4-2.5,2.4-3.6
		c1-1.1,2.2-2.1,3.6-3C148.6,244.4,150.1,243.5,151.6,242.7z M155.2,268.4c1.4,0,2.8-0.3,4.2-0.8c1.3-0.5,2.5-1.2,3.5-2.1
		c1-0.9,1.8-2,2.5-3.2c0.6-1.2,0.9-2.6,0.9-4c0-1.8-0.4-3.4-1.3-4.7c-0.9-1.4-2-2.6-3.3-3.7c-1.3-1.1-2.8-2.2-4.5-3.3
		c-1.6-1-3.2-2.1-4.8-3.3c-1.7,1-3,2-4.1,2.9c-1.1,1-1.9,2-2.6,3.1c-0.6,1.1-1.1,2.2-1.4,3.4c-0.3,1.2-0.4,2.5-0.4,3.8
		c0,1.6,0.3,3.1,0.9,4.5c0.6,1.5,1.4,2.7,2.4,3.8c1,1.1,2.2,1.9,3.6,2.6C152.2,268.1,153.7,268.4,155.2,268.4z M147.5,229.1
		c0,1.2,0.3,2.4,0.8,3.5c0.5,1.1,1.2,2.1,2.1,3.1c0.9,0.9,1.9,1.8,3,2.6s2.3,1.6,3.6,2.3c1-0.6,2-1.3,2.9-2s1.7-1.5,2.4-2.4
		c0.7-0.9,1.3-1.9,1.7-3s0.6-2.4,0.6-3.7c0-2.4-0.8-4.4-2.3-5.9c-1.5-1.5-3.5-2.3-5.9-2.3c-1.3,0-2.5,0.2-3.6,0.6
		c-1.1,0.4-2,1-2.8,1.7c-0.8,0.7-1.4,1.6-1.8,2.5C147.7,227.1,147.5,228.1,147.5,229.1z"/>
</g>
<g>
	<path class="st0" d="M69.1,109.2V69c0-1.9-0.3-3.7-1-5.3S66,61,63.9,60.4H111l2.9,12.9c-4.1-7.7-10.4-11.6-18.9-11.6H76.4v26.4
		h12.8c2.3,0,4.4-0.5,6.3-1.5c1.9-1,3.2-2.6,4-4.9v14c-0.7-2.3-2.1-3.9-4-4.9c-1.9-0.9-4-1.4-6.3-1.4H76.4v19.9
		c0,1.9,0.4,3.6,1.1,5.3c0.8,1.7,2.1,2.8,4.1,3.5H63.9c2.1-0.7,3.5-1.8,4.2-3.5C68.7,112.9,69.1,111.1,69.1,109.2z"/>
</g>
<g>
	<path class="st0" d="M94.4,84.9V61.3h-6.5V86h1.3C91.1,86,92.8,85.6,94.4,84.9z"/>
	<path class="st0" d="M93,53.8c-1-2.1-1.8-2.6-1.9-2.6v0l0,0l0,0v0c0,0-0.8,0.5-1.8,2.6c-1.7-2.2-5.7-2.6-5.7-2.6
		c1.9,0.6,2.8,1.6,3.4,3c0.5,1.3,0.8,2.7,0.8,4.2h3.3h0h3.3c0.1-1.5,0.3-2.9,0.8-4.2c0.6-1.4,1.3-2.4,3.2-3
		C98.4,51.2,94.7,51.6,93,53.8z"/>
	<path class="st0" d="M109.7,114.1c-2.6,2-5.8,3-9.6,3h-5.7V90.2c-1.6-0.7-3.3-1.1-5.2-1.1h-1.3v21.2c0,1.7-0.3,3.3-0.9,4.8
		c-0.6,1.5-1.8,2.5-3.7,3.1h30.4l2.7-11.8C114.5,109.5,112.2,112.1,109.7,114.1z"/>
</g>
<g>
	<path class="st0" d="M2.5,113.9l6.3-1.9c0.2-0.1,0.4-0.2,0.5-0.3c0.1-0.1,0.2-0.3,0.2-0.6l1.5,5.1L9.8,117c0.7-0.7,0.9-1.5,0.7-2.4
		l-0.6-2L6,113.7l0.4,1.4c0.1,0.2,0.2,0.5,0.4,0.6c0.2,0.2,0.4,0.3,0.7,0.3l-1.5,0.4c0.2-0.2,0.4-0.3,0.4-0.6c0-0.2,0-0.5,0-0.7
		l-0.4-1.4l-3.2,0.9c-0.2,0.1-0.4,0.2-0.5,0.3c-0.2,0.1-0.2,0.3-0.2,0.5l-0.6-1.9c0.1,0.2,0.3,0.3,0.5,0.3
		C2.1,113.9,2.3,113.9,2.5,113.9z"/>
	<path class="st0" d="M3.7,121.3c0.1,0.1,0.3,0.3,0.6,0.3s0.5,0.1,0.6,0.1l8.3-0.2l-6,5.6c-0.2,0.1-0.3,0.3-0.4,0.5
		c-0.1,0.2-0.2,0.4-0.2,0.6l-0.8-2c0.1,0.1,0.2,0.2,0.4,0.2c0.2,0,0.3,0,0.4,0c0.1,0,0.2-0.1,0.4-0.3c0.2-0.2,0.4-0.4,0.6-0.6
		c0.2-0.2,0.4-0.4,0.6-0.6s0.3-0.3,0.4-0.4l-1.1-2.7l-2.2,0.1c-0.1,0-0.2,0-0.3,0s-0.2,0-0.3,0.1c-0.2,0.1-0.3,0.2-0.4,0.4
		c-0.1,0.2-0.1,0.4-0.1,0.5L3.7,121.3z M8.8,124.4l3-2.8l-4.1,0.1L8.8,124.4z"/>
	<path class="st0" d="M10.8,131.1c-0.2,0.2-0.4,0.5-0.6,0.8c-0.2,0.3-0.3,0.6-0.4,0.9c-0.1,0.3-0.1,0.6-0.1,1c0,0.3,0.1,0.6,0.3,1
		c0.1,0.2,0.3,0.4,0.5,0.6c0.2,0.2,0.4,0.4,0.6,0.5c0.2,0.1,0.4,0.2,0.7,0.2c0.3,0,0.5-0.1,0.8-0.2c0.3-0.2,0.5-0.4,0.6-0.8
		c0.1-0.3,0.1-0.7,0.1-1.1c0-0.4,0-0.8-0.1-1.3c0-0.5-0.1-0.9,0-1.3c0-0.4,0.1-0.8,0.3-1.2c0.2-0.4,0.4-0.7,0.9-0.9
		c0.3-0.2,0.6-0.3,0.9-0.3s0.6,0,0.9,0.1c0.3,0.1,0.5,0.3,0.8,0.5s0.4,0.5,0.6,0.8c0.1,0.2,0.2,0.4,0.2,0.6c0,0.2,0.1,0.4,0.1,0.6
		c0,0.2,0,0.4,0,0.5c0,0.2,0,0.3,0.1,0.3c0.1,0.1,0.2,0.2,0.3,0.2c0.1,0,0.3,0,0.4,0c-0.3,0.2-0.6,0.3-0.9,0.5
		c-0.3,0.1-0.6,0.3-0.9,0.5c0.2-0.2,0.4-0.5,0.5-0.7c0.1-0.3,0.2-0.6,0.3-0.8s0-0.6,0-0.9c0-0.3-0.1-0.6-0.3-0.8
		c-0.1-0.2-0.3-0.4-0.4-0.6c-0.2-0.2-0.4-0.3-0.6-0.4c-0.2-0.1-0.4-0.1-0.6-0.1c-0.2,0-0.5,0.1-0.7,0.2c-0.2,0.1-0.4,0.3-0.5,0.5
		c-0.1,0.2-0.2,0.5-0.2,0.8c0,0.3-0.1,0.6,0,0.9c0,0.3,0,0.7,0,1c0,0.3,0,0.7,0,1s0,0.7-0.1,1s-0.2,0.6-0.4,0.8
		c-0.2,0.3-0.4,0.5-0.7,0.7c-0.3,0.2-0.6,0.3-1,0.2c-0.3,0-0.6-0.1-0.9-0.2c-0.3-0.1-0.5-0.3-0.8-0.6c-0.2-0.2-0.4-0.5-0.6-0.8
		c-0.1-0.2-0.2-0.4-0.2-0.6c0-0.2-0.1-0.4-0.1-0.6c0-0.2-0.1-0.4-0.1-0.6c0-0.2-0.1-0.4-0.2-0.5c-0.1-0.1-0.1-0.2-0.3-0.3
		c-0.1-0.1-0.2-0.1-0.3-0.1L10.8,131.1z"/>
	<path class="st0" d="M15,141.1l5.3-3.9c0.2-0.1,0.3-0.3,0.4-0.4c0.1-0.2,0.1-0.4,0-0.6l1.2,1.6c-0.2-0.1-0.4-0.2-0.6-0.1
		c-0.2,0-0.4,0.1-0.5,0.3l-2.5,1.9l2.5,3.4l2.5-1.9c0.2-0.1,0.3-0.3,0.4-0.4c0.1-0.2,0.1-0.4,0-0.6l1.2,1.6
		c-0.2-0.1-0.4-0.2-0.6-0.1c-0.2,0-0.4,0.1-0.6,0.3l-5.3,3.9c-0.2,0.1-0.3,0.3-0.4,0.5c-0.1,0.2-0.1,0.4,0,0.6l-1.2-1.6
		c0.2,0.1,0.4,0.2,0.6,0.1c0.2-0.1,0.4-0.1,0.6-0.3l2.7-2l-2.5-3.4l-2.7,2c-0.2,0.1-0.3,0.3-0.4,0.5s-0.1,0.4,0,0.6l-1.2-1.6
		c0.2,0.1,0.4,0.2,0.6,0.2S14.8,141.2,15,141.1z"/>
	<path class="st0" d="M28.5,145.8c-0.2-0.1-0.4-0.2-0.6-0.1c-0.2,0.1-0.4,0.2-0.5,0.3l-4.9,4.4c-0.2,0.1-0.3,0.3-0.4,0.5
		s-0.1,0.4,0,0.6l-1.3-1.5c0.2,0.1,0.4,0.2,0.6,0.1c0.2-0.1,0.4-0.2,0.5-0.3l4.9-4.4c0.2-0.1,0.3-0.3,0.4-0.5c0.1-0.2,0.1-0.4,0-0.6
		L28.5,145.8z"/>
	<path class="st0" d="M34.5,151.6c0.4,0.4,0.8,0.8,1,1.4c0.2,0.5,0.4,1,0.4,1.6c0,0.5,0,1.1-0.2,1.6c-0.2,0.5-0.5,1-0.9,1.5
		c-0.4,0.4-0.8,0.8-1.4,1c-0.5,0.2-1,0.4-1.6,0.4c-0.5,0-1.1,0-1.6-0.2c-0.5-0.2-1-0.5-1.5-0.8c-0.4-0.4-0.8-0.8-1-1.4
		c-0.2-0.5-0.4-1-0.4-1.6c0-0.5,0-1.1,0.2-1.6c0.2-0.5,0.5-1,0.9-1.5c0.4-0.4,0.8-0.8,1.4-1c0.5-0.2,1-0.4,1.6-0.4
		c0.5,0,1.1,0,1.6,0.2C33.6,150.9,34.1,151.2,34.5,151.6z M29.1,158.1c0.4,0.3,0.8,0.5,1.2,0.6c0.5,0.1,0.9,0.1,1.4-0.1
		c0.5-0.1,0.9-0.3,1.3-0.6c0.4-0.3,0.8-0.6,1.1-0.9c0.3-0.4,0.6-0.8,0.8-1.3s0.4-1,0.4-1.5c0.1-0.5,0-1-0.1-1.5
		c-0.2-0.5-0.4-0.9-0.8-1.3c-0.4-0.3-0.8-0.5-1.2-0.6c-0.5-0.1-0.9-0.1-1.4,0.1c-0.5,0.1-0.9,0.3-1.3,0.6c-0.4,0.3-0.8,0.6-1.1,0.9
		c-0.3,0.4-0.6,0.8-0.8,1.3c-0.2,0.5-0.4,1-0.4,1.5c-0.1,0.5,0,1,0.1,1.5C28.4,157.4,28.7,157.8,29.1,158.1z"/>
	<path class="st0" d="M35.8,163.6c0.3,0.1,0.5,0.1,0.7,0c0.2-0.1,0.4-0.2,0.6-0.4l3.5-5.3c0.2-0.2,0.2-0.5,0.2-0.7
		c0-0.2-0.1-0.5-0.3-0.7l1.3,0.8l0.3,8.4l3.2-4.9c0.2-0.2,0.2-0.5,0.2-0.7c0-0.2-0.1-0.5-0.3-0.7l1.5,1c-0.3-0.1-0.5-0.1-0.7,0
		c-0.2,0.1-0.4,0.2-0.6,0.5l-4.1,6.2l-0.3-9.7l-3.8,5.7c-0.2,0.2-0.2,0.5-0.2,0.7c0,0.2,0.1,0.5,0.3,0.7L35.8,163.6z"/>
	<path class="st0" d="M56.8,165.6c-0.2,0-0.4,0-0.6,0.2c-0.1,0.1-0.3,0.3-0.3,0.5l-2.9,6.9l2,0.8c0.4,0.2,0.9,0.2,1.3,0.1
		c0.4-0.1,0.8-0.3,1.2-0.6l-0.9,1.3l-4.9-2c0.2,0,0.4,0,0.6-0.2c0.1-0.1,0.3-0.3,0.3-0.5l2.5-6.1c0.1-0.2,0.1-0.4,0.1-0.6
		c0-0.2-0.1-0.4-0.3-0.5L56.8,165.6z"/>
	<path class="st0" d="M60.5,176.2c0.2,0,0.4-0.1,0.6-0.2c0.2-0.1,0.4-0.3,0.5-0.4l4.9-6.6l0.7,8.2c0,0.2,0.1,0.4,0.1,0.6
		c0.1,0.2,0.2,0.4,0.4,0.5l-2-0.6c0.1,0,0.3-0.1,0.4-0.2c0.1-0.1,0.2-0.2,0.3-0.4c0-0.1,0-0.3,0-0.5c0-0.3,0-0.5-0.1-0.8
		c0-0.3-0.1-0.6-0.1-0.9c0-0.3,0-0.5-0.1-0.6l-2.8-0.8l-1.3,1.8c-0.1,0.1-0.1,0.1-0.1,0.2c0,0.1-0.1,0.2-0.1,0.2
		c-0.1,0.2,0,0.4,0.1,0.5c0.1,0.2,0.2,0.3,0.4,0.4L60.5,176.2z M66.1,174.2l-0.3-4.1l-2.4,3.3L66.1,174.2z"/>
	<path class="st0" d="M71.9,179.1c0.2,0,0.4-0.1,0.5-0.3c0.1-0.2,0.2-0.4,0.2-0.6l1-6.5c0-0.2,0-0.4,0-0.6c0-0.2-0.2-0.3-0.4-0.4
		l2.7,0.4c0.3,0.1,0.6,0.1,0.9,0.3c0.3,0.1,0.6,0.3,0.8,0.5c0.2,0.2,0.4,0.4,0.5,0.7c0.1,0.3,0.1,0.6,0.1,1
		c-0.1,0.5-0.3,0.9-0.6,1.1c-0.3,0.3-0.7,0.4-1.2,0.5c0.3,0.1,0.6,0.2,0.9,0.4c0.3,0.2,0.5,0.3,0.7,0.6c0.2,0.2,0.3,0.5,0.4,0.8
		c0.1,0.3,0.1,0.6,0,1c-0.1,0.4-0.2,0.7-0.4,1c-0.2,0.3-0.5,0.5-0.8,0.6c-0.3,0.1-0.6,0.2-1,0.3s-0.7,0-1.1,0L71.9,179.1z
		 M73.3,179.2l1.8,0.3c0.7,0.1,1.2,0,1.6-0.3s0.7-0.8,0.8-1.5c0.1-0.7,0-1.2-0.3-1.7c-0.3-0.4-0.8-0.7-1.5-0.8l-1.7-0.3L73.3,179.2z
		 M75.2,174.9c0.6,0.1,1.1,0,1.4-0.3c0.4-0.3,0.6-0.7,0.7-1.3c0.1-0.6,0-1.1-0.3-1.5s-0.7-0.6-1.3-0.7l-1.3-0.2l-0.6,3.7L75.2,174.9
		z"/>
	<path class="st0" d="M87.2,172.1c0.6,0,1.1,0.1,1.7,0.4c0.5,0.2,1,0.6,1.3,1c0.4,0.4,0.7,0.9,0.9,1.4c0.2,0.5,0.3,1.1,0.3,1.7
		c0,0.6-0.1,1.2-0.4,1.7s-0.6,1-0.9,1.4c-0.4,0.4-0.9,0.7-1.4,0.9c-0.5,0.2-1.1,0.3-1.7,0.3c-0.6,0-1.1-0.1-1.7-0.4
		c-0.5-0.2-1-0.6-1.3-1c-0.4-0.4-0.7-0.9-0.9-1.4c-0.2-0.5-0.3-1.1-0.3-1.7c0-0.6,0.1-1.2,0.4-1.7c0.2-0.5,0.6-1,0.9-1.4
		s0.9-0.7,1.4-0.9C86.1,172.2,86.6,172.1,87.2,172.1z M87.2,180.6c0.5,0,1-0.1,1.4-0.3c0.4-0.2,0.7-0.5,1-0.9s0.5-0.8,0.6-1.3
		c0.1-0.5,0.2-0.9,0.2-1.4c0-0.5-0.1-1-0.2-1.5c-0.1-0.5-0.4-1-0.7-1.4c-0.3-0.4-0.7-0.8-1.1-1.1c-0.4-0.3-0.9-0.4-1.5-0.4
		c-0.5,0-0.9,0.1-1.3,0.3c-0.4,0.2-0.7,0.5-1,0.9c-0.3,0.4-0.5,0.8-0.6,1.3c-0.1,0.5-0.2,0.9-0.2,1.4c0,0.5,0.1,1,0.2,1.5
		c0.2,0.5,0.4,1,0.7,1.4c0.3,0.4,0.7,0.8,1.1,1.1C86.2,180.5,86.7,180.6,87.2,180.6z"/>
	<path class="st0" d="M95.9,180.5c0.2-0.1,0.4-0.2,0.4-0.4c0.1-0.2,0.1-0.4,0-0.6l-0.7-6.5c0-0.2-0.1-0.4-0.2-0.6
		c-0.1-0.2-0.3-0.3-0.5-0.3l2.8-0.3c0.4,0,0.8,0,1.2,0c0.4,0.1,0.8,0.2,1.1,0.3c0.3,0.2,0.6,0.4,0.8,0.7c0.2,0.3,0.4,0.7,0.4,1.2
		c0,0.3,0,0.7-0.1,0.9s-0.2,0.6-0.4,0.8c-0.2,0.2-0.4,0.4-0.6,0.6c-0.3,0.2-0.5,0.3-0.8,0.4l2,2.5c0.1,0.2,0.3,0.3,0.4,0.4
		c0.2,0.1,0.3,0.2,0.5,0.2L101,180l-2.5-3.1l-1.6,0.2l0.3,2.4c0,0.2,0.1,0.4,0.2,0.6c0.1,0.2,0.3,0.3,0.5,0.3L95.9,180.5z
		 M96.9,176.9l1.4-0.2c0.4,0,0.7-0.1,1-0.3c0.3-0.1,0.5-0.3,0.7-0.6c0.2-0.2,0.3-0.5,0.4-0.8s0.1-0.7,0.1-1
		c-0.1-0.8-0.4-1.3-0.8-1.7c-0.5-0.4-1.1-0.5-1.8-0.5l-1.4,0.2L96.9,176.9z"/>
	<path class="st0" d="M106.9,179c0.2-0.1,0.3-0.3,0.4-0.5c0.1-0.2,0.2-0.4,0.2-0.6l1-8.2l4.6,6.8c0.1,0.2,0.3,0.3,0.4,0.5
		s0.4,0.2,0.6,0.2l-2.1,0.5c0.1-0.1,0.2-0.2,0.3-0.4c0.1-0.2,0.1-0.3,0-0.4c0-0.1-0.1-0.2-0.2-0.5c-0.1-0.2-0.3-0.5-0.5-0.7
		c-0.2-0.2-0.3-0.5-0.5-0.7c-0.2-0.2-0.3-0.4-0.3-0.5l-2.9,0.7l-0.3,2.2c0,0.1,0,0.2,0,0.3c0,0.1,0,0.2,0,0.3
		c0.1,0.2,0.2,0.4,0.3,0.4c0.2,0.1,0.3,0.1,0.5,0.2L106.9,179z M110.9,174.5l-2.3-3.4l-0.5,4L110.9,174.5z"/>
	<path class="st0" d="M115.9,167.8l5.7-2.2l0.8,1.2c-0.3-0.3-0.7-0.5-1.1-0.5c-0.4-0.1-0.8-0.1-1.2,0.1l-1,0.4l2.6,6.9
		c0.1,0.2,0.2,0.4,0.3,0.5c0.1,0.1,0.3,0.2,0.6,0.2l-1.9,0.7c0.2-0.2,0.3-0.3,0.3-0.5c0-0.2,0-0.4-0.1-0.6l-2.6-6.9l-1,0.4
		c-0.4,0.2-0.7,0.4-0.9,0.7s-0.4,0.7-0.4,1.1L115.9,167.8z"/>
	<path class="st0" d="M129,162c0.5-0.3,1.1-0.4,1.6-0.5c0.6,0,1.1,0,1.6,0.2c0.5,0.2,1,0.4,1.5,0.8c0.4,0.4,0.8,0.8,1.1,1.3
		c0.3,0.5,0.4,1.1,0.5,1.6c0.1,0.6,0,1.1-0.2,1.6c-0.2,0.5-0.4,1-0.8,1.5c-0.4,0.4-0.8,0.8-1.3,1.1c-0.5,0.3-1.1,0.4-1.6,0.5
		c-0.6,0-1.1,0-1.6-0.2c-0.5-0.2-1-0.4-1.5-0.8c-0.4-0.4-0.8-0.8-1.1-1.3c-0.3-0.5-0.4-1.1-0.5-1.6c-0.1-0.6,0-1.1,0.2-1.6
		c0.2-0.5,0.4-1,0.8-1.5C128.1,162.6,128.5,162.3,129,162z M133.2,169.4c0.4-0.2,0.8-0.6,1-1c0.2-0.4,0.4-0.8,0.4-1.3
		c0.1-0.5,0-0.9-0.1-1.4c-0.1-0.5-0.3-0.9-0.5-1.3c-0.2-0.4-0.5-0.8-0.9-1.2c-0.4-0.4-0.8-0.7-1.3-0.9c-0.5-0.2-1-0.4-1.5-0.4
		c-0.5,0-1,0.1-1.5,0.3c-0.4,0.2-0.8,0.6-1,1c-0.2,0.4-0.4,0.8-0.4,1.3c-0.1,0.5,0,0.9,0.1,1.4c0.1,0.5,0.3,0.9,0.5,1.3
		c0.2,0.4,0.5,0.8,0.9,1.2c0.4,0.4,0.8,0.7,1.3,0.9c0.5,0.2,1,0.4,1.5,0.4C132.3,169.7,132.8,169.6,133.2,169.4z"/>
	<path class="st0" d="M140.7,165c0.1-0.2,0.2-0.4,0.1-0.6c0-0.2-0.1-0.4-0.3-0.6l-3.8-5.3c-0.1-0.2-0.3-0.3-0.4-0.4s-0.4-0.1-0.6,0
		l2.3-1.7c0.3-0.2,0.7-0.4,1.1-0.6c0.4-0.2,0.7-0.2,1.1-0.2c0.4,0,0.7,0.1,1.1,0.2c0.3,0.2,0.7,0.4,0.9,0.8c0.2,0.3,0.3,0.6,0.4,0.9
		c0.1,0.3,0.1,0.6,0.1,0.9c0,0.3-0.1,0.6-0.3,0.9c-0.1,0.3-0.3,0.5-0.5,0.8l3,1.2c0.2,0.1,0.4,0.1,0.6,0.1c0.2,0,0.4,0,0.6-0.1
		l-1.1,0.8l-3.7-1.5l-1.3,1l1.4,1.9c0.1,0.2,0.3,0.3,0.4,0.4c0.2,0.1,0.4,0.1,0.6,0L140.7,165z M139.8,161.4l1.1-0.8
		c0.3-0.2,0.5-0.5,0.7-0.7c0.2-0.3,0.3-0.6,0.3-0.9c0.1-0.3,0-0.6-0.1-0.9c-0.1-0.3-0.2-0.6-0.5-0.9c-0.4-0.6-1-1-1.6-1.1
		c-0.6-0.1-1.2,0.1-1.8,0.5l-1.1,0.8L139.8,161.4z"/>
	<path class="st0" d="M145.1,150.8c-0.1,0.2-0.2,0.4-0.1,0.6c0.1,0.2,0.2,0.4,0.3,0.5l4.3,4.9c0.1,0.2,0.3,0.3,0.5,0.4
		c0.2,0.1,0.4,0.1,0.6,0l-1.5,1.3c0.1-0.2,0.2-0.4,0.1-0.6c-0.1-0.2-0.2-0.4-0.3-0.5l-4.3-4.9c-0.1-0.2-0.3-0.3-0.5-0.4
		s-0.4-0.1-0.6,0L145.1,150.8z"/>
	<path class="st0" d="M153.9,154.3c0.1-0.2,0.1-0.4,0.1-0.6c0-0.3-0.1-0.5-0.2-0.6l-3.6-7.4l7.6,3.2c0.2,0.1,0.4,0.1,0.6,0.2
		c0.2,0,0.4,0,0.6-0.1l-1.5,1.5c0.1-0.1,0.1-0.3,0-0.4c0-0.2-0.1-0.3-0.2-0.4c-0.1-0.1-0.2-0.1-0.4-0.3s-0.5-0.2-0.8-0.3
		c-0.3-0.1-0.5-0.2-0.8-0.3c-0.3-0.1-0.4-0.2-0.6-0.2l-2,2.2l1,2c0,0.1,0.1,0.2,0.1,0.2c0,0.1,0.1,0.1,0.2,0.2
		c0.2,0.1,0.3,0.2,0.5,0.2c0.2,0,0.4-0.1,0.5-0.2L153.9,154.3z M154.7,148.4l-3.7-1.6l1.8,3.7L154.7,148.4z"/>
	<path class="st0" d="M160.9,137.2c-0.2-0.1-0.5-0.4-0.7-0.6c-0.2-0.3-0.4-0.6-0.6-0.9s-0.2-0.7-0.2-1.1c0-0.4,0.1-0.8,0.4-1.2
		c0.2-0.4,0.6-0.7,0.9-0.8c0.4-0.2,0.8-0.3,1.2-0.3c0.4,0,0.8,0.1,1.3,0.2c0.4,0.1,0.8,0.3,1.2,0.6c0.6,0.4,1.1,0.8,1.4,1.3
		c0.3,0.5,0.6,1,0.7,1.6c0.1,0.6,0.2,1.1,0.1,1.7c0,0.6-0.2,1.1-0.3,1.6l-0.2-0.1c0.2-0.5,0.3-1,0.3-1.5c0-0.5-0.1-0.9-0.3-1.4
		c-0.2-0.4-0.4-0.8-0.7-1.2c-0.3-0.4-0.6-0.7-1-1c0.1,0.2,0.2,0.3,0.2,0.5c0.1,0.2,0.1,0.4,0.1,0.6c0,0.2,0,0.4-0.1,0.6
		c0,0.2-0.1,0.4-0.2,0.6c-0.2,0.4-0.5,0.6-0.8,0.8c-0.3,0.2-0.6,0.4-0.9,0.4c-0.3,0.1-0.6,0.1-0.9,0
		C161.5,137.5,161.2,137.3,160.9,137.2z M161.1,136.2c0.3,0.2,0.6,0.3,0.9,0.4c0.3,0.1,0.6,0.2,0.9,0.2c0.3,0,0.6,0,0.8-0.1
		c0.2-0.1,0.5-0.3,0.6-0.5c0.1-0.2,0.2-0.4,0.2-0.6c0-0.3,0-0.5,0-0.8c0-0.3-0.1-0.5-0.3-0.7c-0.2-0.2-0.4-0.4-0.6-0.6
		c-0.3-0.2-0.6-0.3-1-0.5c-0.3-0.1-0.7-0.2-1-0.3c-0.3,0-0.7,0-0.9,0.1c-0.3,0.1-0.5,0.3-0.7,0.5c-0.2,0.3-0.3,0.7-0.3,1
		c0,0.3,0.1,0.6,0.3,0.8c0.2,0.2,0.3,0.5,0.6,0.6C160.8,136,161,136.1,161.1,136.2z"/>
	<path class="st0" d="M170.5,132.2c0-0.1,0-0.3-0.1-0.5c-0.1-0.2-0.1-0.4-0.2-0.7c-0.1-0.3-0.2-0.5-0.3-0.8
		c-0.1-0.3-0.2-0.6-0.3-0.8c-0.1-0.3-0.2-0.5-0.3-0.7c-0.1-0.2-0.2-0.4-0.2-0.5c-0.2-0.5-0.5-0.9-0.7-1.2c-0.2-0.3-0.4-0.6-0.6-0.8
		c-0.2-0.2-0.4-0.4-0.6-0.5c-0.2-0.1-0.4-0.2-0.5-0.3c-0.5-0.2-0.9-0.3-1.2-0.2c-0.4,0.1-0.7,0.4-0.9,0.9c-0.1,0.2-0.1,0.3-0.2,0.5
		c0,0.2,0,0.4,0,0.6c0,0.2,0.1,0.4,0.2,0.7c0.1,0.2,0.2,0.5,0.4,0.7l-0.1,0.1c-0.2-0.2-0.3-0.5-0.5-0.8c-0.1-0.3-0.2-0.5-0.3-0.8
		c-0.1-0.3-0.1-0.6-0.1-0.9c0-0.3,0.1-0.6,0.2-0.8c0.3-0.5,0.7-0.9,1.1-1.1c0.5-0.2,1-0.1,1.6,0.2c0.3,0.1,0.5,0.3,0.8,0.6
		c0.2,0.3,0.5,0.6,0.7,1c0.2,0.4,0.4,0.8,0.6,1.2s0.4,0.8,0.5,1.3c0.2,0.4,0.3,0.8,0.4,1.2c0.1,0.4,0.2,0.7,0.3,1l1.2-2.3
		c0.1-0.2,0.2-0.4,0.3-0.6c0.1-0.2,0.1-0.3,0.1-0.5c0-0.1,0-0.3,0-0.4s-0.1-0.2-0.1-0.3l1.1,0.9L170.5,132.2z"/>
	<path class="st0" d="M171,119.5c-0.2,0.1-0.4,0.2-0.6,0.3c-0.2,0.1-0.4,0.2-0.6,0.3c-0.2,0.1-0.4,0.1-0.6,0.1c-0.2,0-0.4,0-0.6-0.1
		c-0.3-0.1-0.5-0.2-0.6-0.4c-0.2-0.2-0.3-0.4-0.4-0.7c-0.1-0.2-0.1-0.5-0.1-0.8c0-0.3,0.1-0.5,0.2-0.8c0.1-0.2,0.2-0.4,0.3-0.6
		c0.1-0.2,0.3-0.4,0.5-0.5c0.2-0.1,0.4-0.2,0.7-0.3c0.3-0.1,0.5,0,0.8,0.1c0.4,0.2,0.7,0.4,0.9,0.8c0.2,0.4,0.3,0.9,0.4,1.5
		c0.2-0.2,0.4-0.4,0.7-0.5c0.3-0.2,0.5-0.3,0.8-0.4c0.3-0.1,0.6-0.2,0.9-0.2s0.6,0,0.9,0.1c0.3,0.1,0.5,0.2,0.7,0.4
		c0.2,0.2,0.4,0.4,0.5,0.7c0.1,0.3,0.2,0.6,0.2,0.9c0,0.3-0.1,0.7-0.2,1.1c-0.1,0.3-0.3,0.6-0.5,0.9s-0.4,0.5-0.7,0.6
		s-0.6,0.3-0.9,0.3c-0.3,0-0.6,0-1-0.1c-0.3-0.1-0.5-0.2-0.7-0.4s-0.3-0.4-0.5-0.6c-0.1-0.2-0.2-0.5-0.3-0.8
		C171.1,120.1,171.1,119.9,171,119.5z M168.6,119.4c0.2,0.1,0.4,0.1,0.6,0.1c0.2,0,0.4-0.1,0.6-0.2c0.2-0.1,0.4-0.2,0.6-0.3
		c0.2-0.1,0.4-0.3,0.6-0.4c0-0.2-0.1-0.4-0.2-0.6c-0.1-0.2-0.1-0.4-0.3-0.5c-0.1-0.2-0.2-0.3-0.4-0.5s-0.4-0.2-0.6-0.3
		c-0.4-0.1-0.8-0.1-1.1,0c-0.3,0.2-0.6,0.4-0.7,0.8c-0.1,0.2-0.1,0.4-0.1,0.6s0,0.4,0.1,0.6c0.1,0.2,0.2,0.3,0.3,0.4
		C168.2,119.2,168.4,119.3,168.6,119.4z M175.5,120.5c0.1-0.2,0.1-0.5,0.1-0.7c0-0.2,0-0.5-0.1-0.7c-0.1-0.2-0.2-0.4-0.4-0.6
		c-0.2-0.2-0.4-0.3-0.6-0.4c-0.3-0.1-0.6-0.1-0.9-0.1c-0.3,0.1-0.6,0.2-0.8,0.3c-0.3,0.2-0.5,0.3-0.8,0.5c-0.3,0.2-0.5,0.4-0.8,0.6
		c0.1,0.3,0.1,0.6,0.2,0.9c0.1,0.2,0.2,0.4,0.4,0.6c0.1,0.2,0.3,0.3,0.5,0.4s0.4,0.2,0.6,0.3c0.3,0.1,0.5,0.1,0.8,0.1
		c0.3,0,0.5-0.1,0.8-0.2c0.2-0.1,0.4-0.2,0.6-0.4C175.3,121,175.4,120.8,175.5,120.5z"/>
</g>
<g>
	<path class="st0" d="M11,70.9l-6.4-1.6c-0.2-0.1-0.4-0.1-0.6,0c-0.2,0-0.4,0.2-0.5,0.4l1.3-5.2l1.5,0c-1,0.2-1.5,0.8-1.8,1.8
		l-0.5,2l3.9,0.9l0.3-1.4c0.1-0.3,0.1-0.5,0-0.7c-0.1-0.2-0.2-0.4-0.4-0.6l1.5,0.4c-0.3,0-0.5,0.1-0.6,0.3c-0.2,0.2-0.3,0.4-0.3,0.7
		L8,69.3l3.2,0.8c0.2,0.1,0.4,0.1,0.6,0c0.2,0,0.4-0.2,0.5-0.4l-0.5,1.9c0-0.2-0.1-0.4-0.3-0.6C11.4,71,11.2,70.9,11,70.9z"/>
	<path class="st0" d="M13.6,64.6c0-0.2-0.1-0.4-0.2-0.6c-0.1-0.2-0.2-0.4-0.4-0.5L6.7,58l8.2-0.1c0.2,0,0.4,0,0.6-0.1
		c0.2-0.1,0.4-0.2,0.5-0.4l-0.7,2c0-0.1,0-0.3-0.1-0.4c-0.1-0.1-0.2-0.2-0.4-0.3c-0.1,0-0.3,0-0.5-0.1c-0.3,0-0.5,0-0.8,0
		c-0.3,0-0.6,0-0.9,0c-0.3,0-0.5,0-0.6,0l-1,2.8l1.7,1.4c0.1,0.1,0.1,0.1,0.2,0.2c0.1,0,0.2,0.1,0.2,0.1c0.2,0.1,0.4,0.1,0.5,0
		c0.2-0.1,0.3-0.2,0.4-0.4L13.6,64.6z M12,58.8l-4.1,0.1l3.1,2.7L12,58.8z"/>
	<path class="st0" d="M15.5,52.9c0.3,0,0.7,0.1,1,0c0.3,0,0.7-0.1,1-0.2c0.3-0.1,0.6-0.3,0.9-0.5c0.3-0.2,0.5-0.5,0.6-0.8
		c0.1-0.2,0.2-0.5,0.3-0.7c0.1-0.3,0.1-0.5,0.1-0.8c0-0.3-0.1-0.5-0.2-0.7c-0.1-0.2-0.3-0.4-0.6-0.5c-0.3-0.2-0.7-0.2-1-0.1
		c-0.3,0.1-0.7,0.3-1,0.5c-0.3,0.2-0.7,0.5-1.1,0.8s-0.7,0.5-1.1,0.8c-0.4,0.2-0.8,0.4-1.2,0.4s-0.8,0-1.2-0.2
		c-0.3-0.2-0.6-0.4-0.8-0.6c-0.2-0.2-0.3-0.5-0.4-0.8c-0.1-0.3-0.1-0.6,0-0.9c0.1-0.3,0.2-0.6,0.3-0.9c0.1-0.2,0.2-0.4,0.4-0.6
		c0.2-0.2,0.3-0.3,0.5-0.4c0.2-0.1,0.3-0.2,0.4-0.3c0.1-0.1,0.2-0.2,0.2-0.3c0.1-0.1,0.1-0.3,0-0.4c0-0.1-0.1-0.2-0.2-0.3
		c0.3,0.2,0.6,0.3,0.9,0.5c0.3,0.2,0.6,0.3,0.9,0.5c-0.3-0.1-0.6-0.1-0.9,0c-0.3,0-0.6,0.1-0.9,0.2c-0.3,0.1-0.5,0.3-0.7,0.5
		c-0.2,0.2-0.4,0.4-0.5,0.7c-0.1,0.2-0.2,0.4-0.2,0.7c-0.1,0.2-0.1,0.5,0,0.7c0,0.2,0.1,0.4,0.2,0.6c0.1,0.2,0.3,0.3,0.5,0.5
		c0.3,0.1,0.5,0.2,0.8,0.2c0.3,0,0.5-0.1,0.8-0.2s0.5-0.3,0.8-0.5c0.3-0.2,0.5-0.4,0.8-0.6c0.3-0.2,0.6-0.4,0.8-0.6
		c0.3-0.2,0.6-0.3,0.9-0.4c0.3-0.1,0.6-0.2,0.9-0.2c0.3,0,0.6,0.1,1,0.3c0.3,0.2,0.6,0.4,0.7,0.7c0.2,0.3,0.3,0.6,0.3,0.9
		c0,0.3,0,0.6-0.1,1c-0.1,0.3-0.2,0.6-0.3,0.9c-0.1,0.2-0.2,0.3-0.3,0.5c-0.1,0.1-0.3,0.3-0.4,0.4c-0.1,0.1-0.3,0.3-0.4,0.4
		c-0.1,0.1-0.2,0.3-0.3,0.5c-0.1,0.1-0.1,0.2-0.1,0.4c0,0.1,0,0.2,0.1,0.3L15.5,52.9z"/>
	<path class="st0" d="M21.7,44.7L16.3,41c-0.2-0.1-0.4-0.2-0.6-0.2c-0.2,0-0.4,0-0.6,0.2l1.1-1.6c-0.1,0.2-0.1,0.4,0,0.6
		c0.1,0.2,0.2,0.3,0.4,0.4l2.6,1.8l2.5-3.5l-2.6-1.8c-0.2-0.1-0.4-0.2-0.6-0.2c-0.2,0-0.4,0-0.6,0.2l1.1-1.6c-0.1,0.2-0.1,0.4,0,0.6
		s0.2,0.3,0.4,0.4l5.4,3.7c0.2,0.1,0.4,0.2,0.6,0.2c0.2,0,0.4,0,0.6-0.2l-1.1,1.6c0.1-0.2,0.1-0.4-0.1-0.6c-0.1-0.2-0.3-0.3-0.4-0.4
		l-2.7-1.9l-2.5,3.5l2.7,1.9c0.2,0.1,0.4,0.2,0.6,0.2c0.2,0,0.4,0,0.6-0.2l-1.1,1.6c0.1-0.2,0.1-0.4,0-0.6
		C22.1,45,21.9,44.9,21.7,44.7z"/>
	<path class="st0" d="M23.3,30.2c-0.1,0.2-0.1,0.4,0,0.6c0.1,0.2,0.2,0.3,0.4,0.5l5,4.3c0.2,0.1,0.3,0.2,0.5,0.3s0.4,0,0.6-0.1
		l-1.3,1.5c0.1-0.2,0.1-0.4,0-0.6c-0.1-0.2-0.2-0.3-0.4-0.5l-5-4.3c-0.2-0.1-0.3-0.2-0.5-0.3c-0.2-0.1-0.4,0-0.6,0.1L23.3,30.2z"/>
	<path class="st0" d="M30,23.3c0.4-0.4,0.9-0.7,1.5-0.9s1.1-0.3,1.6-0.3c0.6,0,1.1,0.1,1.6,0.4c0.5,0.2,1,0.6,1.4,1
		c0.4,0.4,0.7,0.9,0.9,1.5c0.2,0.5,0.3,1.1,0.3,1.6c0,0.6-0.1,1.1-0.4,1.6c-0.2,0.5-0.6,1-1,1.4s-0.9,0.7-1.5,0.9
		c-0.5,0.2-1.1,0.3-1.6,0.3c-0.6,0-1.1-0.1-1.6-0.4c-0.5-0.2-1-0.6-1.4-1s-0.7-0.9-0.9-1.5s-0.3-1.1-0.3-1.6c0-0.6,0.1-1.1,0.4-1.6
		C29.2,24.1,29.5,23.7,30,23.3z M35.9,29.3c0.4-0.3,0.6-0.7,0.7-1.2c0.1-0.4,0.1-0.9,0.1-1.4c-0.1-0.5-0.2-0.9-0.4-1.4
		c-0.2-0.4-0.5-0.8-0.8-1.2c-0.3-0.4-0.7-0.7-1.2-1c-0.5-0.3-1-0.5-1.5-0.6c-0.5-0.1-1-0.1-1.5,0c-0.5,0.1-1,0.3-1.4,0.7
		c-0.4,0.3-0.6,0.7-0.7,1.2C29,25.1,29,25.6,29.1,26c0.1,0.5,0.2,0.9,0.4,1.4c0.2,0.4,0.5,0.8,0.8,1.2c0.3,0.4,0.7,0.7,1.2,0.9
		c0.5,0.3,1,0.5,1.5,0.6c0.5,0.1,1,0.1,1.5,0C35,29.9,35.5,29.7,35.9,29.3z"/>
	<path class="st0" d="M41.8,24.4c0.2-0.2,0.3-0.4,0.3-0.7c0-0.2,0-0.5-0.2-0.7l-3.6-5.3c-0.2-0.2-0.4-0.4-0.6-0.5s-0.5-0.1-0.7,0
		l1.3-0.9l7.9,2.9l-3.3-4.8c-0.2-0.2-0.3-0.4-0.6-0.4c-0.2-0.1-0.5-0.1-0.7,0l1.5-1c-0.2,0.2-0.3,0.4-0.3,0.7c0,0.2,0,0.5,0.2,0.7
		l4.2,6.2l-9.1-3.3L42,23c0.2,0.2,0.4,0.4,0.6,0.4c0.2,0.1,0.5,0,0.7,0L41.8,24.4z"/>
	<path class="st0" d="M55,7.1c-0.2,0.2-0.3,0.3-0.3,0.5c0,0.2,0,0.4,0.1,0.6l2.9,6.9l2-0.8c0.5-0.2,0.8-0.5,1-0.8
		c0.2-0.4,0.3-0.8,0.4-1.2l0.3,1.5l-4.9,2.1c0.2-0.2,0.3-0.3,0.3-0.5c0-0.2,0-0.4-0.1-0.6L54,8.5C54,8.3,53.8,8.2,53.7,8
		c-0.1-0.1-0.3-0.2-0.6-0.2L55,7.1z"/>
	<path class="st0" d="M64.5,12.5c0.2-0.1,0.3-0.3,0.4-0.5c0.1-0.2,0.2-0.4,0.2-0.6l0.8-8.2l4.9,6.6c0.1,0.2,0.3,0.3,0.5,0.5
		c0.2,0.1,0.4,0.2,0.6,0.2l-2.1,0.6c0.1-0.1,0.2-0.2,0.3-0.4c0.1-0.2,0.1-0.3,0-0.4c0-0.1-0.1-0.2-0.3-0.4c-0.1-0.2-0.3-0.4-0.5-0.7
		c-0.2-0.2-0.4-0.5-0.5-0.7S68.5,8,68.4,8l-2.9,0.8L65.4,11c0,0.1,0,0.2,0,0.3c0,0.1,0,0.2,0,0.3c0.1,0.2,0.2,0.3,0.3,0.4
		c0.2,0.1,0.3,0.1,0.5,0.1L64.5,12.5z M68.3,7.8l-2.4-3.3l-0.4,4.1L68.3,7.8z"/>
	<path class="st0" d="M75.1,9.9c0.2-0.1,0.4-0.3,0.4-0.5c0-0.2,0.1-0.4,0-0.6l-0.9-6.5c0-0.2-0.1-0.4-0.2-0.6
		c-0.1-0.2-0.3-0.3-0.5-0.3L76.6,1c0.3,0,0.6-0.1,1,0c0.3,0,0.6,0.1,0.9,0.2c0.3,0.1,0.5,0.3,0.7,0.5s0.3,0.5,0.4,0.9
		c0.1,0.5,0,0.9-0.3,1.3c-0.2,0.4-0.6,0.6-1,0.8c0.3,0,0.7,0,1,0.1c0.3,0.1,0.6,0.2,0.8,0.3c0.2,0.2,0.4,0.4,0.6,0.6
		C80.8,6,80.9,6.3,81,6.7c0.1,0.4,0,0.8-0.1,1.1c-0.1,0.3-0.3,0.6-0.6,0.8c-0.2,0.2-0.5,0.4-0.9,0.5c-0.3,0.1-0.7,0.2-1,0.3
		L75.1,9.9z M77.1,4.9c0.6-0.1,1-0.3,1.3-0.7c0.3-0.4,0.4-0.8,0.3-1.4c-0.1-0.6-0.3-1-0.7-1.3s-0.9-0.4-1.4-0.3l-1.3,0.2l0.5,3.7
		L77.1,4.9z M76.5,9.5l1.8-0.3c0.7-0.1,1.2-0.4,1.5-0.8c0.3-0.4,0.4-1,0.3-1.7c-0.1-0.7-0.4-1.2-0.8-1.5c-0.4-0.3-1-0.4-1.7-0.3
		l-1.7,0.2L76.5,9.5z"/>
	<path class="st0" d="M89.4,0c0.6,0,1.2,0.1,1.7,0.3c0.5,0.2,1,0.5,1.4,0.9c0.4,0.4,0.7,0.8,0.9,1.4c0.2,0.5,0.3,1.1,0.3,1.7
		c0,0.6-0.1,1.2-0.3,1.7s-0.5,1-0.9,1.4c-0.4,0.4-0.8,0.7-1.4,0.9c-0.5,0.2-1.1,0.3-1.7,0.3c-0.6,0-1.2-0.1-1.7-0.3s-1-0.5-1.4-0.9
		C86,7,85.7,6.5,85.4,6c-0.2-0.5-0.3-1.1-0.3-1.7c0-0.6,0.1-1.2,0.3-1.7s0.5-1,0.9-1.4s0.8-0.7,1.4-0.9C88.2,0.1,88.8,0,89.4,0z
		 M89.7,8.5c0.5,0,1-0.1,1.4-0.4c0.4-0.2,0.7-0.6,1-1s0.5-0.8,0.6-1.3c0.1-0.5,0.2-0.9,0.2-1.4c0-0.5-0.1-1-0.3-1.5
		c-0.2-0.5-0.4-1-0.7-1.4c-0.3-0.4-0.7-0.8-1.1-1c-0.4-0.3-0.9-0.4-1.5-0.4c-0.5,0-1,0.1-1.3,0.4c-0.4,0.2-0.7,0.6-1,1
		c-0.3,0.4-0.5,0.8-0.6,1.3C86.1,3.2,86,3.7,86,4.1c0,0.5,0.1,1,0.3,1.5c0.2,0.5,0.4,1,0.7,1.4c0.3,0.4,0.7,0.8,1.1,1
		C88.6,8.4,89.1,8.5,89.7,8.5z"/>
	<path class="st0" d="M97.3,8.9c0.2,0,0.4-0.1,0.5-0.3C97.9,8.4,98,8.2,98,8l0.9-6.5c0-0.2,0-0.4,0-0.6c-0.1-0.2-0.2-0.3-0.4-0.4
		l2.9,0.4c0.4,0.1,0.8,0.2,1.2,0.3c0.4,0.1,0.7,0.3,1,0.6c0.3,0.2,0.5,0.5,0.6,0.9s0.2,0.8,0.1,1.2c0,0.3-0.1,0.6-0.3,0.9
		c-0.2,0.3-0.3,0.5-0.6,0.7s-0.5,0.3-0.8,0.4C102.3,6,102,6,101.7,6.1L103,9c0.1,0.2,0.2,0.3,0.3,0.5s0.3,0.3,0.5,0.4l-1.4-0.2
		L100.8,6l-1.6-0.2l-0.3,2.4c0,0.2,0,0.4,0,0.6c0.1,0.2,0.2,0.3,0.4,0.4L97.3,8.9z M99.2,5.6l1.4,0.2c0.4,0.1,0.7,0,1,0
		c0.3-0.1,0.6-0.2,0.8-0.4c0.2-0.2,0.4-0.4,0.6-0.7c0.2-0.3,0.3-0.6,0.3-1c0.1-0.8,0-1.4-0.4-1.9c-0.4-0.5-0.9-0.8-1.7-0.9l-1.4-0.2
		L99.2,5.6z"/>
	<path class="st0" d="M107.5,10.6c0.2,0,0.4-0.1,0.6-0.2c0.2-0.1,0.4-0.3,0.5-0.4l4.9-6.6l0.7,8.2c0,0.2,0.1,0.4,0.1,0.6
		c0.1,0.2,0.2,0.4,0.4,0.5l-2.1-0.6c0.1,0,0.3-0.1,0.4-0.2c0.1-0.1,0.2-0.2,0.3-0.4c0-0.1,0-0.3,0-0.5c0-0.3,0-0.5-0.1-0.8
		c0-0.3-0.1-0.6-0.1-0.9c0-0.3-0.1-0.5-0.1-0.6l-2.9-0.8L109,9.6c-0.1,0.1-0.1,0.1-0.1,0.2c0,0.1-0.1,0.2-0.1,0.2
		c-0.1,0.2,0,0.4,0.1,0.5c0.1,0.2,0.2,0.3,0.4,0.4L107.5,10.6z M113.2,8.5l-0.3-4.1l-2.4,3.3L113.2,8.5z"/>
	<path class="st0" d="M122,6.2l5.7,2.5l-0.3,1.4c0-0.4-0.2-0.8-0.4-1.1c-0.2-0.3-0.5-0.6-0.9-0.8l-1-0.4l-3,6.8
		c-0.1,0.2-0.1,0.4-0.1,0.6c0,0.2,0.1,0.4,0.3,0.6l-1.8-0.8c0.2,0,0.4,0,0.6-0.2c0.1-0.1,0.3-0.3,0.4-0.5l3-6.8l-1-0.4
		c-0.4-0.2-0.8-0.2-1.2-0.2c-0.4,0.1-0.8,0.2-1.1,0.5L122,6.2z"/>
	<path class="st0" d="M136.1,13.3c0.5,0.3,0.9,0.7,1.3,1.2c0.3,0.5,0.6,1,0.7,1.5c0.1,0.5,0.1,1.1,0.1,1.7c-0.1,0.6-0.3,1.1-0.6,1.6
		c-0.3,0.5-0.7,0.9-1.2,1.3c-0.5,0.3-1,0.6-1.5,0.7s-1.1,0.1-1.7,0.1c-0.6-0.1-1.1-0.3-1.6-0.6c-0.5-0.3-0.9-0.7-1.3-1.2
		c-0.3-0.5-0.6-1-0.7-1.5c-0.1-0.5-0.1-1.1-0.1-1.7c0.1-0.6,0.3-1.1,0.6-1.6c0.3-0.5,0.7-0.9,1.2-1.3c0.5-0.3,1-0.6,1.5-0.7
		c0.5-0.1,1.1-0.1,1.7-0.1C135,12.8,135.6,13,136.1,13.3z M131.8,20.7c0.4,0.3,0.9,0.4,1.3,0.4s0.9-0.1,1.3-0.3
		c0.4-0.2,0.8-0.4,1.2-0.8c0.4-0.3,0.7-0.7,0.9-1.1c0.3-0.4,0.5-0.9,0.6-1.4c0.1-0.5,0.2-1.1,0.1-1.6c0-0.5-0.2-1-0.4-1.5
		c-0.2-0.5-0.6-0.8-1.1-1.1c-0.4-0.3-0.9-0.4-1.3-0.4c-0.5,0-0.9,0.1-1.3,0.3c-0.4,0.2-0.8,0.4-1.2,0.8c-0.4,0.3-0.7,0.7-0.9,1.1
		c-0.3,0.4-0.5,0.9-0.6,1.4c-0.1,0.5-0.2,1.1-0.1,1.6s0.2,1,0.4,1.5C131,20,131.3,20.4,131.8,20.7z"/>
	<path class="st0" d="M138.1,25.1c0.2,0.1,0.4,0.1,0.6,0c0.2-0.1,0.3-0.2,0.5-0.4l4.2-5c0.1-0.2,0.2-0.3,0.3-0.5
		c0.1-0.2,0-0.4-0.1-0.6l2.2,1.9c0.3,0.3,0.6,0.6,0.8,0.9c0.2,0.3,0.4,0.7,0.5,1c0.1,0.4,0.1,0.7,0.1,1.1s-0.3,0.7-0.6,1.1
		c-0.2,0.3-0.5,0.5-0.7,0.6c-0.3,0.1-0.5,0.2-0.8,0.3s-0.6,0-0.9,0c-0.3-0.1-0.6-0.2-0.9-0.3l-0.4,3.2c0,0.2,0,0.4,0,0.6
		c0,0.2,0.1,0.4,0.2,0.5l-1-0.9l0.5-4l-1.3-1.1l-1.5,1.8c-0.1,0.2-0.2,0.3-0.3,0.5c-0.1,0.2,0,0.4,0.1,0.6L138.1,25.1z M141.4,23.3
		l1.1,0.9c0.3,0.2,0.6,0.4,0.9,0.5c0.3,0.1,0.6,0.1,0.9,0.1s0.6-0.1,0.9-0.3c0.3-0.2,0.5-0.4,0.8-0.7c0.5-0.6,0.7-1.2,0.7-1.8
		c-0.1-0.6-0.4-1.2-1-1.7l-1.1-0.9L141.4,23.3z"/>
	<path class="st0" d="M153.2,27.3c-0.2-0.1-0.4-0.1-0.6-0.1c-0.2,0.1-0.4,0.2-0.5,0.3l-4.7,4.6c-0.2,0.2-0.3,0.3-0.4,0.5
		c-0.1,0.2-0.1,0.4,0,0.6l-1.4-1.4c0.2,0.1,0.4,0.1,0.6,0.1c0.2-0.1,0.4-0.2,0.5-0.3l4.7-4.6c0.2-0.2,0.3-0.3,0.3-0.5
		c0.1-0.2,0.1-0.4-0.1-0.6L153.2,27.3z"/>
	<path class="st0" d="M149.5,35.8c0.2,0.1,0.4,0.2,0.6,0.2c0.3,0,0.5,0,0.7-0.1l7.9-2.5l-4.2,7.1c-0.1,0.2-0.2,0.4-0.3,0.6
		c-0.1,0.2-0.1,0.4,0,0.6l-1.3-1.7c0.1,0.1,0.3,0.1,0.4,0.1c0.2,0,0.3-0.1,0.4-0.2c0.1-0.1,0.2-0.2,0.3-0.4c0.1-0.2,0.3-0.5,0.4-0.7
		c0.2-0.3,0.3-0.5,0.4-0.8s0.2-0.4,0.3-0.5l-1.9-2.3l-2.1,0.7c-0.1,0-0.2,0.1-0.2,0.1c-0.1,0-0.2,0.1-0.2,0.1
		c-0.2,0.1-0.3,0.3-0.3,0.5c0,0.2,0,0.4,0.1,0.6L149.5,35.8z M155.3,37.5l2.1-3.5l-3.9,1.2L155.3,37.5z"/>
	<path class="st0" d="M164.3,47.4c0.2-0.1,0.5-0.2,0.9-0.3c0.4-0.1,0.7-0.1,1.1,0s0.7,0.2,1.1,0.4c0.3,0.2,0.6,0.6,0.8,1
		c0.2,0.4,0.3,0.8,0.3,1.2c0,0.4-0.2,0.8-0.4,1.2c-0.2,0.4-0.5,0.7-0.8,1s-0.7,0.6-1.1,0.8c-0.6,0.3-1.2,0.5-1.8,0.5
		c-0.6,0-1.2,0-1.7-0.2c-0.5-0.2-1.1-0.4-1.5-0.8c-0.5-0.3-0.9-0.7-1.2-1.2L160,51c0.3,0.5,0.7,0.8,1.1,1.1c0.4,0.2,0.9,0.4,1.3,0.5
		c0.5,0.1,0.9,0.1,1.4,0c0.5-0.1,0.9-0.2,1.3-0.4c-0.2,0-0.4,0-0.5-0.1c-0.2-0.1-0.4-0.1-0.5-0.2s-0.3-0.2-0.5-0.4
		c-0.1-0.1-0.3-0.3-0.4-0.5c-0.2-0.4-0.3-0.7-0.3-1.1c0-0.4,0-0.7,0.1-1c0.1-0.3,0.3-0.6,0.5-0.8C163.7,47.8,163.9,47.6,164.3,47.4z
		 M165,48.1c-0.3,0.1-0.6,0.3-0.8,0.5c-0.3,0.2-0.5,0.4-0.6,0.7c-0.2,0.2-0.3,0.5-0.3,0.7c0,0.3,0,0.5,0.1,0.8
		c0.1,0.2,0.2,0.4,0.4,0.5c0.2,0.2,0.4,0.3,0.7,0.4c0.2,0.1,0.5,0.1,0.8,0.1s0.6-0.1,0.9-0.2c0.3-0.2,0.6-0.3,0.9-0.6
		c0.3-0.2,0.5-0.5,0.8-0.8c0.2-0.3,0.3-0.6,0.4-0.9c0.1-0.3,0-0.6-0.1-0.9c-0.2-0.4-0.4-0.6-0.7-0.8s-0.6-0.2-0.8-0.2
		c-0.3,0-0.6,0.1-0.8,0.2C165.4,47.9,165.2,48,165,48.1z"/>
	<path class="st0" d="M163,57.7c0.1,0.1,0.2,0.2,0.4,0.3c0.2,0.1,0.4,0.2,0.7,0.3c0.3,0.1,0.5,0.2,0.8,0.3s0.6,0.2,0.8,0.3
		c0.3,0.1,0.5,0.2,0.7,0.3c0.2,0.1,0.4,0.1,0.5,0.2c0.5,0.2,0.9,0.3,1.3,0.3c0.4,0.1,0.7,0.1,1,0.1c0.3,0,0.6,0,0.8-0.1
		c0.2,0,0.4-0.1,0.6-0.2c0.5-0.2,0.8-0.4,1-0.8c0.2-0.4,0.1-0.8,0-1.3c-0.1-0.2-0.2-0.3-0.3-0.5c-0.1-0.2-0.3-0.3-0.5-0.4
		c-0.2-0.1-0.4-0.2-0.6-0.3s-0.5-0.2-0.8-0.2V56c0.3,0,0.6,0.1,0.9,0.2c0.3,0.1,0.6,0.2,0.8,0.4c0.3,0.2,0.5,0.3,0.7,0.6
		c0.2,0.2,0.3,0.5,0.4,0.7c0.2,0.6,0.2,1.1,0,1.6c-0.2,0.5-0.6,0.8-1.2,1c-0.3,0.1-0.6,0.2-1,0.1c-0.4,0-0.8-0.1-1.2-0.2
		c-0.4-0.1-0.8-0.2-1.3-0.4c-0.4-0.2-0.9-0.3-1.3-0.5c-0.4-0.2-0.8-0.3-1.2-0.5c-0.4-0.2-0.7-0.3-1-0.4L165,61
		c0.1,0.2,0.2,0.4,0.3,0.6c0.1,0.2,0.2,0.3,0.3,0.4s0.2,0.2,0.3,0.2c0.1,0.1,0.2,0.1,0.3,0.1l-1.4,0.2L163,57.7z"/>
	<path class="st0" d="M171,67.4c0.1-0.2,0.2-0.4,0.3-0.6c0.1-0.2,0.2-0.4,0.4-0.6c0.1-0.2,0.3-0.3,0.5-0.4c0.2-0.1,0.4-0.2,0.6-0.3
		c0.3-0.1,0.5-0.1,0.8,0s0.5,0.2,0.7,0.3c0.2,0.2,0.4,0.4,0.5,0.6c0.1,0.2,0.2,0.5,0.3,0.7c0.1,0.2,0.1,0.4,0.1,0.7
		c0,0.3-0.1,0.5-0.1,0.7c-0.1,0.2-0.2,0.4-0.4,0.6c-0.2,0.2-0.4,0.3-0.7,0.4c-0.4,0.1-0.8,0-1.2-0.2c-0.4-0.2-0.7-0.6-1.1-1
		c-0.1,0.3-0.2,0.6-0.3,0.8c-0.1,0.3-0.3,0.6-0.4,0.8c-0.2,0.3-0.4,0.5-0.6,0.7c-0.2,0.2-0.5,0.3-0.8,0.4c-0.3,0.1-0.6,0.1-0.8,0
		c-0.3-0.1-0.6-0.2-0.8-0.3c-0.3-0.2-0.5-0.4-0.7-0.7c-0.2-0.3-0.4-0.6-0.4-1c-0.1-0.3-0.1-0.7-0.1-1c0-0.3,0.1-0.6,0.2-0.9
		c0.1-0.3,0.3-0.5,0.6-0.8c0.2-0.2,0.5-0.4,0.9-0.4c0.3-0.1,0.5-0.1,0.8,0c0.3,0,0.5,0.1,0.7,0.3s0.5,0.3,0.7,0.5
		C170.6,67,170.8,67.2,171,67.4z M166.8,69.1c0.1,0.2,0.2,0.5,0.3,0.7c0.1,0.2,0.3,0.4,0.5,0.5c0.2,0.1,0.4,0.2,0.6,0.3
		c0.2,0.1,0.5,0.1,0.7,0c0.3-0.1,0.6-0.2,0.8-0.4c0.2-0.2,0.4-0.4,0.5-0.7c0.1-0.3,0.3-0.6,0.4-0.9c0.1-0.3,0.2-0.6,0.4-0.9
		c-0.2-0.2-0.5-0.4-0.7-0.6c-0.2-0.1-0.4-0.3-0.6-0.3c-0.2-0.1-0.4-0.1-0.6-0.1s-0.4,0-0.7,0.1c-0.3,0.1-0.5,0.2-0.7,0.3
		c-0.2,0.2-0.4,0.3-0.5,0.6c-0.1,0.2-0.2,0.5-0.3,0.7C166.7,68.6,166.7,68.8,166.8,69.1z M173.2,66.1c-0.2,0.1-0.4,0.1-0.6,0.3
		c-0.2,0.1-0.3,0.3-0.4,0.5s-0.2,0.4-0.3,0.6c-0.1,0.2-0.2,0.5-0.2,0.7c0.2,0.1,0.3,0.3,0.5,0.4c0.2,0.1,0.3,0.2,0.5,0.3
		c0.2,0.1,0.4,0.1,0.6,0.2c0.2,0,0.4,0,0.7,0c0.4-0.1,0.7-0.3,0.9-0.6c0.2-0.3,0.2-0.7,0.1-1.1c-0.1-0.2-0.1-0.4-0.3-0.6
		c-0.1-0.2-0.3-0.3-0.4-0.4c-0.2-0.1-0.3-0.2-0.5-0.2C173.5,66.1,173.4,66.1,173.2,66.1z"/>
</g>
<path class="st0" d="M7.9,91L7.9,91L7.9,91c-1.7,0.8-3.1,2.2-3.9,3.9l0,0l0,0C3.1,93.2,1.7,91.8,0,91l0,0l0,0
	c1.7-0.8,3.1-2.2,3.9-3.9l0,0l0,0C4.7,88.8,6.1,90.2,7.9,91z"/>
<path class="st0" d="M178.7,91.7L178.7,91.7L178.7,91.7c-1.7,0.8-3.1,2.2-3.9,3.9l0,0l0,0c-0.8-1.7-2.2-3.1-3.9-3.9l0,0l0,0
	c1.7-0.8,3.1-2.2,3.9-3.9l0,0l0,0C175.5,89.6,176.9,91,178.7,91.7z"/>
</svg>
