<?xml version="1.0" encoding="utf-8"?>
<!-- Generator: Adobe Illustrator 22.0.1, SVG Export Plug-In . SVG Version: 6.00 Build 0)  -->
<svg version="1.1" id="fl928_logo" xmlns="http://www.w3.org/2000/svg" xmlns:xlink="http://www.w3.org/1999/xlink" x="0px" y="0px"
	 viewBox="0 0 107.191 136.747" style="enable-background:new 0 0 107.191 136.747;" xml:space="preserve">
<g>
	<path d="M10.624,118.57V36.444c0-3.981-0.711-7.587-2.107-10.831S4.278,20.081,0,18.75h96.42l5.971,26.315
		c-8.401-15.768-21.3-23.653-38.697-23.653H25.656v53.971h26.095c4.718,0,8.996-0.995,12.822-2.986
		c3.839-1.99,6.566-5.338,8.182-10.056v28.525c-1.473-4.718-4.201-8.039-8.182-9.952c-3.981-1.913-8.246-2.869-12.822-2.869H25.656
		v40.744c0,3.839,0.775,7.445,2.326,10.831c1.551,3.399,4.304,5.752,8.285,7.083H0c4.278-1.331,7.122-3.684,8.518-7.083
		C9.913,126.234,10.624,122.551,10.624,118.57z"/>
</g>
<g>
	<path d="M62.343,68.815V20.579H49.065v50.64h2.687C55.653,71.219,59.201,70.387,62.343,68.815z"/>
	<path d="M59.581,5.278c-2.044-4.319-3.781-5.222-3.877-5.26V0.014l-0.003,0.001l-0.004-0.001v0.004
		c-0.097,0.038-1.625,0.942-3.669,5.26C48.594,0.87,40.299,0,40.299,0c3.79,1.166,5.674,3.188,6.899,6.047
		c1.108,2.563,1.544,5.466,1.663,8.539h6.836h0.006h6.836c0.119-3.072,0.555-5.976,1.663-8.539C65.428,3.188,66.895,1.166,70.686,0
		C70.686,0,63.016,0.87,59.581,5.278z"/>
	<path d="M93.622,128.543c-5.288,4.044-11.821,6.047-19.635,6.047H62.343V79.731c-3.318-1.522-6.78-2.31-10.591-2.31h-2.687v43.308
		c0,3.518-0.623,6.765-1.867,9.759c-1.225,3.014-3.733,5.094-7.523,6.26h62.054l5.462-24.029
		C103.42,119.232,98.89,124.5,93.622,128.543z"/>
</g>
</svg>
