<?xml version="1.0" encoding="utf-8"?>
<!-- Generator: Adobe Illustrator 22.0.1, SVG Export Plug-In . SVG Version: 6.00 Build 0)  -->
<svg version="1.1" id="fl928_logo" xmlns="http://www.w3.org/2000/svg" xmlns:xlink="http://www.w3.org/1999/xlink" x="0px" y="0px"
	 viewBox="0 0 178.658 180.73" style="enable-background:new 0 0 178.658 180.73;" xml:space="preserve">
<g>
	<path d="M69.06,109.193V69.015c0-1.948-0.348-3.712-1.031-5.299s-2.074-2.706-4.167-3.358h47.171l2.921,12.874
		c-4.11-7.714-10.421-11.571-18.932-11.571H76.414v26.404h12.767c2.308,0,4.401-0.487,6.273-1.461
		c1.878-0.974,3.212-2.611,4.003-4.919V95.64c-0.721-2.308-2.055-3.933-4.003-4.869c-1.948-0.936-4.034-1.404-6.273-1.404H76.414
		V109.3c0,1.878,0.379,3.642,1.138,5.299c0.759,1.663,2.106,2.814,4.053,3.465H63.863c2.093-0.651,3.484-1.802,4.167-3.465
		C68.713,112.942,69.06,111.14,69.06,109.193z"/>
</g>
<g>
	<path d="M94.363,84.852V61.253h-6.496v24.775h1.315C91.09,86.028,92.825,85.62,94.363,84.852z"/>
	<path d="M93.011,53.768c-1-2.113-1.85-2.555-1.897-2.574v-0.002l-0.001,0.001l-0.002-0.001v0.002
		c-0.047,0.019-0.795,0.461-1.795,2.574c-1.68-2.156-5.738-2.582-5.738-2.582c1.854,0.571,2.776,1.56,3.375,2.958
		c0.542,1.254,0.755,2.674,0.814,4.177h3.344h0.003h3.344c0.058-1.503,0.272-2.924,0.814-4.177c0.599-1.399,1.317-2.388,3.171-2.958
		C98.444,51.185,94.692,51.611,93.011,53.768z"/>
	<path d="M109.665,114.072c-2.587,1.979-5.783,2.958-9.606,2.958h-5.697V90.192c-1.623-0.745-3.317-1.13-5.181-1.13h-1.315v21.187
		c0,1.721-0.305,3.31-0.913,4.774c-0.599,1.475-1.826,2.492-3.681,3.063h30.359l2.672-11.756
		C114.459,109.517,112.242,112.094,109.665,114.072z"/>
</g>
<g>
	<path d="M2.517,113.863l6.308-1.857c0.211-0.062,0.392-0.155,0.542-0.28c0.15-0.124,0.228-0.309,0.232-0.553l1.488,5.055
		l-1.303,0.723c0.707-0.686,0.926-1.486,0.657-2.397l-0.587-1.994l-3.822,1.126l0.403,1.368c0.072,0.247,0.191,0.455,0.355,0.625
		c0.165,0.17,0.385,0.26,0.66,0.272l-1.513,0.446c0.228-0.151,0.361-0.347,0.401-0.585c0.041-0.239,0.025-0.478-0.045-0.718
		l-0.403-1.367l-3.154,0.929c-0.203,0.06-0.383,0.158-0.539,0.292c-0.156,0.134-0.238,0.316-0.247,0.545l-0.56-1.901
		c0.136,0.203,0.305,0.315,0.507,0.336C2.1,113.946,2.306,113.925,2.517,113.863z"/>
	<path d="M3.749,121.257c0.13,0.146,0.313,0.263,0.551,0.349c0.238,0.086,0.453,0.129,0.646,0.128l8.268-0.216l-6.049,5.587
		c-0.154,0.141-0.293,0.308-0.416,0.501c-0.123,0.194-0.176,0.401-0.156,0.619l-0.804-1.968c0.097,0.107,0.227,0.179,0.391,0.212
		c0.163,0.033,0.313,0.022,0.448-0.033c0.083-0.034,0.222-0.135,0.419-0.301c0.195-0.167,0.402-0.354,0.622-0.561
		c0.219-0.207,0.429-0.405,0.628-0.595c0.199-0.19,0.342-0.33,0.43-0.417l-1.118-2.741L5.4,121.875
		c-0.088,0.001-0.175,0.007-0.262,0.021c-0.087,0.014-0.172,0.038-0.255,0.071c-0.196,0.08-0.326,0.205-0.389,0.374
		c-0.063,0.169-0.089,0.352-0.08,0.548L3.749,121.257z M8.824,124.445l2.996-2.75l-4.073,0.109L8.824,124.445z"/>
	<path d="M10.83,131.099c-0.219,0.242-0.413,0.513-0.582,0.812c-0.169,0.298-0.294,0.607-0.375,0.931
		c-0.081,0.321-0.108,0.648-0.081,0.979c0.026,0.332,0.125,0.649,0.295,0.951c0.126,0.224,0.278,0.438,0.456,0.638
		c0.177,0.2,0.374,0.362,0.588,0.487c0.215,0.124,0.448,0.194,0.7,0.21c0.251,0.016,0.509-0.051,0.772-0.198
		c0.326-0.184,0.54-0.439,0.641-0.768c0.102-0.329,0.149-0.7,0.146-1.114c-0.003-0.413-0.026-0.846-0.069-1.298
		c-0.043-0.451-0.05-0.893-0.021-1.324c0.028-0.433,0.123-0.829,0.285-1.191c0.16-0.364,0.45-0.662,0.869-0.896
		c0.32-0.181,0.633-0.276,0.938-0.291s0.595,0.036,0.869,0.15c0.273,0.113,0.526,0.281,0.758,0.503s0.428,0.475,0.59,0.765
		c0.114,0.202,0.193,0.415,0.237,0.634c0.044,0.221,0.077,0.43,0.101,0.63c0.023,0.199,0.038,0.377,0.048,0.534
		c0.009,0.158,0.032,0.271,0.071,0.34c0.071,0.127,0.174,0.207,0.308,0.237c0.134,0.031,0.269,0.032,0.401,0.003
		c-0.303,0.161-0.602,0.314-0.897,0.461c-0.296,0.148-0.595,0.302-0.896,0.463c0.216-0.214,0.389-0.457,0.518-0.727
		c0.128-0.271,0.216-0.551,0.264-0.841s0.046-0.583-0.003-0.879c-0.048-0.294-0.146-0.573-0.291-0.833
		c-0.115-0.204-0.254-0.391-0.42-0.562c-0.166-0.169-0.35-0.302-0.553-0.397c-0.201-0.093-0.416-0.142-0.642-0.145
		c-0.226-0.002-0.456,0.063-0.69,0.193c-0.249,0.14-0.431,0.323-0.547,0.549c-0.115,0.227-0.195,0.481-0.237,0.763
		c-0.043,0.283-0.056,0.587-0.043,0.911c0.015,0.325,0.03,0.657,0.048,0.998c0.019,0.341,0.025,0.679,0.021,1.014
		c-0.004,0.335-0.043,0.652-0.117,0.953s-0.197,0.58-0.371,0.837c-0.172,0.259-0.418,0.478-0.738,0.657
		c-0.319,0.18-0.64,0.262-0.961,0.249c-0.321-0.014-0.623-0.093-0.905-0.241c-0.283-0.145-0.542-0.339-0.775-0.583
		c-0.234-0.243-0.428-0.501-0.582-0.775c-0.099-0.175-0.172-0.361-0.22-0.555c-0.049-0.194-0.089-0.392-0.121-0.59
		c-0.033-0.199-0.07-0.391-0.112-0.574c-0.042-0.184-0.109-0.357-0.199-0.518c-0.063-0.113-0.148-0.199-0.257-0.259
		c-0.108-0.059-0.224-0.091-0.348-0.096L10.83,131.099z"/>
	<path d="M15.024,141.065l5.312-3.918c0.177-0.131,0.313-0.28,0.413-0.448c0.099-0.168,0.108-0.368,0.028-0.599l1.177,1.593
		c-0.197-0.144-0.392-0.193-0.581-0.148c-0.189,0.044-0.373,0.132-0.55,0.264l-2.518,1.857l2.532,3.431l2.518-1.858
		c0.177-0.129,0.314-0.279,0.413-0.448c0.1-0.168,0.108-0.368,0.029-0.598l1.177,1.594c-0.198-0.145-0.392-0.194-0.581-0.149
		c-0.19,0.044-0.373,0.132-0.551,0.263l-5.29,3.904c-0.177,0.131-0.317,0.285-0.421,0.459c-0.103,0.176-0.117,0.377-0.042,0.602
		l-1.176-1.594c0.197,0.145,0.395,0.192,0.591,0.143c0.195-0.05,0.383-0.141,0.56-0.271l2.665-1.966l-2.532-3.433l-2.685,1.981
		c-0.171,0.126-0.304,0.278-0.401,0.455s-0.111,0.374-0.041,0.593l-1.177-1.595c0.197,0.144,0.39,0.195,0.576,0.153
		S14.841,141.202,15.024,141.065z"/>
	<path d="M28.499,145.764c-0.211-0.125-0.408-0.155-0.592-0.091c-0.186,0.063-0.358,0.168-0.522,0.315l-4.879,4.408
		c-0.163,0.147-0.288,0.313-0.373,0.499s-0.079,0.387,0.018,0.604l-1.328-1.471c0.212,0.125,0.411,0.151,0.602,0.083
		c0.191-0.069,0.368-0.177,0.531-0.324l4.88-4.408c0.163-0.147,0.285-0.309,0.367-0.486c0.082-0.177,0.071-0.376-0.031-0.599
		L28.499,145.764z"/>
	<path d="M34.547,151.613c0.44,0.389,0.781,0.84,1.022,1.352c0.241,0.512,0.378,1.042,0.408,1.592
		c0.031,0.549-0.045,1.093-0.227,1.634c-0.182,0.541-0.47,1.034-0.864,1.479c-0.394,0.447-0.847,0.793-1.361,1.041
		c-0.514,0.247-1.045,0.389-1.593,0.426c-0.55,0.037-1.093-0.033-1.631-0.208c-0.537-0.176-1.026-0.459-1.467-0.848
		c-0.441-0.389-0.781-0.84-1.023-1.353c-0.24-0.512-0.376-1.041-0.407-1.591c-0.03-0.548,0.045-1.093,0.227-1.634
		c0.183-0.541,0.47-1.033,0.864-1.479c0.393-0.447,0.847-0.792,1.361-1.04c0.514-0.247,1.045-0.389,1.594-0.427
		c0.549-0.036,1.092,0.033,1.629,0.209C33.617,150.941,34.106,151.224,34.547,151.613z M29.088,158.141
		c0.38,0.335,0.796,0.54,1.247,0.612c0.452,0.073,0.906,0.053,1.361-0.061c0.455-0.115,0.891-0.304,1.307-0.566
		c0.415-0.264,0.771-0.564,1.068-0.9c0.328-0.372,0.605-0.807,0.83-1.304s0.361-1.007,0.413-1.526
		c0.051-0.52,0.001-1.026-0.149-1.519c-0.151-0.492-0.433-0.919-0.843-1.283c-0.374-0.33-0.788-0.533-1.243-0.609
		c-0.455-0.074-0.909-0.056-1.365,0.059c-0.455,0.114-0.89,0.301-1.303,0.562c-0.412,0.26-0.767,0.558-1.063,0.894
		c-0.323,0.367-0.597,0.8-0.817,1.3c-0.223,0.5-0.358,1.014-0.408,1.539c-0.051,0.526-0.004,1.035,0.142,1.527
		C28.408,157.357,28.682,157.782,29.088,158.141z"/>
	<path d="M35.776,163.645c0.26,0.075,0.503,0.079,0.73,0.014c0.226-0.066,0.415-0.214,0.568-0.445l3.51-5.313
		c0.156-0.238,0.224-0.475,0.2-0.71c-0.022-0.234-0.118-0.46-0.283-0.678l1.271,0.839l0.253,8.428l3.207-4.854
		c0.152-0.231,0.214-0.464,0.186-0.698c-0.029-0.234-0.129-0.456-0.299-0.665l1.512,0.999c-0.26-0.075-0.499-0.077-0.72-0.007
		c-0.219,0.07-0.405,0.22-0.559,0.451l-4.123,6.241l-0.288-9.667l-3.766,5.7c-0.157,0.238-0.217,0.474-0.179,0.709
		c0.037,0.234,0.141,0.458,0.313,0.668L35.776,163.645z"/>
	<path d="M56.752,165.589c-0.244-0.022-0.435,0.035-0.575,0.171c-0.139,0.136-0.251,0.306-0.335,0.509l-2.853,6.875l2.008,0.833
		c0.447,0.185,0.869,0.224,1.268,0.116c0.397-0.108,0.782-0.306,1.154-0.593l-0.888,1.26l-4.888-2.028
		c0.244,0.022,0.438-0.04,0.579-0.183c0.143-0.144,0.256-0.317,0.341-0.52l2.52-6.074c0.084-0.204,0.125-0.402,0.124-0.598
		c-0.003-0.195-0.098-0.371-0.284-0.529L56.752,165.589z"/>
	<path d="M60.501,176.2c0.195-0.012,0.4-0.084,0.615-0.219c0.214-0.133,0.38-0.276,0.499-0.43l4.934-6.636l0.661,8.208
		c0.017,0.208,0.063,0.42,0.14,0.637c0.075,0.215,0.206,0.384,0.39,0.504l-2.045-0.583c0.145-0.009,0.28-0.067,0.408-0.176
		c0.127-0.107,0.211-0.231,0.25-0.372c0.025-0.087,0.032-0.258,0.022-0.515c-0.011-0.257-0.03-0.537-0.058-0.836
		c-0.027-0.3-0.055-0.587-0.081-0.863c-0.026-0.274-0.047-0.473-0.062-0.596l-2.847-0.812l-1.322,1.771
		c-0.054,0.069-0.102,0.143-0.144,0.22c-0.043,0.076-0.076,0.158-0.102,0.244c-0.059,0.205-0.04,0.383,0.055,0.537
		c0.094,0.154,0.221,0.288,0.382,0.402L60.501,176.2z M66.141,174.174l-0.313-4.055l-2.429,3.273L66.141,174.174z"/>
	<path d="M71.857,179.128c0.241-0.029,0.414-0.134,0.521-0.315c0.105-0.182,0.174-0.377,0.207-0.586l1.011-6.498
		c0.033-0.209,0.025-0.413-0.021-0.609c-0.047-0.197-0.181-0.345-0.401-0.446l2.71,0.42c0.318,0.051,0.627,0.136,0.927,0.256
		c0.299,0.121,0.56,0.281,0.781,0.48c0.222,0.2,0.388,0.44,0.499,0.721c0.11,0.281,0.138,0.607,0.079,0.977
		c-0.072,0.475-0.275,0.852-0.609,1.13c-0.332,0.277-0.727,0.439-1.182,0.484c0.322,0.083,0.615,0.201,0.881,0.353
		c0.266,0.153,0.491,0.338,0.678,0.558c0.186,0.219,0.319,0.473,0.4,0.761c0.082,0.289,0.095,0.61,0.04,0.964
		c-0.063,0.411-0.202,0.748-0.414,1.011c-0.213,0.265-0.467,0.468-0.762,0.611c-0.296,0.145-0.621,0.234-0.978,0.27
		s-0.713,0.025-1.07-0.031L71.857,179.128z M73.253,179.197l1.768,0.275c0.668,0.104,1.215-0.009,1.642-0.338
		s0.691-0.829,0.796-1.497c0.105-0.684-0.007-1.242-0.34-1.673c-0.332-0.43-0.832-0.698-1.502-0.803l-1.694-0.263L73.253,179.197z
		 M75.162,174.942c0.581,0.091,1.063,0.007,1.445-0.25c0.383-0.259,0.621-0.689,0.715-1.294c0.09-0.58,0.001-1.065-0.269-1.457
		c-0.27-0.392-0.694-0.634-1.275-0.724l-1.253-0.195l-0.581,3.731L75.162,174.942z"/>
	<path d="M87.225,172.103c0.588,0.014,1.139,0.141,1.652,0.377c0.515,0.238,0.959,0.557,1.336,0.957
		c0.377,0.402,0.668,0.868,0.877,1.397c0.209,0.531,0.305,1.094,0.289,1.689c-0.014,0.594-0.139,1.151-0.374,1.671
		s-0.55,0.971-0.946,1.352c-0.396,0.381-0.857,0.677-1.383,0.888c-0.524,0.21-1.081,0.309-1.669,0.293
		c-0.588-0.014-1.139-0.141-1.652-0.377c-0.514-0.238-0.959-0.556-1.335-0.957c-0.377-0.4-0.669-0.867-0.877-1.398
		c-0.209-0.53-0.305-1.093-0.29-1.688c0.015-0.594,0.14-1.151,0.374-1.672c0.235-0.521,0.551-0.97,0.947-1.352
		s0.857-0.676,1.382-0.889C86.081,172.186,86.637,172.089,87.225,172.103z M87.24,180.613c0.507,0.012,0.957-0.099,1.351-0.333
		c0.393-0.234,0.727-0.541,1.002-0.921s0.487-0.805,0.637-1.274c0.148-0.468,0.229-0.927,0.24-1.375
		c0.012-0.497-0.056-1.007-0.203-1.533c-0.148-0.526-0.369-1.004-0.665-1.436c-0.295-0.431-0.659-0.786-1.091-1.066
		c-0.433-0.28-0.922-0.427-1.47-0.441c-0.499-0.012-0.947,0.098-1.343,0.333c-0.397,0.235-0.733,0.542-1.009,0.922
		c-0.275,0.38-0.487,0.802-0.636,1.268c-0.149,0.465-0.229,0.92-0.24,1.369c-0.014,0.489,0.057,0.996,0.209,1.521
		c0.151,0.525,0.377,1.006,0.676,1.442c0.299,0.435,0.663,0.795,1.091,1.078C86.218,180.451,86.7,180.599,87.24,180.613z"/>
	<path d="M95.859,180.526c0.225-0.098,0.365-0.243,0.421-0.439c0.056-0.194,0.072-0.4,0.049-0.62l-0.705-6.537
		c-0.023-0.21-0.085-0.405-0.186-0.583c-0.1-0.177-0.266-0.286-0.497-0.327l2.848-0.308c0.408-0.043,0.812-0.04,1.21,0.012
		c0.398,0.051,0.761,0.164,1.088,0.337c0.326,0.174,0.6,0.415,0.818,0.724c0.22,0.308,0.355,0.698,0.406,1.167
		c0.036,0.34,0.014,0.657-0.068,0.948c-0.082,0.291-0.21,0.553-0.383,0.785c-0.174,0.232-0.389,0.436-0.645,0.611
		c-0.258,0.175-0.538,0.312-0.844,0.409l1.997,2.514c0.122,0.151,0.267,0.277,0.436,0.377c0.169,0.101,0.346,0.178,0.529,0.232
		l-1.345,0.146l-2.476-3.115l-1.622,0.175l0.257,2.371c0.022,0.21,0.085,0.402,0.189,0.576c0.104,0.173,0.268,0.284,0.491,0.333
		L95.859,180.526z M96.878,176.901l1.405-0.152c0.368-0.039,0.694-0.134,0.979-0.283c0.283-0.149,0.52-0.342,0.71-0.575
		c0.189-0.233,0.323-0.506,0.403-0.818c0.08-0.312,0.1-0.654,0.06-1.026c-0.082-0.762-0.361-1.336-0.836-1.724
		c-0.476-0.387-1.09-0.54-1.842-0.458l-1.405,0.151L96.878,176.901z"/>
	<path d="M106.942,179.047c0.165-0.105,0.309-0.27,0.429-0.491c0.121-0.222,0.196-0.427,0.225-0.62l1.045-8.205l4.602,6.829
		c0.116,0.174,0.261,0.337,0.434,0.488s0.368,0.233,0.587,0.249l-2.068,0.494c0.122-0.08,0.212-0.197,0.271-0.354
		c0.058-0.155,0.069-0.305,0.035-0.448c-0.021-0.087-0.099-0.24-0.234-0.458c-0.135-0.22-0.288-0.453-0.459-0.701
		c-0.172-0.248-0.335-0.486-0.493-0.711c-0.157-0.227-0.272-0.39-0.347-0.489l-2.879,0.688l-0.283,2.192
		c-0.013,0.085-0.019,0.174-0.019,0.261c0,0.088,0.012,0.176,0.031,0.262c0.05,0.207,0.153,0.354,0.312,0.442
		c0.157,0.087,0.334,0.142,0.529,0.161L106.942,179.047z M110.865,174.517l-2.262-3.38l-0.512,4.043L110.865,174.517z"/>
	<path d="M115.938,167.788l5.717-2.164l0.787,1.193c-0.311-0.275-0.662-0.458-1.053-0.549c-0.393-0.091-0.785-0.063-1.177,0.085
		l-0.982,0.373l2.612,6.904c0.075,0.198,0.184,0.373,0.327,0.523c0.143,0.15,0.333,0.22,0.569,0.209l-1.853,0.701
		c0.192-0.152,0.291-0.328,0.297-0.53c0.005-0.203-0.032-0.408-0.109-0.613l-2.601-6.908l-0.961,0.363
		c-0.407,0.154-0.722,0.393-0.943,0.716s-0.361,0.696-0.416,1.118L115.938,167.788z"/>
	<path d="M129.019,161.996c0.518-0.278,1.059-0.441,1.623-0.489c0.563-0.049,1.108,0.008,1.633,0.17
		c0.526,0.161,1.011,0.422,1.454,0.779c0.443,0.359,0.807,0.8,1.088,1.323c0.281,0.524,0.449,1.07,0.503,1.638
		c0.053,0.568,0.002,1.115-0.153,1.643c-0.156,0.527-0.41,1.013-0.762,1.456c-0.352,0.443-0.787,0.803-1.305,1.082
		c-0.518,0.278-1.059,0.441-1.622,0.489c-0.563,0.049-1.108-0.008-1.634-0.17c-0.525-0.161-1.011-0.422-1.454-0.779
		c-0.444-0.36-0.807-0.8-1.089-1.324c-0.28-0.523-0.448-1.07-0.502-1.638c-0.053-0.568-0.002-1.116,0.153-1.643
		c0.156-0.527,0.409-1.013,0.762-1.457C128.066,162.635,128.501,162.274,129.019,161.996z M133.245,169.382
		c0.447-0.24,0.783-0.559,1.008-0.958c0.226-0.398,0.363-0.831,0.414-1.297c0.052-0.466,0.025-0.94-0.077-1.422
		c-0.103-0.481-0.261-0.919-0.473-1.313c-0.234-0.438-0.546-0.849-0.936-1.231c-0.388-0.384-0.817-0.689-1.288-0.917
		c-0.47-0.229-0.962-0.358-1.476-0.387c-0.515-0.029-1.013,0.085-1.494,0.345c-0.44,0.235-0.775,0.554-1.003,0.953
		c-0.229,0.401-0.369,0.834-0.42,1.301c-0.052,0.467-0.026,0.938,0.074,1.416c0.102,0.478,0.258,0.914,0.471,1.309
		c0.23,0.43,0.542,0.836,0.935,1.218c0.392,0.382,0.825,0.687,1.302,0.917c0.475,0.23,0.969,0.362,1.481,0.397
		C132.276,169.748,132.77,169.638,133.245,169.382z"/>
	<path d="M140.714,165.031c0.146-0.196,0.195-0.393,0.148-0.589c-0.048-0.196-0.136-0.384-0.264-0.563l-3.846-5.334
		c-0.124-0.172-0.272-0.31-0.447-0.415c-0.175-0.105-0.373-0.118-0.594-0.04l2.322-1.674c0.333-0.24,0.686-0.436,1.058-0.588
		c0.371-0.153,0.741-0.234,1.112-0.245c0.369-0.01,0.726,0.064,1.068,0.224c0.344,0.159,0.653,0.431,0.93,0.814
		c0.2,0.277,0.337,0.563,0.41,0.857c0.072,0.293,0.091,0.584,0.055,0.872c-0.037,0.288-0.123,0.571-0.259,0.85
		c-0.137,0.279-0.313,0.537-0.529,0.774l2.978,1.197c0.181,0.07,0.369,0.108,0.564,0.112c0.197,0.004,0.389-0.016,0.575-0.06
		l-1.097,0.792l-3.691-1.484l-1.322,0.954l1.393,1.933c0.124,0.172,0.273,0.307,0.45,0.406c0.175,0.1,0.374,0.116,0.593,0.048
		L140.714,165.031z M139.806,161.376l1.146-0.827c0.301-0.216,0.537-0.459,0.71-0.73c0.173-0.27,0.284-0.553,0.333-0.85
		c0.05-0.296,0.031-0.601-0.053-0.911c-0.085-0.31-0.237-0.618-0.456-0.922c-0.447-0.622-0.975-0.982-1.579-1.084
		c-0.604-0.102-1.214,0.069-1.827,0.512l-1.146,0.826L139.806,161.376z"/>
	<path d="M145.099,150.757c-0.127,0.208-0.16,0.406-0.099,0.592c0.06,0.184,0.162,0.36,0.308,0.524l4.336,4.945
		c0.145,0.164,0.31,0.291,0.494,0.379c0.184,0.087,0.385,0.084,0.603-0.009l-1.49,1.307c0.127-0.209,0.158-0.409,0.093-0.601
		c-0.067-0.191-0.173-0.37-0.317-0.536l-4.336-4.943c-0.145-0.166-0.305-0.29-0.48-0.375s-0.376-0.077-0.6,0.021L145.099,150.757z"
		/>
	<path d="M153.893,154.331c0.08-0.18,0.109-0.396,0.089-0.646c-0.021-0.252-0.071-0.466-0.152-0.642l-3.626-7.433l7.593,3.186
		c0.192,0.082,0.402,0.139,0.63,0.17c0.228,0.032,0.437-0.006,0.628-0.113l-1.458,1.547c0.058-0.133,0.068-0.281,0.031-0.444
		c-0.037-0.162-0.109-0.293-0.216-0.394c-0.065-0.062-0.215-0.147-0.448-0.256s-0.488-0.22-0.768-0.334
		c-0.279-0.113-0.547-0.221-0.803-0.324c-0.256-0.104-0.442-0.176-0.559-0.22l-2.029,2.155l0.965,1.989
		c0.037,0.08,0.08,0.156,0.129,0.229c0.048,0.074,0.105,0.141,0.17,0.202c0.154,0.146,0.321,0.211,0.502,0.199
		c0.18-0.013,0.357-0.064,0.532-0.155L153.893,154.331z M154.686,148.39l-3.744-1.584l1.79,3.661L154.686,148.39z"/>
	<path d="M160.922,137.153c-0.233-0.148-0.472-0.355-0.712-0.622c-0.242-0.267-0.432-0.573-0.57-0.918s-0.203-0.719-0.193-1.123
		c0.01-0.404,0.146-0.813,0.408-1.229c0.246-0.388,0.553-0.671,0.92-0.849c0.367-0.177,0.762-0.27,1.183-0.281
		c0.421-0.01,0.849,0.053,1.283,0.189c0.435,0.137,0.841,0.325,1.219,0.564c0.585,0.369,1.051,0.805,1.396,1.305
		c0.345,0.498,0.586,1.023,0.726,1.573c0.139,0.55,0.186,1.109,0.14,1.676c-0.045,0.567-0.161,1.105-0.349,1.616l-0.164-0.062
		c0.226-0.523,0.331-1.026,0.317-1.506c-0.015-0.482-0.114-0.932-0.301-1.355c-0.186-0.423-0.435-0.814-0.747-1.173
		c-0.313-0.36-0.65-0.678-1.015-0.957c0.088,0.151,0.156,0.32,0.206,0.509c0.05,0.188,0.075,0.383,0.078,0.585
		c0.002,0.202-0.021,0.401-0.068,0.6c-0.048,0.199-0.126,0.383-0.234,0.553c-0.224,0.354-0.478,0.637-0.761,0.848
		c-0.283,0.212-0.578,0.354-0.885,0.428c-0.307,0.074-0.62,0.078-0.94,0.013C161.536,137.473,161.224,137.346,160.922,137.153z
		 M161.134,136.201c0.275,0.175,0.567,0.323,0.875,0.447c0.308,0.123,0.605,0.197,0.894,0.222c0.287,0.025,0.556-0.01,0.805-0.106
		c0.249-0.095,0.456-0.275,0.624-0.541c0.116-0.184,0.195-0.4,0.238-0.649c0.042-0.25,0.039-0.502-0.008-0.756
		c-0.047-0.253-0.146-0.5-0.299-0.739c-0.152-0.239-0.362-0.443-0.632-0.613c-0.288-0.183-0.606-0.343-0.952-0.481
		c-0.347-0.139-0.69-0.224-1.03-0.258c-0.34-0.035-0.655-0.008-0.947,0.079c-0.291,0.087-0.525,0.271-0.702,0.549
		c-0.22,0.348-0.315,0.671-0.287,0.97c0.027,0.299,0.121,0.57,0.281,0.813c0.158,0.243,0.348,0.456,0.565,0.636
		C160.777,135.954,160.968,136.096,161.134,136.201z"/>
	<path d="M170.489,132.154c0.003-0.098-0.025-0.251-0.085-0.461c-0.06-0.209-0.135-0.446-0.228-0.708
		c-0.092-0.263-0.195-0.539-0.31-0.83c-0.114-0.291-0.225-0.566-0.332-0.827c-0.107-0.26-0.206-0.494-0.299-0.702
		c-0.092-0.208-0.16-0.359-0.204-0.454c-0.231-0.467-0.453-0.86-0.667-1.183c-0.212-0.322-0.417-0.59-0.614-0.805
		c-0.198-0.216-0.389-0.39-0.574-0.523c-0.184-0.131-0.363-0.241-0.539-0.329c-0.459-0.229-0.871-0.284-1.235-0.164
		c-0.364,0.12-0.664,0.413-0.897,0.882c-0.079,0.159-0.136,0.335-0.168,0.53c-0.035,0.196-0.035,0.402-0.003,0.621
		c0.032,0.218,0.099,0.445,0.2,0.68c0.102,0.235,0.242,0.474,0.422,0.717l-0.076,0.07c-0.18-0.243-0.336-0.499-0.471-0.768
		c-0.135-0.269-0.232-0.548-0.294-0.835c-0.062-0.287-0.08-0.572-0.057-0.857c0.024-0.286,0.101-0.557,0.229-0.817
		c0.273-0.548,0.654-0.901,1.143-1.058c0.488-0.157,1.016-0.094,1.584,0.19c0.278,0.138,0.537,0.349,0.779,0.63
		c0.241,0.283,0.469,0.608,0.681,0.976c0.213,0.366,0.41,0.762,0.591,1.185s0.35,0.843,0.506,1.257
		c0.157,0.417,0.299,0.813,0.424,1.191c0.127,0.377,0.24,0.709,0.345,0.995l1.159-2.325c0.114-0.231,0.197-0.436,0.25-0.612
		c0.051-0.176,0.078-0.335,0.082-0.478c0.002-0.143-0.011-0.271-0.041-0.385s-0.076-0.219-0.139-0.312l1.118,0.936L170.489,132.154z
		"/>
	<path d="M171.049,119.544c-0.179,0.106-0.367,0.21-0.565,0.313c-0.199,0.104-0.403,0.187-0.613,0.25
		c-0.211,0.065-0.425,0.1-0.645,0.104c-0.219,0.005-0.436-0.032-0.65-0.111c-0.266-0.099-0.483-0.246-0.65-0.44
		c-0.168-0.195-0.288-0.413-0.363-0.655c-0.076-0.242-0.107-0.499-0.095-0.77c0.014-0.269,0.065-0.53,0.158-0.778
		c0.072-0.196,0.181-0.395,0.323-0.594c0.145-0.201,0.315-0.374,0.517-0.519c0.201-0.144,0.427-0.243,0.677-0.297
		c0.25-0.055,0.518-0.028,0.799,0.076c0.413,0.151,0.707,0.433,0.883,0.84c0.174,0.409,0.295,0.899,0.361,1.473
		c0.209-0.189,0.443-0.369,0.706-0.537c0.263-0.169,0.538-0.31,0.827-0.422c0.289-0.113,0.582-0.183,0.879-0.21
		s0.582,0.009,0.857,0.111c0.261,0.096,0.498,0.246,0.713,0.449c0.217,0.205,0.385,0.448,0.508,0.729
		c0.122,0.281,0.189,0.59,0.203,0.932c0.014,0.339-0.051,0.698-0.189,1.076c-0.117,0.316-0.28,0.604-0.488,0.862
		s-0.448,0.468-0.721,0.629s-0.566,0.263-0.882,0.306c-0.315,0.042-0.638,0.002-0.966-0.12c-0.268-0.098-0.492-0.237-0.674-0.416
		s-0.333-0.385-0.455-0.619c-0.122-0.233-0.217-0.492-0.287-0.775C171.146,120.147,171.091,119.852,171.049,119.544z
		 M168.561,119.398c0.206,0.077,0.415,0.106,0.625,0.089c0.21-0.016,0.421-0.067,0.63-0.154c0.21-0.085,0.415-0.196,0.618-0.332
		c0.202-0.135,0.398-0.284,0.588-0.446c-0.046-0.206-0.101-0.403-0.165-0.595c-0.063-0.19-0.147-0.371-0.251-0.537
		c-0.104-0.168-0.234-0.318-0.393-0.454s-0.352-0.247-0.581-0.332c-0.396-0.146-0.768-0.143-1.11,0.009
		c-0.343,0.153-0.589,0.428-0.736,0.829c-0.078,0.212-0.115,0.42-0.112,0.623c0.003,0.203,0.043,0.389,0.119,0.56
		c0.076,0.169,0.179,0.319,0.31,0.448C168.233,119.237,168.385,119.333,168.561,119.398z M175.519,120.526
		c0.087-0.235,0.128-0.477,0.124-0.727c-0.002-0.249-0.047-0.485-0.135-0.707c-0.088-0.221-0.215-0.421-0.379-0.597
		c-0.165-0.177-0.365-0.309-0.604-0.397c-0.298-0.11-0.586-0.135-0.865-0.075c-0.277,0.06-0.551,0.165-0.819,0.316
		c-0.269,0.15-0.538,0.326-0.81,0.532c-0.271,0.205-0.547,0.395-0.83,0.575c0.06,0.332,0.139,0.616,0.238,0.855
		c0.098,0.238,0.216,0.442,0.354,0.613c0.136,0.17,0.296,0.313,0.479,0.429s0.386,0.213,0.607,0.295
		c0.26,0.095,0.527,0.141,0.804,0.135c0.275-0.005,0.531-0.057,0.767-0.154c0.235-0.098,0.449-0.24,0.64-0.427
		C175.282,121.005,175.425,120.782,175.519,120.526z"/>
</g>
<g>
	<path d="M10.967,70.858l-6.389-1.557c-0.213-0.053-0.417-0.062-0.608-0.029c-0.192,0.033-0.353,0.156-0.48,0.367l1.262-5.177
		l1.491,0.024c-0.957,0.245-1.549,0.834-1.777,1.768l-0.498,2.042l3.871,0.944l0.341-1.402c0.062-0.253,0.065-0.495,0.008-0.728
		c-0.057-0.231-0.201-0.422-0.433-0.571l1.531,0.374c-0.272,0.017-0.486,0.12-0.641,0.309c-0.155,0.189-0.263,0.406-0.322,0.652
		l-0.342,1.401l3.194,0.778c0.206,0.051,0.41,0.056,0.612,0.017c0.203-0.038,0.366-0.156,0.489-0.352l-0.474,1.947
		c-0.016-0.247-0.105-0.43-0.269-0.55C11.37,70.995,11.181,70.91,10.967,70.858z"/>
	<path d="M13.588,64.58c0.002-0.198-0.056-0.409-0.175-0.635c-0.118-0.224-0.249-0.401-0.393-0.532L6.744,58.01l8.245-0.135
		c0.209-0.002,0.424-0.036,0.646-0.099c0.223-0.063,0.4-0.183,0.533-0.36l-0.729,2.023c0.002-0.146-0.047-0.287-0.146-0.423
		c-0.098-0.135-0.217-0.227-0.354-0.276c-0.084-0.03-0.255-0.049-0.513-0.056c-0.258-0.005-0.537-0.004-0.839,0.003
		c-0.302,0.009-0.591,0.019-0.867,0.026c-0.276,0.009-0.476,0.017-0.6,0.024l-1.014,2.817l1.673,1.447
		c0.066,0.059,0.136,0.112,0.209,0.159c0.073,0.049,0.153,0.087,0.237,0.118c0.199,0.073,0.379,0.065,0.539-0.019
		c0.161-0.085,0.304-0.205,0.429-0.359L13.588,64.58z M11.968,58.761l-4.073,0.054l3.095,2.66L11.968,58.761z"/>
	<path d="M15.475,52.938c0.324,0.048,0.657,0.059,1,0.034c0.343-0.024,0.672-0.093,0.986-0.205c0.314-0.113,0.604-0.273,0.867-0.482
		c0.264-0.207,0.476-0.467,0.636-0.779c0.12-0.231,0.214-0.478,0.285-0.739c0.071-0.261,0.101-0.516,0.086-0.766
		c-0.013-0.251-0.081-0.485-0.206-0.705c-0.125-0.221-0.321-0.4-0.589-0.539c-0.333-0.172-0.665-0.208-0.997-0.108
		c-0.331,0.1-0.669,0.267-1.015,0.5c-0.345,0.234-0.696,0.496-1.051,0.785c-0.355,0.289-0.722,0.542-1.101,0.76
		c-0.378,0.218-0.764,0.359-1.156,0.428s-0.802-0.009-1.229-0.23c-0.326-0.167-0.578-0.376-0.757-0.625
		c-0.18-0.248-0.296-0.519-0.351-0.813c-0.055-0.293-0.053-0.6,0.006-0.917c0.059-0.319,0.165-0.626,0.318-0.923
		c0.108-0.21,0.243-0.394,0.403-0.555c0.161-0.16,0.317-0.306,0.473-0.438c0.154-0.131,0.296-0.244,0.423-0.339
		c0.126-0.094,0.209-0.179,0.246-0.251c0.067-0.13,0.077-0.26,0.029-0.39c-0.047-0.13-0.119-0.243-0.217-0.34
		c0.301,0.165,0.594,0.329,0.879,0.495c0.286,0.166,0.579,0.331,0.88,0.495c-0.299-0.062-0.596-0.071-0.894-0.028
		c-0.298,0.044-0.581,0.126-0.851,0.249c-0.27,0.122-0.515,0.287-0.736,0.493c-0.222,0.207-0.401,0.444-0.54,0.711
		c-0.108,0.211-0.188,0.432-0.241,0.667c-0.052,0.234-0.062,0.464-0.03,0.686c0.032,0.222,0.108,0.43,0.23,0.62
		c0.121,0.192,0.302,0.349,0.541,0.472c0.253,0.131,0.506,0.182,0.76,0.151c0.254-0.029,0.511-0.106,0.771-0.228
		c0.26-0.122,0.522-0.281,0.787-0.473c0.265-0.194,0.535-0.393,0.812-0.6c0.275-0.206,0.555-0.4,0.838-0.584s0.571-0.33,0.864-0.435
		c0.293-0.106,0.595-0.157,0.906-0.158c0.312,0.001,0.63,0.085,0.956,0.253c0.326,0.167,0.571,0.39,0.735,0.667
		c0.164,0.278,0.262,0.576,0.294,0.896c0.033,0.319,0.011,0.645-0.063,0.977c-0.076,0.333-0.187,0.641-0.332,0.923
		c-0.094,0.181-0.209,0.346-0.346,0.496c-0.136,0.149-0.279,0.293-0.429,0.431c-0.149,0.138-0.289,0.277-0.421,0.415
		c-0.131,0.138-0.239,0.292-0.325,0.458c-0.061,0.116-0.085,0.236-0.075,0.359c0.009,0.125,0.046,0.239,0.109,0.345L15.475,52.938z"
		/>
	<path d="M21.745,44.736l-5.425-3.758c-0.181-0.125-0.367-0.208-0.559-0.246c-0.191-0.039-0.385,0.019-0.579,0.171l1.141-1.647
		c-0.074,0.236-0.06,0.437,0.044,0.602c0.103,0.166,0.245,0.312,0.426,0.437l2.572,1.781l2.456-3.546l-2.571-1.781
		c-0.181-0.125-0.367-0.207-0.559-0.246c-0.191-0.038-0.385,0.019-0.58,0.17l1.142-1.647c-0.074,0.235-0.06,0.437,0.044,0.603
		s0.245,0.311,0.426,0.436l5.406,3.744c0.18,0.125,0.371,0.208,0.571,0.247c0.2,0.041,0.396-0.013,0.586-0.158l-1.142,1.647
		c0.075-0.235,0.057-0.438-0.053-0.608c-0.11-0.17-0.256-0.318-0.437-0.444l-2.723-1.886l-2.457,3.546l2.743,1.899
		c0.174,0.121,0.36,0.198,0.561,0.233c0.199,0.034,0.392-0.019,0.577-0.158l-1.141,1.647c0.073-0.237,0.061-0.435-0.039-0.6
		C22.076,45.011,21.932,44.866,21.745,44.736z"/>
	<path d="M23.286,30.16c-0.099,0.226-0.104,0.428-0.019,0.604c0.086,0.174,0.212,0.333,0.38,0.477l4.997,4.274
		c0.167,0.143,0.349,0.244,0.544,0.304s0.395,0.027,0.599-0.1l-1.302,1.524c0.097-0.228,0.1-0.432,0.008-0.613
		c-0.092-0.18-0.221-0.341-0.389-0.485l-4.997-4.273c-0.168-0.143-0.345-0.244-0.531-0.301c-0.186-0.058-0.385-0.021-0.593,0.111
		L23.286,30.16z"/>
	<path d="M29.955,23.253c0.437-0.403,0.924-0.703,1.462-0.895s1.083-0.279,1.636-0.256c0.553,0.021,1.09,0.148,1.611,0.382
		c0.521,0.232,0.984,0.569,1.388,1.004c0.404,0.437,0.702,0.924,0.896,1.461c0.192,0.538,0.277,1.083,0.257,1.636
		c-0.021,0.553-0.148,1.09-0.382,1.612c-0.234,0.521-0.569,0.983-1.006,1.387s-0.924,0.703-1.462,0.895
		c-0.537,0.193-1.083,0.278-1.635,0.257c-0.553-0.021-1.091-0.148-1.611-0.382c-0.521-0.233-0.984-0.569-1.389-1.005
		s-0.702-0.924-0.895-1.461s-0.278-1.083-0.257-1.636c0.021-0.552,0.148-1.089,0.382-1.611
		C29.184,24.12,29.518,23.658,29.955,23.253z M35.904,29.337c0.376-0.349,0.626-0.745,0.746-1.19
		c0.121-0.445,0.148-0.901,0.083-1.366c-0.065-0.468-0.208-0.921-0.428-1.362c-0.219-0.441-0.48-0.826-0.785-1.156
		c-0.338-0.364-0.744-0.682-1.218-0.954c-0.474-0.272-0.968-0.458-1.482-0.559c-0.516-0.101-1.027-0.099-1.535,0.005
		c-0.509,0.104-0.967,0.345-1.373,0.722c-0.371,0.342-0.618,0.739-0.742,1.186c-0.124,0.448-0.153,0.905-0.088,1.372
		c0.065,0.466,0.207,0.919,0.424,1.356c0.217,0.439,0.477,0.822,0.781,1.151c0.332,0.359,0.736,0.672,1.214,0.941
		c0.477,0.27,0.976,0.454,1.496,0.555c0.521,0.101,1.035,0.102,1.544,0.002C35.049,29.943,35.503,29.708,35.904,29.337z"/>
	<path d="M41.835,24.419c0.169-0.214,0.267-0.438,0.293-0.675c0.026-0.235-0.038-0.466-0.194-0.695l-3.595-5.256
		c-0.161-0.236-0.355-0.387-0.583-0.453c-0.228-0.066-0.476-0.063-0.741,0.011l1.271-0.869l7.946,2.917l-3.284-4.803
		c-0.156-0.228-0.349-0.373-0.578-0.433c-0.229-0.061-0.474-0.051-0.734,0.028l1.513-1.035c-0.169,0.215-0.264,0.437-0.283,0.668
		c-0.021,0.231,0.048,0.461,0.204,0.69l4.223,6.173l-9.114-3.346l3.856,5.639c0.161,0.235,0.358,0.379,0.592,0.432
		c0.233,0.053,0.48,0.04,0.741-0.041L41.835,24.419z"/>
	<path d="M54.97,7.099c-0.189,0.159-0.285,0.336-0.287,0.53c-0.002,0.196,0.04,0.396,0.124,0.598l2.877,6.864l2.029-0.849
		c0.45-0.189,0.779-0.465,0.986-0.824c0.206-0.361,0.34-0.775,0.4-1.243l0.266,1.52l-4.938,2.069
		c0.189-0.159,0.284-0.341,0.283-0.543c-0.001-0.202-0.044-0.406-0.129-0.607l-2.542-6.065c-0.085-0.204-0.197-0.373-0.339-0.508
		c-0.141-0.135-0.334-0.19-0.58-0.167L54.97,7.099z"/>
	<path d="M64.531,12.535c0.163-0.114,0.302-0.284,0.416-0.51c0.114-0.227,0.183-0.436,0.205-0.628l0.766-8.246l4.89,6.64
		c0.123,0.169,0.275,0.325,0.455,0.469c0.18,0.145,0.38,0.219,0.603,0.226l-2.072,0.579c0.12-0.085,0.206-0.206,0.26-0.365
		c0.053-0.159,0.06-0.309,0.02-0.45c-0.023-0.086-0.107-0.236-0.252-0.45c-0.144-0.213-0.308-0.441-0.488-0.682
		c-0.183-0.241-0.356-0.472-0.523-0.692c-0.167-0.22-0.29-0.377-0.367-0.474l-2.884,0.806l-0.209,2.203
		c-0.011,0.088-0.013,0.175-0.01,0.262c0.004,0.089,0.018,0.175,0.042,0.262c0.057,0.204,0.166,0.347,0.329,0.429
		c0.162,0.081,0.342,0.128,0.54,0.141L64.531,12.535z M68.334,7.843L65.93,4.555l-0.374,4.064L68.334,7.843z"/>
	<path d="M75.08,9.857c0.226-0.099,0.362-0.25,0.411-0.454c0.049-0.205,0.059-0.411,0.029-0.622l-0.926-6.51
		c-0.028-0.209-0.096-0.402-0.198-0.577c-0.104-0.175-0.276-0.277-0.52-0.309l2.747-0.39c0.322-0.046,0.646-0.055,0.972-0.027
		c0.324,0.028,0.623,0.104,0.896,0.23c0.272,0.126,0.504,0.307,0.694,0.543c0.19,0.236,0.312,0.54,0.364,0.911
		c0.067,0.477-0.019,0.896-0.26,1.259c-0.24,0.364-0.574,0.633-1.002,0.81c0.335-0.015,0.653,0.012,0.956,0.08
		c0.302,0.068,0.574,0.18,0.818,0.335c0.244,0.154,0.448,0.358,0.612,0.61c0.163,0.253,0.271,0.556,0.32,0.911
		c0.059,0.412,0.023,0.774-0.104,1.09c-0.129,0.314-0.314,0.583-0.559,0.808C80.09,8.779,79.8,8.96,79.466,9.099
		c-0.334,0.137-0.683,0.231-1.046,0.283L75.08,9.857z M77.052,4.886c0.589-0.083,1.031-0.305,1.326-0.663
		c0.294-0.36,0.398-0.841,0.313-1.446c-0.082-0.581-0.312-1.02-0.687-1.316s-0.858-0.402-1.446-0.319l-1.271,0.181l0.532,3.739
		L77.052,4.886z M76.451,9.514l1.791-0.254c0.678-0.096,1.175-0.365,1.49-0.804c0.316-0.439,0.427-0.995,0.332-1.665
		c-0.098-0.686-0.371-1.186-0.818-1.5c-0.448-0.315-1.011-0.425-1.688-0.329L75.84,5.207L76.451,9.514z"/>
	<path d="M89.381,0c0.595-0.002,1.155,0.108,1.682,0.33c0.526,0.221,0.986,0.526,1.379,0.915c0.394,0.389,0.703,0.846,0.93,1.372
		c0.227,0.523,0.341,1.083,0.344,1.677c0.003,0.596-0.106,1.156-0.328,1.683s-0.526,0.986-0.916,1.38
		c-0.39,0.393-0.846,0.703-1.371,0.93c-0.524,0.225-1.084,0.34-1.679,0.344c-0.594,0.002-1.155-0.107-1.682-0.329
		c-0.527-0.222-0.986-0.527-1.38-0.916c-0.393-0.389-0.702-0.847-0.929-1.372c-0.227-0.523-0.342-1.083-0.344-1.678
		c-0.003-0.594,0.106-1.155,0.328-1.682c0.222-0.527,0.527-0.987,0.916-1.38s0.846-0.702,1.371-0.93
		C88.225,0.118,88.786,0.004,89.381,0z M89.653,8.506c0.513-0.002,0.965-0.127,1.354-0.373c0.39-0.247,0.719-0.564,0.985-0.952
		s0.469-0.819,0.605-1.292c0.136-0.474,0.203-0.933,0.201-1.381c-0.002-0.498-0.087-1.006-0.252-1.527
		c-0.166-0.521-0.404-0.992-0.716-1.415c-0.312-0.423-0.69-0.767-1.135-1.034c-0.445-0.266-0.945-0.398-1.5-0.395
		c-0.505,0.002-0.954,0.126-1.348,0.373c-0.395,0.247-0.726,0.564-0.992,0.952c-0.267,0.389-0.469,0.817-0.604,1.287
		c-0.137,0.469-0.204,0.927-0.202,1.375c0.003,0.489,0.089,0.994,0.258,1.515c0.17,0.521,0.412,0.994,0.728,1.421
		c0.316,0.425,0.695,0.774,1.136,1.045C88.613,8.374,89.106,8.509,89.653,8.506z"/>
	<path d="M97.323,8.902c0.244-0.04,0.417-0.147,0.52-0.323c0.103-0.175,0.169-0.372,0.199-0.589l0.901-6.513
		c0.029-0.21,0.017-0.413-0.038-0.61c-0.056-0.196-0.191-0.343-0.408-0.438l2.869,0.397c0.411,0.056,0.807,0.159,1.186,0.305
		c0.378,0.147,0.706,0.344,0.984,0.592c0.278,0.249,0.487,0.55,0.628,0.902c0.141,0.352,0.178,0.762,0.114,1.231
		c-0.048,0.338-0.147,0.639-0.298,0.902c-0.152,0.263-0.342,0.485-0.568,0.667s-0.487,0.328-0.781,0.434
		c-0.295,0.107-0.604,0.171-0.928,0.193l1.347,2.926c0.083,0.175,0.195,0.333,0.336,0.471s0.296,0.257,0.463,0.354l-1.355-0.187
		l-1.67-3.624l-1.635-0.227l-0.327,2.359c-0.028,0.21-0.014,0.412,0.047,0.606c0.06,0.192,0.193,0.34,0.401,0.443L97.323,8.902z
		 M99.207,5.635l1.417,0.196c0.371,0.051,0.714,0.039,1.028-0.037c0.315-0.075,0.594-0.203,0.837-0.384
		c0.243-0.18,0.441-0.411,0.596-0.693c0.155-0.283,0.258-0.611,0.309-0.982c0.105-0.758-0.028-1.384-0.4-1.875
		c-0.372-0.492-0.938-0.79-1.696-0.896l-1.416-0.196L99.207,5.635z"/>
	<path d="M107.495,10.55c0.197-0.012,0.404-0.084,0.62-0.219c0.215-0.134,0.383-0.277,0.502-0.429l4.945-6.646l0.72,8.216
		c0.018,0.208,0.065,0.42,0.144,0.637c0.079,0.217,0.211,0.386,0.397,0.505l-2.07-0.583c0.146-0.01,0.283-0.068,0.411-0.177
		c0.128-0.107,0.212-0.233,0.252-0.373c0.024-0.086,0.03-0.258,0.019-0.515c-0.013-0.258-0.033-0.537-0.063-0.837
		c-0.03-0.301-0.06-0.588-0.088-0.862c-0.028-0.275-0.051-0.473-0.066-0.597l-2.882-0.812l-1.325,1.772
		c-0.054,0.071-0.102,0.143-0.145,0.22c-0.043,0.076-0.076,0.158-0.101,0.245c-0.058,0.204-0.038,0.383,0.059,0.537
		c0.096,0.154,0.226,0.288,0.388,0.401L107.495,10.55z M113.183,8.521l-0.342-4.058l-2.435,3.276L113.183,8.521z"/>
	<path d="M122.01,6.194l5.664,2.482l-0.268,1.404c-0.033-0.414-0.159-0.792-0.378-1.133c-0.22-0.34-0.524-0.597-0.912-0.767
		l-0.974-0.427l-2.964,6.761c-0.085,0.193-0.129,0.395-0.131,0.603c-0.003,0.208,0.087,0.392,0.267,0.551l-1.836-0.805
		c0.245,0.028,0.441-0.028,0.588-0.17c0.146-0.14,0.263-0.312,0.352-0.512l2.975-6.756l-0.951-0.417
		c-0.402-0.177-0.799-0.228-1.188-0.153c-0.389,0.074-0.751,0.242-1.088,0.504L122.01,6.194z"/>
	<path d="M136.059,13.321c0.506,0.313,0.922,0.704,1.25,1.171c0.328,0.469,0.555,0.971,0.681,1.51
		c0.126,0.539,0.145,1.09,0.058,1.655c-0.087,0.566-0.287,1.101-0.602,1.605c-0.313,0.505-0.705,0.922-1.172,1.25
		c-0.469,0.329-0.971,0.555-1.51,0.681c-0.539,0.126-1.09,0.145-1.655,0.057c-0.564-0.087-1.1-0.287-1.604-0.601
		c-0.505-0.315-0.922-0.705-1.25-1.173c-0.328-0.467-0.555-0.971-0.681-1.51c-0.125-0.539-0.146-1.09-0.058-1.655
		c0.087-0.565,0.287-1.1,0.602-1.604c0.314-0.506,0.705-0.922,1.173-1.25c0.468-0.329,0.971-0.556,1.51-0.682
		c0.538-0.125,1.09-0.145,1.654-0.057C135.02,12.805,135.554,13.005,136.059,13.321z M131.766,20.666
		c0.436,0.271,0.885,0.406,1.346,0.405s0.908-0.096,1.341-0.282c0.433-0.186,0.833-0.443,1.2-0.772
		c0.366-0.328,0.668-0.682,0.904-1.063c0.263-0.423,0.463-0.898,0.6-1.428c0.137-0.528,0.186-1.055,0.146-1.578
		c-0.039-0.523-0.177-1.017-0.412-1.479c-0.235-0.463-0.588-0.84-1.059-1.132c-0.429-0.267-0.875-0.401-1.341-0.402
		c-0.464-0.001-0.913,0.092-1.345,0.279c-0.434,0.187-0.832,0.442-1.197,0.766c-0.365,0.325-0.665,0.678-0.902,1.059
		c-0.258,0.416-0.454,0.888-0.587,1.419c-0.134,0.532-0.181,1.061-0.14,1.59c0.041,0.529,0.176,1.025,0.406,1.49
		C130.956,20.002,131.302,20.378,131.766,20.666z"/>
	<path d="M138.075,25.1c0.228,0.095,0.432,0.097,0.612,0.002c0.179-0.094,0.34-0.225,0.48-0.394l4.224-5.04
		c0.136-0.163,0.232-0.341,0.291-0.539c0.058-0.195,0.02-0.391-0.113-0.587l2.221,1.86c0.318,0.266,0.599,0.563,0.842,0.889
		c0.242,0.325,0.416,0.667,0.52,1.025c0.104,0.357,0.122,0.724,0.054,1.097s-0.254,0.741-0.558,1.104
		c-0.22,0.262-0.464,0.464-0.731,0.606c-0.269,0.142-0.547,0.23-0.836,0.264s-0.587,0.018-0.894-0.047
		c-0.307-0.065-0.602-0.175-0.888-0.329l-0.412,3.194c-0.023,0.193-0.013,0.385,0.033,0.579c0.046,0.192,0.114,0.374,0.204,0.545
		l-1.049-0.879l0.51-3.958l-1.265-1.059l-1.53,1.827c-0.136,0.163-0.23,0.341-0.283,0.538c-0.052,0.195-0.017,0.391,0.104,0.588
		L138.075,25.1z M141.407,23.331l1.096,0.918c0.287,0.24,0.584,0.412,0.892,0.516c0.307,0.103,0.61,0.143,0.912,0.119
		s0.593-0.114,0.874-0.273c0.281-0.157,0.542-0.379,0.783-0.666c0.491-0.588,0.71-1.189,0.656-1.802
		c-0.055-0.615-0.375-1.168-0.962-1.659l-1.096-0.918L141.407,23.331z"/>
	<path d="M153.166,27.287c-0.217-0.118-0.417-0.143-0.599-0.073c-0.184,0.069-0.354,0.18-0.511,0.334l-4.712,4.586
		c-0.158,0.153-0.275,0.325-0.353,0.513c-0.077,0.189-0.063,0.392,0.044,0.606l-1.398-1.436c0.217,0.118,0.42,0.139,0.608,0.063
		c0.188-0.075,0.361-0.189,0.519-0.342l4.713-4.586c0.156-0.153,0.273-0.32,0.348-0.5c0.074-0.181,0.055-0.381-0.057-0.603
		L153.166,27.287z"/>
	<path d="M149.476,35.813c0.167,0.106,0.378,0.169,0.631,0.186c0.253,0.019,0.473,0,0.659-0.054l7.898-2.49l-4.227,7.081
		c-0.107,0.178-0.193,0.379-0.257,0.601c-0.063,0.221-0.054,0.436,0.026,0.643l-1.337-1.686c0.124,0.079,0.27,0.111,0.437,0.099
		c0.167-0.013,0.308-0.065,0.423-0.156c0.07-0.056,0.176-0.191,0.316-0.408c0.141-0.214,0.288-0.454,0.439-0.714
		c0.152-0.26,0.297-0.511,0.435-0.75s0.236-0.413,0.295-0.523l-1.86-2.346l-2.112,0.662c-0.084,0.024-0.166,0.056-0.245,0.094
		c-0.08,0.037-0.155,0.083-0.226,0.139c-0.166,0.131-0.255,0.289-0.268,0.469c-0.012,0.182,0.015,0.367,0.08,0.553L149.476,35.813z
		 M155.275,37.499l2.1-3.489l-3.892,1.231L155.275,37.499z"/>
	<path d="M164.27,47.4c0.248-0.124,0.549-0.219,0.902-0.288c0.354-0.066,0.714-0.07,1.082-0.008
		c0.368,0.062,0.723,0.202,1.066,0.423c0.342,0.22,0.625,0.552,0.848,0.997c0.208,0.415,0.294,0.828,0.258,1.238
		c-0.036,0.409-0.158,0.798-0.365,1.167c-0.207,0.368-0.48,0.704-0.821,1.006s-0.711,0.554-1.111,0.754
		c-0.62,0.311-1.232,0.483-1.839,0.519c-0.607,0.035-1.183-0.032-1.728-0.201c-0.545-0.168-1.05-0.421-1.515-0.758
		c-0.465-0.338-0.869-0.721-1.212-1.15l0.137-0.11c0.335,0.47,0.714,0.825,1.135,1.065c0.421,0.24,0.861,0.391,1.321,0.453
		c0.459,0.061,0.923,0.052,1.393-0.029c0.47-0.081,0.918-0.206,1.345-0.373c-0.175-0.004-0.356-0.033-0.544-0.09
		c-0.188-0.056-0.369-0.136-0.544-0.24s-0.335-0.229-0.481-0.375c-0.146-0.144-0.265-0.308-0.355-0.491
		c-0.189-0.378-0.304-0.745-0.34-1.102c-0.037-0.355-0.008-0.684,0.087-0.986c0.094-0.302,0.251-0.575,0.472-0.817
		C163.679,47.763,163.95,47.561,164.27,47.4z M164.982,48.083c-0.292,0.146-0.569,0.319-0.833,0.521
		c-0.265,0.201-0.48,0.417-0.65,0.653c-0.169,0.235-0.276,0.484-0.321,0.749c-0.046,0.264,0.003,0.538,0.146,0.822
		c0.098,0.196,0.244,0.379,0.438,0.546c0.193,0.167,0.411,0.297,0.654,0.39c0.241,0.092,0.505,0.136,0.789,0.13
		s0.568-0.079,0.853-0.223c0.306-0.153,0.607-0.343,0.904-0.568c0.297-0.226,0.547-0.477,0.751-0.753
		c0.204-0.274,0.342-0.561,0.417-0.857c0.074-0.297,0.036-0.595-0.112-0.894c-0.187-0.372-0.415-0.624-0.687-0.756
		c-0.272-0.132-0.554-0.195-0.845-0.186c-0.292,0.01-0.571,0.061-0.84,0.154C165.378,47.906,165.157,47.995,164.982,48.083z"/>
	<path d="M162.973,57.715c0.069,0.07,0.201,0.156,0.396,0.257c0.194,0.101,0.419,0.21,0.675,0.324
		c0.255,0.114,0.528,0.229,0.819,0.347c0.291,0.118,0.568,0.228,0.833,0.331c0.264,0.102,0.503,0.192,0.718,0.268
		c0.216,0.076,0.373,0.132,0.473,0.164c0.5,0.154,0.94,0.264,1.321,0.332c0.381,0.067,0.719,0.103,1.011,0.106
		c0.293,0.005,0.551-0.015,0.774-0.058c0.222-0.044,0.425-0.1,0.608-0.167c0.481-0.179,0.803-0.444,0.964-0.794
		c0.16-0.351,0.148-0.774-0.035-1.271c-0.063-0.169-0.153-0.333-0.273-0.492c-0.12-0.16-0.271-0.304-0.453-0.432
		c-0.183-0.128-0.395-0.236-0.636-0.325c-0.241-0.089-0.513-0.151-0.813-0.188v-0.104c0.301,0.037,0.595,0.099,0.885,0.188
		c0.288,0.087,0.56,0.209,0.812,0.363c0.254,0.154,0.476,0.338,0.669,0.553c0.192,0.217,0.341,0.461,0.442,0.736
		c0.216,0.582,0.214,1.104-0.004,1.573c-0.218,0.467-0.624,0.812-1.22,1.033c-0.29,0.107-0.622,0.152-0.993,0.133
		c-0.372-0.019-0.766-0.077-1.18-0.174c-0.415-0.099-0.839-0.229-1.271-0.39c-0.434-0.16-0.856-0.328-1.269-0.501
		c-0.411-0.172-0.799-0.344-1.161-0.513c-0.363-0.17-0.685-0.316-0.964-0.438l0.913,2.463c0.091,0.245,0.184,0.448,0.277,0.608
		c0.095,0.161,0.193,0.292,0.296,0.393s0.206,0.179,0.31,0.237c0.104,0.057,0.211,0.095,0.322,0.115l-1.447,0.172L162.973,57.715z"
		/>
	<path d="M171.029,67.403c0.088-0.19,0.186-0.384,0.293-0.582c0.106-0.197,0.23-0.383,0.368-0.555
		c0.139-0.171,0.297-0.321,0.477-0.448c0.178-0.127,0.378-0.218,0.6-0.272c0.277-0.067,0.539-0.066,0.787,0.004
		s0.471,0.186,0.669,0.348c0.199,0.161,0.369,0.358,0.51,0.592c0.14,0.234,0.242,0.481,0.306,0.743
		c0.05,0.206,0.072,0.433,0.065,0.682c-0.007,0.25-0.053,0.491-0.139,0.726c-0.085,0.235-0.217,0.444-0.394,0.63
		c-0.178,0.186-0.413,0.314-0.705,0.385c-0.428,0.104-0.828,0.034-1.202-0.211c-0.374-0.244-0.749-0.589-1.126-1.035
		c-0.066,0.275-0.162,0.559-0.284,0.849c-0.122,0.289-0.272,0.563-0.448,0.82c-0.177,0.256-0.381,0.48-0.611,0.67
		c-0.23,0.19-0.488,0.32-0.773,0.389c-0.27,0.065-0.55,0.073-0.843,0.022c-0.293-0.05-0.569-0.159-0.828-0.327
		c-0.259-0.167-0.489-0.391-0.69-0.669c-0.202-0.277-0.351-0.614-0.446-1.011c-0.081-0.332-0.107-0.665-0.08-0.999
		c0.028-0.335,0.11-0.646,0.245-0.934c0.135-0.289,0.322-0.539,0.56-0.752c0.237-0.212,0.526-0.36,0.866-0.442
		c0.277-0.068,0.541-0.078,0.792-0.029c0.251,0.047,0.492,0.136,0.725,0.264s0.456,0.292,0.673,0.491
		C170.609,66.952,170.821,67.168,171.029,67.403z M166.773,69.091c0.06,0.245,0.161,0.472,0.304,0.68
		c0.143,0.21,0.313,0.381,0.51,0.518c0.196,0.137,0.412,0.233,0.648,0.29c0.235,0.055,0.477,0.054,0.722-0.006
		c0.309-0.075,0.562-0.216,0.759-0.423c0.196-0.207,0.364-0.449,0.502-0.726c0.139-0.275,0.264-0.577,0.373-0.901
		c0.11-0.324,0.231-0.642,0.366-0.95c-0.235-0.245-0.461-0.44-0.677-0.583c-0.215-0.146-0.427-0.251-0.636-0.317
		c-0.21-0.066-0.422-0.098-0.639-0.091s-0.439,0.037-0.669,0.093c-0.27,0.066-0.517,0.178-0.742,0.337
		c-0.226,0.16-0.408,0.347-0.549,0.562c-0.142,0.214-0.237,0.454-0.291,0.718C166.701,68.555,166.708,68.821,166.773,69.091z
		 M173.172,66.127c-0.214,0.052-0.403,0.144-0.567,0.276c-0.165,0.132-0.311,0.293-0.437,0.483s-0.234,0.399-0.325,0.626
		c-0.092,0.228-0.172,0.463-0.238,0.705c0.153,0.147,0.311,0.284,0.471,0.408c0.16,0.125,0.33,0.229,0.509,0.31
		c0.18,0.083,0.372,0.136,0.58,0.162c0.207,0.024,0.43,0.008,0.668-0.049c0.411-0.1,0.717-0.311,0.915-0.631
		c0.199-0.322,0.247-0.691,0.146-1.11c-0.054-0.222-0.14-0.417-0.256-0.587c-0.116-0.167-0.254-0.302-0.412-0.402
		c-0.158-0.101-0.328-0.168-0.509-0.204C173.535,66.08,173.354,66.084,173.172,66.127z"/>
</g>
<path d="M7.859,91.029L7.859,91.029L7.859,91.029c-1.744,0.788-3.142,2.185-3.929,3.929l0,0l0,0C3.142,93.214,1.744,91.817,0,91.029
	h0h0c1.744-0.788,3.142-2.185,3.929-3.929h0h0C4.717,88.844,6.114,90.241,7.859,91.029z"/>
<path d="M178.658,91.742L178.658,91.742L178.658,91.742c-1.744,0.788-3.142,2.185-3.929,3.929l0,0l0,0
	c-0.788-1.744-2.185-3.142-3.929-3.929l0,0l0,0c1.744-0.788,3.142-2.185,3.929-3.929v0v0
	C175.516,89.557,176.913,90.954,178.658,91.742z"/>
</svg>
